<?xml version="1.0" encoding="UTF-8"?>
<svg id="Background" xmlns="http://www.w3.org/2000/svg" viewBox="0 0 538.4046 387.3008">
  <defs>
    <style>
      .cls-1 {
        fill: #b12f32;
      }

      .cls-1, .cls-2, .cls-3, .cls-4, .cls-5, .cls-6, .cls-7, .cls-8, .cls-9, .cls-10, .cls-11, .cls-12, .cls-13, .cls-14, .cls-15, .cls-16, .cls-17, .cls-18, .cls-19, .cls-20, .cls-21, .cls-22, .cls-23 {
        stroke-width: 0px;
      }

      .cls-2 {
        fill: #efd3b6;
      }

      .cls-3 {
        fill: #ecf5e3;
      }

      .cls-4, .cls-21 {
        fill: #2bb673;
      }

      .cls-5 {
        fill: #99765a;
      }

      .cls-5, .cls-11, .cls-12, .cls-20, .cls-21, .cls-22 {
        fill-rule: evenodd;
      }

      .cls-6 {
        fill: #8dc63f;
      }

      .cls-7 {
        fill: #031a30;
      }

      .cls-8 {
        fill: #662d91;
      }

      .cls-9 {
        fill: #eda482;
      }

      .cls-10 {
        fill: #1c75bc;
      }

      .cls-11 {
        fill: #89c6cd;
      }

      .cls-12 {
        fill: #69a1ac;
      }

      .cls-13 {
        fill: #939598;
      }

      .cls-14 {
        fill: #f4856f;
      }

      .cls-15 {
        fill: #f7941d;
      }

      .cls-16 {
        fill: #d1d3d4;
      }

      .cls-17 {
        fill: #fbb040;
      }

      .cls-18 {
        fill: #ba6038;
      }

      .cls-19 {
        fill: #f9f0d2;
      }

      .cls-20 {
        fill: #e4e4e4;
      }

      .cls-22, .cls-23 {
        fill: #b28b68;
      }
    </style>
  </defs>
  <g>
    <path class="cls-3" d="m360.4657,364.8621c-13.2053,1.0073-29.2529-1.18-34.8306-13.1911-2.7119-5.8416-2.6104-13.5064-7.809-17.3075-3.6446-2.6653-8.6071-2.3452-13.0851-1.78-70.5552,8.9299-134.6666,49.9475-205.6332,54.5522-10.7987.7015-23.641-.5215-29.1681-9.8243-3.4974-5.8869-2.8533-13.3474-1.0591-19.9559,4.7539-17.5263,16.4486-32.2811,23.6077-48.9683,1.1521-2.6862,2.2066-5.5905,1.7116-8.4691-1.3538-7.8577-11.8693-9.3498-19.8317-8.9425-12.1539.6209-24.3106,1.2414-36.4646,1.8623-5.658.289-13.6052-1.7174-12.8219-7.3274.3295-2.368,2.3088-4.1148,4.1706-5.6115,40.6787-32.7248,91.9567-57.5475,113.8283-104.9532,3.9302-8.5171,6.4669-19.3704.5466-26.6439-6.3288-7.7708-18.3294-6.8157-28.087-4.5274-30.8125,7.2275-60.1539,20.6366-91.508,24.963-4.4195.6084-9.0632,1.0107-13.2241-.6022C4.191,165.5631.3186,158.2424.0226,151.1491c-.2962-7.091,2.3651-13.9755,5.5708-20.3103,23.909-47.2139,76.2628-71.5934,125.0301-92.1564,30.1333-12.7085,61.5465-25.4908,94.2194-24.1502,9.6367.3957,21.5641,4.3653,22.3723,13.9742.5916,7.0463-4.6936,16.2884,1.3662,19.9326C289.9565,26.1067,334.8513,10.3099,381.0963,1.8159c16.1154-2.9576,35.7145-3.7693,45.6565,9.2508,9.044,11.8487,5.0487,28.698.65,42.9399-3.261,10.5646-6.525,21.1293-9.787,31.6967-.8336,2.6981-1.6551,5.6788-.5282,8.2714,1.2379,2.8404,4.4118,4.2573,7.386,5.131,23.8131,7.0036,50.0161-4.5698,73.9797,1.901,3.7055.9983,7.6385,2.7361,9.2149,6.2317,2.4906,5.5211-2.1725,11.4391-6.3192,15.8567-13.1871,14.0385-24.6665,29.6755-34.1084,46.4643-3.2248,5.7306-6.2371,12.7942-3.156,18.6032,1.7188,3.2464,5.0347,5.3331,8.4104,6.7832,20.4316,8.7814,49.4646,1.217,61.7555,19.7513,7.7169,11.6353,3.5161,27.4143-3.1351,39.6888-17.8032,32.8435-48.5946,52.4088-77.777,73.8999-27.8044,20.4743-57.9739,33.9132-92.8728,36.5761Z"/>
    <polygon class="cls-15" points="209.3387 218.088 200.5348 218.088 185.1775 94.7571 193.9814 94.7571 209.3387 218.088"/>
    <polygon class="cls-17" points="212.615 218.088 205.6818 218.088 190.3245 94.7571 197.2581 94.7571 212.615 218.088"/>
    <polygon class="cls-19" points="247.7129 214.6053 167.65 214.6053 157.3831 107.1956 237.4458 107.1956 247.7129 214.6053"/>
    <path class="cls-2" d="m230.7657,142.5864c.4007,1.9701.3738,4.4285-1.3302,5.4952-.8288.5186-1.9852.6479-2.4597,1.5026-.3328.5992-.191,1.3407-.0214,2.0045,2.6754,10.4592,10.0627,19.3428,12.0944,29.9455.3093,1.6134.3672,3.5708-.9298,4.5788-.8208.6378-1.9567.6815-2.9859.5358-2.7296-.3856-5.1726-1.8689-7.8211-2.6327-.4263-.1229-.8837-.227-1.308-.0981-1.1581.3521-1.1845,1.9641-.973,3.1558.3227,1.819.6454,3.6384.9681,5.4575.1502.8468-.0021,2.0817-.8619,2.0695-.3629-.005-.6633-.2702-.9239-.5224-5.6963-5.5103-10.4021-12.7661-17.9551-15.1668-1.357-.4314-3.0397-.6089-4.0236.4201-1.0512,1.0998-.681,2.8894-.1524,4.316,1.6696,4.5049,4.2427,8.6717,5.4855,13.313.175.6542.3231,1.3461.1586,2.0033-.2627,1.0452-1.2924,1.7666-2.3552,1.9449-1.0625.1783-2.1497-.0927-3.1643-.4562-7.5625-2.7111-12.2219-10.1374-16.2388-17.0954-2.4824-4.2993-5.0001-8.79-5.4142-13.7367-.1221-1.459.2509-3.3305,1.6831-3.6334,1.0502-.222,2.542.3999,2.9766-.5816-4.144-5.8112-7.37-12.2757-9.5214-19.0813-.7494-2.3717-1.2412-5.3085.5326-7.0516,1.6142-1.5857,4.2275-1.3016,6.4557-.9076,1.6528.292,3.3057.5844,4.9589.8765.4221.0747.8866.1422,1.2559-.0764.4045-.24.5581-.7448.6336-1.2093.6059-3.719-1.6314-7.4476-1.1086-11.1792.0805-.577.2681-1.2022.7649-1.5055.7847-.4793,1.764.1115,2.5076.6529,2.3632,1.7216,4.9351,3.1559,7.6419,4.2616.924.3777,2.0448.6982,2.8617.1246.4566-.3201.7084-.8589.8632-1.3947.9375-3.2431-.7494-7.4737,1.8107-9.6745,1.6071-1.3818,4.0631-1.0465,6.0374-.2761,5.2828,2.0624,8.8105,6.3315,12.5979,10.322,3.6083,3.8021,6.2014,8.093,7.2605,13.2996Z"/>
    <path class="cls-2" d="m184.0026,127.7565c.1335.4553.2422.9941-.052,1.3667-.1901.2404-.5039.3449-.8057.3969-2.0821.3584-3.9712-1.1627-5.9958-1.7649-.3508-.1041-.7536-.1745-1.0624.0214-.2073.1317-.3314.3608-.4192.5904-.5912,1.5462.055,3.5125-.9953,4.7924-1.7174-1.6004-3.4508-3.2188-4.7693-5.1612-1.3184-1.9424-2.2046-4.2658-2.0242-6.6068.0252-.3277.0873-.6848.3374-.8979.295-.2518.733-.2081,1.1154-.1422,1.3918.2412,2.764.5954,4.0987,1.0586.1758.0613.3705.1237.5429.0533.1633-.0671.2585-.2362.3231-.4003.3642-.9253.1796-2.0968.8732-2.8089.7268-.746,2.0037-.5173,2.8856.0374,3.3989,2.1371,4.8465,5.7088,5.9475,9.4651Z"/>
    <polygon class="cls-2" points="157.3831 107.1956 167.65 214.6053 247.7129 214.6053 170.0883 211.6109 159.7945 107.1956 157.3831 107.1956"/>
    <polygon class="cls-15" points="258.8715 373.1191 268.0215 373.1191 232.7559 217.9454 223.6058 217.9454 258.8715 373.1191"/>
    <polygon class="cls-15" points="157.5538 373.1191 150.9818 373.1191 186.2475 217.9454 192.8195 217.9454 157.5538 373.1191"/>
    <rect class="cls-15" x="186.2475" y="217.9454" width="9.15" height="155.1738"/>
    <rect class="cls-17" x="189.826" y="217.9454" width="5.5716" height="155.1738"/>
    <polygon class="cls-17" points="262.7794 373.1191 269.2023 373.1191 233.9366 217.9454 227.5137 217.9454 262.7794 373.1191"/>
    <rect class="cls-15" x="174.616" y="214.6056" width="69.1966" height="6.6785"/>
    <rect class="cls-17" x="179.6966" y="214.6056" width="64.116" height="6.6785"/>
  </g>
  <g>
    <polygon class="cls-15" points="269.2023 148.6559 235.6501 142.9164 235.2803 145.1726 268.4864 150.1743 269.2023 148.6559"/>
    <path class="cls-18" d="m230.3366,147.0628c.8819.3061,1.8483.39,2.8705.1822,1.2727-.2589,2.6301-1.0196,3.3877-2.09,1.2813-1.8167-.2727-3.8043-1.8989-4.6555-.5537-.287-1.1424-.5191-1.7562-.6114-.1049-.0142-.2138-.0254-.3192-.0324-.1056-.0073-.2149-.0109-.3257-.0072-.379.0091-.762.0618-1.1397.1368-1.8578.35-3.556,1.2224-5.4942.8855-.8508-.1449-.6715.1814-.3922.859.9531,2.2782,2.7426,4.5465,5.0679,5.3329Z"/>
    <path class="cls-9" d="m268.4061,161.1098c.3573.0865.7192.1545,1.0808.205,2.5882.3627,7.6113.31,9.5781-1.8895.5541-.6213.5996-1.8652.731-2.676.3123-1.956.6267-4.9155.0449-6.8348-.7523-2.4849-3.0687-4.5975-5.098-6.0656-.255-.1842-.5204-.3673-.8255-.4435-.2408-.061-.4937-.0509-.7423-.041-1.9496.0779-3.8993.1558-5.849.2336-.1989.0078-.4101.0198-.5765.1302-.1464.0972-.2366.2578-.3218.4124-1.2877,2.3463-1.8662,3.5325-4.7777,3.3862-2.5512-.1287-5.2441-.4868-7.553.6081-.0028,1.0735.6633,2.0533,1.4953,2.7315.8311.6785,1.8269,1.1173,2.7732,1.624.496.2651,1.0084.5783,1.256,1.0834.1609.3269.1936.7042.3443,1.0362.4221.9281,1.5817,1.2153,2.3714,1.8608.6346.5199,1.0237,1.2727,1.5292,1.9192,1.1091,1.4175,2.7765,2.2922,4.5394,2.7197Z"/>
  </g>
  <g>
    <path class="cls-5" d="m338.934,212.777l-13.0059,153.7103h9.6508s12.3084-70.6432,12.3084-70.6432l25.4088-83.0671h-34.3621Z"/>
    <path class="cls-22" d="m344.1048,212.777c9.7865,43.6328,15.8141,68.5089,18.0842,74.6283,2.2694,6.1194,9.0127,30.3392,28.8018,76.9416l10.2837,3.5314c-12.5213-50.8116-17.8109-77.6796-18.1971-81.8233s-2.4173-27.6694-.6914-73.2779h-38.2811Z"/>
    <path class="cls-20" d="m395.2157,364.7567c-1.8511,0-4.8118-1.3815-4.8118-1.3815l-1.1377-2.7603c-.1452-.3518-.5516-.5145-.8994-.3592l-17.7006,7.8912s-2.1154.3153-5.3139.7063c-3.1985.3916-1.7137,5.299-1.7137,5.299,0,0,35.9643,0,38.0831,0,0,0,.6085-3.5037.6085-5.3301,0-1.1458-.6597-3.1789-1.1513-4.534-.2695-.7434-1.1295-1.0655-1.8531-.7475-1.2127.5334-2.9831,1.2161-4.1101,1.2161Z"/>
    <path class="cls-20" d="m331.7457,364.7567c-1.8507,0-4.8115-1.3815-4.8115-1.3815l-1.1377-2.7603c-.1452-.3518-.5516-.5145-.8994-.3592l-17.7006,7.8912s-2.1154.3153-5.3139.7063c-3.1985.3916-1.7137,5.299-1.7137,5.299,0,0,35.9644,0,38.0832,0,0,0,.6084-3.5037.6084-5.3301,0-1.1458-.6597-3.1789-1.1512-4.534-.2694-.7434-1.1296-1.0655-1.8534-.7475-1.2127.5334-2.9831,1.2161-4.11,1.2161Z"/>
    <path class="cls-12" d="m337.7909,212.777l-4.9196,42.3222h32.9975s10.8034-42.3222,10.8034-42.3222h-38.8813Z"/>
    <path class="cls-11" d="m341.8422,212.777l9.2598,42.3222h33.6727s3.3065-26.3393-2.0256-42.3222h-40.9069Z"/>
  </g>
  <path class="cls-8" d="m333.781,97.4972c-1.1653,1.4381-2.0754,3.2575-1.78,5.0844.2207,1.3667,1.0892,2.5479,2.0947,3.4996.5652.535,1.2546,1.0419,2.0321,1.0167.9991-.0332,1.7414-.9126,2.2844-1.7515,1.9692-3.0434,3.1307-6.5274,4.2301-9.9816.2799-.8791.5862-2.4673-.6298-2.824-.7595-.2224-2.0557.5216-2.7279.8094-2.1316.9126-4.0429,2.3443-5.5036,4.1469Z"/>
  <path class="cls-8" d="m376.4326,114.1906c1.0432.7205,2.0254,1.5513,2.6729,2.5605.7998,1.2475,1.0302,2.6725,1.1309,4.0501.2396,3.2856-.196,6.6235-1.8887,9.4018-1.6927,2.7783-4.7693,4.9308-8.4443,5.2485-4.29.3709-8.7018-1.757-11.9807-4.554-1.8035-1.5388-3.3845-3.3221-4.3459-5.3279-1.9117-3.9879-.9676-9.0086,1.6898-12.2295,2.4245-2.9394,8.6716-3.0922,12.5938-2.4841,3.051.4725,6.0516,1.594,8.5722,3.3346Z"/>
  <path class="cls-14" d="m319.3337,195.0098c.0776-.4662.2669-1.1858-.0831-1.5966-.3252-.3819-1.1442-.658-1.5928-.8771-1.1615-.5673-2.3842-1.0079-3.6389-1.3176-2.5093-.6189-5.1511-.7133-7.6931-.2396-1.2089.2253-2.4589.6126-3.2881,1.5207-.7716.8451-1.0658,2.017-1.6918,2.9755-.3726.5706-.8699,1.0784-1.0776,1.7275-.3215,1.0058.0273,2.3443.381,3.3028.4179,1.1304.9182,2.2311,1.4956,3.2889.323.5908.6734,1.1737,1.1342,1.665.4128.441.9055.7989,1.3947,1.1535.5535.4016,1.1091.8044,1.7087,1.133,1.2068.6613,2.558,1.0049,3.8982,1.315,2.5252.5841,5.2208,1.0642,7.6642.2002.167-.0592.3428-.1326.4406-.2808.099-.1494.0969-.3412.0923-.5204-.1217-4.4743.1201-9.0354.856-13.4501Z"/>
  <path class="cls-7" d="m365.2571,148.3452s10.0748,9.2196-2.1707,33.1962c-6.3319,12.3977-16.8951,27.2319-16.8951,27.2319,0,0-13.5115-8.7594-13.1854-10.6514,1.605-9.301,10.5058-22.129,15.8684-43.0053,2.5907-10.0866,10.3342-12.1758,16.3829-6.7712Z"/>
  <path class="cls-23" d="m339.9059,189.3715s-5.6774,3.1668-21.6641,4.894c0,0-1.0994,1.4975-.1892,7.2026,0,0,20.213,6.1414,37.8723-.5824l-3.5658-3.4018-12.4532-8.1124Z"/>
  <path class="cls-23" d="m354.1563,119.8218c.1599.4846.1843,1.3109.2531,1.649.3046,1.503.7489,2.9776,1.3221,4.4.5518,1.3692,1.2232,2.6901,2.0041,3.9427.4023.6449.8342,1.2719,1.2932,1.8778.4037.5325,1.2236,1.1736,1.4632,1.7854.9982,2.5504-6.3331,4.2087-7.7917,5.1486-1.6168,1.0411-3.291,2.2193-4.7613,3.4584-.2539.2136-2.9264,2.6516-2.8794,2.1232.3709-4.1696,2.5973-8.0976,1.6788-12.3549-.6655-3.0858-3.0354-5.7461-6.0244-6.7624,3.3086-2.4061,7.5056-3.8122,11.3723-5.0366.3945-.125,1.4334-.7695,1.8359-.5837.1015.047.1766.1775.2341.3525Z"/>
  <path class="cls-23" d="m334.2945,117.4706c.1049.6957.2203,1.3927.277,2.0939.1565,1.9327.4259,3.8562.8061,5.7574.0373.1854.0789.3785.1955.5274.1368.1742.355.2614.5681.3222,1.193.3387,2.4682.0659,3.6624-.2693,1.6508-.4629,3.4962-.8401,5.016-1.6088,1.4615-.7394,2.9226-1.4787,4.384-2.2177.9739-.4926,1.9487-.9857,2.8844-1.5471.9156-.5492,1.7909-1.1623,2.6657-1.7745,2.5374-1.7766,5.0576-3.7253,6.6743-6.4263.4544-.7595.7679-1.5945,1.0457-2.435,1.4007-4.2381-.3738-9.5596-3.951-12.2229-3.6804-2.7401-8.6179-3.4064-13.1313-2.5789-4.8502.8829-8.0679,4.5503-9.6829,9.0334-1.2605,3.4995-1.5764,7.2282-1.6323,10.9215-.0121.8103.0961,1.6168.2182,2.4245Z"/>
  <path class="cls-8" d="m345.5221,108.1658c-1.4334-1.349-2.8412-2.7388-4.0841-4.2683-.6382-.786-1.2336-1.6096-1.7472-2.4829-.2471-.4204-.4745-1.7174-.9227-1.9264-.6202-.2895-1.138.5522-1.6503.9005-.1624.1108-.3441.2186-.5409.2081-2.0394-.1074.9462-4.9627,1.3973-5.4524.5526-.6001,1.1921-1.1129,1.8374-1.611,8.1799-6.3151,26.2924-3.2817,25.295,9.5088-.2706,3.4727-1.8849,6.6957-3.719,9.6569-1.8337,2.9612-3.9275,5.7856-5.3345,8.9721-.2471.5598-2.8609-3.489-3.0044-3.727-1.1091-1.8433-2.213-3.6971-3.085-5.6677-.2719-.6151-.861-.9706-1.3822-1.4095-.587-.4946-1.1711-.9931-1.746-1.5022-.4435-.3927-.8825-.7918-1.3134-1.1992Z"/>
  <path class="cls-4" d="m343.2914,208.4861c-.342-5.5192-.9266-11.0228-1.7498-16.4903-.6193-4.1113-.7557-8.4878-2.6108-12.2908-.9441-1.9361-2.5004-3.5365-3.6967-5.3237-1.2962-1.9361-2.4627-3.9586-3.4895-6.0503-.8728-1.7774-1.6604-3.6892-1.5454-5.6664.1473-2.5294,1.7313-4.7215,3.3095-6.7037,5.0693-6.368,10.7289-12.2661,16.8821-17.5939,1.5299-1.3243,3.0925-2.6171,4.7492-3.7811,2.153-1.5127,3.7173-3.9178,5.7377-1.0226,2.9507,4.2284,5.7176,8.8869,7.6369,13.6772,4.3636,10.8914,3.8584,23.0307,5.6543,34.6254.7595,4.9048,1.942,9.7438,3.5264,14.4476.8225,2.4426,1.7532,4.8482,2.7891,7.2081.4818,1.0969,3.1043,3.9192,1.8573,5.1025-.8157.7733-2.0418.8728-3.1647.9299-3.0472.1548-5.9967.5996-9.0259.772-2.6775.1527-5.3898.0357-8.0569.3319-1.4124.1498-2.8286.2674-4.2439.3822-5.0169.4062-9.4286-.0335-14.3566-.6357-.1536-.6332-.1616-1.2618-.2022-1.9184Z"/>
  <polygon class="cls-19" points="382.5257 213.0674 350.3408 217.081 350.3408 210.783 381.8631 208.5729 382.5257 213.0674"/>
  <path class="cls-19" d="m384.3313,205.726c.3705-.2371.7909-.4541,1.2273-.4045.7935.0906,1.2282,1.0041,1.25,1.8022.0348,1.2803-.5996,2.5056-1.4698,3.4454-1.0671,1.1527-5.134,4.4315-5.1784.9193-.0256-2.0515,2.6095-4.7634,4.1709-5.7624Z"/>
  <path class="cls-19" d="m380.7344,209.2188s8.8487,54.2917,5.7,85.3205h7.0327s-1.3323-55.7112-11.3501-85.3205h-1.3825Z"/>
  <path class="cls-19" d="m364.0675,139.0692s-25.4916,11.0966-12.9898,73.7179c0,0-.1649,62.8235,6.5635,102.8791,0,0-23.5657,4.8179-36.5061-1.7586,0,0,15.4807-54.9261,15.6829-101.1205.0567-12.9102-7.3108-41.3622-6.6302-50.6562l13.1535-2.0939s6.9995-19.811,19.2605-23.8863l1.4656,2.9184Z"/>
  <path class="cls-10" d="m347.2025,229.7507c1.6679,1.146,2.1094,3.7325.916,5.3668-.6852.9387-1.7799,1.5371-2.38,2.5315-.3302.5468-.7444,1.3171-1.3532,1.1246-.8539-.2706-.2996-1.9093-1.1141-2.2835-.1515-.0697-.3247-.0755-.4817-.1322-.3454-.125-.5573-.4704-.7049-.8069-.9186-2.0967-.2128-4.7822,1.6184-6.1565-.9995-1.0202-1.4439-2.516-1.3151-3.9385.1783-1.9717,2.1887-5.9445,4.7706-4.7042,2.5545,1.227.6395,7.0063.044,8.999Z"/>
  <path class="cls-1" d="m336.9846,178.244c-.3214-.1675-.4985-.5161-.6474-.8459-.8308-1.8396-1.4258-3.7853-1.7653-5.7747-.2581-1.5089-.3474-3.1501.407-4.4823.0562-.0994.1309-.206.2438-.224.133-.021.2471.0898.3365.1917,1.8958,2.1559.8531,4.1831,2.0666,6.3995.9786,1.7884,2.4409,2.9259,1.0575,5.2032-.1847-.2518-.6039-.4297-.7998-.7167-.2135.2388-.5795.4158-.8988.2493Z"/>
  <path class="cls-13" d="m311.86,188.7543c-5.361-3.3762-11.4641-8.2017-18.1947-6.6005-1.4833.3529-3.5163,1.1112-4.346,2.4698-.9588,1.5707-.754,4.2771-.5228,6.0072,1.104,8.2591,5.6035,17.0622,12.0873,22.4147,4.473,3.6925,10.1713,7.1593,16.2045,6.3965,4.5889-.5803,10.317-3.7954,10.7986-8.8836.2392-2.5244-.5467-5.0441-1.6356-7.334-1.3935-2.9309-3.2998-5.6169-5.6064-7.8995-2.6016-2.5747-5.6774-4.6136-8.785-6.5707Z"/>
  <path class="cls-16" d="m312.2305,188.0828c-5.3605-3.3757-11.4638-8.2012-18.1943-6.6001-1.4838.3529-3.5163,1.1107-4.3459,2.4695-.9588,1.571-.7545,4.2775-.5233,6.0071,1.104,8.2592,5.6039,17.0626,12.0877,22.4147,4.4731,3.6926,10.1713,7.1599,16.2045,6.3966,4.5884-.5803,10.3165-3.7954,10.7986-8.8831.2392-2.5248-.5468-5.0442-1.6356-7.3344-1.3935-2.9306-3.2999-5.6169-5.6065-7.8996-2.6015-2.5747-5.6773-4.6136-8.7853-6.5707Z"/>
  <path class="cls-23" d="m305.6557,189.3358c.136.1918.277.3797.4183.5665,1.4599,1.9277,3.9083,2.7715,4.4004,5.2145.3797,1.8828.2703,3.2213,2.6788,3.3019.8228.0273,1.6743-.0748,2.3906-.48,2.9851-1.6877,2.0107-5.1931-.1608-7.0499-1.3083-1.1187-2.92-1.8078-4.4986-2.4938-1.5785-.6865-3.1819-1.4061-4.4499-2.5701-.3688-.3391-.8984-.7368-1.3067-.4465-.1124.0802-.1884.2014-.2488.3253-.3374.6902-.2757,1.5219-.0038,2.2403.1892.4994.4708.955.7805,1.3918Z"/>
  <path class="cls-1" d="m296.9509,192.5135l-.0193.1048c-.1304.6126-.7397,1.1687-1.3435,1.0021-.5502-.1515-.8401-.7994-1.3814-.981-.1946-.0655-.4082-.0646-.5987-.141-.4129-.1662-.6017-.634-.7436-1.0553-.5022-1.4934-.9537-3.1345-.4116-4.6132.1892-.5173.5526-1.0305,1.0915-1.1442.483-.102.9856.1548,1.3112.5262.4477.5111.6685,1.2412.9714,1.8382.329.6479.6101,1.2841.7796,1.9948.1716.7176.4599,1.7175.3445,2.4686Z"/>
  <path class="cls-6" d="m302.2321,203.4444c.2128.3911.3374.7885.227,1.1388-.6463,2.0461-3.7153-.2442-4.5105-.8535-.5866-.4494-1.2236-.9886-1.2781-1.7254-.0239-.3227.0713-.6461.042-.9684-.0323-.3474-.2056-.6626-.3294-.9886-.1905-.5014-.264-1.0675-.0873-1.574.1767-.5064.642-.9311,1.1778-.9525.7729-.031,1.3331.6991,1.7502,1.3499.6664,1.0394,1.3327,2.0783,1.999,3.1173.2404.3747.7112.9093,1.0092,1.4565Z"/>
  <path class="cls-10" d="m311.0427,210.871l.0578.0415c.6235.4457,1.2945.6643,1.7313,1.3361.415.6382.4947,1.5627-.0265,2.1178-.5233.5576-1.1253.3377-1.7791.4519-.5463.0948-.8669.3432-1.4649.24-1.3809-.2392-2.5659-1.4456-3.4034-2.4849-.5283-.6554-1.0264-1.4762-.8145-2.2916.1843-.7074.8502-1.1757,1.5072-1.4963.2153-.1048.4432-.2031.6828-.2056.3847-.0038.7242.235,1.0339.4632.8249.6089,1.6415,1.2308,2.4753,1.8279Z"/>
  <path class="cls-17" d="m310.4359,202.8481c.2501.2907.5039.5862.7851.8703.7205.728,1.7241,1.8298.6571,2.8474-1.1992,1.1435-3.252-.3038-4.2574-1.0238-1.3796-.9886-2.8264-2.1425-3.2276-3.7916-.0924-.3785-.1225-.7851.0071-1.1522.1292-.3675.4444-.6865.8304-.7368.493-.0642.9256.2929,1.3662.5236.4905.2569,1.0436.3668,1.5564.5762,1.0108.4133,1.6348,1.1346,2.2826,1.887Z"/>
  <path class="cls-21" d="m268.8598,173.6197l4.1413-30.4379c11.8468,1.9574,28.0208,3.3878,46.9871,1.4043,17.0628-1.7844,31.2456-5.7945,41.8332-9.6454.5433.744,1.0977,1.5554,1.649,2.4354.6178.9861,1.157,1.9391,1.6277,2.8422-8.6467,7.3175-22.5771,17.3369-41.8551,24.5426-22.4939,8.4078-42.3214,9.267-54.3832,8.8588Z"/>
</svg>