<?xml version="1.0" encoding="utf-8"?>
<!-- Generator: Adobe Illustrator 28.0.0, SVG Export Plug-In . SVG Version: 6.00 Build 0)  -->
<svg version="1.1" id="Layer_1" xmlns="http://www.w3.org/2000/svg" xmlns:xlink="http://www.w3.org/1999/xlink" x="0px" y="0px"
	 viewBox="0 0 130 130" style="enable-background:new 0 0 130 130;" xml:space="preserve">
<style type="text/css">
	.st0{fill:#FFE510;}
	.st1{fill:#E468FF;}
	.st2{fill:#113F64;}
</style>
<path class="st0" d="M113.4,25.6c1-1,1-2.7,0-3.7l-6.1-6.1c-1-1-2.7-1-3.7,0l-4.8,4.8l9.8,9.8 M67.3,52.1v9.8H77l28.8-28.8l-9.8-9.8
	L67.3,52.1z"/>
<g>
	<rect x="42.2" y="72.2" class="st1" width="34.2" height="8.5"/>
	<rect x="42.2" y="89.3" class="st1" width="34.2" height="8.5"/>
	<path class="st1" d="M42.2,55.1H60v-6.1l7.8-7.8v-3.3c0-2.3-0.9-4.4-2.5-6c-1.6-1.6-3.8-2.5-6-2.5c-2.3,0-4.4,0.9-6,2.5
		c-1.6,1.6-2.5,3.8-2.5,6v4.3c-2.3,0-4.4,0.9-6,2.5c-1.6,1.6-2.5,3.8-2.5,6V55.1z"/>
	<path class="st1" d="M84.9,64.3v42.1H33.6V42.3h8.5v-8.5h-8.5c-2.3,0-4.4,0.9-6,2.5c-1.6,1.6-2.5,3.8-2.5,6v64.1
		c0,2.3,0.9,4.4,2.5,6c1.6,1.6,3.8,2.5,6,2.5h51.3c2.3,0,4.4-0.9,6-2.5c1.6-1.6,2.5-3.8,2.5-6V55.8L84.9,64.3z"/>
</g>
<path class="st2" d="M113.4,25.6c1-1,1-2.7,0-3.7l-6.1-6.1c-1-1-2.7-1-3.7,0l-4.8,4.8l9.8,9.8 M67.3,52.1v9.8H77l28.8-28.8l-9.8-9.8
	L67.3,52.1z"/>
</svg>
