<?xml version="1.0" encoding="UTF-8"?>
<svg id="Background" xmlns="http://www.w3.org/2000/svg" viewBox="0 0 792 612">
  <defs>
    <style>
      .cls-1 {
        fill: #404042;
      }

      .cls-1, .cls-2, .cls-3, .cls-4, .cls-5, .cls-6, .cls-7, .cls-8, .cls-9, .cls-10, .cls-11, .cls-12, .cls-13, .cls-14, .cls-15, .cls-16, .cls-17, .cls-18, .cls-19 {
        stroke-width: 0px;
      }

      .cls-1, .cls-2, .cls-3, .cls-8, .cls-9, .cls-10, .cls-12, .cls-15, .cls-17 {
        fill-rule: evenodd;
      }

      .cls-2 {
        fill: #232323;
      }

      .cls-3 {
        fill: #e82f27;
      }

      .cls-4 {
        fill: #122b38;
      }

      .cls-5 {
        fill: #5a301e;
      }

      .cls-6 {
        fill: #b2957e;
      }

      .cls-7 {
        fill: #f04a23;
      }

      .cls-8 {
        fill: #3c2415;
      }

      .cls-9, .cls-16 {
        fill: #e8b17f;
      }

      .cls-10 {
        fill: #122c3d;
      }

      .cls-11 {
        fill: #ced1ea;
      }

      .cls-12 {
        fill: #603913;
      }

      .cls-13 {
        fill: #9e8d7b;
      }

      .cls-14 {
        fill: #ebe2db;
      }

      .cls-15 {
        fill: #f8e8e7;
      }

      .cls-17 {
        fill: #573515;
      }

      .cls-18 {
        fill: #c9bbaf;
      }

      .cls-19 {
        fill: #f99b1c;
      }
    </style>
  </defs>
  <path class="cls-11" d="m645.4253,442.9405c1.3477,9.8795,1.3604,21.0157-10.4984,24.5486-7.6608,2.2769-18.42.6553-28.4521-1.7924-69.2203-16.9081-120.0964-66.201-181.2656-100.1249-10.5998-5.8726-23.0871-11.7142-34.2775-11.5965-7.5112.0836-12.9811,2.8954-17.2833,6.1266-28.9858,21.7643-20.921,65.2195-62.9378,76.9034-44.8492-48.815-90.0954-98.1423-119.9143-148.7443-29.8188-50.602-43.287-103.3316-22.3698-144.3489,2.9252-5.7422,7.2285-11.6092,16.6409-12.7065,11.106-1.301,24.8989,4.4451,36.7585,9.9723,43.1656,20.144,84.9692,42.1424,124.8673,65.7265,5.2539,3.1111,11.1075,6.4577,17.1021,7.1072,5.6801.6085,9.8324-1.4273,12.9686-3.7151,17.6791-12.9063,19.3146-36.5358,46.2017-41.8035,28.1718-5.5176,67.7261,13.0986,92.4833,33.254,95.4123,77.6612,118.8597,159.6868,129.9762,241.1935Z"/>
  <g>
    <g>
      <g>
        <path class="cls-5" d="m399.5237,479.6708h0c0-1.7175,1.3923-3.1098,3.1098-3.1098h30.6693c1.7175,0,3.1098,1.3923,3.1098,3.1098h0c0,1.7175-1.3923,3.1098-3.1098,3.1098h-30.6693c-1.7175,0-3.1098-1.3923-3.1098-3.1098Z"/>
        <rect class="cls-5" x="414.8584" y="359.7825" width="6.2197" height="122.9981"/>
      </g>
      <g>
        <path class="cls-5" d="m491.4937,479.6708h0c0-1.7175,1.3923-3.1098,3.1099-3.1098h30.6694c1.7175,0,3.1098,1.3923,3.1098,3.1098h0c0,1.7175-1.3923,3.1098-3.1098,3.1098h-30.6694c-1.7175,0-3.1099-1.3923-3.1099-3.1098Z"/>
        <rect class="cls-5" x="506.8284" y="359.7825" width="6.2197" height="122.9981"/>
      </g>
    </g>
    <rect class="cls-14" x="391.2661" y="155.626" width="145.3743" height="208.8101"/>
    <path class="cls-6" d="m541.7967,158.9633h-155.687c-3.0381,0-5.501-2.4629-5.501-5.501h0c0-3.0381,2.4629-5.501,5.501-5.501h155.687c3.0381,0,5.501,2.4629,5.501,5.501h0c0,3.0381-2.4629,5.501-5.501,5.501Z"/>
    <g>
      <path class="cls-7" d="m465.154,226.9799c.2904-.0078.5735-.0438.8658-.0438,17.6919,0,32.034,14.3421,32.034,32.034,0,3.22-.487,6.3245-1.371,9.2563.0002-.0003.0004-.0006.0004-.0009l15.5067,2.4228s1.4479-6.3378,1.4479-11.6782c0-26.2987-21.3195-47.618-47.618-47.618-.2904,0-.5766.0167-.8658.0219v15.606Z"/>
      <g>
        <polygon class="cls-19" points="512.1324 270.6393 496.6831 268.2255 496.6814 268.2308 512.1324 270.6393"/>
        <path class="cls-19" d="m490.5516,279.5426c-5.8728,7.0025-14.6762,11.4615-24.5319,11.4615-17.6919,0-32.034-14.3422-32.034-32.034,0-13.0658,7.828-24.2845,19.0472-29.2597v-16.543c-19.984,5.6519-34.6313,24.0084-34.6313,45.8026,0,26.2987,21.3195,47.618,47.618,47.618,17.8593,0,33.4009-9.8456,41.5489-24.3929l-17.017-2.6526Z"/>
      </g>
    </g>
    <path class="cls-13" d="m523.9565,184.6432h-21.5821c-.957,0-1.7328-.7758-1.7328-1.7328h0c0-.957.7758-1.7329,1.7328-1.7329h21.5821c.957,0,1.7328.7759,1.7328,1.7329h0c0,.957-.7758,1.7328-1.7328,1.7328Z"/>
    <path class="cls-18" d="m528.4734,192.1482h-30.6159c-.6598,0-1.1948-.5349-1.1948-1.1948h0c0-.6598.5349-1.1948,1.1948-1.1948h30.6159c.6599,0,1.1948.5349,1.1948,1.1948h0c0,.6598-.5349,1.1948-1.1948,1.1948Z"/>
    <path class="cls-18" d="m528.4734,197.3823h-30.6159c-.6598,0-1.1948-.5349-1.1948-1.1948h0c0-.6598.5349-1.1948,1.1948-1.1948h30.6159c.6599,0,1.1948.5349,1.1948,1.1948h0c0,.6599-.5349,1.1948-1.1948,1.1948Z"/>
    <path class="cls-18" d="m514.5492,202.6164h-16.6916c-.6598,0-1.1948-.5349-1.1948-1.1948h0c0-.6598.5349-1.1948,1.1948-1.1948h16.6916c.6599,0,1.1948.5349,1.1948,1.1948h0c0,.6598-.5349,1.1948-1.1948,1.1948Z"/>
    <path class="cls-13" d="m422.6355,328.2096h-21.5821c-.957,0-1.7328-.7758-1.7328-1.7328h0c0-.9571.7758-1.7329,1.7328-1.7329h21.5821c.957,0,1.7328.7758,1.7328,1.7329h0c0,.957-.7758,1.7328-1.7328,1.7328Z"/>
    <path class="cls-18" d="m431.1312,335.7146h-30.6159c-.6599,0-1.1948-.5349-1.1948-1.1948h0c0-.6599.5349-1.1948,1.1948-1.1948h30.6159c.6598,0,1.1948.5349,1.1948,1.1948h0c0,.6598-.5349,1.1948-1.1948,1.1948Z"/>
    <path class="cls-18" d="m431.1312,340.9486h-30.6159c-.6599,0-1.1948-.5349-1.1948-1.1948h0c0-.6598.5349-1.1948,1.1948-1.1948h30.6159c.6598,0,1.1948.5349,1.1948,1.1948h0c0,.6599-.5349,1.1948-1.1948,1.1948Z"/>
    <path class="cls-18" d="m417.2069,346.1828h-16.6916c-.6599,0-1.1948-.5349-1.1948-1.1948h0c0-.6599.5349-1.1948,1.1948-1.1948h16.6916c.6598,0,1.1948.5349,1.1948,1.1948h0c0,.6598-.5349,1.1948-1.1948,1.1948Z"/>
  </g>
  <g>
    <path class="cls-16" d="m394.3887,256.1987s12.3618-7.7008,14.6923-9.5247c2.3305-1.8239,6.1302-2.9465,8.3754-3.3783,2.2453-.4318,7.6856-1.6407,8.1174-2.4179.4318-.7772-.423-1.6486-1.4283-1.6127,0,0-.4309-1.4002-1.7952-1.2566-1.3643.1436-3.3749,1.113-3.3749,1.113,0,0,.9694-1.0053.2872-1.6157s-1.6516-.5385-2.6928,0-6.2832,4.0571-7.9707,4.2725c-1.6875.2155-7.2525.1436-9.7299,1.508-2.4773,1.3644-10.5548,6.3916-10.5548,6.3916l6.0744,6.5208Z"/>
    <path class="cls-4" d="m397.68,258.0195c-.56,1.99-41.19,35.7-51.84,32.45-4.73-1.44-9.67-12.01-13.98-21.02l-11.61-54.27c2.56.72,15.71,4.88,21.02,14.9301,5.91,11.16,15.54,34.8,15.54,34.8,0,0,30.06-18.66,32-18.66.5,0,1.37.65,2.38,1.65,1.79,1.78,4.01,4.67,5.34,6.96.8199,1.41,1.31,2.6,1.15,3.16Z"/>
    <path class="cls-16" d="m404.0477,242.8329s4.4842-4.2543,5.1122-4.5946c.6281-.3402,1.8736-1.0063,2.6957-.5235.8221.483.4188,1.7274.2617,1.9891-.157.2617-2.9312,3.129-2.9312,3.129h-5.1384Z"/>
  </g>
  <path class="cls-9" d="m262.4139,326.709c2.4442-4.9567,14.6561-68.7479,14.6561-68.7479l18.2641.0688s-20.8657,67.5744-22.1524,70.7611c-1.6713,4.141,1.1678,10.1567,3.0929,14.236.2979.6308.5738,1.2152.8079,1.7395-2.6713,1.1951-3.9545-.249-5.3073-1.7715-1.528-1.7203-3.1448-3.5398-6.9508-1.7699-1.4704.6844-2.8619,1.4929-4.2213,2.2822-4.6958,2.7289-9.0096,5.2352-14.878,1.6154-.9303-.574-1.9498-2.7345.5134-4.4227,6.1369-4.2058,14.9805-11.5679,16.1754-13.991Z"/>
  <path class="cls-9" d="m319.3381,200.5969c5.5447,3.3407,10.9933,4.9549,13.5508,4.296,6.4126-1.6523,7.0026-25.1029,2.0405-34.3479-4.9621-9.2449-30.471-13.2745-31.7563,5.0427-.4462,6.3573,2.2238,12.0308,6.1693,16.6603l-7.0741,32.9619h20.5501l-3.4804-24.613Z"/>
  <path class="cls-17" d="m296.7206,351.0908h30.4125v-8.5948c0-2.6446-2.1723-4.9113-4.9113-4.9113h-20.5899c-2.739,0-4.9113,2.2668-4.9113,4.9113v8.5948Zm1.2278-1.1334h27.9569v-7.4614c0-1.9834-1.7001-3.6835-3.6835-3.6835h-20.5899c-2.0779,0-3.6835,1.7001-3.6835,3.6835v7.4614Z"/>
  <path class="cls-2" d="m299.5508,471.0144c.2093.0493,15.3444,10.6875,19.6377,12.0678,19.4751,6.0628,1.516,10.6249-11.7281,8.3872-4.5507-.8859-33.5393-4.4696-33.0146-9.3877,3.0143-26.3949,7.4321.315,22.3043-10.2.5848-.3712,2.5916-.9165,2.8009-.8673h0Z"/>
  <path class="cls-8" d="m289.4744,311.5464c4.5141-21.0484,23.0567-8.3125,33.793-3.6893,21.2719,9.301,18.3114,6.3351,16.1623,13.4904-.1155,6.7105-23.7224,68.497-29.2529,84.2197-8.0078,22.8596-11.9254,49.6707-10.1817,67.1871,1.1886,6.356-20.7407,8.114-22.5204-.0205-5.2288-25.1875,5.4188-63.3074,7.1961-72.624,9.4349-48.1322,1.141-71.5172,4.8035-88.5636h0Z"/>
  <path class="cls-1" d="m346.6763,470.4029c.1847.0526,16.6696,7.3819,21.1492,7.781,20.2162,1.5936,2.7211,10.4253-10.8686,11.1585-4.653.2093-34.2865,3.2794-34.2212-1.8559.0213-27.4085,7.5111-1.4785,21.1806-15.4576.5717-.6047,2.6388-1.5509,2.76-1.626h0Z"/>
  <path class="cls-12" d="m289.7773,319.1723c-.7487-8.7528,5.2655-25.3069,10.0623-26.9667,6.8667-2.4753,14.317,12.7271,21.2289,13.5077,23.0204,2.6683,19.2493.7289,19.2831,8.197,1.8323,6.4673-2.6905,72.4132-3.4356,89.0636-.9396,24.1615,3.0776,51.0326,9.8146,67.2208,3.017,5.724-17.454,13.8349-21.5289,6.5124-12.382-22.5528-13.2381-62.035-14.2157-71.5016-5.018-48.7751-19.7542-68.7561-21.2087-86.0332h0Z"/>
  <path class="cls-1" d="m335.111,170.9182c1.8708-4.2297-.1627-14.9665-8.9473-11.7128-3.6603,1.3827-10.8181-.2441-15.7798,2.8469-5.9378,3.8229-7.9713,9.598-7.1579,16.9999.5694,4.7176,5.1244,22.6123,6.9139,11.1435.1627-.8134.4067-2.3589.732-4.067-.8947-.976-3.0909-3.9043-2.8469-5.6124.3254-1.7081,3.7416-1.8708,5.2871-1.1388,1.8708.8948,1.9521,4.067,2.2775,4.555.244.0814,1.9521.5694,2.1962.5694.8947-4.7177-3.0096-6.1004,3.1722-8.0526,3.1722-.976-2.0335-6.0191,6.5885-6.6698,1.7895-.1627,6.3445-.7321,7.5646,1.1388h0Z"/>
  <path class="cls-15" d="m304.7487,286.3934c0-4.628,1.3223-8.7838,2.2668-13.2228,3.3057-16.0563-15.9619,7.0836-18.3231-11.7117-1.889-14.734,1.1334-47.3188,15.9619-56.2914.4722-2.1724,1.0389-3.6835,1.7001-4.5335,4.4391-.3779,17.8508,6.9892,17.8508,12.2783,0,.7556.0945,3.7779,0,5.3836.9445,1.5112,1.9834,3.3057,3.2113,5.4781,7.5559,13.6951,12.8451,64.3196,7.2726,93.8821-4.1557,3.4002-5.7614-15.2063-11.4283-13.5061l-18.512-17.7564Z"/>
  <path class="cls-3" d="m326.0942,230.8574c-.85,3.2112,1.2278,23.14,4.1557,24.1789,2.0779.6611,3.6835,1.3223,4.9113,1.889-1.7001-14.8284-4.5335-27.2957-7.7448-33.1515-1.2278-2.1724-2.2668-3.9669-3.2113-5.4781-.85,0-2.2668-.1889-1.1334,3.4946.9445,3.2112.85,4.2501,2.4557,7.8392.0945.1889.3778,1.2278.5667,1.2278h0Z"/>
  <path class="cls-3" d="m324.2052,214.4233s-.85-.2834-2.1723-.6611c-1.4167-.3779-.85,2.4556-.1889,3.589.9445,1.6057.85,1.039,2.3612,1.039.4723-.0945.1889-3.9669,0-3.9669h0Z"/>
  <path class="cls-10" d="m288.5035,315.6724c4.628,4.8169,14.8285,8.9727,25.3123,10.3894,1.7001.1889,27.1068,4.4391,27.1068-1.7946,0-25.5012-2.739-48.7356-6.3281-70.7421-3.0224-18.4175-12.1839-39.5741-29.9403-48.3578-1.3223.8501-2.6446,1.889-3.778,3.1168-2.6446,2.6446-11.8061,6.2337-13.6006,10.295-5.7614,13.6006.0945,32.5848,1.4167,42.8797,2.6446,21.0622,6.1392,26.3513.5667,47.3189-.4723,1.7945-.7556,4.4391-.7556,6.8947h0Z"/>
  <path class="cls-15" d="m278.2086,317.1837c-.2834.9445-.9445,5.2891-1.7001,6.517-1.2278.5667-11.6172,0-12.7506-1.6056.2834-1.7946,1.2278-7.5559,1.889-7.2726,2.4557,1.2279,12.6562,2.0779,12.5617,2.3612h0Z"/>
  <path class="cls-10" d="m286.4256,288.9435c-2.3612,11.2394-3.8724,17.5674-4.8169,28.8069-.2833,3.4002-11.7116,1.0389-15.6785-.7556-1.889-.9444-2.5501-1.7945-2.4557-2.739,0-.6611,3.6835-31.6404,4.3446-35.7961.6611-3.4002,11.8061-67.9087,26.6346-62.3363,11.7116,4.2502,10.6727,19.2676,6.517,28.7125-1.5112,3.3057-13.884,37.8739-14.5451,44.1076h0Z"/>
</svg>