<?xml version="1.0" encoding="UTF-8"?>
<svg xmlns="http://www.w3.org/2000/svg" viewBox="0 0 792 612">
  <defs>
    <style>
      .cls-1 {
        fill: #f3f3f3;
      }

      .cls-1, .cls-2, .cls-3, .cls-4, .cls-5, .cls-6, .cls-7, .cls-8, .cls-9, .cls-10, .cls-11, .cls-12, .cls-13, .cls-14 {
        stroke-width: 0px;
      }

      .cls-2 {
        fill: #ffedd3;
        opacity: .58;
      }

      .cls-3 {
        fill: #fbb058;
      }

      .cls-15 {
        isolation: isolate;
      }

      .cls-4 {
        fill: #f68a4e;
      }

      .cls-5 {
        fill: #989898;
      }

      .cls-6 {
        fill: #e6e6e5;
      }

      .cls-7 {
        fill: #333a4a;
      }

      .cls-8 {
        fill: #c27349;
      }

      .cls-9, .cls-13 {
        fill: #3e4960;
      }

      .cls-10 {
        fill: #fff;
      }

      .cls-11, .cls-13 {
        fill-rule: evenodd;
      }

      .cls-11, .cls-14 {
        fill: #f9cbcb;
      }

      .cls-12 {
        fill: #e4a56f;
      }

      .cls-16 {
        mix-blend-mode: overlay;
      }

      .cls-17 {
        mix-blend-mode: multiply;
      }
    </style>
  </defs>
  <g class="cls-15">
    <g id="Background">
      <path class="cls-2" d="m668.8979,356.6985c34.7853-82.5993,13.1088-193.1389-52.5958-221.764-60.0315-26.1535-101.0395,7.9974-150.0984,3.9038-16.8101-1.4027-45.9549-16.7792-58.123-25.1106-109.6638-75.0869-258.5585-16.3098-244.2228,109.6278,12.343,108.4322-69.0132,125.3957-23.4969,246.7634h530.6127c-17.8691-31.0183-18.9516-73.3479-2.0758-113.4203Z"/>
      <g>
        <path class="cls-4" d="m663.5395,361.7197c.1501.1596.3006.2871.4761.4145,1.2524,1.0203,2.8553,1.8813,4.8342,2.4871.0752-.1594.1505-.3507.2504-.5103.8516-1.6898,1.8037-3.3797,2.8305-5.1333-1.6032-4.9101-1.9539-12.8174,6.1618-24.4872,16.4069-23.4987.8268-40.6844-14.0769-41.2583-1.2277-.0638-2.4801,0-3.6824.1913l-.2003,8.7046-1.1521,48.6872s-.3761,6.5363,4.5587,10.9044Z"/>
        <rect class="cls-7" x="657.8086" y="155.0683" width="6.2189" height="315.0506" transform="translate(1321.8361 625.1871) rotate(180)"/>
        <path class="cls-3" d="m653.6211,297.531c8.8669,8.7061,15.6569-1.5975,18.4186,16.7733,1.7166,11.4192-1.297,33.7936-8.4999,47.4154-6.963,13.1681-4.5654,25.2688,2.4799,35.3919-2.4175-14.837-2.5926-23.2718,5.9123-38.1337,27.3018-47.7087,5.494-104.7378-.5531-150.7821-3.1977-24.3482-3.9318-33.0949-7.3631-53.1183.4811,28.0428-1.1282,70.728-6.2123,96.1952-3.7493,18.7813-13.0052,37.5956-4.1823,46.2585Z"/>
        <g class="cls-16">
          <path class="cls-5" d="m665.7631,181.9466s3.321,29.2024,6.2765,56.4786c4.907,45.2878,2.9749,60.5435,1.1526,61.1026-1.136.3485-.5231-4.7852-9.8255-4.7125-10.2249.0799-9.4009-11.8198-8.0629-16.4658,8.8067-30.5793,12.2772-75.1482,10.4593-96.403Z"/>
        </g>
        <path class="cls-7" d="m665.9448,158.0098h-10.0536c-1.0243,0-1.8555.8305-1.8555,1.8553s.8312,1.8553,1.8555,1.8553h10.0536c1.0249,0,1.8555-.8305,1.8555-1.8553s-.8306-1.8553-1.8555-1.8553Z"/>
        <path class="cls-7" d="m655.9793,157.1334c0,4.1072,2.2112,4.9036,4.9387,4.9036s4.9387-.7964,4.9387-4.9036-2.2112-7.4367-4.9387-7.4367-4.9387,3.3295-4.9387,7.4367Z"/>
        <path class="cls-7" d="m668.7359,460.791h-15.6359c-5.1522,0-9.3287,4.176-9.3287,9.3276h34.2933c0-5.1516-4.1765-9.3276-9.3287-9.3276Z"/>
      </g>
      <g>
        <path class="cls-4" d="m163.7333,361.6031c-.1501.1596-.3006.2871-.4761.4145-1.2524,1.0203-2.8553,1.8813-4.8342,2.4871-.0752-.1594-.1505-.3507-.2504-.5103-.8516-1.6898-1.8037-3.3797-2.8305-5.1333,1.6032-4.9101,1.9539-12.8174-6.1618-24.4872-16.4069-23.4987-.8268-40.6844,14.0769-41.2583,1.2277-.0638,2.4801,0,3.6824.1913l.2003,8.7046,1.1521,48.6872s.3761,6.5363-4.5587,10.9044Z"/>
        <rect class="cls-7" x="163.2453" y="154.9517" width="6.2189" height="315.0506"/>
        <path class="cls-3" d="m173.6518,297.4145c-8.8669,8.7061-15.6569-1.5975-18.4186,16.7733-1.7166,11.4192,1.297,33.7936,8.4999,47.4154,6.963,13.1681,4.5654,25.2688-2.4799,35.3919,2.4175-14.837,2.5926-23.2718-5.9123-38.1337-27.3018-47.7087-5.494-104.7378.5531-150.7821,3.1977-24.3482,3.9318-33.0949,7.3631-53.1183-.4811,28.0428,1.1282,70.728,6.2123,96.1952,3.7493,18.7813,13.0052,37.5956,4.1823,46.2585Z"/>
        <g class="cls-16">
          <path class="cls-5" d="m161.5097,181.83s-3.321,29.2024-6.2765,56.4786c-4.907,45.2878-2.9749,60.5435-1.1526,61.1026,1.136.3485.5231-4.7852,9.8255-4.7125,10.2249.0799,9.4009-11.8198,8.0629-16.4658-8.8067-30.5793-12.2772-75.1482-10.4593-96.403Z"/>
        </g>
        <path class="cls-7" d="m161.3281,157.8933h10.0536c1.0243,0,1.8555.8305,1.8555,1.8553,0,1.0248-.8312,1.8553-1.8555,1.8553h-10.0536c-1.0249,0-1.8555-.8305-1.8555-1.8553,0-1.0248.8306-1.8553,1.8555-1.8553Z"/>
        <path class="cls-7" d="m171.2935,157.0168c0,4.1072-2.2112,4.9036-4.9387,4.9036s-4.9387-.7964-4.9387-4.9036c0-4.1072,2.2112-7.4367,4.9387-7.4367s4.9387,3.3295,4.9387,7.4367Z"/>
        <path class="cls-7" d="m158.5369,460.6745h15.6359c5.1522,0,9.3287,4.176,9.3287,9.3276h-34.2933c0-5.1516,4.1765-9.3276,9.3287-9.3276Z"/>
      </g>
      <path class="cls-8" d="m443.9142,261.7443c-13.2611,1.5006-18.5023-9.5033-38.3305-9.7532-19.8284.25-25.0696,11.2538-38.3305,9.7532-13.2611-1.5006-14.5872,9.7532-14.5872,9.7532v103.7861h105.8351v-103.7861s-1.3261-11.2538-14.587-9.7532Z"/>
      <path class="cls-7" d="m422.4661,221.3813c-.2649-1.4332-.7111-2.8435-1.4351-4.1085-.834-1.4558-2.0171-2.6869-3.3148-3.7503-2.9301-2.4009-6.5997-4.0232-10.3876-4.0345-.4378-.0013-1.1013.1513-2.1879.1877-2.4225.0811-8.7335,1.4434-9.0448,1.5744-1.4906.6274-5.3993,2.1964-6.5998,2.5212-2.5921.7013-4.8636,2.5142-6.1219,4.8863-1.4521,2.7371-1.5306,6.0372-.8519,9.06.6792,3.0229,2.0582,5.8355,3.4258,8.6158.7336,1.4918,1.5059,3.0328,2.8004,4.0759l26.1259-1.0038c5.7324-3.8442,8.8466-11.2376,7.5918-18.024Z"/>
      <path class="cls-14" d="m373.4757,303.3328l17.3751,41.5577h45.9656l5.2399-37.6904-5.9951-29.6912c-5.6883-4.3422-10.0546-13.3321-23.4381-13.3851l-1.5573-7.9576-.8716-4.4212h-12.7368l-1.1482,5.1602-1.7026,7.5888c-9.3179-.6992-12.8088,14.1592-17.9033,15.7826l-3.2276,23.0563Z"/>
      <path class="cls-9" d="m412.624,264.1202c13.3826.0627,23.2835.9342,31.5874,4.1631l-2.1494,38.9176-1.1825,72.7113-68.277.9225.8784-77.5029-2.6212-32.3834c3.6906-2.1526,14.4325-7.1534,23.7495-6.4576,2.7478,11.7383,18.0085,9.2638,18.0147-.3706Z"/>
      <path class="cls-14" d="m418.8472,321.8229c-.0393.1586-.0658.33-.0791.4881,1.4389-.0128,2.8773-.0128,4.3418-.0261-2.0185-1.5968-3.8271-2.3623-4.2627-.462Z"/>
      <path class="cls-14" d="m408.4205,322.364c1.1609-.0133,2.3361-.0133,3.524-.0265-.713-1.016-1.9663-.7916-3.524.0265Z"/>
      <path class="cls-14" d="m404.0915,322.3905c1.1614-.0137,2.3626-.0265,3.5633-.0265-1.5837-.8313-2.864-1.0425-3.5633.0265Z"/>
      <path class="cls-14" d="m392.7799,322.4431c1.4521,0,2.9696-.0129,4.5401-.0265-.0129-.1975-.0521-.3958-.0919-.5937-.4488-1.9533-2.3626-1.0818-4.4482.6202Z"/>
      <path class="cls-9" d="m330.0205,335.4292c8.4202,19.8749,55.4736,5.3974,57.7439,6.2685,9.8197,3.7476,16.3664.792,20.2602-3.919,3.1538-3.7882,4.567-8.7108,4.5931-12.1942,0-.5548-.0261-1.0694-.0919-1.5447-.106-.765-.3044-1.3194-.5814-1.7024-.713-1.016-1.9663-.7916-3.524.0265-.1321.0525-.2505.1188-.3826.1979-1.3731.766-2.9563,1.9136-4.5936,3.0227-3.0354,2.0712-6.2692,4.051-8.8161,3.3518,0,0,3.0354-3.2201,2.6918-6.5198-.0129-.1975-.0521-.3958-.0919-.5937-.4488-1.9533-2.3626-1.0818-4.4482.6202-2.9828,2.4281-6.335,6.5458-6.335,6.5458,0,0-22.4514,1.8477-24.9192-3.9591-.2902-.6997-.277-1.5178-.0398-2.4149,1.4919-5.5825,11.8131-14.2,11.8131-14.2,0,0,4.7445-36.4788-2.1316-34.7499-5.6879,1.4117-36.1711,27.1881-41.4242,49.4646-1.0956,4.6849-1.1609,8.9214.2774,12.2997Z"/>
      <path class="cls-9" d="m329.9727,322.4775c9.3449-.3167,22.221.1903,31.5132.1373,1.4919-5.5825,14.2168-16.2563,14.2168-16.2563,0,0,2.5331-37.344-4.3431-35.6151-5.6879,1.4117-36.1337,29.4575-41.3869,51.7341Z"/>
      <path class="cls-14" d="m415.6076,228.0188l.8772,4.4561s5.5121-4.2762,5.5121,1.2623-5.3793,7.1721-5.3793,7.1721c0,0-.1685,15.3612-12.7031,15.5273-12.4635.1651-13.8067-14.5998-13.8067-14.5998,0,0-6.5806-3.2267-4.2411-8.8303,1.4717-3.5253,5.6454.3319,5.6454.3319,2.1675-10.1614,6.7072-2.2386,17.1072-9.6663,2.3438-1.6739,7.0529-1.51,6.9884,4.3466Z"/>
      <path class="cls-10" d="m387.283,264.9406s2.1917,10.6859,12.5034,13.6734l3.9012-6.1809c-7.6178-.8142-9.0782-7.9422-9.0782-7.9422,0,0-3.2901-.4648-7.3263.4498Z"/>
      <path class="cls-10" d="m403.6875,272.4331l4.0784,6.1809s10.8241-2.767,11.1874-14.3901c0,0-3.6214-.2429-6.3294-.1037,0,0,.2433,7.3529-8.9364,8.3128Z"/>
      <g>
        <rect class="cls-8" x="203.0108" y="324.7365" width="409.5104" height="145.3823"/>
        <g class="cls-17">
          <path class="cls-6" d="m203.011,326.9599v8.879h368.7819c13.557,0,24.5466,12.3868,24.5466,27.6667v106.6133h16.1814v-143.159H203.011Z"/>
        </g>
        <rect class="cls-12" x="242.8516" y="355.06" width="72.9172" height="90.3673"/>
        <path class="cls-12" d="m327.4345,456.0234h-96.2487v-111.5595h96.2487v111.5595Zm-94.9411-1.5042h93.6336v-108.5512h-93.6336v108.5512Z"/>
        <rect class="cls-12" x="371.3074" y="355.06" width="72.9172" height="90.3673"/>
        <path class="cls-12" d="m455.8904,456.0234h-96.2487v-111.5595h96.2487v111.5595Zm-94.9411-1.5042h93.6336v-108.5512h-93.6336v108.5512Z"/>
        <rect class="cls-12" x="499.7633" y="355.06" width="72.9172" height="90.3673"/>
        <path class="cls-12" d="m584.3462,456.0234h-96.2487v-111.5595h96.2487v111.5595Zm-94.9411-1.5042h93.6336v-108.5512h-93.6336v108.5512Z"/>
        <rect class="cls-12" x="188.4623" y="313.6373" width="438.6075" height="13.3225"/>
        <g class="cls-17">
          <polygon class="cls-1" points="404.1627 326.9598 188.4623 326.9598 188.4623 313.6373 404.1627 326.9598"/>
        </g>
      </g>
      <path class="cls-11" d="m507.2711,215.0433l-18.5449,25.2542,13.8001,5.5824,10.3707-25.008c8.3083-7.0732,11.772-11.0278,10.3905-11.8655-1.1646-.7054-2.2548-.1536-3.2595.3547-.7822.3959-1.5122.7648-2.1843.4932-1.5359-.6215-1.3736-5.3726-1.0277-9.8743.346-4.5025-1.6571-3.1906-2.6467-2.1052-2.7504,4.5959-5.0496,10.3185-6.8982,17.1684Z"/>
      <path class="cls-13" d="m419.9424,290.2437l-1.1743-6.846c21.9428-25.4007,64.0974-35.8339,86.4287-66.9698l9.2892,7.4944c-6.6884,54.0141-58.1066,67.402-94.5436,66.3213Z"/>
      <g>
        <path class="cls-3" d="m413.4216,246.0718c4.9546,3.9743,9.725,8.1183,14.3432,12.471,4.5884,4.3764,9.0725,8.8985,12.917,14.0911.9505,1.3075,1.8553,2.6627,2.6497,4.1189.7794,1.463,1.4994,3.0089,1.8161,4.8182.0742.4472.1164.9377.121,1.3922l.0086,1.1822.0172,2.3642.0344,4.7289.1378,18.9151c.0063.8606-.6864,1.5634-1.547,1.5698-.8606.0064-1.5634-.6864-1.5697-1.5469,0-.0048,0-.018,0-.0228l.1378-18.9151.0344-4.7289.0172-2.3642.0086-1.1822c0-.3345-.0219-.6298-.0694-.9621-.2018-1.3121-.7857-2.6886-1.4705-4.0057-.6963-1.3228-1.525-2.6087-2.4099-3.8632-3.592-5.0074-7.9536-9.5547-12.4202-13.9353-4.4949-4.3626-9.1926-8.5635-14.0173-12.5497l-.0128-.0107c-.4295-.3548-.4901-.9907-.1352-1.4201.3516-.4256.9797-.4885,1.409-.1446Z"/>
        <path class="cls-7" d="m451.2218,306.6698h-14.6271c-2.2604,0-4.0928,1.8323-4.0928,4.0927v2.8748h22.8128v-2.8748c0-2.2604-1.8324-4.0927-4.0928-4.0927Z"/>
        <path class="cls-7" d="m414.2018,244.038c1.7402,1.5682,1.3232,3.0216.2011,4.2667-1.1221,1.2451-2.5244,1.8106-4.2646.2423-1.7402-1.5682-2.2413-3.8489-1.1192-5.0941s3.4424-.9832,5.1826.585Z"/>
        <g class="cls-17">
          <path class="cls-6" d="m415.137,245.2239c-.1159.5877-.4479,1.1475-.918,1.669-1.1221,1.2451-2.5244,1.8107-4.2646.2425-.7432-.6699-1.2443-1.4688-1.5056-2.2622-.1011,1.184.492,2.5948,1.6895,3.674,1.7402,1.5683,3.1425,1.0026,4.2646-.2423.8333-.9248,1.2733-1.9647.7341-3.081Z"/>
        </g>
      </g>
    </g>
  </g>
</svg>