<?xml version="1.0" encoding="UTF-8"?>
<svg id="Background" xmlns="http://www.w3.org/2000/svg" xmlns:xlink="http://www.w3.org/1999/xlink" viewBox="0 0 792 612">
  <defs>
    <style>
      .cls-1 {
        fill: #46a0be;
      }

      .cls-1, .cls-2, .cls-3, .cls-4, .cls-5, .cls-6, .cls-7, .cls-8, .cls-9, .cls-10, .cls-11, .cls-12, .cls-13, .cls-14, .cls-15, .cls-16, .cls-17, .cls-18, .cls-19, .cls-20 {
        stroke-width: 0px;
      }

      .cls-2 {
        fill: #191947;
      }

      .cls-2, .cls-6, .cls-11, .cls-12, .cls-13, .cls-15, .cls-17, .cls-18, .cls-19, .cls-20 {
        fill-rule: evenodd;
      }

      .cls-3, .cls-21 {
        fill: #77c36d;
      }

      .cls-22 {
        clip-path: url(#clippath-2);
      }

      .cls-4 {
        fill: #231f20;
        opacity: .1;
      }

      .cls-23, .cls-5 {
        fill: #0e9d81;
      }

      .cls-24 {
        clip-path: url(#clippath-1);
      }

      .cls-6 {
        fill: #262262;
      }

      .cls-25, .cls-14 {
        fill: #53bcd0;
      }

      .cls-7 {
        fill: #005793;
      }

      .cls-8, .cls-12 {
        fill: #fff;
      }

      .cls-9 {
        fill: #e9f5fd;
      }

      .cls-10 {
        fill: #ffc83e;
      }

      .cls-11 {
        fill: #f4c4a0;
      }

      .cls-13 {
        fill: rgba(255, 255, 255, .4);
      }

      .cls-26 {
        clip-path: url(#clippath);
      }

      .cls-15 {
        fill: #24add1;
      }

      .cls-16 {
        fill: #1e386a;
      }

      .cls-17 {
        fill: #0e8db7;
      }

      .cls-27 {
        stroke: #77c36d;
      }

      .cls-27, .cls-28 {
        fill: none;
        stroke-miterlimit: 10;
        stroke-width: 3px;
      }

      .cls-28 {
        stroke: #0e9d81;
      }

      .cls-18 {
        fill: #1f9fbc;
      }

      .cls-19 {
        fill: #e4e4e4;
      }

      .cls-20 {
        fill: #1a1b48;
      }
    </style>
    <clipPath id="clippath">
      <path class="cls-3" d="m240.9299,420.0147c2.1292-.0124,4.196-.2862,5.6545-2.375,2.8628-4.0998,7.2325-7.7804,12.1329-3.6113,2.8263,2.4045.7011,7.3509,3.1335,9.7302,2.1512,2.1041,4.8865,1.7563,5.9867,5.2487,1.6184,5.1375-3.4824,9.6391-5.1198,14.0817-1.3742,3.7281,1.7164,5.1488,3.1048,8.054,1.0704,2.2397.5201,4.6386-.6464,6.7797-2.0569,3.7756-6.6172,6.8152-5.5607,11.7041.8817,4.0802,1.7017,7.7165-1.8985,10.8089-2.4679,2.1198-7.0471,4.0517-6.6981,7.9752.1235,1.3884,1.0845,2.5719,1.3479,3.9406.4169,2.1662-.9863,4.2746-2.6159,5.7614-3.7078,3.3829-6.9644,6.5734-9.7417,10.8297-1.1868,1.8188-5.9381,5.9255-4.0392,8.412-3.4516-4.5198-7.0995-8.9027-10.2357-13.6543-2.5795-3.908-6.4677-9.6239-3.8208-14.4371.8232-1.497,2.3542-2.6127,2.7738-4.2691.7574-2.991-2.1813-5.764-3.2737-8.3085-1.7152-3.9952-.4564-8.6352,2.5649-11.634,1.4296-1.4189,2.9808-2.9792,3.1908-4.9825.2293-2.1874-1.1422-4.2269-1.7644-6.2445-.5736-1.8601-.931-3.8376-1.1405-5.7697-.1479-1.3643-.2049-2.7603.116-4.0946.6102-2.5375,2.8954-3.9481,4.5867-5.7486,4.0266-4.2864,1.9101-9.3265,3.6691-14.3081,1.5791-4.472,5.0106-3.8698,8.2937-3.889Z"/>
    </clipPath>
    <clipPath id="clippath-1">
      <path class="cls-5" d="m214.7814,451.25c-1.5462.2857-3.0833.3732-4.4303-.9401-2.644-2.5776-6.3232-4.6426-9.3008-.9402-1.7173,2.1353.5089,5.4292-.9262,7.4918-1.2692,1.824-3.3014,1.9503-3.6161,4.6359-.4629,3.9506,3.8602,6.51,5.6629,9.5059,1.5128,2.5141-.5323,3.9724-1.1374,6.2719-.4664,1.7728.2648,3.4367,1.4073,4.8284,2.0146,2.454,5.7433,4.0277,5.6536,7.7202-.0748,3.0817-.1663,5.8329,2.8732,7.5777,2.0835,1.1961,5.6726,1.9636,5.9625,4.8579.1026,1.0242-.4306,2.0157-.4323,3.045-.0026,1.629,1.3071,2.9641,2.695,3.8171,3.1578,1.9407,5.9616,3.8042,8.5654,6.5072,1.1126,1.155,5.1275,3.4763,4.0943,5.5428,1.8781-3.7562,3.9175-7.4404,5.5348-11.3212,1.3301-3.1918,3.3594-7.8761.7732-11.0011-.8043-.9719-2.0693-1.5694-2.6029-2.7128-.9634-2.0648.7844-4.483,1.2246-6.4799.6912-3.1354-.8642-6.3269-3.4709-8.084-1.2334-.8314-2.5745-1.7485-3.0042-3.1725-.4691-1.5549.2435-3.2242.4155-4.7738.1586-1.4287.1441-2.9126.0286-4.343-.0816-1.0102-.2334-2.0306-.6509-2.954-.7938-1.7562-2.6467-2.4631-4.1228-3.535-3.5141-2.5519-2.6765-6.5008-4.6419-9.8708-1.7644-3.0253-4.1702-2.1135-6.5543-1.673Z"/>
    </clipPath>
    <clipPath id="clippath-2">
      <circle class="cls-14" cx="292.6013" cy="480.6679" r="41.343" transform="translate(-73.2162 53.0762) rotate(-9.2175)"/>
    </clipPath>
  </defs>
  <path class="cls-9" d="m667.8735,325.6701c-4.1513-6.4922-8.2021-13.0435-11.2367-20.1117-8.2577-19.234-8.4284-40.8899-7.3393-61.7932,1.0891-20.9033,3.2883-42.0623-.667-62.6168-3.9553-20.5546-15.2933-40.9593-34.242-49.8519-23.3406-10.9537-46.4738-5.0291-70.9536-7.1508-34.2094-2.9649-61.6283-27.998-89.8041-47.6244-17.2633-12.0251-38.5806-22.7522-58.6008-16.2859-20.8392,6.7309-32.1282,29.4604-51.0281,40.5225-39.4059,23.064-91.4047-1.6121-133.8557.9034-16.6786.9883-34.9085,6.5476-43.1676,21.0713-15.2327,26.7869,4.1604,55.8186-17.8134,81.5175-18.5229,21.6626-48.8981,33.1946-48.5386,65.6021.0446,4.019.5347,8.047,1.6639,11.9043,1.5306,5.2284,4.1961,10.0375,6.6719,14.8902,8.2287,16.1283,14.6611,33.9514,13.0227,51.9833-1.4709,16.1884-9.2625,30.9942-15.6044,45.961s-11.392,31.6215-7.1102,47.3024c5.6572,20.7178,25.7033,33.7833,44.8186,43.5729,13.9847,7.162,30.5068,11.7647,43.7684,19.9512,11.7018,7.2237,21.8953,14.9242,35.0525,20.1472,27.7159,11.0023,57.6454,15.2667,87.1968,17.7108,37.9561,3.1392,76.1319,3.6181,114.1548,1.432,48.4896-2.7879,97.4766-10.6366,142.7098-28.8992,31.9004-12.8796,66.7981-17.1996,93.7333-40.6524,28.0663-24.4379,40.5642-65.3744,30.9332-101.3212-3.8478-14.3616-10.85-27.6906-18.7418-40.2914-1.6502-2.6349-3.3445-5.2492-5.0223-7.8732Z"/>
  <g>
    <g>
      <rect class="cls-4" x="196.1367" y="92.1673" width="394.2785" height="281.7316"/>
      <rect class="cls-3" x="189.5747" y="85.0569" width="394.2784" height="281.7315"/>
      <rect class="cls-5" x="203.61" y="98.2025" width="366.2081" height="255.4404"/>
      <polygon class="cls-4" points="569.8181 98.2025 203.61 98.2025 203.61 99.3347 203.61 108.4097 203.61 353.643 213.8173 353.643 213.8173 108.4097 569.8181 108.4097 569.8181 98.2025"/>
    </g>
    <path class="cls-8" d="m298.8394,167.6282c6.2575,22.8359,2.438,47.0534,2.3567,70.3769,0,1.5441,2.438,1.5441,2.438,0,.0813-23.5673,3.9008-47.9473-2.5193-71.0271-.4063-1.5441-2.7631-.8939-2.2755.6501h0Z"/>
    <path class="cls-8" d="m303.2278,237.5988c15.6845,0,31.4502-.6501,47.1347-1.7066,7.5578-.4876,15.1156-1.5441,22.5921-1.6253,5.2011,0,10.8897,1.1377,15.9283-.8127,1.4628-.5689.8127-2.9256-.6501-2.3567-5.0385,2.0317-11.0523.6501-16.3346.7314-7.7203.1625-15.4407,1.219-23.161,1.7066-15.1156.8939-30.3125,1.5441-45.5093,1.5441-1.5441.0813-1.5441,2.5193,0,2.5193h0Z"/>
    <path class="cls-8" d="m298.5144,167.5469c9.1019,6.3388,17.7161,13.3277,26.3304,20.3167,7.5578,6.1763,15.5219,11.8649,23.0797,18.0412,12.1087,9.752,25.1927,23.0797,41.1209,25.9241,1.5441.2438,2.1942-2.1129.6501-2.3567-16.5784-3.0069-29.9061-17.3911-42.665-27.3869-15.6032-12.2713-30.9626-25.2739-47.2972-36.6513-1.219-.8939-2.438,1.219-1.219,2.113h0Z"/>
    <path class="cls-8" d="m301.2774,226.1402c6.2575,1.3815,7.7203,7.7203,9.752,13.0027.5689,1.4628,2.9256.8127,2.3567-.6501-2.3567-6.095-4.2259-13.0839-11.3773-14.628-1.6253-.4063-2.2755,1.9504-.7314,2.2755h0Z"/>
    <path class="cls-8" d="m301.6025,183.9628c5.0385.4876,8.7768-2.7631,10.8085-7.0702.6501-1.3815-1.4628-2.6818-2.1129-1.219-1.7066,3.657-4.4697,6.3388-8.6955,5.9325-1.5441-.2438-1.5441,2.1942,0,2.3567h0Z"/>
    <path class="cls-8" d="m369.4601,235.5671c-.4063-3.9821.9752-7.1515,4.3071-9.5082,1.3003-.8939.0813-3.0069-1.219-2.1129-3.9821,2.7631-6.0137,6.7451-5.4449,11.6211.0813,1.5441,2.5193,1.5441,2.3567,0h0Z"/>
    <path class="cls-16" d="m286.9745,164.4588c1.5441,0,1.5441-2.438,0-2.438s-1.5441,2.438,0,2.438h0Z"/>
    <path class="cls-8" d="m288.1935,164.0525c.3251-5.0385,1.1377-10.1583,3.0069-14.8718h-2.3567c2.0317,5.2011,3.7383,10.5647,5.1198,16.0095.4063,1.5441,2.7631.8939,2.3567-.6501-1.3815-5.4449-3.0069-10.8085-5.1198-16.0095-.4876-1.1377-1.8691-1.1377-2.3567,0-1.9504,4.9573-2.6818,10.2396-3.0881,15.5219-.0813,1.5441,2.3567,1.5441,2.438,0h0Z"/>
    <path class="cls-8" d="m288.5998,162.0208h7.314c1.5441,0,1.5441-2.438,0-2.438h-7.314c-1.5441,0-1.5441,2.438,0,2.438h0Z"/>
    <path class="cls-8" d="m291.4442,242.0684c-.0813,3.3319,1.4628,7.314,3.5757,9.8333,1.0565,1.219,2.7631-.5689,1.7066-1.7066-1.7066-2.0317-2.9256-5.3636-2.9256-8.0454.0813-1.6253-2.3567-1.6253-2.3567-.0813h0Z"/>
    <path class="cls-8" d="m292.9882,241.5808c1.1377-.2438,3.0881-.5689,4.1446.1625,1.6253,1.1377,0,2.6005-1.0565,3.4945-.8939.7314-.0813,1.9504.8939,2.1129,2.1942.2438,4.4697,1.1377,2.9256,3.5757-.2438.4063-2.5193,2.7631-2.6818,1.7066-.1625-1.5441-2.6005-1.5441-2.438,0,.5689,4.3884,5.0385,2.438,6.8264.0813.9752-1.3003,1.7066-3.0881,1.0565-4.7135-.8939-2.2755-3.4945-2.7631-5.6887-3.0881.3251.7314.5689,1.3815.8939,2.1129,1.8691-1.5441,3.5757-4.0633,1.7879-6.2575-1.7066-2.1129-4.876-2.0317-7.2327-1.4628-1.6253.325-.9752,2.6818.5689,2.2754h0Z"/>
    <path class="cls-8" d="m392.2961,234.4294c-3.3319,1.0565-6.095,4.2259-5.5261,7.9641.7314,4.2259,5.0385,4.9573,8.6143,4.1446,1.5441-.3251.8939-2.6818-.6501-2.3567-2.1942.4876-5.2823.4063-5.6074-2.438-.2438-2.3567,1.7066-4.3071,3.8195-4.9573,1.4628-.4876.8127-2.8443-.6501-2.3567h0Z"/>
  </g>
  <path class="cls-11" d="m466.5651,366.8685l-40.1391,182.7697h10.3676s26.2557-83.7297,26.2557-83.7297l39.1463-99.0399h-35.6305Z"/>
  <path class="cls-11" d="m471.0906,366.8685c9.4314,33.2958,21.1791,89.075,24.7875,95.136,3.6084,6.0618,81.5862,51.5094,81.5862,51.5094l7.1409-7.6387s-66.0876-53.0075-67.0589-55.1768c-.9714-2.1701-7.0508-49.027-7.468-83.83h-38.9878Z"/>
  <path class="cls-19" d="m581.436,509.0857c-1.4056,1.6741-4.9036,3.3038-4.9036,3.3038l-3.3927-1.0755c-.4112-.1301-.8489.1041-.9676.519l-6.3083,22.0311s-1.3209,2.1525-3.3953,5.3422c-2.0744,3.1897,3.4935,5.5719,3.4935,5.5719,0,0,27.3071-32.5295,28.9158-34.4463,0,0-2.7085-3.2096-4.3612-4.5959-1.0512-.8818-3.4422-1.8417-5.0432-2.4243-.8425-.3062-1.7484.2067-1.9976,1.0671-.4357,1.5057-1.1716,3.672-2.0398,4.7069Z"/>
  <path class="cls-19" d="m433.9736,546.3176c-2.187,0-5.6844-1.6312-5.6844-1.6312l-1.3564-3.2892c-.1646-.3988-.6254-.5833-1.0189-.4072l-20.9395,9.3303s-2.4985.3728-6.2769.8344c-3.7776.4623-2.0239,6.257-2.0239,6.257,0,0,42.4822,0,44.9845,0,0,0,.7188-4.1374.7188-6.2937,0-1.3717-.8007-3.8205-1.384-5.4203-.307-.842-1.2814-1.2064-2.1005-.8435-1.4337.6338-3.5679,1.4636-4.9189,1.4636Z"/>
  <path class="cls-20" d="m507.2653,366.8685h-44.1509s-36.533,168.7982-36.533,168.7982l49.2941,5.3476,31.3897-174.1459Z"/>
  <path class="cls-6" d="m521.9517,436.0573c-1.2868-3.0764-4.9832-69.1888-4.9832-69.1888h-49.706s6.7668,75.1488,15.2475,92.1591c8.4799,17.0096,59.5651,72.7812,59.5651,72.7812l32.334-38.2568s-51.1706-54.4182-52.4573-57.4947Z"/>
  <path class="cls-11" d="m487.2628,262.4034c-5.5227,3.0718-10.8493,4.3991-13.2643,3.5867-6.0578-2.0375-5.2221-25.8358.0936-34.9239,5.3149-9.0881,30.0428-11.7278,30.182,6.9077.0484,6.4678-2.8535,12.0662-6.9177,16.5344l4.8215,33.8039-19.7271-1.1632,4.812-24.7457Z"/>
  <path class="cls-2" d="m498.0023,233.2299c-11.3885-.5851-19.2791-1.5584-23.7347-3.1403.4464-4.0592,4.7289-8.4253,15.3068-7.8016,11.7689.6939,17.6564,8.3051,17.1626,16.6794-.4511,7.6509-5.6676,16.6936-9.2425,16.8633-.9081-.2668-1.6249-1.4833-2.3115-3.1418,1.5074-.6649,2.6368-2.3749,2.7718-4.6648.1298-2.2011-1.5847-4.4455-3.8541-4.5793-.8277-.0488-1.6155.1899-2.2883.6197-1.3416-2.6225-3.0991-4.6258-5.7268-4.574l1.9508-5.1075,9.9147-.2858.0511-.8674Z"/>
  <path class="cls-11" d="m578.2074,388.3671c-3.226-4.6452-22.6531-54.5899-22.6531-54.5899l-14.5007,2.7709s25.2452,52.8651,27.0426,55.9036c2.3351,3.9475.606,10.6354-.5657,15.1702-.1811.7021-.3491,1.352-.4875,1.9325,2.802.7429,3.8024-.9714,4.8564-2.7788,1.1906-2.0419,2.4504-4.202,6.4537-3.0733,1.5472.4353,3.0383,1.014,4.4957,1.5788,5.0334,1.9507,9.6568,3.7424,14.7412-1.034.8061-.7568,1.4269-3.1593-1.2573-4.4462-6.6876-3.2071-16.5485-9.1626-18.1253-11.4339Z"/>
  <path class="cls-11" d="m385.159,258.7012l31.4053,10.8526-9.5026,13.1459-23.7555-15.5466c-11.6569-1.1697-17.0892-2.5335-16.2961-4.0917.6684-1.3137,1.9839-1.4879,3.1953-1.6481.9446-.1254,1.8255-.2419,2.2883-.8823,1.0577-1.4629-1.7943-5.5018-4.6734-9.2136-2.8792-3.7118-.2925-3.7721,1.2336-3.4207,5.1421,2.3493,10.51,5.951,16.1052,10.8044Z"/>
  <path class="cls-18" d="m506.2925,269.7806l1.6269,9.4566c-2.0823,1.2505-4.9677,3.1469-8.2737,5.319-10.3753,6.8192-24.891,16.3598-31.7147,17.1873-23.6385,2.8676-44.7797-9.1469-68.3259-22.5289-3.1558-1.7939-6.3555-3.612-9.6101-5.4221l8.3247-13.3552c.9007.3284,1.7998.6496,2.6989.9629-.248-1.0815.0053-2.284.7927-3.2519,1.3556-1.6663,3.7827-2.0072,5.4204-.7608,3.3291,2.5324,5.8345,5.2863,7.4684,8.2553,31.8695,8.6546,62.4619,8.5088,91.5923,4.1377Z"/>
  <path class="cls-12" d="m523.8858,367.2605s-38.8287,4.5009-61.1253,0c-1.8419-.3719-1.7612-8.7499-.9066-11.0377,13.2994-35.6295,22.048-61.7123,22.048-86.4599,3.66,2.0178,12.812.6048,12.812.6048,16.397,25.5036,23.9335,54.7657,27.1719,96.8929Z"/>
  <path class="cls-15" d="m573.1304,367.6915c-22.8804-69.0137-69.8096-99.408-69.8096-99.408h-9.3636c1.0605,14.8024-3.9235,36.3428-9.7053,61.3308-9.2459,39.9636-20.5321,88.7457-12.397,132.8852,10.0034,2.3573,21.7581.7481,34.4828-.994,18.3649-2.5155,38.7513-5.3064,58.814,3.1507-.7732-17.6822-10.5567-37.2552-20.2958-56.7404-6.173-12.3515-12.3286-24.6674-16.1607-36.4428.8794-.8732,1.338-2.1818,1.1124-3.5295l-.429-2.5676c-.2907-1.7395-1.6295-3.0064-3.2104-3.2045-.2758-1.3034-.5146-2.598-.7114-3.884-1.0054-6.5672-.3631-13.0579.2709-19.4756h0c.3491-3.5234.6949-7.0251.7658-10.5051,11.0277,10.3669,24.3765,28.4428,35.6405,59.7738l15.5514-4.8294c-.5945-2.3313-1.2178-4.6243-1.8674-6.8791,1.7999-1.047,3.9226-6.018,2.4059-6.847-1.6015-.8759-3.301-1.485-5.0935-1.8334Z"/>
  <path class="cls-17" d="m499.9202,269.1524l4.2479,13.7855-8.5542,10.3344,7.7308,8.1217-18.7033,33.7952,22.8722-33.7283-7.5933-8.1886,7.5933-9.1331-7.5933-14.9869Z"/>
  <path class="cls-13" d="m490.1267,348.2228c-1.8189,0-3.2936-1.5562-3.2936-3.4756s1.4747-3.4756,3.2936-3.4756,3.2936,1.5562,3.2936,3.4756-1.4747,3.4756-3.2936,3.4756Zm-4.117,19.9848c-1.8189,0-3.2936-1.5562-3.2936-3.4756s1.4747-3.4756,3.2936-3.4756,3.2936,1.5562,3.2936,3.4756-1.4747,3.4756-3.2936,3.4756Zm-4.117,16.5092c0,1.9194,1.4747,3.4756,3.2936,3.4756s3.2936-1.5562,3.2936-3.4756-1.4747-3.4756-3.2936-3.4756-3.2936,1.5562-3.2936,3.4756Z"/>
  <g>
    <g>
      <path class="cls-21" d="m240.9299,420.0147c2.1292-.0124,4.196-.2862,5.6545-2.375,2.8628-4.0998,7.2325-7.7804,12.1329-3.6113,2.8263,2.4045.7011,7.3509,3.1335,9.7302,2.1512,2.1041,4.8865,1.7563,5.9867,5.2487,1.6184,5.1375-3.4824,9.6391-5.1198,14.0817-1.3742,3.7281,1.7164,5.1488,3.1048,8.054,1.0704,2.2397.5201,4.6386-.6464,6.7797-2.0569,3.7756-6.6172,6.8152-5.5607,11.7041.8817,4.0802,1.7017,7.7165-1.8985,10.8089-2.4679,2.1198-7.0471,4.0517-6.6981,7.9752.1235,1.3884,1.0845,2.5719,1.3479,3.9406.4169,2.1662-.9863,4.2746-2.6159,5.7614-3.7078,3.3829-6.9644,6.5734-9.7417,10.8297-1.1868,1.8188-5.9381,5.9255-4.0392,8.412-3.4516-4.5198-7.0995-8.9027-10.2357-13.6543-2.5795-3.908-6.4677-9.6239-3.8208-14.4371.8232-1.497,2.3542-2.6127,2.7738-4.2691.7574-2.991-2.1813-5.764-3.2737-8.3085-1.7152-3.9952-.4564-8.6352,2.5649-11.634,1.4296-1.4189,2.9808-2.9792,3.1908-4.9825.2293-2.1874-1.1422-4.2269-1.7644-6.2445-.5736-1.8601-.931-3.8376-1.1405-5.7697-.1479-1.3643-.2049-2.7603.116-4.0946.6102-2.5375,2.8954-3.9481,4.5867-5.7486,4.0266-4.2864,1.9101-9.3265,3.6691-14.3081,1.5791-4.472,5.0106-3.8698,8.2937-3.889Z"/>
      <g class="cls-26">
        <g>
          <path class="cls-28" d="m235.5416,522.45c-1.4955-17.1373-.1219-34.4106,3.0438-51.2881,3.0201-16.1003,6.9838-32.2559,12.9934-47.5184,1.9856-5.0427,4.2152-9.9921,6.7487-14.7842"/>
          <path class="cls-28" d="m271.8567,431.8394c-8.4352,2.9773-16.4807,7.0564-23.8676,12.101-1.8742,1.2799-2.9177,1.6714-4.4801,3.3173"/>
          <path class="cls-28" d="m239.5089,465.6179c8.096-5.232,17.2775-8.776,26.7891-10.3406"/>
          <path class="cls-28" d="m236.307,487.7251c7.5345-6.5294,16.719-11.1394,26.4566-13.2796"/>
          <path class="cls-28" d="m243.9277,446.6933c-.5888-9.0669-2.8454-18.023-6.623-26.2865"/>
          <path class="cls-28" d="m239.6121,464.8706c-3.8283-8.1903-9.3587-15.5802-16.137-21.563"/>
          <path class="cls-28" d="m235.8054,488.3537c-.5291-2.5304-1.457-4.9771-2.7389-7.2221-1.4913-2.6115-3.4427-4.9275-5.4295-7.1849-1.4308-1.6257-2.8862-3.2299-4.3653-4.8116"/>
        </g>
      </g>
    </g>
    <g>
      <path class="cls-23" d="m214.7814,451.25c-1.5462.2857-3.0833.3732-4.4303-.9401-2.644-2.5776-6.3232-4.6426-9.3008-.9402-1.7173,2.1353.5089,5.4292-.9262,7.4918-1.2692,1.824-3.3014,1.9503-3.6161,4.6359-.4629,3.9506,3.8602,6.51,5.6629,9.5059,1.5128,2.5141-.5323,3.9724-1.1374,6.2719-.4664,1.7728.2648,3.4367,1.4073,4.8284,2.0146,2.454,5.7433,4.0277,5.6536,7.7202-.0748,3.0817-.1663,5.8329,2.8732,7.5777,2.0835,1.1961,5.6726,1.9636,5.9625,4.8579.1026,1.0242-.4306,2.0157-.4323,3.045-.0026,1.629,1.3071,2.9641,2.695,3.8171,3.1578,1.9407,5.9616,3.8042,8.5654,6.5072,1.1126,1.155,5.1275,3.4763,4.0943,5.5428,1.8781-3.7562,3.9175-7.4404,5.5348-11.3212,1.3301-3.1918,3.3594-7.8761.7732-11.0011-.8043-.9719-2.0693-1.5694-2.6029-2.7128-.9634-2.0648.7844-4.483,1.2246-6.4799.6912-3.1354-.8642-6.3269-3.4709-8.084-1.2334-.8314-2.5745-1.7485-3.0042-3.1725-.4691-1.5549.2435-3.2242.4155-4.7738.1586-1.4287.1441-2.9126.0286-4.343-.0816-1.0102-.2334-2.0306-.6509-2.954-.7938-1.7562-2.6467-2.4631-4.1228-3.535-3.5141-2.5519-2.6765-6.5008-4.6419-9.8708-1.7644-3.0253-4.1702-2.1135-6.5543-1.673Z"/>
      <g class="cls-24">
        <g>
          <path class="cls-27" d="m232.8685,524.8081c-1.2873-12.6379-4.6745-24.9774-9.3069-36.7817-4.4192-11.2607-9.5305-22.4309-16.0023-32.6702-2.1383-3.383-4.4406-6.6645-6.9416-9.7899"/>
          <path class="cls-27" d="m193.9846,464.1081c6.5308.9922,12.9314,2.8374,18.9879,5.4742,1.5367.6689,2.3477.8085,3.7089,1.7861"/>
          <path class="cls-27" d="m222.1243,484.1327c-6.5968-2.6745-13.7474-3.9745-20.8634-3.7928"/>
          <path class="cls-27" d="m227.5068,499.7255c-6.3691-3.6933-13.6693-5.7661-21.029-5.9707"/>
          <path class="cls-27" d="m216.2996,471.0169c-.8279-6.6584-.4307-13.4672,1.1657-19.9843"/>
          <path class="cls-27" d="m221.946,483.6049c1.6433-6.4709,4.632-12.5969,8.7207-17.8748"/>
          <path class="cls-27" d="m227.9577,500.1121c.0335-1.9087.368-3.8119.9871-5.6179.7203-2.1007,1.8152-4.0508,2.9439-5.9633.8129-1.3773,1.6465-2.7424,2.5005-4.0945"/>
        </g>
      </g>
    </g>
    <polygon class="cls-10" points="247.9018 520.4311 216.3064 520.4311 221.8494 552.05 242.3587 552.05 247.9018 520.4311"/>
    <rect class="cls-10" x="212.4383" y="511.556" width="39.3316" height="8.8751"/>
    <polygon class="cls-4" points="217.0415 524.6241 247.1667 524.6241 247.9018 520.4311 216.3064 520.4311 217.0415 524.6241"/>
  </g>
  <g>
    <rect class="cls-7" x="288.2141" y="526.5014" width="8.7743" height="8.7743" transform="translate(585.2026 1061.7771) rotate(180)"/>
    <path class="cls-7" d="m271.7,552.3774h41.8027c0-9.445-7.6566-17.1017-17.1015-17.1017h-7.5996c-9.4449,0-17.1016,7.6567-17.1016,17.1017h0Z"/>
    <path class="cls-4" d="m292.6177,552.3774h-20.9013c0-9.4451,7.6567-17.1017,17.1016-17.1017h-.5876v-8.7743h4.3871"/>
    <g>
      <path class="cls-1" d="m270.1976,435.7842c1.3816,3.025,2.7632,6.0499,4.1449,9.0749,3.339,7.3104,6.6779,14.6209,10.0169,21.9313,4.0212,8.8041,8.0425,17.6083,12.0637,26.4125,3.4787,7.6165,6.9575,15.2329,10.4362,22.8493,1.1535,2.5257,2.3071,5.0513,3.4607,7.577.541,1.1844,1.0071,2.4562,1.6418,3.5945.0275.0494.0476.1044.0712.1559.9292,2.0344,3.9293.2679,3.0048-1.7564-1.3816-3.0249-2.7632-6.0499-4.1449-9.0748-3.339-7.3104-6.6779-14.6209-10.0169-21.9313-4.0212-8.8041-8.0424-17.6083-12.0637-26.4125-3.4787-7.6164-6.9574-15.2328-10.4362-22.8492-1.1536-2.5257-2.3071-5.0513-3.4607-7.577-.5409-1.1844-1.0071-2.4562-1.6418-3.5946-.0275-.0493-.0477-.1044-.0712-.1559-.9292-2.0344-3.9293-.2679-3.0047,1.7563h0Z"/>
      <path class="cls-7" d="m275.29,435.9571c-18.49,8.5314-31.8525,27.5572-30.8411,48.2998.492,10.0913,4.4243,19.7518,11.0302,27.3851,6.5303,7.546,15.5484,12.8249,25.2068,15.2206,11.6573,2.8915,23.9139,1.5557,34.8237-3.3737,2.0376-.9207.2704-3.9205-1.7564-3.0047-17.715,8.0043-39.6614,4.9901-53.5944-8.9214-6.5682-6.558-10.9381-15.271-12.0033-24.5167-1.0416-9.0405.9025-18.2438,5.2182-26.2306,5.2473-9.7109,13.6874-17.2463,23.6727-21.8536,2.0312-.9372.2654-3.9377-1.7564-3.0048h0Z"/>
      <g>
        <circle class="cls-25" cx="292.6013" cy="480.6679" r="41.343" transform="translate(-73.2162 53.0762) rotate(-9.2175)"/>
        <g class="cls-22">
          <g>
            <path class="cls-5" d="m303.8562,442.4049c.0171.127.0324.2539.0135.38-.0787.5261-.6749.7784-1.0251,1.1788-.3437.3932-.448.9537-.3801,1.4715.068.5177.2905,1.0021.5375,1.4623.1106.2065.2309.4297.1969.6616-.0554.3761-.4736.5725-.843.6625-1.1711.2851-4.3197,1.2265-3.2036,3.1251.5169.8792,1.7675.82,2.7803.9392,2.4199.2848,4.4942,2.4123,4.7177,4.8385.0284.3096.0241.643-.1473.9022-.2602.3933-.8016.4747-1.2724.4508-2.2098-.1119-4.0513-1.652-5.7113-3.1147-.9173.5399-.9393,1.8837-.5604,2.8784.379.9948,1.0428,1.9078,1.131,2.9686-1.0933.5358-2.4346.535-3.5273-.002-.5964-.293-1.2705-.7445-1.8599-.4375-.5044.2627-.6075.9246-.9004,1.4122-.8886,1.4793-3.0933,1.0234-4.7835,1.3716-1.275.2628-2.3611,1.0668-3.4012,1.8497-2.2768,1.7132-4.5534,3.4265-6.8302,5.1397-.2255.1696-.4566.3456-.601.588-.3739.6279-.0187,1.4702.5429,1.938.5616.4677,1.2835.6863,1.9313,1.0245,2.579,1.3467,3.1634,3.9673,4.5191,6.2752,1.3687,2.3299,3.0881,4.4092,4.9535,6.3572,2.1511,2.2467,4.0041,4.6219,5.765,7.1707.5795.8388,1.1657,1.6905,1.5018,2.6531.7436,2.1293.1725,4.4593.0475,6.7114-.0203.3658-.0229.7553.166,1.0692.189.3139.6395.497.9352.2807.1516-.111.2278-.2946.3021-.4671.5075-1.1785,1.2525-2.0713,2.081-3.0199.7264-.8319.7726-1.295.9106-2.3825.0558-.4411.2983-.6467.2787-1.1443-.0178-.454-.3944-.8134-.2465-1.3008.1244-.4101.568-.6365.7796-1.0092.4-.7048-.1523-1.6.0223-2.3913.1928-.8734.584-1.3417.594-2.2657.0093-.8536-.0141-1.7905-.2971-2.6041-.1977-.5684-.6597-1.0039-.768-1.6196-.0799-.4537.0181-.9343-.1283-1.3711-.1226-.366-.4012-.6542-.6151-.9754-.821-1.2317-.6514-2.848-.4501-4.3144.0835-.6087.2231-1.3038.7596-1.6032.1508-.0843.3269-.1316.4483-.2545.1479-.1494.1805-.3737.2253-.5792.2465-1.1311,1.1215-2.1034,2.2204-2.4674,2.3389-.7746.4174-3.6892-.7996-4.8564-.7622-.7312-1.6444-1.354-2.2582-2.2137-.614-.8595-.9066-2.0683-.3528-2.9679.7868-1.2782,2.7744-1.1642,4.0031-.3024,1.2289.8619,2.0067,2.2197,3.0815,3.2675,1.0748,1.0476,2.7675,1.7786,4.0579,1.0121.3714-.2207.7078-.561,1.1393-.5809.5785-.0266.994.5194,1.4767.8396,1.4803.983,3.536-.2065,5.2257.3441.7573.2467,1.3604.8206,2.0733,1.1759.7128.3554,1.7067.4217,2.1913-.2103.1896-.2475.2869-.5845.5588-.7367.2701-.1511.6053-.0604.9139-.0837.801-.0607,1.3402-.9159,1.3799-1.7181.0397-.8024-.2757-1.5728-.5043-2.3429-.7437-2.5051-.5703-5.2714.4797-7.6642.2617-.5962.5809-1.1892.6248-1.8386.0708-1.0456-.5781-1.9915-1.2309-2.8111-3.0705-3.8562-6.9314-7.0701-11.2505-9.4404-2.1788-1.1958-4.4752-2.1781-6.8476-2.9198-1.5206-.4755-5.0756-1.4508-4.7915,1.4489.0053.0541.0129.1082.0201.1623Z"/>
            <path class="cls-5" d="m269.057,448.8524c-.5515.8485-1.1031,1.6969-1.6545,2.5455-.2443.3756-.4965.7759-.5135,1.2238-.0369.9766,1.0081,1.6364,1.3274,2.5601.5306,1.5345-1.1532,3.0003-2.7564,3.2571-1.1109.1778-2.5573.2441-2.8963,1.317-.1178.3729-.0509.7832-.1552,1.16-.1436.5191-.5815.8918-.9236,1.3076-1.1215,1.3629-1.2133,3.4758-.2143,4.9308.4615.6722,1.1153,1.196,1.568,1.8742.4526.6782.6653,1.6327.1767,2.2854-.8864,1.1838-3.3892.6356-3.6777,2.0861-.1215.6106.2416,1.417-.2728,1.7679-.1949.1329-.4518.131-.6664.2293-.5145.2355-.6062.9352-.4964,1.4903s.3467,1.1162.2173,1.6671c-.6991.3029-1.6292-.3441-2.2221.1345-.1805.1456-.2794.3667-.3742.5783-1.1541,2.5762-2.6415,5.0029-4.4133,7.2005-.1018.1263-.2264.2629-.3886.2647-.2061.0022-.3415-.2088-.4285-.3956-1.0298-2.2107-1.0935-4.7315-1.139-7.1698-.0447-2.4017-.0871-4.8301.4327-7.1754.462-2.0844,1.3554-4.0443,2.2425-5.9861,2.5917-5.6727,5.1932-11.3636,8.4924-16.656,1.0497-1.6839,2.1978-3.3563,3.7793-4.5556,1.1677-.8854,4.8642-2.6309,6.1228-.9983.8563,1.1104-.5152,4.0546-1.1666,5.0569Z"/>
          </g>
        </g>
      </g>
    </g>
  </g>
</svg>