<?xml version="1.0" encoding="UTF-8"?>
<svg id="Background" xmlns="http://www.w3.org/2000/svg" viewBox="0 0 792 612">
  <defs>
    <style>
      .cls-1 {
        fill: #bcd0ec;
      }

      .cls-1, .cls-2, .cls-3, .cls-4, .cls-5, .cls-6, .cls-7, .cls-8, .cls-9, .cls-10, .cls-11, .cls-12, .cls-13, .cls-14, .cls-15, .cls-16, .cls-17, .cls-18 {
        stroke-width: 0px;
      }

      .cls-1, .cls-5, .cls-6, .cls-13, .cls-16, .cls-18 {
        fill-rule: evenodd;
      }

      .cls-2 {
        fill: #7392cb;
      }

      .cls-3 {
        fill: #e7eff6;
      }

      .cls-4 {
        fill: #efa48f;
      }

      .cls-5 {
        fill: #d46064;
      }

      .cls-6 {
        fill: #62aac5;
      }

      .cls-7 {
        fill: #1f2634;
      }

      .cls-8 {
        fill: #fff;
      }

      .cls-9 {
        fill: #03b6b4;
      }

      .cls-10 {
        fill: #00a8a9;
      }

      .cls-11 {
        fill: #f1f0f4;
      }

      .cls-12 {
        fill: #d9d7ec;
      }

      .cls-13 {
        fill: #e4e4e4;
      }

      .cls-14 {
        fill: #63615b;
      }

      .cls-15 {
        fill: #3e4549;
      }

      .cls-16 {
        fill: #f6d788;
      }

      .cls-17 {
        fill: #f1f6fc;
      }

      .cls-18 {
        fill: #f2f4fa;
      }
    </style>
  </defs>
  <g id="stain">
    <path class="cls-12" d="m267.1832,401.851c-14.7302-35.1934,3.9526-54.7375,6.994-117.4795,3.0414-62.7421-43.0332-96.2291-9.3777-151.8596,26.2011-43.3089,106.1592-46.4341,145.6526,1.9797,42.6346,52.2645,82.8335,53.5814,114.8024,88.433,57.3428,62.5138,20.3196,165.7657-42.4135,199.6916-72.2452,39.07-193.4789,32.2247-215.6578-20.7652Z"/>
  </g>
  <g>
    <polygon class="cls-4" points="322.8866 229.6486 324.5273 237.3295 335.5158 229.9098 333.9593 224.4968 322.8866 229.6486"/>
    <path class="cls-8" d="m369.6653,211.3385s-5.9655,2.4038-10.6551,13.0529c-4.6896,10.6491-12.6625,28.0553-12.6625,28.0553l-8.188-25.2577-19.9009,11.8s7.6758,42.5045,24.3199,48.3003c16.6441,5.7957,29.2503-20.0538,29.2503-20.0538l-2.1638-55.8969Z"/>
  </g>
  <path class="cls-8" d="m369.5173,213.4412c.3961-.4628.8418-1.0717,1.2368-1.837.6822-1.3217.9241-2.5498,1.0157-3.3867-2.102,1.7806-5.024,4.6929-7.2866,8.97-2.2897,4.3283-2.8083,7.9831-3.4723,11.9305-2.5963,15.4329-4.0539,15.2253-4.4106,21.0813-.7396,12.1414,5.8894,15.0166,7.6919,27.0462,1.8025,12.0296,1.325,30.5017-2.2367,42.1325,2.66-.675,5.4146-1.1433,8.0746-1.8183,2.1133-16.1985,1.5538-39.1908-.7677-55.3607-2.2063-15.3676-7.5935-35.4606.1548-48.7579Z"/>
  <g>
    <path class="cls-4" d="m384.4724,185.5016s-6.9624,14.9-18.1508,12.4001c-15.2696-3.4117-9.7692-31.1629-9.7692-31.1629l21.8806-4.6442,6.2827,15.5137-.2434,7.8933Z"/>
    <ellipse class="cls-4" cx="383.854" cy="181.2138" rx="5.466" ry="4.6088" transform="translate(-39.308 214.6237) rotate(-29.7859)"/>
    <path class="cls-4" d="m383.6627,208.1062h-12.7947v-19.8436c3.4909.286,6.9818.572,10.4727.858.2569,2.4743.5343,4.9745.8333,7.5.4616,3.8986.9594,7.7276,1.4887,11.4856Z"/>
  </g>
  <g>
    <rect class="cls-11" x="391.1546" y="359.9015" width="10.0593" height="77.2167"/>
    <rect class="cls-14" x="353.5783" y="345.1309" width="85.212" height="14.7322" rx="7.3661" ry="7.3661"/>
    <path class="cls-11" d="m423.5148,437.0601h-54.661c-6.4691,0-11.7134,5.2442-11.7134,11.7134v3.6729h4.8038v-3.4357c0-4.2992,3.4852-7.7844,7.7844-7.7844h23.8683v11.2201h4.8038v-11.2201h24.2392c4.2992,0,7.7844,3.4852,7.7844,7.7844v3.4357h4.8038v-3.6729c0-6.4691-5.2443-11.7134-11.7134-11.7134Z"/>
    <path class="cls-11" d="m423.5148,437.0601h-54.661c-6.4691,0-11.7134,5.2442-11.7134,11.7134v3.6729h4.8038v-3.4357c0-4.2992,3.4852-7.7844,7.7844-7.7844h23.8683v11.2201h4.8038v-11.2201h24.2392c4.2992,0,7.7844,3.4852,7.7844,7.7844v3.4357h4.8038v-3.6729c0-6.4691-5.2443-11.7134-11.7134-11.7134Z"/>
    <g>
      <rect class="cls-14" x="352.0441" y="452.4463" width="14.1712" height="15.2591" rx="7.0856" ry="7.0856"/>
      <path class="cls-15" d="m355.582,467.7054h7.0955c1.9539,0,3.5378-1.584,3.5378-3.5379v-4.7915h-14.1712v4.7915c0,1.9539,1.5839,3.5379,3.5379,3.5379Z"/>
    </g>
    <g>
      <rect class="cls-14" x="425.5798" y="452.4463" width="14.1712" height="15.2591" rx="7.0856" ry="7.0856"/>
      <path class="cls-15" d="m425.5798,459.376v4.7915c0,1.9539,1.584,3.5379,3.5379,3.5379h7.0955c1.9539,0,3.5378-1.584,3.5378-3.5379v-4.7915h-14.1712Z"/>
    </g>
    <g>
      <rect class="cls-14" x="388.9133" y="452.4463" width="14.1712" height="15.2591" rx="7.0856" ry="7.0856"/>
      <path class="cls-15" d="m392.4512,467.7054h7.0955c1.9539,0,3.5379-1.584,3.5379-3.5379v-4.7915h-14.1712v4.7915c0,1.9539,1.5839,3.5379,3.5379,3.5379Z"/>
    </g>
  </g>
  <path class="cls-9" d="m369.7214,311.9785c2.5575-10.7901-2.6503-29.0154-4.1937-39.9965-1.5434-10.9811-3.6892-21.9529-3.5184-33.0406.1708-11.0877,2.8976-22.5443,10.0232-31.041,3.8865-.514,8.283-4.2487,11.36-6.678,11.0894,3.2114,21.3139,4.8212,23.0465,10.023,13.1029,39.3375,14.378,75.0225,9.6342,102.3789-4.9855,1.2936-39.5786-1.1766-46.3519-1.6458Z"/>
  <path class="cls-8" d="m390.4979,201.3024s5.8896-.5507,19.1602,8.2792c13.2707,8.8299,20.7205,13.9608,20.7205,13.9608l-7.6874-29.1645,22.9248-2.1403s24.0224,48.28,7.6998,58.9663c-13.4917,8.8329-48.5742-4.7767-54.0083-8.911-5.4341-4.1343-14.2224-29.7614-8.8097-40.9905Z"/>
  <polygon class="cls-4" points="426.3778 188.6502 427.4072 193.9376 440.1449 192.7484 437.4332 186.4937 426.3778 188.6502"/>
  <path class="cls-2" d="m437.7854,187.0856l-11.2386,2.2248s-.8586.3285-1.3145-.4697c-.456-.7982.1443-1.4019.1443-1.4019,0,0-1.2851-2.5853-2.4414-3.7545-1.1551-1.168-3.7074-2.4323-5.4639-4.3726-1.8902-2.0879-2.9753-4.3719-4.8501-6.2978-1.5928-1.6361-5.2587-2.8414-5.2587-2.8414,0,0-.0412-2.0265,1.8905-2.3951,1.9317-.3686,5.7149.4539,7.3946,1.9012,1.6796,1.4473,2.0291-10.019,1.7651-12.5487-.2641-2.5297-2.6375-5.2339-2.1542-7.1789.4833-1.945,1.1967-2.643,2.0371-1.4956.8403,1.1473,2.9751,2.7573,3.8188,4.7529.8436,1.9956.897,3.9206.897,3.9206,0,0,1.7808-.1455,2.9468.5471,1.2015.7137,1.6548,3.0389,1.6548,3.0389,0,0,2.1656-.903,3.4616.0252.9562.6848,2.173,3.3071,2.173,3.3071,0,0,2.08-.9442,3.4894,2.2881.9525,2.1846-1.0642,12.2826-.816,14.2461.2108,1.6671,1.8161,4.0116,1.8161,4.0116,0,0,1.3231-.5492,1.6324.7963.2709,1.1782-1.5839,1.6962-1.5839,1.6962Z"/>
  <path class="cls-2" d="m339.7843,200.3955s-1.6991,6.7772-3.0192,12.4339c-1.2844,5.5038-2.6846,6.7111-3.2281,8.2182-.4649,1.2895-.0154,2.102-.0154,2.102,0,0,.7881-.7243,1.1851.3528.3543.9611-1.2893,1.7852-1.2893,1.7852l-11.1994,5.9044s-1.5866.9479-1.9956-.2896.8497-1.963.8497-1.963c0,0,.3638-2.3187-1.0264-3.9007-1.3902-1.582-4.9151-7.1278-5.6988-13.1865-.807-6.2385-.5841-10.0673,1.1472-11.3945.9939-.7619,3.1219-.2184,3.1219-.2184,0,0,.8532-1.2518,2.013-1.429,1.1598-.1772,1.5247.2023,1.5247.2023,0,0,1.9074-2.4913,3.1775-2.6928,1.27-.2015,7.6482,3.3886,7.6482,3.3886,0,0,.2978.9654-.6045,1.5-.9023.5346-2.0229.326-2.0229.326l2.8167,4.1943s1.3414-3.8924,2.794-5.0453,3.8215-.288,3.8215-.288Z"/>
  <path class="cls-7" d="m358.9579,161.2085s-6.1077-.3256-6.1058,4.015c.0017,3.863,5.8214,6.4469,14.7688,5.1543,8.9474-1.2926,11.7488-3.1635,11.7488-3.1635,0,0-1.1449,4.4141,1.5343,8.1509,2.6792,3.7368,7.7932,6.1365,7.7932,6.1365,0,0,3.4967-15.9282,1.2211-20.1543-2.5383-4.714-11.1473-3.6083-11.1473-3.6083,0,0-.6082-3.5293-4.1699-3.5363-3.6554-.0072-3.8244,3.514-3.8244,3.514,0,0-3.1255-8.0802-9.5558-5.865-6.2657,2.1586-2.2629,9.3567-2.2629,9.3567Z"/>
  <rect class="cls-4" x="347.1877" y="428.1716" width="15.1962" height="21.1111" transform="translate(-68.2884 65.4141) rotate(-9.6139)"/>
  <rect class="cls-4" x="386.7433" y="428.1716" width="15.1962" height="21.1111" transform="translate(-149.1279 209.3196) rotate(-25.1644)"/>
  <path class="cls-10" d="m376.4946,309.4695s-34.8253,8.2484-52.835,15.8833c-13.5996,5.7653,3.9658,60.347,7.8088,73.1571,3.8431,12.8101,11.9011,36.6559,11.9011,36.6559l21.1164-.9677s-5.6003-53.5148-12.4418-77.2136c8.9902-3.6829,25.907-16.1806,25.907-16.1806l-1.4565-31.3345Z"/>
  <path class="cls-9" d="m384.3803,309.4695s-50.8428,15.4335-54.0453,28.0835c-3.2026,12.65,51.1583,100.7569,51.1583,100.7569h24.2209s-24.1952-57.0754-38.7783-82.0552c0,0,27.6719-6.0807,37.4431-8.6257,9.7712-2.545,10.1319-34.4422,10.1319-34.4422l-30.1305-3.7174Z"/>
  <g>
    <path class="cls-8" d="m383.4196,201.1864c10.4289-1.1042,21.7583,3.1534,28.4589,11.2207,6.7006,8.0674,10.0773,18.4469,11.5656,28.8279,1.4883,10.381,1.2309,20.9199,1.484,31.404.9936,41.163,26.3644,75.9535,26.3644,119.9006-22.252.668-40.0633,3.1027-62.3153,3.7707-7.8759-26.8029-9.3957-56.3036-10.2481-84.2267-.6561-21.493-6.7247-44.7821-6.55-66.2844.3051-37.5429,12.7027-40.7603,11.2404-44.6129Z"/>
    <g>
      <path class="cls-17" d="m432.0636,375.9846c-1.2482,2.1845-3.4985,3.6172-5.8176,4.5928-6.0179,2.5314-13.0345,1.9512-18.8104-1.0922-5.5462-2.9223-8.4048-19.498-9.8562-31.7507,2.7342-.0895,18.7564.3522,30.391-2.9291,1.4703,6.7593,2.9405,13.5186,4.4107,20.2778.7914,3.6385,1.5297,7.6683-.3176,10.9013Z"/>
      <path class="cls-3" d="m427.9704,344.8054c-11.6347,3.2812-27.6569,2.8395-30.3911,2.9291.2022,1.7067.4318,3.4974.692,5.3232,10.3679-.5981,20.7359-1.1962,31.1037-1.7944-.4683-2.1526-.9364-4.3052-1.4047-6.4579Z"/>
    </g>
  </g>
  <path class="cls-13" d="m398.2128,445.4963c-2.4557.8734-7.0343.4386-7.0343.4386l-2.8367-3.1516c-.3441-.3821-.9352-.4052-1.3067-.0504l-19.7858,18.8393s-2.6566,1.4164-6.7148,3.4437c-4.0571,2.0278.2263,7.834.2263,7.834l50.5113-17.9656s-.8453-4.9328-1.7065-7.354c-.5478-1.5403-2.4248-3.9701-3.7187-5.5335-.6809-.8229-1.9206-.8428-2.6954-.1083-1.3568,1.2843-3.4217,3.0683-4.9387,3.6079Z"/>
  <path class="cls-13" d="m357.0843,443.7929c-2.4557.8734-7.0343.4386-7.0343.4386l-2.8367-3.1516c-.3441-.3821-.9352-.4052-1.3067-.0504l-19.7858,18.8393s-2.6566,1.4164-6.7148,3.4437c-4.0571,2.0278.2263,7.834.2263,7.834,0,0,47.7015-16.9662,50.5113-17.9656,0,0-.8453-4.9328-1.7065-7.354-.5478-1.5403-2.4248-3.9701-3.7187-5.5335-.6809-.8229-1.9206-.8428-2.6954-.1083-1.3568,1.2843-3.4217,3.0683-4.9387,3.6079Z"/>
  <path class="cls-6" d="m294.655,157.9363c-.2924-1.121-.0778-2.3275.5774-3.2459.6552-.9184,1.6719-1.4378,2.7355-1.3972,7.7555.2961,23.2357.8873,29.2091,1.1153,1.4456.0552,2.6944,1.1297,3.0852,2.657,2.1435,8.3716,11.6884,45.6396,14.3563,56.0588.1733.678.0676,1.4059-.2894,1.9904-.3585.5846-.9314.9695-1.569,1.05-6.6257.8487-24.2479,3.1048-30.0113,3.8424-1.0695.1369-2.0714-.5942-2.3667-1.7279-2.3888-9.1695-12.4582-47.802-15.727-60.3429Z"/>
  <path class="cls-18" d="m299.6147,157.1464c-.3688-.0142-.7228.1664-.9505.4857-.2277.3193-.3026.7387-.2013,1.1284,2.2345,8.5721,12.3671,47.4488,14.4885,55.5829.2248.8664.9829,1.43,1.8012,1.3414,4.5543-.4928,18.8694-2.0452,24.1891-2.6217.4995-.0532.952-.3479,1.2355-.802.2835-.4557.3688-1.0242.2336-1.554-2.3153-9.0407-11.2653-43.9831-13.1149-51.2057-.1998-.7809-.8374-1.3302-1.5764-1.3584-4.6351-.177-20.9321-.7992-26.1049-.9967Z"/>
  <path class="cls-16" d="m307.305,153.6497c-.2659-.8519-2.9309-.9374-2.6988-.1029,0,0,.8829,3.3089,1.3986,5.2383.1925.7189.7845,1.2199,1.4677,1.2397,2.7061.0781,9.5258.2751,13.0017.3754.4951.0143.9696-.2292,1.2767-.6567.3071-.4277.4128-.9893.2835-1.5149-.4672-1.9004-.9946-4.0543-.9946-4.0543-.2747-.7918-2.6033-.8482-2.4387-.0931l1.0299,3.8986-11.1962-.3071-1.1298-4.0229Z"/>
  <g>
    <path class="cls-1" d="m418.9144,151.3925c-2.2261-.9945-4.8376.0048-5.8322,2.231-1.1717,2.6227-2.6947,6.0316-3.8671,8.6559-.9946,2.2263.0042,4.8366,2.2303,5.8311h.0002c2.2261.9946,4.8369-.0031,5.8315-2.2293,1.1724-2.6243,2.6954-6.0332,3.8671-8.6559.9946-2.2263-.0035-4.8382-2.2296-5.8327h-.0002Z"/>
    <path class="cls-5" d="m411.1486,157.9514l-1.9336,4.328c-.9946,2.2263.0042,4.8366,2.2303,5.8311h.0002c2.2261.9946,4.8369-.0031,5.8315-2.2293l1.9336-4.3279-8.062-3.6018Z"/>
  </g>
</svg>