<?xml version="1.0" encoding="utf-8"?>
<!-- Generator: Adobe Illustrator 28.0.0, SVG Export Plug-In . SVG Version: 6.00 Build 0)  -->
<svg version="1.1" id="Layer_1" xmlns="http://www.w3.org/2000/svg" xmlns:xlink="http://www.w3.org/1999/xlink" x="0px" y="0px"
	 viewBox="0 0 130 130" style="enable-background:new 0 0 130 130;" xml:space="preserve">
<style type="text/css">
	.st0{fill:#E468FF;}
	.st1{fill:#FFE510;}
</style>
<path class="st0" d="M65,35c8,0,15.6,3.2,21.2,8.8C91.8,49.4,95,57,95,65c0,11.1-6.1,20.8-15,26v9c0,1.3-0.5,2.6-1.5,3.5
	c-0.9,0.9-2.2,1.5-3.5,1.5H55c-1.3,0-2.6-0.5-3.5-1.5c-0.9-0.9-1.5-2.2-1.5-3.5v-9c-9-5.2-15-14.9-15-26c0-8,3.2-15.6,8.8-21.2
	S57,35,65,35z M75,110v5c0,1.3-0.5,2.6-1.5,3.5c-0.9,0.9-2.2,1.5-3.5,1.5H60c-1.3,0-2.6-0.5-3.5-1.5c-0.9-0.9-1.5-2.2-1.5-3.5v-5H75
	z M60,95h10V84.3c8.7-2.2,15-10,15-19.3c0-5.3-2.1-10.4-5.9-14.1C75.4,47.1,70.3,45,65,45s-10.4,2.1-14.1,5.9
	C47.1,54.6,45,59.7,45,65c0,9.3,6.3,17.2,15,19.3V95z"/>
<rect x="60" y="9" class="st1" width="10" height="16"/>
<rect x="9" y="60" class="st1" width="16" height="10"/>
<rect x="105" y="60" class="st1" width="16" height="10"/>
<rect x="27" y="23.7" transform="matrix(0.7071 -0.7071 0.7071 0.7071 -13.141 31.6246)" class="st1" width="9.1" height="16"/>
<rect x="91" y="27.1" transform="matrix(0.7071 -0.7071 0.7071 0.7071 6.6085 79.304)" class="st1" width="16" height="9.1"/>
</svg>
