<?xml version="1.0" encoding="UTF-8"?>
<svg id="Background" xmlns="http://www.w3.org/2000/svg" xmlns:xlink="http://www.w3.org/1999/xlink" viewBox="0 0 792 612">
  <defs>
    <style>
      .cls-1 {
        fill: url(#linear-gradient-12);
      }

      .cls-1, .cls-2, .cls-3, .cls-4, .cls-5, .cls-6, .cls-7, .cls-8, .cls-9, .cls-10, .cls-11, .cls-12, .cls-13, .cls-14, .cls-15, .cls-16, .cls-17, .cls-18, .cls-19, .cls-20, .cls-21, .cls-22, .cls-23, .cls-24, .cls-25, .cls-26, .cls-27, .cls-28, .cls-29, .cls-30, .cls-31 {
        stroke-width: 0px;
      }

      .cls-2 {
        fill: url(#linear-gradient-17);
      }

      .cls-3 {
        fill: url(#linear-gradient);
      }

      .cls-4 {
        fill: #191947;
      }

      .cls-4, .cls-9, .cls-11, .cls-14, .cls-15, .cls-19, .cls-21, .cls-23, .cls-24, .cls-27, .cls-31 {
        fill-rule: evenodd;
      }

      .cls-5 {
        fill: #f4f4f5;
      }

      .cls-6 {
        fill: url(#linear-gradient-6);
      }

      .cls-7 {
        fill: url(#linear-gradient-15);
      }

      .cls-8 {
        fill: url(#linear-gradient-11);
      }

      .cls-9 {
        fill: #2e3876;
      }

      .cls-10 {
        fill: url(#linear-gradient-5);
      }

      .cls-11 {
        fill: #dde3e9;
      }

      .cls-12, .cls-15 {
        fill: #c2c5e3;
      }

      .cls-13 {
        fill: url(#linear-gradient-13);
      }

      .cls-14 {
        fill: #525795;
      }

      .cls-16 {
        fill: url(#linear-gradient-16);
      }

      .cls-17 {
        fill: url(#linear-gradient-14);
      }

      .cls-18 {
        fill: url(#linear-gradient-2);
      }

      .cls-19 {
        fill: #343537;
      }

      .cls-20 {
        fill: url(#linear-gradient-7);
      }

      .cls-21 {
        fill: #c3996c;
      }

      .cls-22 {
        fill: url(#linear-gradient-3);
      }

      .cls-23, .cls-30 {
        fill: #c5cfd6;
      }

      .cls-24 {
        fill: #414042;
      }

      .cls-32 {
        opacity: .76;
      }

      .cls-25 {
        fill: url(#linear-gradient-9);
      }

      .cls-26 {
        fill: url(#linear-gradient-8);
      }

      .cls-27 {
        fill: #573420;
      }

      .cls-33 {
        opacity: .46;
      }

      .cls-28 {
        fill: url(#linear-gradient-10);
      }

      .cls-29 {
        fill: url(#linear-gradient-4);
      }

      .cls-31 {
        fill: #5c65ad;
      }
    </style>
    <linearGradient id="linear-gradient" x1="-806.4677" y1="217.3978" x2="-765.801" y2="217.3978" gradientTransform="translate(-548.4604 512.7809) rotate(136.0148) scale(1 -1)" gradientUnits="userSpaceOnUse">
      <stop offset="0" stop-color="#2baae2"/>
      <stop offset="1" stop-color="#1172ba"/>
    </linearGradient>
    <linearGradient id="linear-gradient-2" x1="-800.9248" y1="232.0207" x2="-771.3439" y2="232.0207" xlink:href="#linear-gradient"/>
    <linearGradient id="linear-gradient-3" x1="-814.6893" y1="228.4889" x2="-786.1357" y2="228.4889" xlink:href="#linear-gradient"/>
    <linearGradient id="linear-gradient-4" x1="-780.6756" y1="264.9484" x2="-759.695" y2="298.3619" gradientTransform="translate(-548.4604 512.7809) rotate(136.0148) scale(1 -1)" gradientUnits="userSpaceOnUse">
      <stop offset="0" stop-color="#fde165"/>
      <stop offset=".0446" stop-color="#fde060"/>
      <stop offset=".4496" stop-color="#fdd93e"/>
      <stop offset=".7825" stop-color="#fdd528"/>
      <stop offset="1" stop-color="#fdd421"/>
    </linearGradient>
    <linearGradient id="linear-gradient-5" x1="-806.3887" y1="282.7934" x2="-765.88" y2="282.7934" xlink:href="#linear-gradient-4"/>
    <linearGradient id="linear-gradient-6" x1="-800.7259" y1="312.0433" x2="-771.5428" y2="312.0433" xlink:href="#linear-gradient-4"/>
    <linearGradient id="linear-gradient-7" x1="-800.5188" y1="268.1719" x2="-771.7499" y2="268.1719" xlink:href="#linear-gradient-4"/>
    <linearGradient id="linear-gradient-8" x1="-806.4268" y1="297.4204" x2="-765.8419" y2="297.4204" xlink:href="#linear-gradient-4"/>
    <linearGradient id="linear-gradient-9" x1="-790.0425" y1="326.3949" x2="-825.0101" y2="292.9814" xlink:href="#linear-gradient"/>
    <linearGradient id="linear-gradient-10" x1="-806.4377" y1="377.1473" x2="-765.831" y2="377.1473" xlink:href="#linear-gradient"/>
    <linearGradient id="linear-gradient-11" x1="-806.3887" y1="362.5203" x2="-765.88" y2="362.5203" xlink:href="#linear-gradient"/>
    <linearGradient id="linear-gradient-12" x1="-806.3396" y1="441.957" x2="-765.9291" y2="441.957" xlink:href="#linear-gradient-4"/>
    <linearGradient id="linear-gradient-13" x1="-800.7368" y1="391.7688" x2="-771.5319" y2="391.7688" xlink:href="#linear-gradient"/>
    <linearGradient id="linear-gradient-14" x1="-800.5106" y1="347.8974" x2="-771.7581" y2="347.8974" xlink:href="#linear-gradient"/>
    <linearGradient id="linear-gradient-15" x1="-800.2926" y1="427.3341" x2="-771.9761" y2="427.3341" xlink:href="#linear-gradient-4"/>
    <linearGradient id="linear-gradient-16" x1="-764.7504" y1="438.7248" x2="-782.04" y2="414.4418" xlink:href="#linear-gradient"/>
    <linearGradient id="linear-gradient-17" x1="-775.8463" y1="412.6807" x2="-817.4189" y2="368.7769" xlink:href="#linear-gradient-4"/>
  </defs>
  <path class="cls-5" d="m582.7909,472.2866c8.5888.0563,14.1696-9.1211,10.0673-16.6671-14.4896-26.6525,5.0636-66.1463,22.7815-89.7196,40.685-53.1148,58.0766-155.7186-19.9243-181.4036-18.8601-4.9342-38.8592-.9597-58.2677-2.8371-30.1693-2.9182-56.9219-19.601-84.2315-32.7495-112.5731-55.9148-117.7948,35.0093-185.4995,91.7041-21.2086,13.4201-47.2869,15.7249-71.7004,21.5444-50.9785,9.6639-79.5746,49.8302-53.6449,98.3018,15.5331,31.4687,46.2351,66.2336,34.4927,102.7892-1.0125,3.152,1.2879,6.3867,4.5985,6.4084l401.3282,2.629Z"/>
  <g id="Element_3" data-name="Element 3" class="cls-33">
    <path class="cls-30" d="m273.6924,150.4048l2.8032-6.7603-3.2035-1.3264c.5941-2.7955.5736-5.6265.0003-8.3161l3.1961-1.3269-2.7949-6.7599-3.202,1.3262c-1.497-2.313-3.4868-4.3316-5.8845-5.8832l1.3303-3.2025-6.7598-2.803-1.3252,3.2047c-.7388-.1581-1.4704-.2709-2.2087-.3408-2.0668-.2046-4.1303-.0809-6.1112.3406l-1.3288-3.2044-6.7567,2.7989,1.3312,3.2048c-2.3162,1.4999-4.3332,3.4835-5.888,5.8798l-3.2029-1.3279-2.7972,6.7636,3.2016,1.325c-.5928,2.7955-.5763,5.6271-.0018,8.3166l-3.2006,1.3287,2.7975,6.7599,3.2026-1.3248c1.5,2.3033,3.4826,4.3241,5.8855,5.8782l-1.329,3.2079,6.76,2.7999,1.3257-3.2063c.7338.1553,1.473.2678,2.2052.3429,2.0661.2006,4.1285.0795,6.1135-.3402l1.3235,3.1996,6.7563-2.7978-1.3201-3.2018c2.3094-1.4985,4.324-3.4851,5.8824-5.8842l3.1998,1.3291h0Zm-21.231.3317c-1.2109-.1175-2.4255-.4115-3.6076-.9019-6.4457-2.6718-9.5057-10.0654-6.8389-16.5152,2.1828-5.2655,7.515-8.2739,12.908-7.7444,1.2126.1194,2.422.4167,3.6076.9076,6.4496,2.6741,9.5091,10.0605,6.837,16.5112-2.1826,5.265-7.5142,8.2775-12.9061,7.7428h0Z"/>
  </g>
  <g id="Element_3-2" data-name="Element 3" class="cls-32">
    <path class="cls-30" d="m288.3404,231.591l-.4814-19.9107-9.433.233c-1.605-7.6102-4.7781-14.6309-9.1707-20.6901l6.4884-6.826-14.4087-13.7358-6.5036,6.8308c-6.2754-4.1036-13.4519-6.9313-21.1285-8.1472l-.2222-9.4346-19.9091.4814.2373,9.4346c-2.0124.4213-3.9569.9476-5.8708,1.588-5.3676,1.7704-10.3652,4.354-14.8284,7.5871l-6.8399-6.5068-13.7235,14.415,6.8462,6.5052c-4.1084,6.2861-6.9389,13.4456-8.1643,21.1222l-9.433.2285.5,19.9123,9.4267-.2345c1.6082,7.6086,4.7721,14.6354,9.1675,20.693l-6.4976,6.8355,14.415,13.733,6.5068-6.8279c6.2722,4.0762,13.4333,6.9173,21.1254,8.1336l.2314,9.4466,19.9063-.4893-.2377-9.439c1.9969-.4229,3.9601-.9583,5.8645-1.5788,5.3617-1.7795,10.3592-4.3552,14.8348-7.5887l6.8216,6.5007,13.7235-14.4119-6.8153-6.5099c4.0929-6.2751,6.9142-13.4393,8.1457-21.1269l9.4267-.2222h0Zm-52.4554,24.24c-3.1421,1.043-6.4881,1.6512-9.97,1.7346-18.983.4615-34.7499-14.5585-35.2284-33.5463-.3764-15.5074,9.5718-28.8728,23.5731-33.503,3.1484-1.0402,6.4853-1.6344,9.9764-1.7207,18.9954-.4599,34.7531,14.5428,35.2193,33.5384.3764,15.5061-9.5658,28.8807-23.5703,33.497h0Z"/>
  </g>
  <path class="cls-27" d="m481.8103,265.1895l17.6572,1.3539-3.9117-28.7411c3.6946-3.7113,6.3623-8.4021,6.3967-13.8851.0994-15.7976-22.082-14.0207-26.9529-6.417-4.871,7.6038-5.9064,27.7587-.5055,29.5987,2.1541.7336,6.941-.2922,11.9251-2.7927l-4.6089,20.8832Z"/>
  <path class="cls-4" d="m481.3876,203.12c4.0556.3109,7.0934,3.8377,6.7963,7.8831.7704.0488,1.5581.1172,2.3593.2069,4.2891.4795,8.0865,1.4622,10.6701,2.6409.4893.1961.9613.4434,1.4131.737.7413.4476,1.3067.9124,1.663,1.3804,1.5112,1.5604,2.6791,3.7184,3.3608,6.2306,4.5793-1.8992,9.8096-3.02,20.2063-2.2233,15.2882,1.1718,9.2542,22.8655-1.6882,22.0268-5.469-.4192-9.0945-4.5134-12.6657-8.5462-1.6808-1.8981-3.3493-3.7824-5.1928-5.2638-.0103.2865-.0267.5747-.0489.8643-.6321,8.2436-5.3056,15.5977-11.0518,15.1573-3.0254-.2319-5.8113-3.6226-7.6794-7.9848,2.4441.0197,4.2693-1.9355,4.4898-4.8149.1738-2.2687-1.4735-4.544-4.0766-4.7437-.9305-.0714-1.8877.3891-2.6351,1.1499-.1586-1.4265-.1968-2.8221-.0966-4.1277.1136-1.4784.3805-2.7741.7754-3.9025-3.1445-.4537-5.9562-1.1737-8.1219-2.0268-3.862-.5039-6.6973-3.9436-6.3966-7.8651.3105-4.0551,3.8567-7.0897,7.9195-6.7784Z"/>
  <g id="Left_Arm" data-name="Left Arm">
    <path class="cls-27" d="m372.443,237.0296c-5.9524-5.5478-11.6617-9.7251-17.1258-12.5318-1.6216-.4574-4.3675-.5194-1.3005,3.6538s6.105,8.7011,4.9867,10.237c-.4895.6725-1.4246.7558-2.426.8444-1.2867.1144-2.6825.2383-3.3882,1.6316-.8377,1.6524,4.9334,3.4034,17.3105,5.2515l25.2612,18.0608,10.0517-13.8037-33.3698-13.3436h.0001Z"/>
    <path class="cls-23" d="m488.0653,264.5013c1.0932,11.296-2.1099,16.6729-4.5251,19.3305-14.3568,15.7979-56.9766-2.7511-68.9428-7.959-16.5241-7.1916-28.8602-15.6645-36.7093-21.722l7.7446-12.3987c35.3412,14.8247,69.0578,17.0423,100.8895,13.6413l1.543,9.1079h0Z"/>
  </g>
  <g id="Right_Leg" data-name="Right Leg">
    <path class="cls-27" d="m338.1119,445.3988l-6.4539-7.8152c36.3397-38.3566,59.14-60.7418,68.4003-67.1541,6.1183-4.2368,22.4415,7.8318,12.6626,18.0768-4.1008,4.2965-16.1168,15.0985-30.3424,26.9864-8.3084,6.9423-23.0638,16.9114-44.2666,29.9062h0Z"/>
    <path class="cls-9" d="m370.4434,450.724l-30.6242-26.8706c4.336-2.976,46.2528-47.7715,60.8067-57.7599,6.4103-4.4001,32.109,13.9051,21.7646,24.5524l-51.9471,60.078h0Z"/>
    <path class="cls-24" d="m343.6595,443.3385c-1.563.1247-3.8075.1992-5.0672-.239-2.0689-.7198-4.8413-3.4154-4.8413-3.4154l-.1984-3.5279c-.0255-.4497-.4166-.7897-.8657-.7513l-22.855,1.9375s-2.4873-.4702-6.2147-1.277c-3.7276-.8061-3.9763,5.257-3.9763,5.257,0,0,40.202,13.9859,42.5705,14.8099,0,0,2.0425-3.6799,2.7528-5.7216.4456-1.2809.4988-3.81.4763-5.516-.0121-.9358-.8484-1.6303-1.7812-1.5563h.0003Z"/>
  </g>
  <g id="Body">
    <path class="cls-21" d="m538.6709,373.1937h-91.901c-7.062,0-12.7862,5.7242-12.7862,12.7862v73.5208c0,7.062,5.7242,12.7862,12.7862,12.7862h91.901c7.0617,0,12.7862-5.7242,12.7862-12.7862v-73.5208c0-7.062-5.7245-12.7862-12.7862-12.7862h0Zm-79.1147,22.3759c-1.7653,0-3.1966,1.4313-3.1966,3.1966v47.9483c0,1.7654,1.4313,3.1966,3.1966,3.1966h66.3285c1.7654,0,3.1966-1.4313,3.1966-3.1966v-47.9483c0-1.7654-1.4312-3.1966-3.1966-3.1966h-66.3285Z"/>
    <path class="cls-27" d="m465.1237,447.8947c3.5897,5.236-3.9917,9.6696-7.7804,6.2789-2.7027-2.419-35.055-29.5513-57.2287-49.6497-8.904-8.0705,8.8592-22.9633,17.7792-14.1032,3.0007,2.9815,6.1741,6.1805,9.4258,9.5129,11.3158,11.5979,32.0919,39.6293,37.8041,47.9611h0Z"/>
    <path class="cls-24" d="m461.423,444.4648c-.927,1.2642-2.3374,3.0111-3.493,3.6784-1.8972,1.0957-5.7498,1.4313-5.7498,1.4313l-2.7994-2.1553c-.3564-.2749-.8695-.2006-1.134.1638l-13.4735,18.5624s-1.9811,1.5751-5.0282,3.8694c-3.0463,2.2935,1.3793,6.445,1.3793,6.445,0,0,36.8626-21.2827,39.0339-22.5365,0,0-1.4497-3.9517-2.5301-5.8233-.6784-1.1747-2.5572-2.8673-3.8638-3.9661-.7161-.6026-1.7877-.4236-2.3415.3308h0Z"/>
    <path class="cls-31" d="m426.9016,392.5729c-1.2211.3452-.0671,2.6691-.0671,2.6691l29.1302,37.3805-35.5601,22.6532s-38.4234-65.7611-38.5089-65.9857c-1.3913-3.6713-2.809-14.8161,4.8052-18.596,0,0,63.4796-28.3311,72.1087-30.8228h43.47c4.0677,27.7006-2.8121,40.3965-26.4051,44.5568-12.4162,2.1896-48.9728,8.1448-48.9728,8.1448h0Z"/>
    <path class="cls-27" d="m571.1443,366.2285c1.457,2.1409,10.8298,7.949,17.2136,11.1232,2.5624,1.2738,1.8833,3.4602,1.0771,4.1291-5.085,4.2178-9.5123,2.4142-14.3316.4507-1.3952-.5682-2.8233-1.15-4.3096-1.6031-3.8473-1.1723-5.1385.7704-6.3589,2.606-1.0805,1.6254-2.1053,3.1678-4.7991,2.3894.1521-.5282.3359-1.1204.5343-1.7589,1.2823-4.1284,3.1736-10.217,1.0354-13.9242-1.6459-2.8545-24.4358-52.3004-24.4358-52.3004l14.1542-2.0554s17.2402,46.5642,20.2204,50.9435h0Z"/>
    <path class="cls-19" d="m521.8889,341.2282c-3.1426-37.3949-10.4575-63.3693-26.3716-86.0078,0,0-8.8824,1.2542-12.4346-.5369,0,21.9678-8.8512,49.5637-21.7589,81.1912-.8295,2.0306-.5474,5.0234,1.2403,5.3534,21.6399,3.9957,59.3249,0,59.3249,0h0Z"/>
    <path class="cls-11" d="m499.5608,255.0979h.6081c.0855.1971.1718.3952.2573.5944,8.8288,6.1597,54.3287,40.6715,69.8586,107.5914l-15.2389,3.9118c-9.5413-28.0657-21.3471-44.9251-31.456-54.9831,13.6994,36.4224,26.9238,79.3162,28.6403,115.1847h-81.3569c11.7913-31.5492,17.3309-113.99,19.9177-152.4821.712-10.5925,1.2003-17.857,1.5335-19.817h6.632s-.024-.4145-.024-.4145c0,0,.2173.1377.6281.4145h.0002Z"/>
  </g>
  <g>
    <path class="cls-15" d="m167.6149,300.7713h0c-9.6248-7.645-11.2294-21.6444-3.5857-31.2697l132.9213-167.3553c.123-.1554.349-.181.5029-.0585l34.2945,27.2378c.155.1229.1809.3493.0565.5042l-132.9198,167.3554c-7.6451,9.6249-21.6449,11.2308-31.2698,3.586Z"/>
    <rect class="cls-12" x="302.1386" y="90.4603" width="15.3668" height="62.5275" transform="translate(21.8136 288.6298) rotate(-51.5421)"/>
    <path class="cls-14" d="m170.9937,296.5182h0c-7.7927-6.1884-9.092-17.5217-2.904-25.3133l122.4095-154.1205,28.2154,22.4109-122.4078,154.1199c-6.1879,7.7913-17.5217,9.092-25.313,2.903Z"/>
  </g>
  <g>
    <path class="cls-3" d="m152.366,136.1744c.9005.7329,1.8217,1.389,2.7516,1.9837l28.3958-27.4073c-.5633-.9485-1.1864-1.8924-1.887-2.8183l-29.2605,28.2419Z"/>
    <path class="cls-18" d="m166.5094,142.8464c1.3592.3016,2.7276.5147,4.1124.6703l17.6959-17.0799c-.1064-1.3895-.2788-2.757-.5242-4.1336l-21.2841,20.5432Z"/>
    <path class="cls-22" d="m187.5536,143.3503c1.0499-.0855,2.1116-.1784,3.1712-.2695,1.604-.1392,3.2158-.2861,4.8253-.404.8679-7.6512,1.3885-15.3914-.1972-23.0301-.2496-1.2513-.5628-2.4981-.936-3.7362-1.0921-3.6271-2.7282-7.2215-5.0879-10.7728-.6045-.9088-1.2629-1.8186-1.9791-2.7293-1.0289-1.321-2.1678-2.6306-3.4244-3.9325-1.5045-1.5588-4.0052-1.6108-5.5699-.1006-1.5667,1.5121-1.6033,4.013-.0987,5.5718,1.2642,1.3098,2.3835,2.6382,3.3695,3.9855.7005.9259,1.3237,1.8697,1.887,2.8183,2.2501,3.7517,3.5752,7.6046,4.28,11.5525.2454,1.3765.4178,2.7441.5242,4.1336.4405,5.4869-.0855,11.1379-.7641,16.9134Z"/>
    <path class="cls-29" d="m243.2238,180.0193c.2396,1.3822.4039,2.7689.4988,4.1582.3847,5.3742-.1316,10.9097-.7942,16.5448,1.0499-.0855,2.1116-.1784,3.1713-.2695,1.604-.1393,3.2158-.2861,4.8252-.4041.8505-7.5397,1.3711-15.1701-.1259-22.7012-.2417-1.2589-.5491-2.5113-.9144-3.757-1.0705-3.648-2.6792-7.2688-5.0251-10.8334-.6042-.9242-1.2548-1.8415-1.9556-2.752-1.0757-1.397-2.2769-2.7828-3.6035-4.1573-1.4099-1.4608-2.8341-2.7676-4.2684-3.9397-.887-.7346-1.7866-1.4116-2.6872-2.0346-3.5162-2.4501-7.0975-4.1633-10.7347-5.334-1.2398-.4055-2.4864-.7475-3.7343-1.0201-7.3651-1.678-14.8763-1.4199-22.3256-.8426-1.6094.118-3.2213.2648-4.8253.404-1.0597.0911-2.1213.1841-3.1712.2695-5.8037.4811-11.4639.801-16.9318.1665-1.3849-.1556-2.7533-.3687-4.1124-.6703-3.9204-.8442-7.724-2.305-11.3917-4.6884-.93-.5946-1.8511-1.2508-2.7516-1.9837-1.3115-1.0331-2.5995-2.1988-3.8637-3.5086-1.5045-1.5588-4.0052-1.6108-5.5718-.0987-1.5647,1.5102-1.6013,4.0111-.0968,5.5699,1.2566,1.302,2.525,2.4866,3.8087,3.5616.8848.748,1.7707,1.4382,2.6575,2.0745,3.4655,2.4839,6.9997,4.2464,10.5858,5.4662,1.2163.4243,2.4511.7816,3.6928,1.0753,7.5778,1.8552,15.3335,1.6072,23.0087,1.0127,1.6057-.1257,3.2156-.2707,4.8196-.4099,1.0616-.093,2.1213-.1841,3.1829-.277,5.5198-.4457,10.9314-.768,16.1663-.2494,1.0524.1015,2.0926.2375,3.1302.4139.3458.0601.6917.1202,1.0374.188,3.9754.7874,7.8496,2.18,11.5817,4.5164.9515.5738,1.8749,1.2165,2.795,1.9305,1.4622,1.1186,2.908,2.4047,4.3312,3.8792,1.3399,1.3882,2.5195,2.7948,3.5388,4.2197.6947.9316,1.3119,1.8811,1.8654,2.8391,2.2226,3.7782,3.5203,7.6576,4.1879,11.6415Z"/>
    <path class="cls-10" d="m198.3235,182.7103c.5398.9713,1.1494,1.9168,1.8303,2.8616l29.1468-28.1321c-.9202-.714-1.8435-1.3567-2.795-1.9305l-28.182,27.201Z"/>
    <path class="cls-6" d="m243.2238,180.0193l-20.9978,20.2669c1.365.2959,2.7529.5017,4.1379.6457l17.3586-16.7544c-.0949-1.3893-.2592-2.776-.4988-4.1582Z"/>
    <path class="cls-20" d="m193.7662,166.7896c.0849,1.4065.2357,2.7948.4559,4.1844l20.6998-19.9792c-.3457-.0678-.6896-.1298-1.0354-.1899-1.0376-.1764-2.0778-.3124-3.1302-.4139l-16.99,16.3986Z"/>
    <path class="cls-26" d="m237.1705,165.5387l-29.2017,28.1851c.9064.7272,1.8334,1.3777,2.7713,1.9647l28.2958-27.3108c-.5535-.958-1.1707-1.9075-1.8654-2.8391Z"/>
    <path class="cls-25" d="m198.2085,195.509c1.3266,1.3745,2.669,2.624,4.027,3.7485.8851.7326,1.7788,1.4153,2.6811,2.0518,3.4792,2.4707,7.0409,4.2066,10.6427,5.4113,1.23.4111,2.4727.7607,3.7203,1.0488,7.4754,1.7609,15.1174,1.5128,22.6825.9299,1.6057-.1257,3.2156-.2707,4.8215-.408,1.0597-.0949,2.1194-.186,3.1811-.279,5.5217-.4438,10.9179-.7664,16.1508-.2497,1.4045.1367,2.7886.3346,4.1676.6019,3.9851.7818,7.8593,2.1744,11.5915,4.5108.9437.5814,1.873,1.2146,2.7931,1.9285,1.4698,1.1265,2.9156,2.4125,4.3387,3.887,1.3399,1.3882,2.5138,2.7889,3.541,4.2063.6849.9372,1.3041,1.8887,1.8557,2.8447,2.2324,3.7726,3.5222,7.6596,4.1957,11.6339.2415,1.3842.4038,2.7727.4968,4.1601.3922,5.382-.1221,10.9156-.7925,16.5583,1.0518-.0835,2.1115-.1785,3.1712-.2695,1.604-.1392,3.2158-.2861,4.8271-.4021.8583-7.5473,1.3751-15.1777-.1275-22.7186-.2496-1.2513-.5472-2.5093-.9223-3.7494-1.0646-3.6536-2.6773-7.2669-5.0251-10.8334-.6023-.9223-1.2529-1.8396-1.9537-2.7501-1.07-1.3911-2.2712-2.7769-3.5978-4.1514-1.408-1.4588-2.8398-2.7735-4.276-3.9476-.891-.7269-1.7847-1.4096-2.6852-2.0326-3.5162-2.4502-7.0994-4.1653-10.7424-5.3303-1.2378-.4035-2.4864-.7475-3.7284-1.0258-7.3575-1.6702-14.8841-1.4123-22.3181-.8348-1.6094.118-3.2213.2648-4.8252.4041-1.0597.0911-2.1213.1841-3.1713.2695-5.6648.472-11.2053.7825-16.5645.2096-1.385-.144-2.7729-.3498-4.1379-.6457-3.9577-.8082-7.7887-2.2425-11.4858-4.5976-.9378-.5871-1.8648-1.2375-2.7713-1.9647-1.3879-1.0691-2.7519-2.2978-4.0918-3.6861-1.4232-1.4745-2.6572-2.9649-3.7233-4.4659-.6809-.9449-1.2905-1.8904-1.8303-2.8616-2.2106-3.805-3.4632-7.7279-4.1014-11.7363-.2201-1.3896-.3709-2.7779-.4559-4.1844-.3329-5.2499.173-10.6392.8238-16.1492-1.0616.093-2.1213.1841-3.1829.277-1.604.1393-3.2139.2842-4.8196.4099-.8466,7.4299-1.3569,14.914.0514,22.3415.2361,1.2492.5338,2.5072.8951,3.7605,1.0411,3.6763,2.6264,7.3161,4.9504,10.9169.5908.922,1.2355,1.845,1.9382,2.7575,1.1206,1.4749,2.3761,2.9445,3.7861,4.4053Z"/>
    <path class="cls-28" d="m292.5474,222.8971l-29.2173,28.2002c.9124.7177,1.8413,1.3701,2.7772,1.9552l28.2958-27.3108c-.5516-.956-1.1707-1.9075-1.8557-2.8447Z"/>
    <path class="cls-8" d="m255.5209,242.936l29.1468-28.1321c-.9201-.7139-1.8494-1.3471-2.7931-1.9285l-28.182,27.201c.5476.9637,1.1475,1.9148,1.8284,2.8596Z"/>
    <path class="cls-1" d="m308.9122,297.1738c.5319.9788,1.1413,1.9359,1.8144,2.8883l29.0762-28.064c-.928-.7064-1.8629-1.3493-2.8222-1.9156l-28.0683,27.0912Z"/>
    <path class="cls-13" d="m277.5853,257.6578c1.3748.2903,2.7567.5017,4.1399.6438l17.3704-16.7657c-.093-1.3874-.2553-2.7759-.4968-4.1601l-21.0135,20.282Z"/>
    <path class="cls-17" d="m249.5951,228.3324l20.688-19.9678c-1.379-.2672-2.7631-.4652-4.1676-.6019l-16.9743,16.3834c.0868,1.4084.2356,2.7987.4539,4.1863Z"/>
    <path class="cls-7" d="m304.4883,281.1205c.079,1.416.2139,2.8311.434,4.2207l20.3743-19.665c-1.3809-.2692-2.7903-.4542-4.2026-.5833l-16.6057,16.0276Z"/>
    <path class="cls-16" d="m304.9874,305.6015c1.171,1.5664,2.4869,3.1141,3.9782,4.6592,1.5045,1.5588,4.0033,1.6089,5.568.0986,1.5666-1.5121,1.6051-4.0111.1006-5.5699-1.4989-1.5529-2.8007-3.1294-3.9076-4.7274-.6731-.9524-1.2825-1.9095-1.8144-2.8883-2.1753-3.8391-3.3926-7.796-3.9898-11.8326-.2201-1.3896-.3551-2.8047-.434-4.2207-.2852-5.1142.2183-10.3647.8511-15.7362-1.0616.093-2.1213.1841-3.181.279-1.604.1392-3.2158.2822-4.8196.4099-.8328,7.303-1.339,14.6619-.021,21.9682.228,1.2722.5198,2.5358.8732,3.7967,1.0137,3.7028,2.5638,7.3651,4.8761,10.9772.5886.9355,1.2198,1.8602,1.9203,2.7861Z"/>
    <path class="cls-2" d="m349.9587,276.1674c1.5647-1.5102,1.6032-4.0092.0986-5.568-1.4913-1.5451-2.9915-2.915-4.5154-4.1407-.9005-.7329-1.8023-1.3964-2.7163-2.0178-3.528-2.4388-7.133-4.1177-10.7976-5.2618-1.2476-.3979-2.508-.7267-3.7713-.9996-7.2473-1.5834-14.6332-1.325-21.9552-.757-1.6113.116-3.2231.2628-4.8271.4021-1.0597.0911-2.1194.186-3.1712.2695-5.6648.472-11.2132.79-16.5779.2074-1.3832-.1421-2.7651-.3535-4.1399-.6438-3.948-.8138-7.7868-2.2405-11.478-4.6051-.9359-.5851-1.8649-1.2376-2.7772-1.9552-1.3801-1.0767-2.7383-2.2995-4.0782-3.6877-1.4232-1.4745-2.6572-2.9649-3.7309-4.4737-.6809-.9448-1.2808-1.8959-1.8284-2.8596-2.2028-3.8125-3.4573-7.7336-4.0974-11.7439-.2183-1.3876-.3671-2.7779-.4539-4.1863-.3389-5.2404.1746-10.6218.8235-16.1337-1.0616.093-2.1213.184-3.1811.279-1.6059.1373-3.2158.2822-4.8215.408-.8464,7.4145-1.3569,14.914.0438,22.3336.2361,1.2492.5357,2.5091.8951,3.7605,1.0411,3.6763,2.6282,7.318,4.9523,10.9188.5908.922,1.2433,1.8375,1.9362,2.7555,1.1225,1.4769,2.3856,2.9543,3.7937,4.4131,1.3266,1.3745,2.669,2.624,4.0214,3.7426.8851.7326,1.7788,1.4153,2.6792,2.0499,3.4812,2.4726,7.035,4.2123,10.6427,5.4113,1.2319.4131,2.4727.7607,3.7124,1.0564,7.4908,1.7612,15.1269,1.5226,22.6998.9321,1.6038-.1277,3.2156-.2707,4.8196-.4099,1.0597-.0949,2.1194-.186,3.181-.279,5.3828-.4347,10.6459-.75,15.7546-.2914,1.4123.1291,2.8217.314,4.2026.5833,4.0129.7398,7.9164,2.1041,11.6839,4.4064.9594.5663,1.8942,1.2092,2.8222,1.9156,1.5598,1.1608,3.0872,2.5196,4.586,4.0725,1.5045,1.5588,4.0033,1.6089,5.5699.0967Z"/>
  </g>
  <g id="Element_3-3" data-name="Element 3">
    <path class="cls-30" d="m339.19,191.2233l4.2438-10.2344-4.8498-2.0081c.8994-4.2321.8684-8.518.0004-12.5897l4.8386-2.0088-4.2312-10.2338-4.8474,2.0077c-2.2663-3.5017-5.2786-6.5576-8.9085-8.9066l2.0139-4.8482-10.2336-4.2435-2.0062,4.8516c-1.1184-.2394-2.226-.4101-3.3437-.5159-3.1289-.3097-6.2529-.1224-9.2517.5157l-2.0117-4.8511-10.229,4.2372,2.0153,4.8517c-3.5065,2.2707-6.56,5.2737-8.9138,8.9015l-4.8488-2.0103-4.2347,10.2394,4.847,2.0059c-.8974,4.232-.8724,8.5189-.0027,12.5905l-4.8454,2.0115,4.2351,10.2338,4.8484-2.0055c2.2709,3.487,5.2723,6.5463,8.91,8.8989l-2.0119,4.8564,10.234,4.2388,2.007-4.854c1.1109.2351,2.23.4054,3.3384.5192,3.1279.3037,6.2501.1204,9.2552-.515l2.0037,4.8439,10.2283-4.2356-1.9984-4.8471c3.4962-2.2686,6.546-5.2761,8.9054-8.9081l4.8442,2.0121h0Zm-32.1416.5022c-1.8331-.1779-3.6719-.6229-5.4615-1.3654-9.7581-4.0448-14.3906-15.2379-10.3534-25.0023,3.3045-7.9714,11.3769-12.5259,19.5413-11.7242,1.8357.1808,3.6666.6308,5.4615,1.3739,9.7641,4.0484,14.3957,15.2306,10.3505,24.9962-3.3042,7.9707-11.3757,12.5312-19.5385,11.7218h0Z"/>
  </g>
</svg>