<?xml version="1.0" encoding="UTF-8"?>
<svg xmlns="http://www.w3.org/2000/svg" xmlns:xlink="http://www.w3.org/1999/xlink" viewBox="0 0 792 612">
  <defs>
    <style>
      .cls-1 {
        fill: #ef374b;
      }

      .cls-1, .cls-2, .cls-3, .cls-4, .cls-5, .cls-6, .cls-7, .cls-8, .cls-9, .cls-10, .cls-11, .cls-12, .cls-13, .cls-14, .cls-15, .cls-16, .cls-17, .cls-18, .cls-19, .cls-20, .cls-21, .cls-22, .cls-23, .cls-24, .cls-25, .cls-26, .cls-27, .cls-28, .cls-29, .cls-30, .cls-31, .cls-32, .cls-33 {
        stroke-width: 0px;
      }

      .cls-2 {
        fill: #e5f5fd;
      }

      .cls-3 {
        fill: #3b4246;
      }

      .cls-4 {
        fill: url(#linear-gradient);
      }

      .cls-5 {
        fill: #191947;
      }

      .cls-5, .cls-10, .cls-12, .cls-17, .cls-21, .cls-22, .cls-30, .cls-31 {
        fill-rule: evenodd;
      }

      .cls-6 {
        fill: #40494e;
      }

      .cls-7 {
        fill: url(#linear-gradient-6);
      }

      .cls-8 {
        fill: #b0c1d0;
      }

      .cls-9 {
        fill: #2d3235;
      }

      .cls-10 {
        fill: rgba(1, 1, 1, .1);
      }

      .cls-34 {
        isolation: isolate;
      }

      .cls-11 {
        fill: #c2c4c4;
      }

      .cls-12, .cls-23 {
        fill: #99765a;
      }

      .cls-13 {
        fill: url(#linear-gradient-5);
      }

      .cls-14 {
        fill: #424143;
      }

      .cls-15, .cls-20 {
        fill: #fff;
      }

      .cls-16 {
        fill: url(#linear-gradient-2);
      }

      .cls-17 {
        fill: #b0bac5;
      }

      .cls-18 {
        fill: url(#linear-gradient-7);
      }

      .cls-19 {
        fill: url(#linear-gradient-3);
      }

      .cls-20 {
        mix-blend-mode: soft-light;
      }

      .cls-21 {
        fill: #c5cfd6;
      }

      .cls-22 {
        fill: #465caa;
      }

      .cls-35 {
        opacity: .53;
      }

      .cls-24 {
        fill: #d2d3d4;
        mix-blend-mode: multiply;
      }

      .cls-25 {
        fill: #cfe0f1;
      }

      .cls-26 {
        fill: url(#linear-gradient-8);
      }

      .cls-27 {
        fill: #f9f9f9;
      }

      .cls-28 {
        fill: #59666c;
      }

      .cls-29 {
        fill: #cad3d3;
      }

      .cls-30 {
        fill: #b28b68;
      }

      .cls-31 {
        fill: #3c4ca0;
      }

      .cls-32 {
        fill: url(#linear-gradient-4);
      }

      .cls-33 {
        fill: #9dacb9;
      }
    </style>
    <linearGradient id="linear-gradient" x1="470.0875" y1="438.8121" x2="470.0875" y2="169.3222" gradientUnits="userSpaceOnUse">
      <stop offset=".0484" stop-color="#1a1a1a"/>
      <stop offset=".4497" stop-color="#1d1d1d"/>
      <stop offset=".78" stop-color="#272727"/>
      <stop offset="1" stop-color="#333"/>
    </linearGradient>
    <linearGradient id="linear-gradient-2" x1="279.9201" y1="419.7413" x2="660.2553" y2="419.7413" gradientUnits="userSpaceOnUse">
      <stop offset=".0484" stop-color="#212121"/>
      <stop offset="1" stop-color="#333"/>
    </linearGradient>
    <linearGradient id="linear-gradient-3" x1="565.1146" y1="438.3917" x2="565.1146" y2="401.0909" gradientUnits="userSpaceOnUse">
      <stop offset="0" stop-color="#c1d4e1"/>
      <stop offset="1" stop-color="#deeaf1"/>
    </linearGradient>
    <linearGradient id="linear-gradient-4" x1="279.9167" y1="419.9699" x2="660.2579" y2="419.9699" xlink:href="#linear-gradient-2"/>
    <linearGradient id="linear-gradient-5" x1="475.9015" y1="438.3917" x2="475.9015" y2="401.0909" xlink:href="#linear-gradient-3"/>
    <linearGradient id="linear-gradient-6" x1="475.9015" y1="438.3917" x2="475.9015" y2="401.0909" xlink:href="#linear-gradient-3"/>
    <linearGradient id="linear-gradient-7" x1="435.3059" y1="419.97" x2="481.8285" y2="419.97" xlink:href="#linear-gradient-2"/>
    <linearGradient id="linear-gradient-8" x1="470.0875" y1="438.3917" x2="470.0875" y2="401.0909" gradientUnits="userSpaceOnUse">
      <stop offset="0" stop-color="#d9e8f7"/>
      <stop offset="1" stop-color="#f8fcff"/>
    </linearGradient>
  </defs>
  <g class="cls-34">
    <g id="Background">
      <g class="cls-35">
        <g>
          <path class="cls-4" d="m644.5913,165.6176h-349.0078c-8.6509,0-15.6629,7.0121-15.6629,15.6616v241.4496c0,8.6509,7.0121,15.663,15.6629,15.663h349.0078c8.6512,0,15.6633-7.0121,15.6633-15.663v-241.4496c0-8.6495-7.012-15.6616-15.6633-15.6616Z"/>
          <path class="cls-16" d="m469.9747,415.3659h7.2497c2.5428,0,4.6041,2.0613,4.6041,4.6041s-2.0613,4.6041-4.6041,4.6041h-7.2497v13.8177h174.6166c8.6512,0,15.6633-7.0121,15.6633-15.6629v-21.6379h-190.2799v14.275Z"/>
          <path class="cls-19" d="m469.9747,415.3659h7.2497c2.5428,0,4.6041,2.0613,4.6041,4.6041s-2.0613,4.6041-4.6041,4.6041h-7.2497v13.8177h174.6166c8.6512,0,15.6633-7.0121,15.6633-15.6629v-21.6379h-190.2799v14.275Z"/>
          <path class="cls-27" d="m469.9747,401.0909h-190.0541v21.6379c0,8.6509,7.0121,15.663,15.6629,15.663h349.0078c8.6512,0,15.6633-7.0121,15.6633-15.663v-21.6379h-190.2798Z"/>
          <polygon class="cls-29" points="492.0402 438.3918 469.9747 438.3918 448.1334 438.3918 445.1792 466.0189 469.9747 466.0189 494.9944 466.0189 492.0402 438.3918"/>
          <path class="cls-27" d="m494.9944,466.0189h-81.0064c-2.0131,0-3.645,1.6319-3.645,3.645v12.049c0,2.0131,1.6319,3.645,3.645,3.645h112.1977c2.0131,0,3.645-1.6319,3.645-3.645v-12.049c0-2.0131-1.6319-3.645-3.645-3.645h-31.1912Z"/>
          <path class="cls-32" d="m481.8284,419.9699c0-2.5428-2.0613-4.6041-4.6041-4.6041h-7.2497v9.2081h7.2497c2.5428,0,4.6041-2.0613,4.6041-4.6041Z"/>
          <path class="cls-13" d="m481.8284,419.9699c0-2.5428-2.0613-4.6041-4.6041-4.6041h-7.2497v9.2081h7.2497c2.5428,0,4.6041-2.0613,4.6041-4.6041Z"/>
          <path class="cls-7" d="m481.8284,419.9699c0-2.5428-2.0613-4.6041-4.6041-4.6041h-7.2497v9.2081h7.2497c2.5428,0,4.6041-2.0613,4.6041-4.6041Z"/>
          <path class="cls-18" d="m477.2243,415.3659h-14.2749c-2.5428,0-4.6041,2.0612-4.6041,4.6041s2.0613,4.604,4.6041,4.604h14.2749c2.5428,0,4.6041-2.0613,4.6041-4.604s-2.0613-4.6041-4.6041-4.6041Z"/>
        </g>
        <g>
          <path class="cls-26" d="m295.5835,438.3917h349.0078c8.6512,0,15.6633-7.0121,15.6633-15.6629v-21.6379h-380.334v21.6379c0,8.6509,7.0121,15.6629,15.663,15.6629Z"/>
          <rect class="cls-15" x="297.4168" y="181.4547" width="345.34" height="200.4442"/>
          <rect class="cls-8" x="297.4168" y="181.4547" width="345.34" height="10.3602"/>
          <rect class="cls-25" x="297.4168" y="191.8149" width="345.34" height="10.3602"/>
          <rect class="cls-2" x="297.4168" y="191.8149" width="260.5076" height="10.3602"/>
          <rect class="cls-33" x="299.8395" y="193.0235" width="12.4322" height="7.9428"/>
          <rect class="cls-1" x="297.4168" y="202.1751" width="345.34" height="57.0891"/>
          <rect class="cls-11" x="297.4168" y="367.9115" width="345.34" height="13.9874"/>
          <rect class="cls-11" x="297.4168" y="257.969" width="345.34" height="6.9947"/>
          <rect class="cls-11" x="310.2629" y="275.9343" width="318.441" height="3.7797"/>
          <rect class="cls-11" x="310.2629" y="288.6908" width="318.441" height="3.7797"/>
          <rect class="cls-11" x="310.2629" y="301.4474" width="318.441" height="3.7797"/>
          <rect class="cls-11" x="310.2629" y="314.2039" width="318.441" height="3.7797"/>
          <rect class="cls-11" x="310.2629" y="326.9605" width="318.441" height="3.7797"/>
          <rect class="cls-11" x="310.2629" y="339.717" width="318.441" height="3.7797"/>
          <rect class="cls-11" x="310.2629" y="352.4735" width="318.441" height="3.7797"/>
        </g>
      </g>
      <path class="cls-30" d="m246.9259,244.2968c4.4702,2.6949,8.862,3.997,10.9237,3.4655,5.17-1.3329,5.6448-20.2497,1.6449-27.7074-3.9998-7.4576-24.5637-10.7081-25.6,4.0678-.3594,5.1283,1.7934,9.7049,4.9737,13.4394l-5.7028,26.589h16.5666l-2.8061-19.8543Z"/>
      <path class="cls-5" d="m266.834,209.7166c-.3429-1.2061-1.2657-2.2389-2.5098-2.5453-.3015-.0743-.6125-.1043-.9228-.0918-.1115.0045-.1428.0366-.1944-.0413-.0389-.0577-.0395-.1987-.0554-.2665-.0497-.211-.1115-.4193-.1874-.6222-.2607-.6921-.6979-1.3046-1.2249-1.8206-.9859-.9652-2.3179-1.6314-3.7022-1.7519-.7571-.0659-1.5092.0572-2.2255.3037-.3709.1276-.7304.2865-1.0803.4621-.1058.0528-.448.3118-.5538.295-.1166-.0185-.3512-.309-.4468-.3819-1.1739-.9012-2.6245-1.2556-4.0871-1.2448-1.6513.0122-3.2414.0947-4.618,1.1015-.2919.2132-.5691.4466-.8336.6923-.1389.1294-.274.2636-.4028.4034-.0777.0844-.153.1706-.2256.2591-.1236.1503-.1039.1997-.2766.0948-.6628-.4027-1.4308-.5911-2.2039-.496-.4595.0565-.9063.1944-1.3307.376-.1447.0618-.4793.3083-.6329.3107-.153.0024-.4825-.2261-.6399-.2842-.8502-.3138-1.766-.3912-2.6596-.2461-.9209.1496-1.8266.5173-2.6073,1.0255-.3754.2444-.703.5153-.9662.8787-.1134.1569-.2161.3229-.3448.4684-.0758.0852-.225.1726-.2651.2804.0242-.0646-1.0082-.4625-1.1051-.4879-.5194-.1355-1.0471-.108-1.5551.0592-.9554.3145-1.7769,1.0196-2.4524,1.7426-.3467.3714-.6501.7818-.9075,1.2191-.1236.2095-.2364.425-.3397.645-.0503.1066-.0835.24-.1491.336-.0854.1237-.1421.1261-.2964.18-.782.274-1.4945.7377-2.0369,1.3643-.5494.6339-.9056,1.4146-1.0548,2.2367-.0089.0484-.014.2491-.0427.2753-.0382.0361-.1957.0201-.2556.0271-.2059.0242-.4104.0601-.6118.1079-.3722.0881-.7342.2176-1.0764.3871-1.3352.6607-2.2899,1.8994-2.7571,3.2931-.4901,1.4627-.4818,3.1384.1045,4.5738.0943.2318.2071.4568.3397.6698.0809.1306.1071.131.0542.2681-.0586.1525-.1657.3008-.2358.4498-.2275.4864-.3869,1.0023-.4876,1.5292-.1651.8643-.2466,1.7725-.0841,2.6434.0758.4044.2078.7997.4085,1.1599.1026.1836.2224.3578.3575.5189.0701.0836.1447.1635.2231.2401.0446.0437.1032.082.1408.1308.093.1191.1122.0212.0644.196-.0669.2445-.218.4856-.311.7235-.0956.2451-.1816.4936-.2607.7445-.16.5081-.2957,1.0255-.3798,1.5517-.1625,1.0103-.1338,2.0867.3435,3.014.2046.3966.4977.7445.8527,1.0152.174.1324.3626.2465.5602.3403.1013.0482.2313.0689.2779.1672.0497.1057-.0242.3155-.0414.4336-.1466,1.0276-.2205,2.1065.0848,3.1135.2817.9275.9005,1.7464,1.7048,2.2885,1.5595,1.0518,3.6621.9924,5.3013.1505.427-.2195.8266-.492,1.1829-.8134.9082,1.2224,2.7762,1.1838,4.1031.8354,1.6532-.434,2.9795-1.5837,3.7443-3.0943,1.0446,1.2725,3.2376.8596,3.9622-.5208.1778-.3378.283-.7102.3346-1.087.0274-.1981.0102-.398.0306-.5946.0261-.2505.1931-.4939.2893-.7362.1874-.4716.3034-.9587.3085-1.4674.0025-.2656-.0312-.5244-.0561-.7879-.0229-.2371.0427-.4581.0803-.6921-.4238.0699-.9407-.0445-1.3397-.1675-.3926-.1206-.7597-.4385-1.0363-.7287-.6424-.674-1.0344-1.5575-1.3027-2.4368-.5895-1.93-.348-4.2455,1.5927-5.3048.9044-.4934,3.613-.4918,4.6894-.2479,1.1325.2564,2.4161,2.7553,2.4792,2.9902.0389.1454.0191.3253.153.4221.2932.213.7769-.1566.9936-.339.3735-.3148.6399-.7337.8706-1.1583.5028-.925.9082-1.917,1.1943-2.9296.2205-.7807.3614-1.5858.6501-2.3466.2868-.7571.7393-1.4337,1.4429-1.8626.7654-.4665,1.643-.7123,2.483-1.0054.833-.2906,1.6513-.6457,2.2969-1.2622.1421-.1356.2798-.2797.3939-.4392.0905-.126.1797-.3672.3167-.4471.2135-.1243.5258.199.7106.3163.9114.579,1.6717,1.3866,2.2848,2.2688.6099.8773,1.1102,1.7216,1.5175,2.7013.3014.7267.4895,1.6572,1.0204,2.2527.2364.2659,1.9974.4268,2.5678.1946.5698-.2321,1.209-.8349,1.4002-1.2126.1963-.3867.2428-.8114.1593-1.2347-.0491-.249-.1498-.4816-.2046-.7262-.0465-.2055-.0886-.3997-.1887-.5879-.1893-.3567-.513-.613-.9037-.7202.4066-.3747.7431-.8229.9757-1.3239.2422-.5206.4474-1.1536.5054-1.7249.0478-.464-.0255-.9448-.2791-1.3436-.2664-.4183-.7387-.6912-1.1472-.9522.6239-.4881,1.158-1.0819,1.5965-1.7391.854-1.2782,1.3817-2.8894.9483-4.4133Z"/>
      <path class="cls-31" d="m227.6431,321.4586l33.1892,87.8435,23.2636,64.745h13.2646l-31.9777-152.5885h-37.7397Z"/>
      <path class="cls-22" d="m219.4401,321.4586c-.3607,30.1409-.1001,70.7205-.9407,72.5994s-52.2909,42.8141-52.2909,42.8141l6.8371,11.6286s61.0834-39.4012,64.2063-44.6508c3.1235-5.2496,18.8125-53.5561,26.9753-82.3912h-44.7872Z"/>
      <path class="cls-5" d="m154.1798,444.6971l11.5481-8.7906,9.3177,11.1066c1.0751,12.5604,8.315,28.1728,8.315,28.1728l-2.1151,1.7749-16.8606-20.0986-4.7106-7.7632-1.0575.8872-4.437-5.2891Z"/>
      <path class="cls-5" d="m282.8652,486.4755l.6902-14.4997h14.4959c10.31,7.2502,26.9205,11.7376,26.9205,11.7376v2.7622h-26.2303l-8.9735-1.3811v1.3811h-6.9028Z"/>
      <path class="cls-12" d="m314.261,290.3369l-27.2545,3.7181,4.8902,12.2137,22.1138-8.7696c9.5324.9407,14.1416.7138,13.828-.6794-.2645-1.1752-1.2778-1.5296-2.2109-1.8565-.7272-.2543-1.4059-.492-1.6437-1.0873-.5443-1.3588,2.5544-4.1757,5.6078-6.7225,3.054-2.5461,1.0038-3.0145-.2849-2.9769-4.5785,1.0733-9.5943,3.1267-15.0459,6.1604Z"/>
      <path class="cls-12" d="m198.9151,350.1668c.9456-4.4776,5.041-60.0414,5.041-60.0414l14.6606-3.6805s-10.2609,60.3696-10.6405,63.1901c-.493,3.6643,3.015,7.911,5.3937,10.791.368.4455.709.8584,1.0039,1.2311-1.8976,1.5054-3.2222.6087-4.6186-.3362-1.5774-1.0677-3.2464-2.1976-5.9363.0012-1.0392.8498-1.9896,1.7828-2.918,2.695-3.2074,3.1496-6.1538,6.0433-11.6004,4.3391-.8636-.2704-2.1232-1.7954-.4935-3.6541,4.0605-4.6307,9.6458-12.3469,10.1082-14.5354Z"/>
      <path class="cls-17" d="m242.7942,252.4136l11.8344.7886c2.9151,26.376,18.7908,43.0362,54.3362,37.3959l4.7226,33.9661c-33.2224,4.2949-62.3589-9.0092-68.3306-45.0307-1.5455-9.3253-2.766-19.0292-2.5627-27.12Z"/>
      <path class="cls-21" d="m183.7426,350.4574c8.2169-43.7305,25.5596-77.5622,52.0289-101.4961h1.1746l.0096.011,17.9311,4.1077c0,21.5449,4.792,37.6424,9.3986,53.1198,1.9897,6.6836,3.945,13.2512,5.4644,20.0916h-48.427c-.6826,7.8372-1.1013,15.8923-1.3193,24.166h-36.2609Z"/>
      <path class="cls-10" d="m221.3227,326.2914c1.3887-15.956,3.8685-31.0077,7.9684-45.1562-.8986,15.13-1.1478,33.9005,1.8737,45.1562h-9.8422Z"/>
      <path class="cls-6" d="m228.4289,394.7565l83.5152-60.8693h0c1.1122-.8107,2.1166-1.7483,3.0097-2.781.3525-.4076.6934-.8252,1.0081-1.263.6672-.928,1.2472-1.9209,1.7299-2.9666l3.0489-6.6044,4.0897-8.8588c.2312-.5009.4923-.9848.767-1.4601.2203-.3811.4538-.7534.7009-1.1166.2594-.3814.5306-.754.8182-1.114.1464-.1832.2984-.3615.4518-.5389.2146-.2482.4347-.4913.6627-.7275.7208-.7468,1.5021-1.4377,2.3471-2.0535l9.2698-6.7562c-2.2729-2.5843-4.4437-5.282-6.4962-8.0976h0c-.0021-.0029-.0043-.0057-.0064-.0085-2.3135-3.1742-4.4402-6.4447-6.3878-9.7942l-9.3717,6.8305c-2.482,1.809-5.385,2.9536-8.4337,3.3254l-16.9061,2.0617c-3.0486.3718-5.9517,1.5165-8.4337,3.3254l-83.5152,60.8693c-6.2619,4.564-7.6385,13.3402-3.0745,19.6021l11.6039,15.9211h0c4.5639,6.262,13.3401,7.6385,19.6021,3.0745Z"/>
      <g>
        <path class="cls-14" d="m315.9619,329.8431c-.3147.4378-.6555.8554-1.0081,1.263.3525-.4076.6934-.8252,1.0081-1.263Z"/>
        <path class="cls-14" d="m324.8305,311.4135l-4.0897,8.8587,4.0897-8.8588c.2312-.5009.4923-.9848.767-1.4601-.2747.4754-.5358.9593-.7671,1.4602Z"/>
        <path class="cls-9" d="m303.6329,322.5834c2.5316-1.8451,4.6891-4.155,6.3575-6.8063l8.1697-12.9829c1.6684-2.6513,3.8258-4.961,6.3573-6.8061l8.8345-6.439c-.0021-.0029-.0043-.0057-.0064-.0085-2.3135-3.1742-4.4402-6.4447-6.3878-9.7942l-9.3717,6.8305c-2.482,1.809-5.385,2.9537-8.4337,3.3254l-16.9061,2.0617c-3.0486.3718-5.9517,1.5165-8.4337,3.3254l-83.5152,60.8693c-6.2619,4.564-7.6385,13.3402-3.0745,19.6021l5.0082,6.8715c3.6427,4.9979,10.6474,6.0966,15.6453,2.4539l85.7565-62.5029Z"/>
        <path class="cls-14" d="m327.1167,307.7228c-.2876.3601-.5588.7326-.8182,1.114.2594-.3814.5306-.754.8182-1.114Z"/>
        <path class="cls-14" d="m328.2312,306.4564c-.228.2362-.4481.4793-.6627.7275.2146-.2482.4347-.4913.6627-.7275Z"/>
      </g>
      <path class="cls-24" d="m337.4236,299.4137l2.4244-1.767c-2.2729-2.5843-4.4437-5.282-6.4962-8.0976-.0021-.0029-.0043-.0057-.0064-.0085-2.3135-3.1742-4.4402-6.4447-6.3878-9.7942l-2.4303,1.7714c1.9568,3.3441,4.0897,6.6101,6.4026,9.7834,2.054,2.8182,4.2246,5.5199,6.4938,8.1126Z"/>
      <circle class="cls-20" cx="423.3707" cy="223.9265" r="93.4645" transform="translate(135.3906 606.6187) rotate(-80.9131)"/>
      <ellipse class="cls-23" cx="192.5166" cy="365.8106" rx="4.5" ry="6.2778"/>
      <ellipse class="cls-23" cx="328.2312" cy="304.4874" rx="6.2778" ry="4.1945" transform="translate(-106.4985 411.5315) rotate(-56.6837)"/>
      <circle class="cls-15" cx="424.0139" cy="223.1791" r="92.8297"/>
      <g>
        <rect class="cls-1" x="326.3255" y="181.1041" width="198.1559" height="89.4118"/>
        <g>
          <path class="cls-15" d="m357.3849,200.6385c0-.8128.4276-1.2526,1.2826-1.3185l9.6989.0009c1.1835.0001,1.7755.5718,1.7754,1.7143l-.0032,33.4778c-.0002,2.1755-.4337,4.2136-1.2997,6.1145-.866,1.9005-2.0331,3.5598-3.5017,4.9771-1.4691,1.4173-3.1734,2.5321-5.1133,3.3453-1.9398.8125-3.9866,1.2192-6.14,1.219-1.2748-.0001-2.5273-.1435-3.7578-.4288-1.2309-.286-2.401-.7089-3.5104-1.2695-1.1094-.5604-2.1425-1.2527-3.0983-2.0768-.9558-.8243-1.7963-1.7751-2.5214-2.8516-.0659-.0222-.0988-.1978-.0988-.5275,0-.5717.1762-.9888.5276-1.2525l5.7359-5.3725c.1757-.1535.3627-.2802.5605-.379.1978-.0989.3842-.1483.5603-.1483.3296,0,.6428.1211.9394.3628.2967.2421.6264.511.9889.8076.3625.2966.7853.5656,1.2689.8078.4832.2415,1.0656.3626,1.747.3627.5053,0,.9997-.0989,1.4834-.2965.4832-.1978.9065-.4614,1.2691-.791.3627-.3296.6538-.7195.8737-1.1701.2195-.4501.3297-.9281.3298-1.4339l.0032-33.8734Z"/>
          <path class="cls-15" d="m374.5621,223.0389c.0002-2.3289.2969-4.5653.8912-6.7078.5934-2.1426,1.4402-4.1533,2.5401-6.0321,1.0993-1.8788,2.4133-3.587,3.9421-5.1253,1.5285-1.5378,3.2271-2.851,5.0963-3.9386,1.8691-1.0876,3.876-1.9331,6.02-2.5375,2.1443-.6041,4.3818-.9061,6.7128-.9059,2.3086.0002,4.5407.3027,6.6955.9072,2.1548.6048,4.1671,1.4507,6.0361,2.5386,1.8689,1.088,3.5733,2.4015,5.1126,3.9396,1.5388,1.5387,2.8525,3.2471,3.9411,5.1261,1.088,1.879,1.9347,3.8899,2.539,6.0326.6045,2.1425.9067,4.379.9064,6.7079-.0002,2.3297-.3028,4.5654-.9077,6.7079-.6046,2.1426-1.4517,4.1424-2.5401,5.9991-1.089,1.8571-2.403,3.5489-3.9421,5.0759-1.5397,1.5274-3.2442,2.8403-5.1134,3.9386-1.8692,1.099-3.8816,1.9445-6.0366,2.5377-2.1549.593-4.3871.8895-6.6957.8893-2.331-.0002-4.5684-.2972-6.7126-.8906-2.1439-.5936-4.1506-1.4395-6.0196-2.5388-1.8689-1.0987-3.5674-2.4119-5.0955-3.9396-1.5285-1.5273-2.8422-3.2193-3.9411-5.0767-1.0995-1.8569-1.946-3.8569-2.539-5.9996-.5939-2.1427-.8901-4.3784-.8899-6.7081Zm12.7567-.0317c-.0002,1.8243.3065,3.527.9208,5.1094.6143,1.5822,1.4758,2.9617,2.5843,4.137,1.1082,1.1761,2.4193,2.0991,3.9337,2.7693,1.5141.6708,3.1816,1.0058,5.0035,1.0059,1.8213.0002,3.4948-.3345,5.0202-1.005,1.5251-.6699,2.8423-1.5927,3.9507-2.7685,1.1084-1.1751,1.9699-2.5544,2.5845-4.1365.6146-1.5822.9221-3.2849.9223-5.1092.0002-1.8016-.307-3.4993-.9214-5.0929-.6143-1.5931-1.4755-2.9833-2.5837-4.17-1.1081-1.1868-2.4252-2.1207-3.9502-2.8023-1.5253-.681-3.1988-1.0221-5.02-1.0223-1.8218-.0002-3.4895.3407-5.0037,1.0214-1.5145.6813-2.8258,1.6149-3.9342,2.8016-1.1087,1.1865-1.9704,2.5765-2.5851,4.1696-.6146,1.5934-.9216,3.2911-.9217,5.0927Z"/>
          <path class="cls-15" d="m430.4361,200.0361c0-.4615.1263-.8292.3792-1.1043.2525-.2745.6101-.412,1.0714-.412l21.8875.0021c1.9336.0002,3.7578.3686,5.4719,1.1048,1.7138.7367,3.2137,1.7474,4.4991,3.033,1.2854,1.2857,2.3012,2.7912,3.0486,4.5162.7467,1.7255,1.1203,3.5765,1.1201,5.5544-.0002,1.6481-.2587,3.1808-.7751,4.5982-.5166,1.4174-1.2477,2.6863-2.1924,3.8071,1.5822,1.4506,2.8345,3.1761,3.7573,5.1756.9228,2,1.384,4.1205,1.3838,6.362-.0002,1.9999-.385,3.8953-1.1542,5.6861-.7695,1.7912-1.808,3.3619-3.1155,4.7133-1.3078,1.3514-2.8351,2.4226-4.5821,3.2135-1.747.791-3.588,1.1864-5.5214,1.1862l-23.8323-.0023c-.4398,0-.7911-.1154-1.0549-.3463-.2637-.2307-.3955-.5877-.3955-1.0713l.0044-46.0164Zm24.8202,12.9898c0-.6593-.1217-1.2742-.3635-1.8459-.2427-.5713-.584-1.0766-1.0249-1.5165-.4407-.4393-.9692-.7855-1.586-1.0385-.6171-.2524-1.2894-.3792-2.0159-.3792l-7.0738-.0007-.0009,9.5594,6.9744.0007c.7487,0,1.4375-.1152,2.0658-.346.6277-.2306,1.162-.5602,1.6031-.9886.4407-.4286.788-.9337,1.0415-1.5163.2534-.582.3804-1.2248.3804-1.9283Zm1.7451,19.1518c0-.6593-.1267-1.3186-.38-1.9779-.2533-.6592-.6061-1.247-1.0571-1.7635-.4516-.5161-.9914-.9396-1.6194-1.2693-.6277-.3296-1.305-.4945-2.0318-.4946l-8.7228-.0008-.001,11.0097,8.7228.0008c.7268,0,1.3985-.1534,2.0157-.4613.6169-.3073,1.1567-.7194,1.6193-1.236.4626-.516.8205-1.104,1.0739-1.7633.2535-.6593.3804-1.3401.3804-2.0436Z"/>
          <path class="cls-15" d="m480.5361,231.6524c.3734.308.8512.7202,1.4338,1.2363.5819.5166,1.2468,1.0275,1.9942,1.5329,1.1206.7475,2.23,1.33,3.3291,1.7474,1.0985.4178,2.2522.6265,3.461.6266,1.1207.0001,2.0602-.1261,2.8183-.3783.7582-.2523,1.3567-.5875,1.7966-1.0047.4393-.4171.7526-.8996.9397-1.4488.1865-.549.28-1.1309.2801-1.7458,0-.6804-.2583-1.2897-.7742-1.8275-.5167-.5378-1.1486-1.0158-1.8955-1.4331-.7472-.4172-1.5274-.7737-2.3403-1.0704-.8132-.2968-1.5162-.5435-2.1094-.7414-2.6371-.9222-4.9444-1.916-6.9219-2.9812-1.9778-1.0654-3.6258-2.2511-4.9442-3.5574s-2.3071-2.7449-2.9663-4.3149c-.6592-1.5699-.9885-3.3211-.9883-5.2535.0002-2.0416.4122-3.8973,1.2365-5.566.8243-1.6686,1.9997-3.0959,3.5276-4.2813,1.5273-1.1855,3.3675-2.1016,5.5215-2.7493,2.1535-.6477,4.5597-.9714,7.219-.9712,1.9994.0002,3.9168.2259,5.7519.6762,1.8345.4509,3.6424,1.1706,5.4223,2.1597.7469.4399,1.4554.8957,2.1258,1.3681.6702.4729,1.2577.9289,1.7636,1.3682.5053.4399.9064.8572,1.2028,1.2528.2967.3956.4451.7365.445,1.0219,0,.2858-.0717.5495-.2142.7911-.1434.242-.3576.5165-.6429.824l-5.0439,5.3724c-.3741.3739-.7476.5604-1.121.5604-.308,0-.5879-.0877-.8404-.2638-.2528-.1757-.533-.3956-.8404-.6594l-.2967-.2637c-.4398-.3735-.9285-.7582-1.4668-1.1538-.5386-.3957-1.1156-.7526-1.7303-1.0714-.6156-.3184-1.264-.5821-1.9448-.7913-.6814-.2086-1.3737-.3133-2.0767-.3133-.7251,0-1.4065.0607-2.0437.1811-.6378.121-1.198.313-1.6812.5767-.4838.2637-.8685.6097-1.1538,1.0382-.2859.4285-.4287.9507-.4288,1.5658,0,.6154.1533,1.1486.4615,1.5987.3073.4506.7687.8684,1.3843,1.2526.6147.3849,1.3787.7475,2.2908,1.088.9115.3411,1.9719.7089,3.1807,1.1046,2.3292.7697,4.4772,1.5776,6.4441,2.4235,1.9663.8463,3.6639,1.8462,5.0927,3.0001,1.4279,1.1538,2.5428,2.5333,3.3451,4.1372.8019,1.6044,1.2029,3.5492,1.2027,5.8345-.0002,2.4177-.4948,4.6096-1.4838,6.576-.989,1.9669-2.3464,3.6422-4.0716,5.0265-1.7255,1.3842-3.7528,2.4554-6.0818,3.2133-2.3296.7579-4.8349,1.1367-7.5158,1.1365-2.5274-.0002-5.0103-.4527-7.4495-1.3557-2.4392-.9036-4.7134-2.1163-6.823-3.6374-.879-.6393-1.6208-1.2677-2.2249-1.8847-.6047-.6172-1.0825-1.1126-1.4338-1.4876l-.0988-.0994c-.0221-.0438-.0442-.0711-.0658-.0825-.0221-.0108-.0445-.0273-.0661-.05-.0221-.0438-.0443-.0711-.0658-.0823-.0221-.0109-.0445-.0275-.0661-.0496-.5055-.5511-.758-.992-.758-1.3226,0-.3745.2526-.7932.7582-1.2561l5.7032-5.4385c.4614-.3296.8349-.4943,1.1207-.4943.1979,0,.4065.066.6262.1978.2194.1319.4832.3297.7911.5934Z"/>
        </g>
      </g>
      <path class="cls-3" d="m488.9848,313.9517c24.0465-17.5261,39.8287-43.3677,44.4394-72.7639,4.6106-29.3962-2.5023-58.8286-20.0283-82.8751-17.5263-24.0467-43.3676-39.8289-72.7639-44.4395-29.3964-4.6106-58.8289,2.5022-82.8754,20.0285-24.0465,17.5261-39.8287,43.3675-44.4394,72.7637-4.6106,29.3962,2.5022,58.8287,20.0283,82.8753,17.5261,24.0465,43.3677,39.8287,72.7641,44.4394,29.3963,4.6106,58.8286-2.5023,82.8753-20.0283Zm-157.9499-104.5074c7.9856-50.914,55.9041-85.8389,106.8181-77.8534,50.914,7.9856,85.839,55.9039,77.8534,106.818-7.9856,50.9142-55.9039,85.8389-106.818,77.8534-50.914-7.9855-85.8391-55.9038-77.8536-106.818Z"/>
      <path class="cls-9" d="m518.2375,238.8058c8.2045-52.3097-27.6778-101.5416-79.9875-109.7461-52.3099-8.2045-101.5418,27.6778-109.7462,79.9875-8.2045,52.3097,27.6778,101.5416,79.9877,109.7461s101.5416-27.6778,109.7461-79.9875Zm-187.2026-29.3616c7.9856-50.914,55.9041-85.8389,106.8181-77.8534,50.914,7.9856,85.839,55.9039,77.8534,106.818-7.9856,50.9142-55.9039,85.8389-106.818,77.8534-50.914-7.9855-85.8391-55.9038-77.8536-106.818Z"/>
      <path class="cls-28" d="m488.9848,313.9517c24.0465-17.5261,39.8287-43.3677,44.4394-72.7639,4.6106-29.3962-2.5023-58.8286-20.0283-82.8751-17.5263-24.0467-43.3676-39.8289-72.7639-44.4395-29.3964-4.6106-58.8289,2.5022-82.8754,20.0285-24.0465,17.5261-39.8287,43.3675-44.4394,72.7637-4.6106,29.3962,2.5022,58.8287,20.0283,82.8753,17.5261,24.0465,43.3677,39.8287,72.7641,44.4394,29.3963,4.6106,58.8286-2.5023,82.8753-20.0283Zm-153.5687-25.9203c-17.1233-23.4934-24.0725-52.2487-19.5679-80.9691,4.5046-28.7202,19.9237-53.9673,43.4175-71.0902,23.4934-17.1232,52.2487-24.0725,80.9693-19.5679s53.9673,19.9239,71.0904,43.4175c17.123,23.4934,24.0723,52.2488,19.5677,80.9691-4.5046,28.7204-19.9239,53.9673-43.4173,71.0902-23.4936,17.1233-52.2491,24.0724-80.9693,19.5679-28.7206-4.5046-53.9675-19.9237-71.0904-43.4175Z"/>
    </g>
  </g>
</svg>