<?xml version="1.0" encoding="utf-8"?>
<!-- Generator: Adobe Illustrator 28.0.0, SVG Export Plug-In . SVG Version: 6.00 Build 0)  -->
<svg version="1.1" id="Layer_1" xmlns="http://www.w3.org/2000/svg" xmlns:xlink="http://www.w3.org/1999/xlink" x="0px" y="0px"
	 viewBox="0 0 173 46" style="enable-background:new 0 0 173 46;" xml:space="preserve">
<style type="text/css">
	.st0{clip-path:url(#SVGID_00000061466148877495993650000013724971234065205654_);}
	.st1{fill:#FFFFFF;}
	.st2{fill:#ED8B00;}
</style>
<g>
	<defs>
		<rect id="SVGID_1_" width="173" height="46"/>
	</defs>
	<clipPath id="SVGID_00000014630771307121208410000010996873009114793880_">
		<use xlink:href="#SVGID_1_"  style="overflow:visible;"/>
	</clipPath>
	<g style="clip-path:url(#SVGID_00000014630771307121208410000010996873009114793880_);">
		<path class="st1" d="M63.9,20.1h1.3v-0.7c0-2.8-1.7-3.7-4-3.7c-3.2,0-6.1,2.1-6.1,2.1l-2-3.7c0,0,3.3-2.7,8.5-2.7
			c5.8,0,8.8,3,8.8,8.6v8.7c0,0.6,0.3,0.9,0.9,0.9h1.9v4h-5.1c-2,0-2.7-1.1-2.7-2.3V31c0-0.7,0.1-1.1,0.1-1.1h-0.1
			c0,0-1.8,4.2-6.8,4.2c-3.7,0-7.1-2.2-7.1-6.6C51.8,20.8,60.5,20.1,63.9,20.1z M60.3,30c2.9,0,5-3.2,5-5.9v-0.7h-0.9
			c-2.1,0-7.2,0.3-7.2,3.6C57.2,28.7,58.4,30,60.3,30z"/>
		<path class="st1" d="M77.4,38V16.8c0-0.6-0.3-0.9-0.9-0.9h-2.4v-4h5.5c2,0,2.7,0.9,2.7,2V14c0,0.5,0,1,0,1h0.1
			c0,0,1.9-3.7,6.9-3.7c5.8,0,9.5,4.6,9.5,11.4c0,6.7-4.2,11.4-9.8,11.4c-4.3,0-6.2-3.1-6.2-3.1h-0.1c0,0,0.1,0.8,0.1,1.9V38h3.1v4
			H74.3v-4H77.4z M87.9,29.5c2.9,0,5.4-2.4,5.4-6.7c0-4.3-2.2-6.8-5.3-6.8c-2.8,0-5.4,2-5.4,6.9C82.6,26.2,84.4,29.5,87.9,29.5z"/>
		<path class="st1" d="M103.6,38V16.8c0-0.6-0.3-0.9-0.9-0.9h-2.4v-4h5.5c2,0,2.7,0.9,2.7,2V14c0,0.5,0,1,0,1h0.1
			c0,0,1.9-3.7,6.9-3.7c5.8,0,9.5,4.6,9.5,11.4c0,6.7-4.2,11.4-9.8,11.4c-4.3,0-6.2-3.1-6.2-3.1h-0.1c0,0,0.1,0.8,0.1,1.9V38h3.1v4
			h-11.6v-4H103.6z M114.2,29.5c2.9,0,5.4-2.4,5.4-6.7c0-4.3-2.2-6.8-5.3-6.8c-2.8,0-5.4,2-5.4,6.9
			C108.8,26.2,110.7,29.5,114.2,29.5z"/>
		<path class="st1" d="M127,30.4h3.3V15.2h-3.5V12h7.6v18.4h3.4v3.2H127V30.4z M130.3,3.5h4.3v4.2h-4.3V3.5z"/>
		<path class="st1" d="M141.4,6.7h-3.5V3.5h7.6v23.7c0,1.8,0.4,3.1,2.3,3.1c0.7,0,1.1,0,1.1,0l0,3.4c0,0-0.8,0.1-1.8,0.1
			c-3,0-5.6-1.2-5.6-6.3V6.7z"/>
		<path class="st1" d="M154.3,39.1c1.8,0,3.2-1.3,3.9-3l0.9-2.1l-7.4-18.7h-2.7V12h9.7v3.2h-2.8l4.8,12.8c0.3,0.9,0.4,1.9,0.4,1.9
			h0.1c0,0,0.2-0.9,0.5-1.9l4.7-12.8h-2.7V12h9.4v3.2h-2.7L161.9,37c-1.4,3.7-4.2,5.5-7.5,5.5c-2.7,0-4.6-1.4-4.6-1.4l1.4-3.1
			C151.2,38,152.5,39.1,154.3,39.1z"/>
		<path class="st1" d="M45,22l-6-6c-1.2-1.2-2.9,0.6-1.8,1.8l5.2,5.3L22.7,43L2.9,23L22.7,3l5.4,5.5c1.2,1.2,2.9-0.6,1.8-1.8
			l-6.2-6.3c-0.5-0.6-1.5-0.6-2,0L0.4,22c-0.6,0.5-0.6,1.5,0,2.1l7.4,7.5v5.6c-0.3,0.3-0.5,0.7-0.5,1.1c0,0.4,0.2,0.8,0.5,1.1
			l-2,5.6v0c0,0.1,0,0.1,0,0.2c0,0.2,0.1,0.4,0.2,0.6C6.1,45.9,6.3,46,6.5,46h4.4c0.2,0,0.4-0.1,0.6-0.2c0.1-0.1,0.2-0.4,0.2-0.6
			c0-0.1,0-0.2,0-0.2v0l-2-5.6c0.3-0.3,0.5-0.6,0.5-1.1c0-0.4-0.2-0.8-0.5-1.1v-3.8l0,0l12,12.2c0.5,0.6,1.5,0.6,2,0L45,24
			C45.9,23.1,45.2,22.2,45,22z"/>
		<path class="st2" d="M21.8,15.9c-0.1-0.3-0.5-0.6-0.8-0.6h-6.5c-0.5,0-0.9,0.4-0.9,0.9c0,0.1,0,0.3,0.1,0.4l8.2,15.2
			c0.1,0.1,0.2,0.3,0.3,0.4c0.4,0.2,0.9,0.1,1.2-0.2L43.9,4c0.1-0.2,0.2-0.4,0.2-0.5c0-0.5-0.4-0.9-0.9-0.9h-6.7
			c-0.3,0-0.6,0.2-0.8,0.4L23.9,21.3L21.8,15.9L21.8,15.9z"/>
	</g>
</g>
</svg>
