<svg width="1440" height="922" viewBox="0 0 1440 922" fill="none" xmlns="http://www.w3.org/2000/svg">
<g clip-path="url(#clip0_310_5522)">
<g clip-path="url(#clip1_310_5522)">
<path d="M258.511 659.444L258.511 786.729C241.712 786.549 225.364 783.157 209.961 776.646C194.693 770.18 181.002 760.911 169.247 749.064C157.493 737.262 148.26 723.516 141.775 708.188C135.244 692.723 131.866 676.355 131.731 659.444L258.511 659.444ZM129.074 658.132C129.074 675.857 132.542 693.04 139.343 709.227C145.918 724.873 155.376 738.89 167.356 750.963C179.381 763.036 193.342 772.486 208.925 779.088C225.049 785.916 242.163 789.397 259.817 789.397L261.123 789.397L261.123 656.776L129.074 656.776L129.074 658.087L129.074 658.132Z" fill="#063860"/>
<path d="M131.731 524.411L131.731 397.125C148.53 397.306 164.879 400.697 180.282 407.208C195.549 413.674 209.241 422.944 220.995 434.791C232.75 446.592 241.983 460.338 248.468 475.667C254.998 491.131 258.376 507.499 258.511 524.411L131.731 524.411ZM261.169 525.722C261.169 507.997 257.701 490.814 250.9 474.627C244.325 458.982 234.867 444.964 222.887 432.891C210.862 420.819 196.9 411.368 181.318 404.766C165.194 397.939 148.08 394.457 130.425 394.457L129.119 394.457L129.119 527.078L261.169 527.078L261.169 525.767L261.169 525.722Z" fill="#063860"/>
<path d="M258.511 391.875L131.731 391.875C131.911 375.009 135.289 358.595 141.774 343.131C148.214 327.802 157.447 314.056 169.247 302.254C181.002 290.453 194.693 281.183 209.961 274.672C225.363 268.116 241.667 264.724 258.511 264.589L258.511 391.875ZM259.817 261.921C242.162 261.921 225.048 265.403 208.925 272.23C193.342 278.832 179.38 288.328 167.355 300.355C155.33 312.428 145.918 326.446 139.342 342.091C132.541 358.278 129.074 375.461 129.074 393.186L129.074 394.497L261.168 394.497L261.168 261.921L259.862 261.921L259.817 261.921Z" fill="#063860"/>
<path d="M131.709 131.968L131.709 259.254C148.507 259.073 164.856 255.681 180.259 249.17C195.526 242.704 209.218 233.435 220.972 221.588C232.727 209.786 241.96 196.04 248.445 180.712C254.976 165.247 258.353 148.879 258.488 131.968L131.709 131.968ZM261.146 130.656C261.146 148.382 257.678 165.564 250.877 181.752C244.302 197.397 234.844 211.414 222.864 223.487C210.839 235.56 196.877 245.01 181.295 251.612C165.171 258.44 148.057 261.921 130.402 261.921L129.096 261.921L129.096 129.3L261.146 129.3L261.146 130.611L261.146 130.656Z" fill="#063860"/>
<path d="M258.503 919.374L131.723 919.374C131.904 902.508 135.281 886.094 141.767 870.63C148.207 855.301 157.44 841.555 169.239 829.753C180.994 817.952 194.686 808.682 209.953 802.171C225.356 795.615 241.659 792.223 258.503 792.088L258.503 919.374ZM259.809 789.42C242.155 789.42 225.041 792.902 208.917 799.729C193.334 806.331 179.373 815.827 167.348 827.854C155.323 839.927 145.91 853.945 139.335 869.59C132.534 885.777 129.066 902.96 129.066 920.685L129.066 921.996L261.161 921.996L261.161 789.42L259.854 789.42L259.809 789.42Z" fill="#063860"/>
<path d="M258.511 526.823L258.511 654.109C241.712 653.928 225.364 650.536 209.961 644.025C194.693 637.559 181.002 628.29 169.247 616.443C157.493 604.641 148.26 590.895 141.775 575.567C135.244 560.102 131.866 543.734 131.731 526.823L258.511 526.823ZM129.074 525.511C129.074 543.237 132.542 560.419 139.343 576.607C145.918 592.252 155.376 606.269 167.356 618.342C179.381 630.415 193.342 639.865 208.925 646.467C225.049 653.295 242.163 656.776 259.817 656.776L261.123 656.776L261.123 524.155L129.074 524.155L129.074 525.466L129.074 525.511Z" fill="#063860"/>
<path d="M258.47 129.954L258.47 2.66779C241.671 2.84866 225.323 6.23994 209.92 12.7512C194.652 19.2172 180.961 28.4867 169.206 40.3336C157.452 52.1352 148.219 65.8811 141.734 81.2097C135.203 96.6739 131.825 113.042 131.69 129.954L258.47 129.954ZM129.033 131.265C129.033 113.54 132.501 96.3574 139.302 80.1697C145.877 64.5246 155.335 50.5074 167.315 38.4344C179.34 26.3615 193.301 16.9111 208.884 10.3095C225.008 3.4817 242.122 -6.627e-06 259.776 -7.66156e-06L261.082 -7.73809e-06L261.082 132.621L129.033 132.621L129.033 131.31L129.033 131.265Z" fill="#063860"/>
<path d="M387.589 659.447L387.589 786.733C370.791 786.552 354.442 783.161 339.039 776.649C323.772 770.183 310.08 760.914 298.326 749.067C286.571 737.265 277.338 723.519 270.853 708.191C264.322 692.727 260.945 676.358 260.81 659.447L387.589 659.447ZM258.152 658.136C258.152 675.861 261.62 693.043 268.421 709.231C274.996 724.876 284.454 738.893 296.434 750.966C308.459 763.039 322.421 772.489 338.003 779.091C354.127 785.919 371.241 789.401 388.896 789.401L390.202 789.401L390.202 656.779L258.152 656.779L258.152 658.09L258.152 658.136Z" fill="#063860"/>
<path d="M260.809 524.414L260.809 397.128C277.608 397.309 293.957 400.7 309.36 407.211C324.627 413.677 338.319 422.947 350.073 434.794C361.828 446.595 371.061 460.341 377.546 475.67C384.077 491.134 387.454 507.503 387.589 524.414L260.809 524.414ZM390.247 525.725C390.247 508 386.779 490.818 379.978 474.63C373.403 458.985 363.945 444.968 351.965 432.895C339.94 420.822 325.978 411.371 310.396 404.77C294.272 397.942 277.158 394.46 259.503 394.46L258.197 394.46L258.197 527.082L390.247 527.082L390.247 525.77L390.247 525.725Z" fill="#063860"/>
<path d="M387.589 264.552L260.809 264.552C260.989 281.418 264.367 297.832 270.852 313.296C277.293 328.625 286.525 342.371 298.325 354.172C310.08 365.974 323.771 375.243 339.039 381.755C354.442 388.311 370.745 391.702 387.589 391.838L387.589 264.552ZM388.895 394.506C371.24 394.506 354.126 391.024 338.003 384.196C322.42 377.595 308.458 368.099 296.434 356.071C284.409 343.998 274.996 329.981 268.42 314.336C261.62 298.148 258.152 280.966 258.152 263.241L258.152 261.93L390.246 261.93L390.246 394.506L388.94 394.506L388.895 394.506Z" fill="#063860"/>
<path d="M260.787 131.978L260.787 259.263C277.586 259.082 293.934 255.691 309.337 249.18C324.605 242.714 338.296 233.444 350.051 221.598C361.805 209.796 371.038 196.05 377.523 180.721C384.054 165.257 387.432 148.889 387.567 131.978L260.787 131.978ZM390.224 130.666C390.224 148.391 386.756 165.574 379.956 181.761C373.38 197.407 363.922 211.424 351.942 223.497C339.917 235.57 325.956 245.02 310.373 251.622C294.25 258.449 277.135 261.931 259.481 261.931L258.175 261.931L258.175 129.31L390.224 129.31L390.224 130.621L390.224 130.666Z" fill="#063860"/>
<path d="M387.582 919.377L260.802 919.377C260.982 902.512 264.36 886.098 270.845 870.634C277.285 855.305 286.518 841.559 298.318 829.757C310.072 817.956 323.764 808.686 339.031 802.175C354.434 795.619 370.738 792.227 387.582 792.092L387.582 919.377ZM388.888 789.424C371.233 789.424 354.119 792.906 337.996 799.733C322.413 806.335 308.451 815.831 296.426 827.858C284.401 839.931 274.988 853.948 268.413 869.594C261.612 885.781 258.144 902.964 258.144 920.689L258.144 922L390.239 922L390.239 789.424L388.933 789.424L388.888 789.424Z" fill="#063860"/>
<path d="M387.589 526.827L387.589 654.112C370.791 653.932 354.442 650.54 339.039 644.029C323.772 637.563 310.08 628.294 298.326 616.447C286.571 604.645 277.338 590.899 270.853 575.571C264.322 560.106 260.945 543.738 260.81 526.827L387.589 526.827ZM258.152 525.515C258.152 543.24 261.62 560.423 268.421 576.611C274.996 592.256 284.454 606.273 296.434 618.346C308.459 630.419 322.421 639.869 338.003 646.471C354.127 653.299 371.241 656.78 388.896 656.78L390.202 656.78L390.202 524.159L258.152 524.159L258.152 525.47L258.152 525.515Z" fill="#063860"/>
<path d="M260.788 129.954L260.788 2.66782C277.586 2.84868 293.935 6.23996 309.338 12.7512C324.605 19.2172 338.297 28.4867 350.051 40.3336C361.806 52.1352 371.039 65.8811 377.524 81.2097C384.055 96.6739 387.432 113.042 387.568 129.954L260.788 129.954ZM390.225 131.265C390.225 113.54 386.757 96.3574 379.956 80.1697C373.381 64.5246 363.923 50.5074 351.943 38.4344C339.918 26.3615 325.957 16.9112 310.374 10.3095C294.25 3.48172 277.136 1.41855e-05 259.482 1.64001e-05L258.175 1.65639e-05L258.175 132.621L390.225 132.621L390.225 131.31L390.225 131.265Z" fill="#063860"/>
<path d="M516.668 659.444L516.668 786.73C499.869 786.549 483.52 783.158 468.117 776.646C452.85 770.18 439.158 760.911 427.404 749.064C415.649 737.262 406.416 723.516 399.931 708.188C393.4 692.724 390.023 676.355 389.888 659.444L516.668 659.444ZM387.23 658.133C387.23 675.858 390.698 693.04 397.499 709.228C404.074 724.873 413.532 738.89 425.512 750.963C437.537 763.036 451.499 772.486 467.081 779.088C483.205 785.916 500.319 789.397 517.974 789.397L519.28 789.397L519.28 656.776L387.23 656.776L387.23 658.087L387.23 658.133Z" fill="#063860"/>
<path d="M389.888 524.411L389.888 397.125C406.687 397.306 423.035 400.697 438.438 407.208C453.706 413.674 467.397 422.944 479.152 434.791C490.906 446.592 500.139 460.338 506.624 475.667C513.155 491.131 516.533 507.5 516.668 524.411L389.888 524.411ZM519.325 525.722C519.325 507.997 515.857 490.814 509.057 474.627C502.481 458.982 493.023 444.964 481.043 432.891C469.018 420.819 455.057 411.368 439.474 404.767C423.351 397.939 406.236 394.457 388.582 394.457L387.276 394.457L387.276 527.078L519.325 527.078L519.325 525.767L519.325 525.722Z" fill="#063860"/>
<path d="M516.667 391.884L389.887 391.884C390.067 375.018 393.445 358.604 399.93 343.14C406.371 327.811 415.603 314.065 427.403 302.264C439.158 290.462 452.849 281.193 468.117 274.681C483.52 268.125 499.823 264.734 516.667 264.598L516.667 391.884ZM517.973 261.93C500.319 261.93 483.204 265.412 467.081 272.24C451.498 278.841 437.537 288.337 425.512 300.365C413.487 312.438 404.074 326.455 397.498 342.1C390.698 358.288 387.23 375.47 387.23 393.195L387.23 394.506L519.324 394.506L519.324 261.93L518.018 261.93L517.973 261.93Z" fill="#063860"/>
<path d="M516.689 131.978L516.689 259.263C499.891 259.082 483.542 255.691 468.139 249.18C452.872 242.714 439.18 233.444 427.426 221.598C415.671 209.796 406.438 196.05 399.953 180.721C393.422 165.257 390.045 148.889 389.909 131.978L516.689 131.978ZM387.252 130.666C387.252 148.391 390.72 165.574 397.521 181.761C404.096 197.407 413.554 211.424 425.534 223.497C437.559 235.57 451.52 245.02 467.103 251.622C483.227 258.449 500.341 261.931 517.996 261.931L519.302 261.931L519.302 129.31L387.252 129.31L387.252 130.621L387.252 130.666Z" fill="#063860"/>
<path d="M516.66 919.374L389.88 919.374C390.06 902.508 393.438 886.095 399.923 870.63C406.363 855.302 415.596 841.556 427.396 829.754C439.15 817.953 452.842 808.683 468.109 802.172C483.512 795.615 499.816 792.224 516.66 792.088L516.66 919.374ZM517.966 789.421C500.311 789.421 483.197 792.902 467.074 799.73C451.491 806.332 437.529 815.827 425.504 827.855C413.479 839.928 404.066 853.945 397.491 869.59C390.69 885.778 387.222 902.961 387.222 920.686L387.222 921.997L519.317 921.997L519.317 789.421L518.011 789.421L517.966 789.421Z" fill="#063860"/>
<path d="M516.668 526.824L516.668 654.11C499.869 653.929 483.52 650.537 468.117 644.026C452.85 637.56 439.158 628.291 427.404 616.444C415.649 604.642 406.416 590.896 399.931 575.568C393.4 560.103 390.023 543.735 389.888 526.824L516.668 526.824ZM387.23 525.512C387.23 543.237 390.698 560.42 397.499 576.608C404.074 592.253 413.532 606.27 425.512 618.343C437.537 630.416 451.499 639.866 467.081 646.468C483.205 653.296 500.319 656.777 517.974 656.777L519.28 656.777L519.28 524.156L387.23 524.156L387.23 525.467L387.23 525.512Z" fill="#063860"/>
<path d="M389.866 129.954L389.866 2.6677C406.664 2.84856 423.013 6.23983 438.416 12.7511C453.683 19.2171 467.375 28.4866 479.129 40.3334C490.884 52.1351 500.117 65.881 506.602 81.2096C513.133 96.6738 516.51 113.042 516.645 129.953L389.866 129.954ZM519.303 131.265C519.303 113.54 515.835 96.3573 509.034 80.1696C502.459 64.5245 493.001 50.5073 481.021 38.4343C468.996 26.3614 455.034 16.911 439.452 10.3094C423.328 3.4816 406.214 -0.000107885 388.559 -0.00010567L387.253 -0.000105506L387.253 132.621L519.303 132.621L519.303 131.31L519.303 131.265Z" fill="#063860"/>
<path d="M645.746 659.437L645.746 786.723C628.947 786.542 612.599 783.151 597.196 776.64C581.928 770.174 568.237 760.904 556.482 749.057C544.728 737.256 535.495 723.51 529.01 708.181C522.479 692.717 519.101 676.348 518.966 659.437L645.746 659.437ZM516.309 658.126C516.309 675.851 519.777 693.034 526.578 709.221C533.153 724.866 542.611 738.884 554.591 750.956C566.616 763.029 580.577 772.48 596.16 779.081C612.283 785.909 629.398 789.391 647.052 789.391L648.358 789.391L648.358 656.769L516.309 656.769L516.309 658.081L516.309 658.126Z" fill="#063860"/>
<path d="M518.966 524.405L518.966 397.119C535.765 397.3 552.114 400.691 567.517 407.203C582.784 413.669 596.476 422.938 608.23 434.785C619.985 446.587 629.218 460.333 635.703 475.661C642.233 491.125 645.611 507.494 645.746 524.405L518.966 524.405ZM648.403 525.716C648.403 507.991 644.936 490.809 638.135 474.621C631.56 458.976 622.102 444.959 610.122 432.886C598.097 420.813 584.135 411.363 568.552 404.761C552.429 397.933 535.315 394.451 517.66 394.451L516.354 394.451L516.354 527.073L648.403 527.073L648.403 525.762L648.403 525.716Z" fill="#063860"/>
<path d="M645.745 391.884L518.965 391.884C519.146 375.018 522.523 358.604 529.009 343.14C535.449 327.811 544.682 314.065 556.482 302.264C568.236 290.462 581.928 281.193 597.195 274.681C612.598 268.125 628.902 264.734 645.745 264.598L645.745 391.884ZM647.052 261.93C629.397 261.93 612.283 265.412 596.159 272.24C580.577 278.841 566.615 288.337 554.59 300.365C542.565 312.438 533.152 326.455 526.577 342.1C519.776 358.288 516.308 375.47 516.308 393.195L516.308 394.506L648.403 394.506L648.403 261.93L647.097 261.93L647.052 261.93Z" fill="#063860"/>
<path d="M518.943 131.978L518.943 259.263C535.742 259.082 552.091 255.691 567.494 249.18C582.761 242.714 596.453 233.444 608.207 221.598C619.962 209.796 629.195 196.05 635.68 180.721C642.21 165.257 645.588 148.889 645.723 131.978L518.943 131.978ZM648.381 130.666C648.381 148.391 644.913 165.574 638.112 181.761C631.537 197.407 622.079 211.424 610.099 223.497C598.074 235.57 584.112 245.02 568.529 251.622C552.406 258.449 535.292 261.931 517.637 261.931L516.331 261.931L516.331 129.31L648.381 129.31L648.381 130.621L648.381 130.666Z" fill="#063860"/>
<path d="M645.738 919.368L518.958 919.368C519.138 902.502 522.516 886.088 529.001 870.624C535.442 855.295 544.674 841.549 556.474 829.748C568.229 817.946 581.92 808.677 597.188 802.165C612.591 795.609 628.894 792.218 645.738 792.082L645.738 919.368ZM647.044 789.414C629.39 789.414 612.275 792.896 596.152 799.724C580.569 806.325 566.608 815.821 554.583 827.849C542.558 839.922 533.145 853.939 526.569 869.584C519.769 885.772 516.301 902.954 516.301 920.679L516.301 921.991L648.395 921.99L648.395 789.414L647.089 789.414L647.044 789.414Z" fill="#063860"/>
<path d="M645.746 654.103L645.746 526.817C628.947 526.998 612.599 530.389 597.196 536.9C581.928 543.366 568.237 552.636 556.482 564.483C544.728 576.284 535.495 590.03 529.01 605.359C522.479 620.823 519.101 637.192 518.966 654.103L645.746 654.103ZM516.309 655.414C516.309 637.689 519.777 620.507 526.578 604.319C533.153 588.674 542.611 574.657 554.591 562.584C566.616 550.511 580.577 541.06 596.16 534.459C612.283 527.631 629.398 524.149 647.052 524.149L648.358 524.149L648.358 656.771L516.309 656.771L516.309 655.459L516.309 655.414Z" fill="#063860"/>
<path d="M645.769 129.954L645.769 2.66782C628.97 2.84868 612.621 6.23996 597.218 12.7512C581.951 19.2172 568.259 28.4867 556.505 40.3336C544.75 52.1352 535.517 65.8811 529.032 81.2097C522.502 96.6739 519.124 113.042 518.989 129.954L645.769 129.954ZM516.331 131.265C516.331 113.54 519.799 96.3574 526.6 80.1697C533.175 64.5246 542.633 50.5074 554.613 38.4344C566.638 26.3615 580.6 16.9112 596.183 10.3095C612.306 3.48172 629.42 1.42452e-05 647.075 1.64691e-05L648.381 1.66336e-05L648.381 132.621L516.331 132.621L516.331 131.31L516.331 131.265Z" fill="#063860"/>
<path d="M774.824 659.432L774.824 786.718C758.025 786.537 741.677 783.146 726.274 776.635C711.007 770.169 697.315 760.899 685.56 749.052C673.806 737.251 664.573 723.505 658.088 708.176C651.557 692.712 648.18 676.344 648.044 659.432L774.824 659.432ZM645.387 658.121C645.387 675.846 648.855 693.029 655.656 709.216C662.231 724.861 671.689 738.879 683.669 750.952C695.694 763.024 709.655 772.475 725.238 779.077C741.362 785.904 758.476 789.386 776.13 789.386L777.437 789.386L777.437 656.765L645.387 656.765L645.387 658.076L645.387 658.121Z" fill="#063860"/>
<path d="M648.045 524.4L648.045 397.114C664.844 397.295 681.192 400.686 696.595 407.197C711.863 413.663 725.554 422.933 737.309 434.78C749.063 446.581 758.296 460.327 764.781 475.656C771.312 491.12 774.69 507.488 774.825 524.4L648.045 524.4ZM777.482 525.711C777.482 507.986 774.014 490.803 767.213 474.616C760.638 458.971 751.18 444.953 739.2 432.88C727.175 420.808 713.214 411.357 697.631 404.756C681.508 397.928 664.393 394.446 646.739 394.446L645.433 394.446L645.433 527.067L777.482 527.067L777.482 525.756L777.482 525.711Z" fill="#063860"/>
<path d="M774.824 391.884L648.044 391.884C648.224 375.018 651.602 358.604 658.087 343.14C664.527 327.811 673.76 314.065 685.56 302.264C697.314 290.462 711.006 281.193 726.273 274.681C741.676 268.125 757.98 264.734 774.824 264.598L774.824 391.884ZM776.13 261.93C758.475 261.93 741.361 265.412 725.238 272.24C709.655 278.841 695.693 288.337 683.668 300.365C671.643 312.438 662.23 326.455 655.655 342.1C648.854 358.288 645.386 375.47 645.386 393.195L645.386 394.506L777.481 394.506L777.481 261.93L776.175 261.93L776.13 261.93Z" fill="#063860"/>
<path d="M774.846 131.978L774.846 259.264C758.047 259.083 741.699 255.691 726.296 249.18C711.028 242.714 697.337 233.445 685.582 221.598C673.828 209.796 664.595 196.05 658.11 180.722C651.579 165.257 648.201 148.889 648.066 131.978L774.846 131.978ZM645.409 130.666C645.409 148.392 648.877 165.574 655.678 181.762C662.253 197.407 671.711 211.424 683.691 223.497C695.716 235.57 709.677 245.02 725.26 251.622C741.384 258.45 758.498 261.931 776.152 261.931L777.458 261.931L777.458 129.31L645.409 129.31L645.409 130.621L645.409 130.666Z" fill="#063860"/>
<path d="M774.817 919.363L648.037 919.363C648.217 902.497 651.594 886.083 658.08 870.619C664.52 855.29 673.753 841.544 685.553 829.743C697.307 817.941 710.999 808.672 726.266 802.16C741.669 795.604 757.973 792.213 774.817 792.077L774.817 919.363ZM776.123 789.409C758.468 789.409 741.354 792.891 725.23 799.719C709.648 806.32 695.686 815.816 683.661 827.844C671.636 839.917 662.223 853.934 655.648 869.579C648.847 885.767 645.379 902.949 645.379 920.674L645.379 921.985L777.474 921.985L777.474 789.409L776.168 789.409L776.123 789.409Z" fill="#063860"/>
<path d="M774.824 526.812L774.824 654.098C758.025 653.917 741.677 650.526 726.274 644.014C711.007 637.548 697.315 628.279 685.56 616.432C673.806 604.63 664.573 590.884 658.088 575.556C651.557 560.092 648.18 543.723 648.044 526.812L774.824 526.812ZM645.387 525.501C645.387 543.226 648.855 560.408 655.656 576.596C662.231 592.241 671.689 606.258 683.669 618.331C695.694 630.404 709.655 639.854 725.238 646.456C741.362 653.284 758.476 656.766 776.13 656.766L777.437 656.766L777.437 524.144L645.387 524.144L645.387 525.455L645.387 525.501Z" fill="#063860"/>
<path d="M648.023 129.954L648.023 2.66782C664.822 2.84868 681.17 6.23996 696.573 12.7512C711.84 19.2172 725.532 28.4867 737.287 40.3336C749.041 52.1352 758.274 65.8811 764.759 81.2097C771.29 96.6739 774.667 113.042 774.803 129.954L648.023 129.954ZM777.46 131.265C777.46 113.54 773.992 96.3574 767.191 80.1697C760.616 64.5246 751.158 50.5074 739.178 38.4344C727.153 26.3615 713.192 16.9112 697.609 10.3095C681.485 3.48172 664.371 1.41855e-05 646.717 1.64001e-05L645.41 1.65639e-05L645.41 132.621L777.46 132.621L777.46 131.31L777.46 131.265Z" fill="#063860"/>
<path d="M903.903 659.429L903.903 786.715C887.104 786.534 870.755 783.143 855.353 776.632C840.085 770.166 826.394 760.896 814.639 749.049C802.884 737.248 793.652 723.502 787.166 708.173C780.636 692.709 777.258 676.34 777.123 659.429L903.903 659.429ZM774.466 658.118C774.466 675.843 777.934 693.025 784.734 709.213C791.31 724.858 800.767 738.875 812.747 750.948C824.772 763.021 838.734 772.472 854.317 779.073C870.44 785.901 887.554 789.383 905.209 789.383L906.515 789.383L906.515 656.761L774.466 656.761L774.466 658.073L774.466 658.118Z" fill="#063860"/>
<path d="M777.124 524.397L777.124 397.111C793.923 397.292 810.271 400.683 825.674 407.195C840.941 413.661 854.633 422.93 866.388 434.777C878.142 446.579 887.375 460.325 893.86 475.653C900.391 491.117 903.768 507.486 903.904 524.397L777.124 524.397ZM906.561 525.708C906.561 507.983 903.093 490.801 896.292 474.613C889.717 458.968 880.259 444.951 868.279 432.878C856.254 420.805 842.293 411.355 826.71 404.753C810.586 397.925 793.472 394.443 775.818 394.443L774.511 394.443L774.511 527.065L906.561 527.065L906.561 525.754L906.561 525.708Z" fill="#063860"/>
<path d="M903.902 391.884L777.122 391.884C777.303 375.018 780.68 358.604 787.166 343.14C793.606 327.812 802.839 314.066 814.638 302.264C826.393 290.462 840.085 281.193 855.352 274.682C870.755 268.125 887.058 264.734 903.902 264.598L903.902 391.884ZM905.208 261.93C887.554 261.93 870.44 265.412 854.316 272.24C838.733 278.842 824.772 288.337 812.747 300.365C800.722 312.438 791.309 326.455 784.734 342.1C777.933 358.288 774.465 375.47 774.465 393.195L774.465 394.507L906.56 394.507L906.56 261.93L905.254 261.93L905.208 261.93Z" fill="#063860"/>
<path d="M903.925 131.978L903.925 259.263C887.126 259.082 870.777 255.691 855.374 249.18C840.107 242.714 826.415 233.444 814.661 221.598C802.906 209.796 793.673 196.05 787.188 180.721C780.657 165.257 777.28 148.889 777.145 131.978L903.925 131.978ZM774.487 130.666C774.487 148.391 777.955 165.574 784.756 181.761C791.331 197.407 800.789 211.424 812.769 223.497C824.794 235.57 838.756 245.02 854.338 251.622C870.462 258.449 887.576 261.931 905.231 261.931L906.537 261.931L906.537 129.31L774.487 129.31L774.487 130.621L774.487 130.666Z" fill="#063860"/>
<path d="M903.895 919.36L777.115 919.36C777.295 902.494 780.673 886.08 787.158 870.616C793.599 855.287 802.831 841.541 814.631 829.74C826.386 817.938 840.077 808.669 855.345 802.157C870.748 795.601 887.051 792.21 903.895 792.074L903.895 919.36ZM905.201 789.406C887.546 789.406 870.432 792.888 854.309 799.716C838.726 806.317 824.764 815.813 812.74 827.841C800.715 839.914 791.302 853.931 784.726 869.576C777.926 885.764 774.458 902.946 774.458 920.671L774.458 921.982L906.552 921.982L906.552 789.406L905.246 789.406L905.201 789.406Z" fill="#063860"/>
<path d="M777.078 526.809L777.078 654.095C793.877 653.914 810.225 650.523 825.628 644.012C840.896 637.545 854.587 628.276 866.342 616.429C878.096 604.628 887.329 590.882 893.814 575.553C900.345 560.089 903.723 543.72 903.858 526.809L777.078 526.809ZM906.515 525.498C906.515 543.223 903.047 560.405 896.246 576.593C889.671 592.238 880.213 606.255 868.233 618.328C856.208 630.401 842.247 639.852 826.664 646.453C810.54 653.281 793.426 656.763 775.772 656.763L774.466 656.763L774.466 524.141L906.515 524.141L906.515 525.453L906.515 525.498Z" fill="#063860"/>
<path d="M777.101 129.954L777.101 2.6677C793.9 2.84856 810.248 6.23983 825.651 12.7511C840.919 19.2171 854.61 28.4866 866.365 40.3334C878.119 52.1351 887.352 65.881 893.837 81.2096C900.368 96.6738 903.746 113.042 903.881 129.953L777.101 129.954ZM906.538 131.265C906.538 113.54 903.07 96.3573 896.269 80.1696C889.694 64.5245 880.236 50.5073 868.256 38.4343C856.231 26.3614 842.27 16.911 826.687 10.3094C810.564 3.4816 793.449 -0.000107885 775.795 -0.00010567L774.489 -0.000105506L774.489 132.621L906.538 132.621L906.538 131.31L906.538 131.265Z" fill="#063860"/>
<path d="M1032.98 659.426L1032.98 786.712C1016.18 786.531 999.834 783.139 984.431 776.628C969.164 770.162 955.472 760.893 943.718 749.046C931.963 737.244 922.73 723.498 916.245 708.17C909.715 692.705 906.337 676.337 906.202 659.426L1032.98 659.426ZM903.544 658.114C903.544 675.84 907.012 693.022 913.813 709.21C920.388 724.855 929.846 738.872 941.826 750.945C953.851 763.018 967.813 772.468 983.396 779.07C999.519 785.898 1016.63 789.379 1034.29 789.379L1035.59 789.379L1035.59 656.758L903.544 656.758L903.544 658.069L903.544 658.114Z" fill="#063860"/>
<path d="M906.202 524.393L906.202 397.107C923.001 397.288 939.349 400.68 954.752 407.191C970.02 413.657 983.711 422.926 995.466 434.773C1007.22 446.575 1016.45 460.321 1022.94 475.649C1029.47 491.114 1032.85 507.482 1032.98 524.393L906.202 524.393ZM1035.64 525.705C1035.64 507.98 1032.17 490.797 1025.37 474.609C1018.8 458.964 1009.34 444.947 997.357 432.874C985.333 420.801 971.371 411.351 955.788 404.749C939.665 397.921 922.551 394.44 904.896 394.44L903.59 394.44L903.59 527.061L1035.64 527.061L1035.64 525.75L1035.64 525.705Z" fill="#063860"/>
<path d="M1032.98 391.884L906.201 391.884C906.381 375.018 909.759 358.604 916.244 343.14C922.684 327.811 931.917 314.065 943.717 302.264C955.471 290.462 969.163 281.193 984.43 274.681C999.833 268.125 1016.14 264.734 1032.98 264.598L1032.98 391.884ZM1034.29 261.93C1016.63 261.93 999.518 265.412 983.395 272.24C967.812 278.841 953.85 288.337 941.825 300.365C929.8 312.438 920.387 326.455 913.812 342.1C907.011 358.288 903.543 375.47 903.543 393.195L903.543 394.506L1035.64 394.506L1035.64 261.93L1034.33 261.93L1034.29 261.93Z" fill="#063860"/>
<path d="M1033 131.978L1033 259.263C1016.2 259.082 999.856 255.691 984.453 249.18C969.185 242.714 955.494 233.444 943.739 221.598C931.985 209.796 922.752 196.05 916.267 180.721C909.736 165.257 906.358 148.889 906.223 131.978L1033 131.978ZM903.566 130.666C903.566 148.391 907.034 165.574 913.835 181.761C920.41 197.407 929.868 211.424 941.848 223.497C953.873 235.57 967.834 245.02 983.417 251.622C999.54 258.449 1016.65 261.931 1034.31 261.931L1035.62 261.931L1035.62 129.31L903.566 129.31L903.566 130.621L903.566 130.666Z" fill="#063860"/>
<path d="M1032.97 919.356L906.194 919.356C906.374 902.49 909.752 886.076 916.237 870.612C922.677 855.284 931.91 841.538 943.71 829.736C955.464 817.934 969.156 808.665 984.423 802.154C999.826 795.597 1016.13 792.206 1032.97 792.07L1032.97 919.356ZM1034.28 789.403C1016.63 789.403 999.511 792.884 983.388 799.712C967.805 806.314 953.843 815.809 941.818 827.837C929.793 839.91 920.38 853.927 913.805 869.572C907.004 885.76 903.537 902.942 903.537 920.667L903.537 921.979L1035.63 921.979L1035.63 789.403L1034.32 789.403L1034.28 789.403Z" fill="#063860"/>
<path d="M1032.98 526.806L1032.98 654.091C1016.18 653.911 999.834 650.519 984.431 644.008C969.164 637.542 955.472 628.273 943.718 616.426C931.963 604.624 922.73 590.878 916.245 575.55C909.715 560.085 906.337 543.717 906.202 526.806L1032.98 526.806ZM903.544 525.494C903.544 543.219 907.012 560.402 913.813 576.59C920.388 592.235 929.846 606.252 941.826 618.325C953.851 630.398 967.813 639.848 983.396 646.45C999.519 653.278 1016.63 656.759 1034.29 656.759L1035.59 656.759L1035.59 524.138L903.544 524.138L903.544 525.449L903.544 525.494Z" fill="#063860"/>
<path d="M906.18 129.954L906.18 2.66782C922.979 2.84869 939.327 6.23996 954.73 12.7512C969.998 19.2172 983.689 28.4867 995.444 40.3336C1007.2 52.1352 1016.43 65.8812 1022.92 81.2097C1029.45 96.6739 1032.82 113.042 1032.96 129.954L906.18 129.954ZM1035.62 131.265C1035.62 113.54 1032.15 96.3574 1025.35 80.1697C1018.77 64.5246 1009.32 50.5074 997.335 38.4344C985.31 26.3615 971.349 16.9112 955.766 10.3095C939.642 3.48172 922.528 1.5211e-05 904.874 1.75856e-05L903.568 1.77613e-05L903.568 132.621L1035.62 132.621L1035.62 131.31L1035.62 131.265Z" fill="#063860"/>
<path d="M1162.06 659.424L1162.06 786.71C1145.26 786.529 1128.91 783.137 1113.51 776.626C1098.24 770.16 1084.55 760.891 1072.8 749.044C1061.04 737.242 1051.81 723.496 1045.32 708.168C1038.79 692.704 1035.42 676.335 1035.28 659.424L1162.06 659.424ZM1032.62 658.113C1032.62 675.838 1036.09 693.02 1042.89 709.208C1049.47 724.853 1058.92 738.87 1070.9 750.943C1082.93 763.016 1096.89 772.466 1112.47 779.068C1128.6 785.896 1145.71 789.377 1163.37 789.377L1164.67 789.377L1164.67 656.756L1032.62 656.756L1032.62 658.067L1032.62 658.113Z" fill="#063860"/>
<path d="M1035.28 524.391L1035.28 397.105C1052.08 397.286 1068.43 400.677 1083.83 407.189C1099.1 413.655 1112.79 422.924 1124.54 434.771C1136.3 446.573 1145.53 460.319 1152.02 475.647C1158.55 491.111 1161.93 507.48 1162.06 524.391L1035.28 524.391ZM1164.72 525.702C1164.72 507.977 1161.25 490.795 1154.45 474.607C1147.87 458.962 1138.42 444.945 1126.44 432.872C1114.41 420.799 1100.45 411.349 1084.87 404.747C1068.74 397.919 1051.63 394.437 1033.97 394.437L1032.67 394.437L1032.67 527.059L1164.72 527.059L1164.72 525.748L1164.72 525.702Z" fill="#063860"/>
<path d="M1162.06 391.884L1035.28 391.884C1035.46 375.018 1038.84 358.605 1045.32 343.14C1051.76 327.812 1061 314.066 1072.8 302.264C1084.55 290.463 1098.24 281.193 1113.51 274.682C1128.91 268.125 1145.22 264.734 1162.06 264.598L1162.06 391.884ZM1163.37 261.931C1145.71 261.931 1128.6 265.412 1112.47 272.24C1096.89 278.842 1082.93 288.337 1070.9 300.365C1058.88 312.438 1049.47 326.455 1042.89 342.1C1036.09 358.288 1032.62 375.471 1032.62 393.196L1032.62 394.507L1164.72 394.507L1164.72 261.931L1163.41 261.931L1163.37 261.931Z" fill="#063860"/>
<path d="M1162.08 131.978L1162.08 259.264C1145.28 259.083 1128.93 255.692 1113.53 249.18C1098.26 242.714 1084.57 233.445 1072.82 221.598C1061.06 209.796 1051.83 196.05 1045.35 180.722C1038.81 165.258 1035.44 148.889 1035.3 131.978L1162.08 131.978ZM1032.64 130.667C1032.64 148.392 1036.11 165.574 1042.91 181.762C1049.49 197.407 1058.95 211.424 1070.93 223.497C1082.95 235.57 1096.91 245.02 1112.5 251.622C1128.62 258.45 1145.73 261.932 1163.39 261.932L1164.69 261.932L1164.69 129.31L1032.64 129.31L1032.64 130.622L1032.64 130.667Z" fill="#063860"/>
<path d="M1162.05 919.354L1035.27 919.354C1035.45 902.488 1038.83 886.075 1045.32 870.61C1051.76 855.282 1060.99 841.536 1072.79 829.734C1084.54 817.933 1098.23 808.663 1113.5 802.152C1128.9 795.595 1145.21 792.204 1162.05 792.068L1162.05 919.354ZM1163.36 789.401C1145.7 789.401 1128.59 792.882 1112.47 799.71C1096.88 806.312 1082.92 815.807 1070.9 827.835C1058.87 839.908 1049.46 853.925 1042.88 869.57C1036.08 885.758 1032.62 902.94 1032.62 920.666L1032.62 921.977L1164.71 921.977L1164.71 789.401L1163.4 789.401L1163.36 789.401Z" fill="#063860"/>
<path d="M1162.06 526.804L1162.06 654.089C1145.26 653.908 1128.91 650.517 1113.51 644.006C1098.24 637.54 1084.55 628.27 1072.8 616.424C1061.04 604.622 1051.81 590.876 1045.32 575.547C1038.79 560.083 1035.42 543.715 1035.28 526.804L1162.06 526.804ZM1032.62 525.492C1032.62 543.217 1036.09 560.4 1042.89 576.587C1049.47 592.232 1058.92 606.25 1070.9 618.323C1082.93 630.396 1096.89 639.846 1112.47 646.448C1128.6 653.275 1145.71 656.757 1163.37 656.757L1164.67 656.757L1164.67 524.136L1032.62 524.136L1032.62 525.447L1032.62 525.492Z" fill="#063860"/>
<path d="M1162.08 129.954L1162.08 2.66782C1145.28 2.84868 1128.94 6.23996 1113.53 12.7512C1098.26 19.2172 1084.57 28.4867 1072.82 40.3336C1061.06 52.1352 1051.83 65.8812 1045.35 81.2097C1038.82 96.6739 1035.44 113.042 1035.3 129.954L1162.08 129.954ZM1032.65 131.265C1032.65 113.54 1036.11 96.3574 1042.91 80.1697C1049.49 64.5246 1058.95 50.5074 1070.93 38.4344C1082.95 26.3615 1096.91 16.9112 1112.5 10.3095C1128.62 3.48172 1145.73 1.42053e-05 1163.39 1.64229e-05L1164.69 1.6587e-05L1164.69 132.621L1032.65 132.621L1032.65 131.31L1032.65 131.265Z" fill="#063860"/>
<path d="M1291.14 659.419L1291.14 786.705C1274.34 786.524 1257.99 783.133 1242.59 776.621C1227.32 770.155 1213.63 760.886 1201.87 749.039C1190.12 737.237 1180.89 723.491 1174.4 708.163C1167.87 692.699 1164.49 676.33 1164.36 659.419L1291.14 659.419ZM1161.7 658.108C1161.7 675.833 1165.17 693.015 1171.97 709.203C1178.55 724.848 1188 738.865 1199.98 750.938C1212.01 763.011 1225.97 772.461 1241.55 779.063C1257.68 785.891 1274.79 789.373 1292.44 789.373L1293.75 789.373L1293.75 656.751L1161.7 656.751L1161.7 658.062L1161.7 658.108Z" fill="#063860"/>
<path d="M1164.36 524.386L1164.36 397.101C1181.16 397.282 1197.51 400.673 1212.91 407.184C1228.18 413.65 1241.87 422.92 1253.62 434.766C1265.38 446.568 1274.61 460.314 1281.1 475.643C1287.63 491.107 1291 507.475 1291.14 524.386L1164.36 524.386ZM1293.8 525.698C1293.8 507.973 1290.33 490.79 1283.53 474.603C1276.95 458.958 1267.49 444.94 1255.51 432.867C1243.49 420.794 1229.53 411.344 1213.95 404.742C1197.82 397.915 1180.71 394.433 1163.05 394.433L1161.75 394.433L1161.75 527.054L1293.8 527.054L1293.8 525.743L1293.8 525.698Z" fill="#063860"/>
<path d="M1164.36 391.884L1291.14 391.884C1290.96 375.018 1287.58 358.604 1281.09 343.14C1274.65 327.812 1265.42 314.066 1253.62 302.264C1241.87 290.462 1228.18 281.193 1212.91 274.682C1197.5 268.125 1181.2 264.734 1164.36 264.598L1164.36 391.884ZM1163.05 261.93C1180.71 261.93 1197.82 265.412 1213.94 272.24C1229.53 278.842 1243.49 288.337 1255.51 300.365C1267.54 312.438 1276.95 326.455 1283.53 342.1C1290.33 358.288 1293.79 375.47 1293.79 393.195L1293.79 394.507L1161.7 394.507L1161.7 261.93L1163.01 261.93L1163.05 261.93Z" fill="#063860"/>
<path d="M1291.16 131.978L1291.16 259.263C1274.36 259.082 1258.01 255.691 1242.61 249.18C1227.34 242.714 1213.65 233.444 1201.9 221.598C1190.14 209.796 1180.91 196.05 1174.42 180.721C1167.89 165.257 1164.52 148.889 1164.38 131.978L1291.16 131.978ZM1161.72 130.666C1161.72 148.391 1165.19 165.574 1171.99 181.761C1178.57 197.407 1188.02 211.424 1200 223.497C1212.03 235.57 1225.99 245.02 1241.57 251.622C1257.7 258.449 1274.81 261.931 1292.47 261.931L1293.77 261.931L1293.77 129.31L1161.72 129.31L1161.72 130.621L1161.72 130.666Z" fill="#063860"/>
<path d="M1291.13 919.349L1164.35 919.349C1164.53 902.483 1167.91 886.07 1174.39 870.605C1180.83 855.277 1190.07 841.531 1201.87 829.729C1213.62 817.928 1227.31 808.658 1242.58 802.147C1257.98 795.59 1274.29 792.199 1291.13 792.064L1291.13 919.349ZM1292.44 789.396C1274.78 789.396 1257.67 792.877 1241.54 799.705C1225.96 806.307 1212 815.802 1199.98 827.83C1187.95 839.903 1178.54 853.92 1171.96 869.565C1165.16 885.753 1161.69 902.936 1161.69 920.661L1161.69 921.972L1293.79 921.972L1293.79 789.396L1292.48 789.396L1292.44 789.396Z" fill="#063860"/>
<path d="M1164.31 526.799L1164.31 654.084C1181.11 653.904 1197.46 650.512 1212.86 644.001C1228.13 637.535 1241.82 628.265 1253.58 616.419C1265.33 604.617 1274.56 590.871 1281.05 575.542C1287.58 560.078 1290.96 543.71 1291.09 526.799L1164.31 526.799ZM1293.75 525.487C1293.75 543.212 1290.28 560.395 1283.48 576.582C1276.91 592.228 1267.45 606.245 1255.47 618.318C1243.44 630.391 1229.48 639.841 1213.9 646.443C1197.78 653.27 1180.66 656.752 1163.01 656.752L1161.7 656.752L1161.7 524.131L1293.75 524.131L1293.75 525.442L1293.75 525.487Z" fill="#063860"/>
<path d="M1164.34 129.954L1164.34 2.66782C1181.14 2.84869 1197.48 6.23996 1212.89 12.7512C1228.15 19.2172 1241.85 28.4867 1253.6 40.3336C1265.36 52.1352 1274.59 65.8811 1281.07 81.2097C1287.6 96.6739 1290.98 113.042 1291.12 129.954L1164.34 129.954ZM1293.77 131.265C1293.77 113.54 1290.31 96.3574 1283.51 80.1697C1276.93 64.5246 1267.47 50.5074 1255.49 38.4344C1243.47 26.3615 1229.51 16.9112 1213.92 10.3095C1197.8 3.48172 1180.69 1.5211e-05 1163.03 1.75856e-05L1161.72 1.77613e-05L1161.72 132.621L1293.77 132.621L1293.77 131.31L1293.77 131.265Z" fill="#063860"/>
<path d="M129.445 659.456L129.445 786.742C112.646 786.561 96.2976 783.17 80.8949 776.659C65.6272 770.193 51.9359 760.923 40.1812 749.076C28.4264 737.275 19.1938 723.529 12.7084 708.2C6.17801 692.736 2.80021 676.367 2.6651 659.456L129.445 659.456ZM0.00789869 658.145C0.00789942 675.87 3.47577 693.053 10.2764 709.24C16.8518 724.885 26.3097 738.903 38.2896 750.975C50.3145 763.048 64.2761 772.499 79.859 779.1C95.9824 785.928 113.097 789.41 130.751 789.41L132.057 789.41L132.057 656.788L0.00789864 656.788L0.00789869 658.1L0.00789869 658.145Z" fill="#063860"/>
<path d="M2.66526 524.423L2.66526 397.138C19.4642 397.318 35.8127 400.71 51.2155 407.221C66.4831 413.687 80.1744 422.956 91.9292 434.803C103.684 446.605 112.917 460.351 119.402 475.679C125.932 491.144 129.31 507.512 129.445 524.423L2.66526 524.423ZM132.102 525.735C132.102 508.01 128.635 490.827 121.834 474.639C115.258 458.994 105.801 444.977 93.8207 432.904C81.7958 420.831 67.8342 411.381 52.2513 404.779C36.128 397.951 19.0138 394.47 1.35918 394.47L0.053102 394.47L0.0530959 527.091L132.102 527.091L132.102 525.78L132.102 525.735Z" fill="#063860"/>
<path d="M129.444 391.884L2.66413 391.884C2.84428 375.018 6.22208 358.604 12.7074 343.14C19.1478 327.812 28.3804 314.066 40.1802 302.264C51.9349 290.462 65.6263 281.193 80.8939 274.682C96.2967 268.125 112.6 264.734 129.444 264.598L129.444 391.884ZM130.75 261.93C113.096 261.93 95.9814 265.412 79.858 272.24C64.2751 278.842 50.3136 288.337 38.2886 300.365C26.2637 312.438 16.8509 326.455 10.2754 342.1C3.4748 358.288 0.00693347 375.47 0.00693441 393.195L0.00693448 394.507L132.101 394.507L132.101 261.93L130.795 261.93L130.75 261.93Z" fill="#063860"/>
<path d="M129.468 131.977L129.468 259.263C112.669 259.082 96.3203 255.691 80.9175 249.18C65.6499 242.714 51.9585 233.444 40.2038 221.597C28.4491 209.796 19.2164 196.05 12.7311 180.721C6.20065 165.257 2.82285 148.888 2.68774 131.977L129.468 131.977ZM0.0305427 130.666C0.0305435 148.391 3.49841 165.574 10.299 181.761C16.8745 197.406 26.3323 211.424 38.3122 223.496C50.3372 235.569 64.2987 245.02 79.8816 251.621C96.005 258.449 113.119 261.931 130.774 261.931L132.08 261.931L132.08 129.309L0.0305427 129.309L0.0305427 130.621L0.0305427 130.666Z" fill="#063860"/>
<path d="M129.437 919.387L2.65724 919.387C2.83739 902.521 6.21519 886.107 12.7006 870.643C19.1409 855.314 28.3735 841.568 40.1733 829.767C51.928 817.965 65.6194 808.696 80.887 802.184C96.2898 795.628 112.593 792.237 129.437 792.101L129.437 919.387ZM130.743 789.433C113.089 789.433 95.9745 792.915 79.8511 799.743C64.2682 806.344 50.3067 815.84 38.2817 827.868C26.2568 839.94 16.844 853.958 10.2685 869.603C3.46791 885.79 4.2561e-05 902.973 4.44411e-05 920.698L4.45802e-05 922.009L132.094 922.009L132.094 789.433L130.788 789.433L130.743 789.433Z" fill="#063860"/>
<path d="M129.445 526.836L129.445 654.122C112.646 653.941 96.2976 650.55 80.8949 644.038C65.6272 637.572 51.9359 628.303 40.1812 616.456C28.4264 604.654 19.1938 590.908 12.7084 575.58C6.17801 560.116 2.80021 543.747 2.6651 526.836L129.445 526.836ZM0.00789869 525.525C0.00789942 543.25 3.47577 560.432 10.2764 576.62C16.8518 592.265 26.3097 606.282 38.2896 618.355C50.3145 630.428 64.2761 639.878 79.859 646.48C95.9824 653.308 113.097 656.79 130.751 656.79L132.057 656.79L132.057 524.168L0.00789864 524.168L0.00789869 525.479L0.00789869 525.525Z" fill="#063860"/>
<path d="M2.64307 129.954L2.64305 2.6677C19.442 2.84856 35.7905 6.23983 51.1932 12.7511C66.4609 19.2171 80.1522 28.4866 91.9069 40.3334C103.662 52.1351 112.894 65.881 119.38 81.2096C125.91 96.6738 129.288 113.042 129.423 129.954L2.64307 129.954ZM132.08 131.265C132.08 113.54 128.612 96.3573 121.812 80.1696C115.236 64.5245 105.778 50.5073 93.7985 38.4343C81.7736 26.3614 67.812 16.911 52.2291 10.3094C36.1058 3.4816 18.9916 -0.000107885 1.33696 -0.00010567L0.0308852 -0.000105506L0.0309034 132.621L132.08 132.621L132.08 131.31L132.08 131.265Z" fill="#063860"/>
<path d="M1436.91 659.416L1436.91 786.702C1420.11 786.521 1403.77 783.129 1388.36 776.618C1373.1 770.152 1359.4 760.883 1347.65 749.036C1335.89 737.234 1326.66 723.488 1320.18 708.16C1313.65 692.695 1310.27 676.327 1310.13 659.416L1436.91 659.416ZM1307.48 658.104C1307.48 675.83 1310.94 693.012 1317.74 709.2C1324.32 724.845 1333.78 738.862 1345.76 750.935C1357.78 763.008 1371.74 772.458 1387.33 779.06C1403.45 785.888 1420.56 789.369 1438.22 789.369L1439.53 789.369L1439.53 656.748L1307.48 656.748L1307.48 658.059L1307.48 658.104Z" fill="#063860"/>
<path d="M1310.13 524.383L1310.13 397.097C1326.93 397.278 1343.28 400.669 1358.68 407.18C1373.95 413.646 1387.64 422.916 1399.4 434.763C1411.15 446.564 1420.38 460.31 1426.87 475.639C1433.4 491.103 1436.78 507.471 1436.91 524.383L1310.13 524.383ZM1439.57 525.694C1439.57 507.969 1436.1 490.786 1429.3 474.599C1422.73 458.954 1413.27 444.936 1401.29 432.863C1389.26 420.79 1375.3 411.34 1359.72 404.738C1343.6 397.911 1326.48 394.429 1308.83 394.429L1307.52 394.429L1307.52 527.05L1439.57 527.05L1439.57 525.739L1439.57 525.694Z" fill="#063860"/>
<path d="M1436.91 391.884L1310.13 391.884C1310.31 375.018 1313.69 358.605 1320.18 343.14C1326.62 327.812 1335.85 314.066 1347.65 302.264C1359.4 290.463 1373.09 281.193 1388.36 274.682C1403.76 268.125 1420.07 264.734 1436.91 264.598L1436.91 391.884ZM1438.22 261.931C1420.56 261.931 1403.45 265.412 1387.33 272.24C1371.74 278.842 1357.78 288.337 1345.76 300.365C1333.73 312.438 1324.32 326.455 1317.74 342.1C1310.94 358.288 1307.47 375.471 1307.47 393.196L1307.47 394.507L1439.57 394.507L1439.57 261.931L1438.26 261.931L1438.22 261.931Z" fill="#063860"/>
<path d="M1436.93 131.978L1436.93 259.263C1420.14 259.082 1403.79 255.691 1388.38 249.18C1373.12 242.714 1359.43 233.444 1347.67 221.598C1335.92 209.796 1326.68 196.05 1320.2 180.721C1313.67 165.257 1310.29 148.889 1310.15 131.978L1436.93 131.978ZM1307.5 130.666C1307.5 148.391 1310.97 165.574 1317.77 181.761C1324.34 197.407 1333.8 211.424 1345.78 223.497C1357.8 235.57 1371.77 245.02 1387.35 251.622C1403.47 258.449 1420.59 261.931 1438.24 261.931L1439.55 261.931L1439.55 129.31L1307.5 129.31L1307.5 130.621L1307.5 130.666Z" fill="#063860"/>
<path d="M1436.91 919.346L1310.13 919.346C1310.31 902.48 1313.68 886.066 1320.17 870.602C1326.61 855.274 1335.84 841.528 1347.64 829.726C1359.4 817.924 1373.09 808.655 1388.35 802.144C1403.76 795.587 1420.06 792.196 1436.91 792.06L1436.91 919.346ZM1438.21 789.393C1420.56 789.393 1403.44 792.874 1387.32 799.702C1371.74 806.304 1357.77 815.799 1345.75 827.827C1333.72 839.9 1324.31 853.917 1317.74 869.562C1310.94 885.75 1307.47 902.932 1307.47 920.657L1307.47 921.969L1439.56 921.969L1439.56 789.393L1438.26 789.393L1438.21 789.393Z" fill="#063860"/>
<path d="M1436.91 526.796L1436.91 654.081C1420.11 653.901 1403.77 650.509 1388.36 643.998C1373.1 637.532 1359.4 628.263 1347.65 616.416C1335.89 604.614 1326.66 590.868 1320.18 575.54C1313.65 560.075 1310.27 543.707 1310.13 526.796L1436.91 526.796ZM1307.48 525.484C1307.48 543.209 1310.94 560.392 1317.74 576.58C1324.32 592.225 1333.78 606.242 1345.76 618.315C1357.78 630.388 1371.74 639.838 1387.33 646.44C1403.45 653.268 1420.56 656.749 1438.22 656.749L1439.53 656.749L1439.53 524.128L1307.48 524.128L1307.48 525.439L1307.48 525.484Z" fill="#063860"/>
<path d="M1310.11 129.954L1310.11 2.66782C1326.91 2.84868 1343.26 6.23996 1358.66 12.7512C1373.93 19.2172 1387.62 28.4867 1399.38 40.3336C1411.13 52.1352 1420.36 65.8811 1426.85 81.2097C1433.38 96.6739 1436.76 113.042 1436.89 129.954L1310.11 129.954ZM1439.55 131.265C1439.55 113.54 1436.08 96.3574 1429.28 80.1697C1422.7 64.5246 1413.25 50.5074 1401.27 38.4344C1389.24 26.3615 1375.28 16.9112 1359.7 10.3095C1343.57 3.48172 1326.46 1.41855e-05 1308.81 1.64001e-05L1307.5 1.65639e-05L1307.5 132.621L1439.55 132.621L1439.55 131.31L1439.55 131.265Z" fill="#063860"/>
</g>
</g>
<defs>
<clipPath id="clip0_310_5522">
<rect width="1440" height="922" fill="white"/>
</clipPath>
<clipPath id="clip1_310_5522">
<rect width="1440" height="922" fill="white"/>
</clipPath>
</defs>
</svg>
