<?xml version="1.0" encoding="utf-8"?>
<!-- Generator: Adobe Illustrator 27.9.0, SVG Export Plug-In . SVG Version: 6.00 Build 0)  -->
<svg version="1.1" xmlns="http://www.w3.org/2000/svg" xmlns:xlink="http://www.w3.org/1999/xlink" x="0px" y="0px"
	 viewBox="0 0 1316 583" style="enable-background:new 0 0 1316 583;" xml:space="preserve">
<style type="text/css">
	.st0{opacity:0.2;fill-rule:evenodd;clip-rule:evenodd;fill:#0B5999;fill-opacity:0.2;}
	.st1{opacity:0.2;}
	.st2{fill-rule:evenodd;clip-rule:evenodd;fill:#FFFFFF;filter:url(#Adobe_OpacityMaskFilter);}
	.st3{mask:url(#path-2-inside-1_112_2686_00000170998992003129872760000000386002881213072048_);fill:#0B5999;}
	.st4{fill-rule:evenodd;clip-rule:evenodd;fill:#0B5999;fill-opacity:0.2;}
	
		.st5{fill-rule:evenodd;clip-rule:evenodd;fill:#FFFFFF;filter:url(#Adobe_OpacityMaskFilter_00000147217865588790146120000002353609769791756981_);}
	.st6{mask:url(#path-4-inside-2_112_2686_00000015353815643936320960000000810083620661979023_);fill:#0B5999;}
	
		.st7{fill-rule:evenodd;clip-rule:evenodd;fill:#FFFFFF;filter:url(#Adobe_OpacityMaskFilter_00000155132702359973028180000009222755779007133340_);}
	.st8{mask:url(#path-8-inside-3_112_2686_00000034773118232078060320000011828257710369264800_);fill:#0B5999;}
	
		.st9{fill-rule:evenodd;clip-rule:evenodd;fill:#FFFFFF;filter:url(#Adobe_OpacityMaskFilter_00000019660083190739226440000015776492839097449914_);}
	.st10{mask:url(#path-10-inside-4_112_2686_00000070811384239324133580000002022856300558407353_);fill:#0B5999;}
	
		.st11{fill-rule:evenodd;clip-rule:evenodd;fill:#FFFFFF;filter:url(#Adobe_OpacityMaskFilter_00000096746106389196570440000016584767747932127388_);}
	.st12{mask:url(#path-12-inside-5_112_2686_00000155124110707900885990000014953654550016957589_);fill:#0B5999;}
	.st13{fill-rule:evenodd;clip-rule:evenodd;fill:#0B5999;fill-opacity:0.1;}
	
		.st14{fill-rule:evenodd;clip-rule:evenodd;fill:#FFFFFF;filter:url(#Adobe_OpacityMaskFilter_00000131351807528194485310000015825458949011207082_);}
	.st15{mask:url(#path-14-inside-6_112_2686_00000107588806431840317730000003541176158939277996_);fill:#0B5999;}
	
		.st16{fill-rule:evenodd;clip-rule:evenodd;fill:#FFFFFF;filter:url(#Adobe_OpacityMaskFilter_00000134959048608104323550000011671614665764353922_);}
	.st17{mask:url(#path-16-inside-7_112_2686_00000137820102072886841120000004114059635161269165_);fill:#0B5999;}
	
		.st18{fill-rule:evenodd;clip-rule:evenodd;fill:#FFFFFF;filter:url(#Adobe_OpacityMaskFilter_00000124875464480518502240000001530360836985166468_);}
	.st19{mask:url(#path-18-inside-8_112_2686_00000015335817407405714940000016368067386124179607_);fill:#0B5999;}
	
		.st20{fill-rule:evenodd;clip-rule:evenodd;fill:#FFFFFF;filter:url(#Adobe_OpacityMaskFilter_00000041261719273262980860000015631652253871251644_);}
	.st21{mask:url(#path-20-inside-9_112_2686_00000181063719478785385680000006218408687963193767_);fill:#0B5999;}
	
		.st22{fill-rule:evenodd;clip-rule:evenodd;fill:#FFFFFF;filter:url(#Adobe_OpacityMaskFilter_00000150077506825347771550000016850840901501721240_);}
	.st23{mask:url(#path-22-inside-10_112_2686_00000031927920194280230000000014626210135593307803_);fill:#0B5999;}
	
		.st24{fill-rule:evenodd;clip-rule:evenodd;fill:#FFFFFF;filter:url(#Adobe_OpacityMaskFilter_00000155115712626493282370000013597779731763717550_);}
	.st25{mask:url(#path-24-inside-11_112_2686_00000124155562689548291310000017172756497850855355_);fill:#0B5999;}
	
		.st26{fill-rule:evenodd;clip-rule:evenodd;fill:#FFFFFF;filter:url(#Adobe_OpacityMaskFilter_00000029724021349956423200000014666858394579263108_);}
	.st27{mask:url(#path-26-inside-12_112_2686_00000097468174495750457240000015824102219146962566_);fill:#0B5999;}
	.st28{opacity:0.1;}
	
		.st29{fill-rule:evenodd;clip-rule:evenodd;fill:#FFFFFF;filter:url(#Adobe_OpacityMaskFilter_00000165223930296583800530000002344563399613372823_);}
	.st30{mask:url(#path-28-inside-13_112_2686_00000075849066416463525590000002164188721387272885_);fill:#0B5999;}
	
		.st31{fill-rule:evenodd;clip-rule:evenodd;fill:#FFFFFF;filter:url(#Adobe_OpacityMaskFilter_00000135674857554936572200000014979577882106052787_);}
	.st32{mask:url(#path-30-inside-14_112_2686_00000157302539570105282180000008668727129243085203_);fill:#0B5999;}
	
		.st33{fill-rule:evenodd;clip-rule:evenodd;fill:#FFFFFF;filter:url(#Adobe_OpacityMaskFilter_00000015339383333235201430000018007510139895872654_);}
	.st34{opacity:0.2;mask:url(#path-32-inside-15_112_2686_00000011738903072509865340000012636748796675662238_);fill:#0B5999;}
	.st35{opacity:0.4;}
	
		.st36{fill-rule:evenodd;clip-rule:evenodd;fill:#FFFFFF;filter:url(#Adobe_OpacityMaskFilter_00000125570091107474578940000003870358135947857539_);}
	.st37{mask:url(#path-34-inside-16_112_2686_00000096776237765595119230000015274523548774851496_);fill:#0B5999;fill-opacity:0.2;}
	
		.st38{fill-rule:evenodd;clip-rule:evenodd;fill:#FFFFFF;filter:url(#Adobe_OpacityMaskFilter_00000165947351359141110720000004852879806282457226_);}
	.st39{mask:url(#path-36-inside-17_112_2686_00000084492146350470130850000008976584162825675198_);fill:#0B5999;}
	
		.st40{fill-rule:evenodd;clip-rule:evenodd;fill:#FFFFFF;filter:url(#Adobe_OpacityMaskFilter_00000107568802105074209150000012820559257798405035_);}
	.st41{mask:url(#path-38-inside-18_112_2686_00000024688996821191002830000009005578197015028897_);fill:#0B5999;}
	
		.st42{fill-rule:evenodd;clip-rule:evenodd;fill:#FFFFFF;filter:url(#Adobe_OpacityMaskFilter_00000092442778505933058130000002435911815940137630_);}
	.st43{mask:url(#path-40-inside-19_112_2686_00000110463485424236014720000010124336267498173373_);fill:#0B5999;fill-opacity:0.2;}
	
		.st44{fill-rule:evenodd;clip-rule:evenodd;fill:#FFFFFF;filter:url(#Adobe_OpacityMaskFilter_00000053502864561775404720000013550267992755917978_);}
	.st45{mask:url(#path-42-inside-20_112_2686_00000048468996277676531020000002235040615021135001_);fill:#0B5999;}
	
		.st46{fill-rule:evenodd;clip-rule:evenodd;fill:#FFFFFF;filter:url(#Adobe_OpacityMaskFilter_00000041267511227133992300000000267703387562542996_);}
	.st47{mask:url(#path-44-inside-21_112_2686_00000047040399244244903920000009053123242360941211_);fill:#0B5999;}
	
		.st48{fill-rule:evenodd;clip-rule:evenodd;fill:#FFFFFF;filter:url(#Adobe_OpacityMaskFilter_00000107570050936307576150000014349640777521079727_);}
	.st49{mask:url(#path-46-inside-22_112_2686_00000178204753724057706150000016881525650822383242_);fill:#0B5999;}
	
		.st50{fill-rule:evenodd;clip-rule:evenodd;fill:#FFFFFF;filter:url(#Adobe_OpacityMaskFilter_00000114034913080325257370000003413475367362586303_);}
	.st51{mask:url(#path-48-inside-23_112_2686_00000008128165220207944290000007011194120710949543_);fill:#0B5999;}
</style>
<g id="Layer_2">
</g>
<g id="Layer_1">
	<path class="st0" d="M1169.6,290.5c0,80.7,65.5,146.2,146.2,146.2V290.5H1169.6z"/>
	<g class="st1">
		<defs>
			<filter id="Adobe_OpacityMaskFilter" filterUnits="userSpaceOnUse" x="1020.5" y="436.1" width="294.4" height="148.3">
				<feColorMatrix  type="matrix" values="1 0 0 0 0  0 1 0 0 0  0 0 1 0 0  0 0 0 1 0"/>
			</filter>
		</defs>
		
			<mask maskUnits="userSpaceOnUse" x="1020.5" y="436.1" width="294.4" height="148.3" id="path-2-inside-1_112_2686_00000170998992003129872760000000386002881213072048_">
			<path class="st2" d="M1167.7,583.4c80.8,0,146.2-65.5,146.2-146.2h-146.2V583.4z M1024.5,466.7c-2-9.5-3-19.4-3-29.5l0,0
				C1021.5,447.3,1022.6,457.1,1024.5,466.7z"/>
		</mask>
		<path class="st3" d="M1313.9,437.2v-1h1v1H1313.9z M1167.7,583.4v1h-1v-1H1167.7z M1167.7,437.2h-1v-1h1V437.2z M1021.5,437.2h-1
			v-1.1l1.1,0.1L1021.5,437.2z M1021.5,437.2l0.1-1l0.9,0.1v0.9H1021.5z M1314.9,437.2c0,81.3-65.9,147.2-147.2,147.2v-2
			c80.2,0,145.2-65,145.2-145.2H1314.9z M1167.7,436.2h146.2v2h-146.2V436.2z M1168.7,437.2v146.2h-2V437.2H1168.7z M1023.5,466.9
			c-2-9.6-3-19.5-3-29.7h2c0,10,1,19.8,3,29.3L1023.5,466.9z M1021.6,436.2L1021.6,436.2l-0.1,2l0,0L1021.6,436.2z M1023.5,466.9
			c-2-9.6-3-19.5-3-29.7h2c0,10,1,19.8,3,29.3L1023.5,466.9z"/>
	</g>
	<g class="st1">
		<path class="st4" d="M874.4,584.3V438.1h146.2C1020.6,518.9,955.1,584.3,874.4,584.3z"/>
		<defs>
			
				<filter id="Adobe_OpacityMaskFilter_00000070813332590792812610000007437596739609578912_" filterUnits="userSpaceOnUse" x="873.4" y="437.1" width="148.2" height="148.2">
				<feColorMatrix  type="matrix" values="1 0 0 0 0  0 1 0 0 0  0 0 1 0 0  0 0 0 1 0"/>
			</filter>
		</defs>
		
			<mask maskUnits="userSpaceOnUse" x="873.4" y="437.1" width="148.2" height="148.2" id="path-4-inside-2_112_2686_00000015353815643936320960000000810083620661979023_">
			
				<path style="fill-rule:evenodd;clip-rule:evenodd;fill:#FFFFFF;filter:url(#Adobe_OpacityMaskFilter_00000070813332590792812610000007437596739609578912_);" d="
				M874.4,584.3V438.1h146.2C1020.6,518.9,955.1,584.3,874.4,584.3z"/>
		</mask>
		<path class="st6" d="M874.4,438.1h-1v-1h1V438.1z M874.4,584.3v1h-1v-1H874.4z M1020.6,438.1v-1h1v1H1020.6z M875.4,438.1v146.2
			h-2V438.1H875.4z M874.4,437.1h146.2v2H874.4V437.1z M1021.6,438.1c0,81.3-65.9,147.2-147.2,147.2v-2c80.2,0,145.2-65,145.2-145.2
			H1021.6z"/>
	</g>
	<path class="st0" d="M873.9,584.3c-80.7,0-146.2-65.5-146.2-146.2h146.2V584.3L873.9,584.3z"/>
	<path class="st0" d="M1020.6,291.5H874.4v146.2C955.1,437.7,1020.6,372.2,1020.6,291.5z"/>
	<g class="st1">
		<defs>
			
				<filter id="Adobe_OpacityMaskFilter_00000090294919339085619370000008592572501986724018_" filterUnits="userSpaceOnUse" x="581.9" y="291.4" width="148.2" height="148.2">
				<feColorMatrix  type="matrix" values="1 0 0 0 0  0 1 0 0 0  0 0 1 0 0  0 0 0 1 0"/>
			</filter>
		</defs>
		
			<mask maskUnits="userSpaceOnUse" x="581.9" y="291.4" width="148.2" height="148.2" id="path-8-inside-3_112_2686_00000034773118232078060320000011828257710369264800_">
			
				<path style="fill-rule:evenodd;clip-rule:evenodd;fill:#FFFFFF;filter:url(#Adobe_OpacityMaskFilter_00000090294919339085619370000008592572501986724018_);" d="
				M582.9,438.6c0-80.7,65.5-146.2,146.2-146.2v146.2H582.9z"/>
		</mask>
		<path class="st8" d="M729.1,292.4h1v-1h-1V292.4z M582.9,438.6h-1v1h1V438.6z M729.1,438.6v1h1v-1H729.1z M729.1,291.4
			c-81.3,0-147.2,65.9-147.2,147.2h2c0-80.2,65-145.2,145.2-145.2V291.4z M730.1,438.6V292.4h-2v146.2H730.1z M729.1,437.6H582.9v2
			h146.2V437.6z"/>
	</g>
	<g class="st1">
		<path class="st4" d="M437.2,583.4l146.2,0V437.2h0.2h-0.2C502.7,437.2,437.2,502.7,437.2,583.4z"/>
		<defs>
			
				<filter id="Adobe_OpacityMaskFilter_00000153703539441316178220000017615279318873104011_" filterUnits="userSpaceOnUse" x="436.2" y="436.2" width="148.2" height="148.2">
				<feColorMatrix  type="matrix" values="1 0 0 0 0  0 1 0 0 0  0 0 1 0 0  0 0 0 1 0"/>
			</filter>
		</defs>
		
			<mask maskUnits="userSpaceOnUse" x="436.2" y="436.2" width="148.2" height="148.2" id="path-10-inside-4_112_2686_00000070811384239324133580000002022856300558407353_">
			
				<path style="fill-rule:evenodd;clip-rule:evenodd;fill:#FFFFFF;filter:url(#Adobe_OpacityMaskFilter_00000153703539441316178220000017615279318873104011_);" d="
				M437.2,583.4l146.2,0V437.2h0.2h-0.2C502.7,437.2,437.2,502.7,437.2,583.4z"/>
		</mask>
		<path class="st10" d="M583.4,583.4v1h1v-1H583.4z M437.2,583.4h-1v1h1V583.4z M583.4,437.2v-1h-1v1H583.4z M583.6,437.2v1l0-2
			L583.6,437.2z M583.4,437.2l0-1h0V437.2z M583.4,582.4l-146.2,0v2l146.2,0V582.4z M584.4,583.4V437.2h-2v146.2H584.4z
			 M583.4,438.2h0.2v-2h-0.2V438.2z M583.6,436.2h-0.2l0,2h0.2L583.6,436.2z M583.4,436.2c-81.3,0-147.2,65.9-147.2,147.2h2
			c0-80.2,65-145.2,145.2-145.2V436.2z"/>
	</g>
	<g class="st1">
		<defs>
			
				<filter id="Adobe_OpacityMaskFilter_00000006685065327481934880000002008102159248872107_" filterUnits="userSpaceOnUse" x="436.2" y="290.5" width="148.2" height="148.2">
				<feColorMatrix  type="matrix" values="1 0 0 0 0  0 1 0 0 0  0 0 1 0 0  0 0 0 1 0"/>
			</filter>
		</defs>
		
			<mask maskUnits="userSpaceOnUse" x="436.2" y="290.5" width="148.2" height="148.2" id="path-12-inside-5_112_2686_00000155124110707900885990000014953654550016957589_">
			
				<path style="fill-rule:evenodd;clip-rule:evenodd;fill:#FFFFFF;filter:url(#Adobe_OpacityMaskFilter_00000006685065327481934880000002008102159248872107_);" d="
				M437.2,437.7c0-80.7,65.5-146.2,146.2-146.2v146.2H437.2L437.2,437.7z"/>
		</mask>
		<path class="st12" d="M583.4,291.5h1v-1h-1V291.5z M437.2,437.7h-1H437.2z M583.4,437.7v1h1v-1H583.4z M437.2,437.7h-1v1h1V437.7z
			 M583.4,290.5c-81.3,0-147.2,65.9-147.2,147.2h2c0-80.2,65-145.2,145.2-145.2V290.5z M584.4,437.7V291.5h-2v146.2H584.4z
			 M583.4,436.7H437.2v2h146.2V436.7z M436.2,437.7c0-0.1,0-0.1,0-0.2c0,0,0-0.1,0-0.1c0,0,0-0.1,0-0.1c0,0,0,0,0,0c0,0,0,0,0,0l0,0
			l0,0l0,0c0,0,0,0,0,0s0,0,0,0c0,0,0,0,0,0s0,0,0,0c0,0,0,0,0,0.1c0,0,0,0.1,0,0.1C436.2,437.6,436.2,437.6,436.2,437.7h2
			c0,0.1,0,0.1,0,0.2c0,0,0,0.1,0,0.1c0,0,0,0.1,0,0.1c0,0,0,0,0,0c0,0,0,0,0,0l0,0c0,0,0,0,0,0l0,0l0,0v0c0,0,0,0,0,0c0,0,0,0,0,0
			c0,0,0,0,0-0.1c0,0,0-0.1,0-0.1c0,0,0-0.1,0-0.2H436.2z"/>
	</g>
	<g class="st1">
		<path class="st13" d="M583.4,291.9c0-80.7-65.5-146.2-146.2-146.2v146.2H583.4z"/>
		<defs>
			
				<filter id="Adobe_OpacityMaskFilter_00000096022874838481707180000000659113787358312864_" filterUnits="userSpaceOnUse" x="436.2" y="144.7" width="148.2" height="148.2">
				<feColorMatrix  type="matrix" values="1 0 0 0 0  0 1 0 0 0  0 0 1 0 0  0 0 0 1 0"/>
			</filter>
		</defs>
		
			<mask maskUnits="userSpaceOnUse" x="436.2" y="144.7" width="148.2" height="148.2" id="path-14-inside-6_112_2686_00000107588806431840317730000003541176158939277996_">
			
				<path style="fill-rule:evenodd;clip-rule:evenodd;fill:#FFFFFF;filter:url(#Adobe_OpacityMaskFilter_00000096022874838481707180000000659113787358312864_);" d="
				M583.4,291.9c0-80.7-65.5-146.2-146.2-146.2v146.2H583.4z"/>
		</mask>
		<path class="st15" d="M437.2,145.7h-1v-1h1V145.7z M583.4,291.9h1v1h-1V291.9z M437.2,291.9v1h-1v-1H437.2z M437.2,144.7
			c81.3,0,147.2,65.9,147.2,147.2h-2c0-80.2-65-145.2-145.2-145.2V144.7z M436.2,291.9V145.7h2v146.2H436.2z M437.2,290.9h146.2v2
			H437.2V290.9z"/>
	</g>
	<g class="st1">
		<defs>
			
				<filter id="Adobe_OpacityMaskFilter_00000044178584243089436270000012224158073412255157_" filterUnits="userSpaceOnUse" x="290.5" y="290.5" width="148.2" height="148.2">
				<feColorMatrix  type="matrix" values="1 0 0 0 0  0 1 0 0 0  0 0 1 0 0  0 0 0 1 0"/>
			</filter>
		</defs>
		
			<mask maskUnits="userSpaceOnUse" x="290.5" y="290.5" width="148.2" height="148.2" id="path-16-inside-7_112_2686_00000137820102072886841120000004114059635161269165_">
			
				<path style="fill-rule:evenodd;clip-rule:evenodd;fill:#FFFFFF;filter:url(#Adobe_OpacityMaskFilter_00000044178584243089436270000012224158073412255157_);" d="
				M291.5,437.7c0-80.7,65.5-146.2,146.2-146.2v146.2H291.5z"/>
		</mask>
		<path class="st17" d="M437.7,291.5h1v-1h-1V291.5z M291.5,437.7h-1v1h1V437.7z M437.7,437.7v1h1v-1H437.7z M437.7,290.5
			c-81.3,0-147.2,65.9-147.2,147.2h2c0-80.2,65-145.2,145.2-145.2V290.5z M438.7,437.7V291.5h-2v146.2H438.7z M437.7,436.7H291.5v2
			h146.2V436.7z"/>
	</g>
	<g class="st1">
		<path class="st4" d="M437.7,437.2H291.5v146.2h-0.2h0.2C372.2,583.4,437.7,517.9,437.7,437.2z"/>
		<defs>
			
				<filter id="Adobe_OpacityMaskFilter_00000117641092140518224000000017158703071309587343_" filterUnits="userSpaceOnUse" x="290.5" y="436.2" width="148.2" height="148.2">
				<feColorMatrix  type="matrix" values="1 0 0 0 0  0 1 0 0 0  0 0 1 0 0  0 0 0 1 0"/>
			</filter>
		</defs>
		
			<mask maskUnits="userSpaceOnUse" x="290.5" y="436.2" width="148.2" height="148.2" id="path-18-inside-8_112_2686_00000015335817407405714940000016368067386124179607_">
			
				<path style="fill-rule:evenodd;clip-rule:evenodd;fill:#FFFFFF;filter:url(#Adobe_OpacityMaskFilter_00000117641092140518224000000017158703071309587343_);" d="
				M437.7,437.2H291.5v146.2h-0.2h0.2C372.2,583.4,437.7,517.9,437.7,437.2z"/>
		</mask>
		<path class="st19" d="M291.5,437.2v-1h-1v1H291.5z M437.7,437.2h1v-1h-1V437.2z M291.5,583.4v1h1v-1H291.5z M291.3,583.4v-1v2
			V583.4z M291.5,583.4v1l0,0V583.4z M291.5,438.2h146.2v-2H291.5V438.2z M290.5,437.2v146.2h2V437.2H290.5z M291.5,582.4h-0.2v2
			h0.2V582.4z M291.3,584.4h0.2l0-2h-0.2L291.3,584.4z M291.5,584.4c81.3,0,147.2-65.9,147.2-147.2h-2c0,80.2-65,145.2-145.2,145.2
			V584.4z"/>
	</g>
	<g class="st1">
		<path class="st4" d="M291.6,146.2C291.6,65.5,357,0,437.8,0v146.2H291.6z"/>
		<defs>
			
				<filter id="Adobe_OpacityMaskFilter_00000153676436524131229570000006908165107058840228_" filterUnits="userSpaceOnUse" x="290.6" y="-1" width="148.2" height="148.2">
				<feColorMatrix  type="matrix" values="1 0 0 0 0  0 1 0 0 0  0 0 1 0 0  0 0 0 1 0"/>
			</filter>
		</defs>
		
			<mask maskUnits="userSpaceOnUse" x="290.6" y="-1" width="148.2" height="148.2" id="path-20-inside-9_112_2686_00000181063719478785385680000006218408687963193767_">
			
				<path style="fill-rule:evenodd;clip-rule:evenodd;fill:#FFFFFF;filter:url(#Adobe_OpacityMaskFilter_00000153676436524131229570000006908165107058840228_);" d="
				M291.6,146.2C291.6,65.5,357,0,437.8,0v146.2H291.6z"/>
		</mask>
		<path class="st21" d="M437.8,0l1,0v-1h-1V0z M291.6,146.2h-1v1h1V146.2z M437.8,146.2v1h1v-1H437.8z M437.8-1
			c-81.3,0-147.2,65.9-147.2,147.2h2C292.6,66,357.6,1,437.8,1V-1z M438.8,146.2V0l-2,0v146.2H438.8z M437.8,145.2H291.6v2h146.2
			V145.2z"/>
	</g>
	<g class="st1">
		<defs>
			
				<filter id="Adobe_OpacityMaskFilter_00000035511003785845475840000013367901426564077190_" filterUnits="userSpaceOnUse" x="144.7" y="290.5" width="148.2" height="148.2">
				<feColorMatrix  type="matrix" values="1 0 0 0 0  0 1 0 0 0  0 0 1 0 0  0 0 0 1 0"/>
			</filter>
		</defs>
		
			<mask maskUnits="userSpaceOnUse" x="144.7" y="290.5" width="148.2" height="148.2" id="path-22-inside-10_112_2686_00000031927920194280230000000014626210135593307803_">
			
				<path style="fill-rule:evenodd;clip-rule:evenodd;fill:#FFFFFF;filter:url(#Adobe_OpacityMaskFilter_00000035511003785845475840000013367901426564077190_);" d="
				M291.9,437.7c0-80.7-65.5-146.2-146.2-146.2v146.2H291.9z"/>
		</mask>
		<path class="st23" d="M145.7,291.5h-1v-1h1V291.5z M291.9,437.7h1v1h-1V437.7z M145.7,437.7v1h-1v-1H145.7z M145.7,290.5
			c81.3,0,147.2,65.9,147.2,147.2h-2c0-80.2-65-145.2-145.2-145.2V290.5z M144.7,437.7V291.5h2v146.2H144.7z M145.7,436.7h146.2v2
			H145.7V436.7z"/>
	</g>
	<g class="st1">
		<defs>
			
				<filter id="Adobe_OpacityMaskFilter_00000009554685724997447340000011049766948577838510_" filterUnits="userSpaceOnUse" x="144.7" y="436.2" width="148.2" height="148.2">
				<feColorMatrix  type="matrix" values="1 0 0 0 0  0 1 0 0 0  0 0 1 0 0  0 0 0 1 0"/>
			</filter>
		</defs>
		
			<mask maskUnits="userSpaceOnUse" x="144.7" y="436.2" width="148.2" height="148.2" id="path-24-inside-11_112_2686_00000124155562689548291310000017172756497850855355_">
			
				<path style="fill-rule:evenodd;clip-rule:evenodd;fill:#FFFFFF;filter:url(#Adobe_OpacityMaskFilter_00000009554685724997447340000011049766948577838510_);" d="
				M291.9,437.2v146.2c-80.7,0-146.2-65.5-146.2-146.2H291.9z"/>
		</mask>
		<path class="st25" d="M291.9,583.4h1v1h-1V583.4z M291.9,437.2v-1h1v1H291.9z M145.7,437.2h-1v-1h1V437.2z M290.9,583.4V437.2h2
			v146.2H290.9z M146.7,437.2c0,80.2,65,145.2,145.2,145.2v2c-81.3,0-147.2-65.9-147.2-147.2H146.7z M291.9,438.2H145.7v-2h146.2
			V438.2z"/>
	</g>
	<g class="st1">
		<path class="st4" d="M145.7,291.9c0-80.7,65.5-146.2,146.2-146.2v146.2H145.7z"/>
		<defs>
			
				<filter id="Adobe_OpacityMaskFilter_00000008857372102599960670000004485203386446818236_" filterUnits="userSpaceOnUse" x="144.7" y="144.7" width="148.2" height="148.2">
				<feColorMatrix  type="matrix" values="1 0 0 0 0  0 1 0 0 0  0 0 1 0 0  0 0 0 1 0"/>
			</filter>
		</defs>
		
			<mask maskUnits="userSpaceOnUse" x="144.7" y="144.7" width="148.2" height="148.2" id="path-26-inside-12_112_2686_00000097468174495750457240000015824102219146962566_">
			
				<path style="fill-rule:evenodd;clip-rule:evenodd;fill:#FFFFFF;filter:url(#Adobe_OpacityMaskFilter_00000008857372102599960670000004485203386446818236_);" d="
				M145.7,291.9c0-80.7,65.5-146.2,146.2-146.2v146.2H145.7z"/>
		</mask>
		<path class="st27" d="M291.9,145.7h1v-1h-1V145.7z M145.7,291.9h-1v1h1V291.9z M291.9,291.9v1h1v-1H291.9z M291.9,144.7
			c-81.3,0-147.2,65.9-147.2,147.2h2c0-80.2,65-145.2,145.2-145.2V144.7z M292.9,291.9V145.7h-2v146.2H292.9z M291.9,290.9H145.7v2
			h146.2V290.9z"/>
	</g>
	<g class="st28">
		<defs>
			
				<filter id="Adobe_OpacityMaskFilter_00000049213969580486919160000010361229609944904358_" filterUnits="userSpaceOnUse" x="290.6" y="-1.5" width="148.2" height="294.4">
				<feColorMatrix  type="matrix" values="1 0 0 0 0  0 1 0 0 0  0 0 1 0 0  0 0 0 1 0"/>
			</filter>
		</defs>
		
			<mask maskUnits="userSpaceOnUse" x="290.6" y="-1.5" width="148.2" height="294.4" id="path-28-inside-13_112_2686_00000075849066416463525590000002164188721387272885_">
			
				<path style="fill-rule:evenodd;clip-rule:evenodd;fill:#FFFFFF;filter:url(#Adobe_OpacityMaskFilter_00000049213969580486919160000010361229609944904358_);" d="
				M291.6,145.7c0,80.7,65.5,146.2,146.2,146.2V145.7H291.6z M437.8-0.5C357-0.5,291.6,65,291.6,145.7l0,0"/>
		</mask>
		<path class="st30" d="M291.2,145.4L437.4-0.8l0.7,0.7L291.9,146.1L291.2,145.4z M437.8,291.9h1v1h-1V291.9z M291.6,145.7h-1H291.6
			z M437.8,145.7v-1h1v1H437.8z M437.8,292.9c-81.3,0-147.2-65.9-147.2-147.2h2c0,80.2,65,145.2,145.2,145.2V292.9z M438.8,145.7
			v146.2h-2V145.7H438.8z M437.8,146.7H291.6v-2h146.2V146.7z M290.6,145.7c0-81.3,65.9-147.2,147.2-147.2v2
			c-80.2,0-145.2,65-145.2,145.2H290.6z M290.6,145.7C290.6,145.8,290.6,145.8,290.6,145.7c0,0.1,0,0.1,0,0.2c0,0,0,0,0,0
			c0,0,0,0,0,0c0,0,0,0,0,0l0,0l0,0l0,0l0,0c0,0,0,0,0,0c0,0,0,0,0,0c0,0,0,0,0,0c0,0,0,0,0,0C290.6,145.9,290.6,145.9,290.6,145.7
			C290.6,145.8,290.6,145.8,290.6,145.7h2c0,0,0-0.1,0-0.1c0,0,0-0.1,0-0.1c0,0,0,0,0,0c0,0,0,0,0,0c0,0,0,0,0,0l0,0l0,0
			c0,0,0,0,0,0l0,0l0,0c0,0,0,0,0,0c0,0,0,0,0,0c0,0,0,0,0,0c0,0,0,0,0,0.1c0,0,0,0.1,0,0.1H290.6z"/>
	</g>
	<g class="st1">
		<defs>
			
				<filter id="Adobe_OpacityMaskFilter_00000110463059481087799270000006890387613944134825_" filterUnits="userSpaceOnUse" x="144.7" y="-1" width="148.2" height="148.2">
				<feColorMatrix  type="matrix" values="1 0 0 0 0  0 1 0 0 0  0 0 1 0 0  0 0 0 1 0"/>
			</filter>
		</defs>
		
			<mask maskUnits="userSpaceOnUse" x="144.7" y="-1" width="148.2" height="148.2" id="path-30-inside-14_112_2686_00000157302539570105282180000008668727129243085203_">
			
				<path style="fill-rule:evenodd;clip-rule:evenodd;fill:#FFFFFF;filter:url(#Adobe_OpacityMaskFilter_00000110463059481087799270000006890387613944134825_);" d="
				M291.9,146.2C291.9,65.5,226.5,0,145.7,0v146.2H291.9z"/>
		</mask>
		<path class="st32" d="M145.7,0l-1,0v-1l1,0V0z M291.9,146.2h1v1h-1V146.2z M145.7,146.2v1h-1v-1H145.7z M145.7-1
			C227-1,292.9,64.9,292.9,146.2h-2C290.9,66,225.9,1,145.7,1V-1z M144.7,146.2V0l2,0v146.2H144.7z M145.7,145.2h146.2v2H145.7
			V145.2z"/>
	</g>
	<path class="st0" d="M728.5,436.7c0,80.7-65.5,146.2-146.2,146.2V436.7H728.5z"/>
	<defs>
		
			<filter id="Adobe_OpacityMaskFilter_00000075130187397468577120000017981549973805095348_" filterUnits="userSpaceOnUse" x="581.3" y="435.7" width="148.2" height="148.2">
			<feColorMatrix  type="matrix" values="1 0 0 0 0  0 1 0 0 0  0 0 1 0 0  0 0 0 1 0"/>
		</filter>
	</defs>
	
		<mask maskUnits="userSpaceOnUse" x="581.3" y="435.7" width="148.2" height="148.2" id="path-32-inside-15_112_2686_00000011738903072509865340000012636748796675662238_">
		
			<path style="fill-rule:evenodd;clip-rule:evenodd;fill:#FFFFFF;filter:url(#Adobe_OpacityMaskFilter_00000075130187397468577120000017981549973805095348_);" d="
			M728.5,436.7c0,80.7-65.5,146.2-146.2,146.2V436.7H728.5z"/>
	</mask>
	<path class="st34" d="M582.3,582.9h-1v1h1V582.9z M728.5,436.7h1v-1h-1V436.7z M582.3,436.7v-1h-1v1H582.3z M582.3,583.9
		c81.3,0,147.2-65.9,147.2-147.2h-2c0,80.2-65,145.2-145.2,145.2V583.9z M581.3,436.7v146.2h2V436.7H581.3z M582.3,437.7h146.2v-2
		H582.3V437.7z"/>
	<g class="st35">
		<path class="st4" d="M0,437.7c0-80.7,65.5-146.2,146.2-146.2v146.2H0z"/>
		<defs>
			
				<filter id="Adobe_OpacityMaskFilter_00000139252721820284739050000005802377843292010408_" filterUnits="userSpaceOnUse" x="-1" y="290.5" width="148.2" height="148.2">
				<feColorMatrix  type="matrix" values="1 0 0 0 0  0 1 0 0 0  0 0 1 0 0  0 0 0 1 0"/>
			</filter>
		</defs>
		
			<mask maskUnits="userSpaceOnUse" x="-1" y="290.5" width="148.2" height="148.2" id="path-34-inside-16_112_2686_00000096776237765595119230000015274523548774851496_">
			
				<path style="fill-rule:evenodd;clip-rule:evenodd;fill:#FFFFFF;filter:url(#Adobe_OpacityMaskFilter_00000139252721820284739050000005802377843292010408_);" d="
				M0,437.7c0-80.7,65.5-146.2,146.2-146.2v146.2H0z"/>
		</mask>
		<path class="st37" d="M146.2,291.5h1v-1h-1V291.5z M0,437.7h-1l0,1h1L0,437.7z M146.2,437.7v1h1v-1H146.2z M146.2,290.5
			C64.9,290.5-1,356.4-1,437.7h2c0-80.2,65-145.2,145.2-145.2V290.5z M147.2,437.7V291.5h-2v146.2H147.2z M146.2,436.7H0l0,2h146.2
			V436.7z"/>
	</g>
	<g class="st1">
		<path class="st4" d="M0,583.4l-0.2,0L0,583.4l0-146.2h146.2C146.2,517.9,80.7,583.4,0,583.4z"/>
		<defs>
			
				<filter id="Adobe_OpacityMaskFilter_00000114776419769195725330000011409953539154746014_" filterUnits="userSpaceOnUse" x="-1" y="436.2" width="148.2" height="148.2">
				<feColorMatrix  type="matrix" values="1 0 0 0 0  0 1 0 0 0  0 0 1 0 0  0 0 0 1 0"/>
			</filter>
		</defs>
		
			<mask maskUnits="userSpaceOnUse" x="-1" y="436.2" width="148.2" height="148.2" id="path-36-inside-17_112_2686_00000084492146350470130850000008976584162825675198_">
			
				<path style="fill-rule:evenodd;clip-rule:evenodd;fill:#FFFFFF;filter:url(#Adobe_OpacityMaskFilter_00000114776419769195725330000011409953539154746014_);" d="
				M0,583.4l-0.2,0L0,583.4l0-146.2h146.2C146.2,517.9,80.7,583.4,0,583.4z"/>
		</mask>
		<path class="st39" d="M-0.2,583.4v-1l0,2L-0.2,583.4z M0,583.4l0,1h0L0,583.4z M0,583.4l0,1h1v-1H0z M0,437.2l0-1h-1v1H0z
			 M146.2,437.2h1v-1h-1V437.2z M-0.2,584.4l0.2,0l0-2l-0.2,0L-0.2,584.4z M0,582.4h-0.2v2H0L0,582.4z M-1,437.2l0,146.2h2l0-146.2
			H-1z M0,438.2h146.2v-2H0L0,438.2z M0,584.4c81.3,0,147.2-65.9,147.2-147.2h-2c0,80.2-65,145.2-145.2,145.2L0,584.4z"/>
	</g>
	<g class="st1">
		<defs>
			
				<filter id="Adobe_OpacityMaskFilter_00000049193714276480261330000007065169161739651231_" filterUnits="userSpaceOnUse" x="-1" y="144.7" width="148.2" height="148.2">
				<feColorMatrix  type="matrix" values="1 0 0 0 0  0 1 0 0 0  0 0 1 0 0  0 0 0 1 0"/>
			</filter>
		</defs>
		
			<mask maskUnits="userSpaceOnUse" x="-1" y="144.7" width="148.2" height="148.2" id="path-38-inside-18_112_2686_00000024688996821191002830000009005578197015028897_">
			
				<path style="fill-rule:evenodd;clip-rule:evenodd;fill:#FFFFFF;filter:url(#Adobe_OpacityMaskFilter_00000049193714276480261330000007065169161739651231_);" d="
				M0,291.9c0-80.7,65.5-146.2,146.2-146.2v146.2H0z"/>
		</mask>
		<path class="st41" d="M146.2,145.7h1v-1h-1V145.7z M0,291.9h-1v1h1L0,291.9z M146.2,291.9v1h1v-1H146.2z M146.2,144.7
			C64.9,144.7-1,210.6-1,291.9h2c0-80.2,65-145.2,145.2-145.2V144.7z M147.2,291.9V145.7h-2v146.2H147.2z M146.2,290.9H0l0,2h146.2
			V290.9z"/>
	</g>
	<g class="st1">
		<path class="st4" d="M0,0c0,80.7,65.5,146.2,146.2,146.2V0L0,0z"/>
		<defs>
			
				<filter id="Adobe_OpacityMaskFilter_00000145020611220469696360000014607457008936156845_" filterUnits="userSpaceOnUse" x="-1" y="-1" width="148.2" height="148.2">
				<feColorMatrix  type="matrix" values="1 0 0 0 0  0 1 0 0 0  0 0 1 0 0  0 0 0 1 0"/>
			</filter>
		</defs>
		
			<mask maskUnits="userSpaceOnUse" x="-1" y="-1" width="148.2" height="148.2" id="path-40-inside-19_112_2686_00000110463485424236014720000010124336267498173373_">
			
				<path style="fill-rule:evenodd;clip-rule:evenodd;fill:#FFFFFF;filter:url(#Adobe_OpacityMaskFilter_00000145020611220469696360000014607457008936156845_);" d="
				M0,0c0,80.7,65.5,146.2,146.2,146.2V0L0,0z"/>
		</mask>
		<path class="st43" d="M146.2,146.2h1v1h-1V146.2z M0,0l-1,0v-1h1L0,0z M146.2,0v-1h1v1L146.2,0z M146.2,147.2
			C64.9,147.2-1,81.3-1,0l2,0c0,80.2,65,145.2,145.2,145.2V147.2z M147.2,0v146.2h-2V0L147.2,0z M146.2,1L0,1l0-2l146.2,0V1z"/>
	</g>
	<g class="st1">
		<defs>
			
				<filter id="Adobe_OpacityMaskFilter_00000142860759295130234090000016384347768535434894_" filterUnits="userSpaceOnUse" x="-1" y="-1" width="148.2" height="148.2">
				<feColorMatrix  type="matrix" values="1 0 0 0 0  0 1 0 0 0  0 0 1 0 0  0 0 0 1 0"/>
			</filter>
		</defs>
		
			<mask maskUnits="userSpaceOnUse" x="-1" y="-1" width="148.2" height="148.2" id="path-42-inside-20_112_2686_00000048468996277676531020000002235040615021135001_">
			
				<path style="fill-rule:evenodd;clip-rule:evenodd;fill:#FFFFFF;filter:url(#Adobe_OpacityMaskFilter_00000142860759295130234090000016384347768535434894_);" d="
				M0,0c0,80.7,65.5,146.2,146.2,146.2V0L0,0z"/>
		</mask>
		<path class="st45" d="M146.2,146.2h1v1h-1V146.2z M0,0l-1,0v-1h1L0,0z M146.2,0v-1l1,0v1L146.2,0z M146.2,147.2
			C64.9,147.2-1,81.3-1,0l2,0c0,80.2,65,145.2,145.2,145.2V147.2z M147.2,0v146.2h-2V0L147.2,0z M146.2,1L0,1l0-2l146.2,0V1z"/>
	</g>
	<g class="st1">
		<defs>
			
				<filter id="Adobe_OpacityMaskFilter_00000069380940219310659340000001790822151427829147_" filterUnits="userSpaceOnUse" x="1020.1" y="290.5" width="148.2" height="148.2">
				<feColorMatrix  type="matrix" values="1 0 0 0 0  0 1 0 0 0  0 0 1 0 0  0 0 0 1 0"/>
			</filter>
		</defs>
		
			<mask maskUnits="userSpaceOnUse" x="1020.1" y="290.5" width="148.2" height="148.2" id="path-44-inside-21_112_2686_00000047040399244244903920000009053123242360941211_">
			
				<path style="fill-rule:evenodd;clip-rule:evenodd;fill:#FFFFFF;filter:url(#Adobe_OpacityMaskFilter_00000069380940219310659340000001790822151427829147_);" d="
				M1167.3,437.7c0-80.7-65.5-146.2-146.2-146.2v146.2H1167.3z"/>
		</mask>
		<path class="st47" d="M1021.1,291.5h-1v-1h1V291.5z M1167.3,437.7h1v1h-1V437.7z M1021.1,437.7v1h-1v-1H1021.1z M1021.1,290.5
			c81.3,0,147.2,65.9,147.2,147.2h-2c0-80.2-65-145.2-145.2-145.2V290.5z M1020.1,437.7V291.5h2v146.2H1020.1z M1021.1,436.7h146.2
			v2h-146.2V436.7z"/>
	</g>
	<g class="st1">
		<defs>
			
				<filter id="Adobe_OpacityMaskFilter_00000078759034405674829000000018057562242409054131_" filterUnits="userSpaceOnUse" x="726.7" y="291.4" width="148.2" height="148.2">
				<feColorMatrix  type="matrix" values="1 0 0 0 0  0 1 0 0 0  0 0 1 0 0  0 0 0 1 0"/>
			</filter>
		</defs>
		
			<mask maskUnits="userSpaceOnUse" x="726.7" y="291.4" width="148.2" height="148.2" id="path-46-inside-22_112_2686_00000178204753724057706150000016881525650822383242_">
			
				<path style="fill-rule:evenodd;clip-rule:evenodd;fill:#FFFFFF;filter:url(#Adobe_OpacityMaskFilter_00000078759034405674829000000018057562242409054131_);" d="
				M873.9,438.6c0-80.7-65.5-146.2-146.2-146.2v146.2H873.9z"/>
		</mask>
		<path class="st49" d="M727.7,292.4h-1v-1h1V292.4z M873.9,438.6h1v1h-1V438.6z M727.7,438.6v1h-1v-1H727.7z M727.7,291.4
			c81.3,0,147.2,65.9,147.2,147.2h-2c0-80.2-65-145.2-145.2-145.2V291.4z M726.7,438.6V292.4h2v146.2H726.7z M727.7,437.6h146.2v2
			H727.7V437.6z"/>
	</g>
	<g class="st1">
		<defs>
			
				<filter id="Adobe_OpacityMaskFilter_00000007429287188841094660000011580854794053118084_" filterUnits="userSpaceOnUse" x="1168.6" y="142.9" width="148.2" height="181.5">
				<feColorMatrix  type="matrix" values="1 0 0 0 0  0 1 0 0 0  0 0 1 0 0  0 0 0 1 0"/>
			</filter>
		</defs>
		
			<mask maskUnits="userSpaceOnUse" x="1168.6" y="142.9" width="148.2" height="181.5" id="path-48-inside-23_112_2686_00000008128165220207944290000007011194120710949543_">
			
				<path style="fill-rule:evenodd;clip-rule:evenodd;fill:#FFFFFF;filter:url(#Adobe_OpacityMaskFilter_00000007429287188841094660000011580854794053118084_);" d="
				M1315.8,290.1c0-80.7-65.4-146.2-146.2-146.2v146.2H1315.8c0,11.7-1.4,23.2-4,34.1C1314.4,313.2,1315.8,301.8,1315.8,290.1z"/>
		</mask>
		<path class="st51" d="M1169.6,143.9h-1v-1h1V143.9z M1169.6,290.1v1h-1v-1H1169.6z M1315.8,290.1v-1h1v1H1315.8z M1169.6,142.9
			c81.3,0,147.2,65.9,147.2,147.2h-2c0-80.2-65-145.2-145.2-145.2V142.9z M1168.6,290.1V143.9h2v146.2H1168.6z M1315.8,291.1h-146.2
			v-2h146.2V291.1z M1310.8,323.9c2.6-10.9,4-22.2,4-33.9h2c0,11.8-1.4,23.3-4,34.3L1310.8,323.9z M1316.8,290.1
			c0,11.8-1.4,23.3-4,34.3l-2-0.5c2.6-10.9,4-22.2,4-33.9H1316.8z"/>
	</g>
</g>
</svg>
