<svg width="1316" height="583" viewBox="0 0 1316 583" fill="none" xmlns="http://www.w3.org/2000/svg">
<path fill-rule="evenodd" clip-rule="evenodd" d="M1169.62 290.525C1169.62 371.271 1235.08 436.728 1315.82 436.728L1315.82 290.525L1169.62 290.525Z" fill="white"/>
<g opacity="0.2">
<mask id="path-2-inside-1_112_2686" fill="white">
<path fill-rule="evenodd" clip-rule="evenodd" d="M1167.74 583.4C1248.49 583.4 1313.94 517.943 1313.94 437.198L1167.74 437.198L1167.74 583.4ZM1024.51 466.663C1022.56 457.145 1021.54 447.291 1021.54 437.198L1021.54 437.198C1021.54 447.291 1022.56 457.145 1024.51 466.663Z"/>
</mask>
<path d="M1313.94 437.198L1313.94 436.198L1314.94 436.198L1314.94 437.198L1313.94 437.198ZM1167.74 583.4L1167.74 584.4L1166.74 584.4L1166.74 583.4L1167.74 583.4ZM1167.74 437.198L1166.74 437.198L1166.74 436.198L1167.74 436.198L1167.74 437.198ZM1021.54 437.198L1020.54 437.198L1020.54 436.133L1021.6 436.2L1021.54 437.198ZM1021.54 437.198L1021.6 436.2L1022.54 436.258L1022.54 437.198L1021.54 437.198ZM1314.94 437.198C1314.94 518.495 1249.04 584.4 1167.74 584.4L1167.74 582.4C1247.93 582.4 1312.94 517.391 1312.94 437.198L1314.94 437.198ZM1167.74 436.198L1313.94 436.198L1313.94 438.198L1167.74 438.198L1167.74 436.198ZM1168.74 437.198L1168.74 583.4L1166.74 583.4L1166.74 437.198L1168.74 437.198ZM1023.53 466.863C1021.57 457.28 1020.54 447.359 1020.54 437.198L1022.54 437.198C1022.54 447.223 1023.55 457.01 1025.49 466.462L1023.53 466.863ZM1021.6 436.2L1021.6 436.2L1021.48 438.196L1021.48 438.196L1021.6 436.2ZM1023.53 466.863C1021.57 457.28 1020.54 447.359 1020.54 437.198L1022.54 437.198C1022.54 447.223 1023.55 457.01 1025.49 466.462L1023.53 466.863Z" fill="#00B1B0" mask="url(#path-2-inside-1_112_2686)"/>
</g>
<g opacity="0.2">
<mask id="path-4-inside-2_112_2686" fill="white">
<path fill-rule="evenodd" clip-rule="evenodd" d="M874.395 584.341L874.395 438.138L1020.6 438.138C1020.6 518.884 955.141 584.341 874.395 584.341Z"/>
</mask>
<path fill-rule="evenodd" clip-rule="evenodd" d="M874.395 584.341L874.395 438.138L1020.6 438.138C1020.6 518.884 955.141 584.341 874.395 584.341Z" fill="#00B1B0" fill-opacity="0.2"/>
<path d="M874.395 438.138L873.395 438.138L873.395 437.138L874.395 437.138L874.395 438.138ZM874.395 584.341L874.395 585.341L873.395 585.341L873.395 584.341L874.395 584.341ZM1020.6 438.138L1020.6 437.138L1021.6 437.138L1021.6 438.138L1020.6 438.138ZM875.395 438.138L875.395 584.341L873.395 584.341L873.395 438.138L875.395 438.138ZM874.395 437.138L1020.6 437.138L1020.6 439.138L874.395 439.138L874.395 437.138ZM1021.6 438.138C1021.6 519.436 955.693 585.341 874.395 585.341L874.395 583.341C954.589 583.341 1019.6 518.331 1019.6 438.138L1021.6 438.138Z" fill="#00B1B0" mask="url(#path-4-inside-2_112_2686)"/>
</g>
<path fill-rule="evenodd" clip-rule="evenodd" d="M873.925 584.341C793.18 584.341 727.722 518.884 727.722 438.138L873.925 438.138L873.925 584.341C873.925 584.341 873.925 584.341 873.925 584.341Z" fill="white"/>
<path fill-rule="evenodd" clip-rule="evenodd" d="M1020.6 291.466L874.395 291.466L874.395 437.668C955.141 437.668 1020.6 372.211 1020.6 291.466Z" fill="white"/>
<g opacity="0.2">
<mask id="path-8-inside-3_112_2686" fill="white">
<path fill-rule="evenodd" clip-rule="evenodd" d="M582.93 438.608C582.93 357.863 648.387 292.406 729.133 292.406L729.133 438.608L582.93 438.608Z"/>
</mask>
<path d="M729.133 292.406L730.133 292.406L730.133 291.406L729.133 291.406L729.133 292.406ZM582.93 438.608L581.93 438.608L581.93 439.608L582.93 439.608L582.93 438.608ZM729.133 438.608L729.133 439.608L730.133 439.608L730.133 438.608L729.133 438.608ZM729.133 291.406C647.835 291.406 581.93 357.31 581.93 438.608L583.93 438.608C583.93 358.415 648.94 293.406 729.133 293.406L729.133 291.406ZM730.133 438.608L730.133 292.406L728.133 292.406L728.133 438.608L730.133 438.608ZM729.133 437.608L582.93 437.608L582.93 439.608L729.133 439.608L729.133 437.608Z" fill="#00B1B0" mask="url(#path-8-inside-3_112_2686)"/>
</g>
<g opacity="0.2">
<mask id="path-10-inside-4_112_2686" fill="white">
<path fill-rule="evenodd" clip-rule="evenodd" d="M437.198 583.4L583.4 583.401L583.4 437.198L583.58 437.198L583.4 437.198C502.655 437.198 437.198 502.655 437.198 583.4Z"/>
</mask>
<path fill-rule="evenodd" clip-rule="evenodd" d="M437.198 583.4L583.4 583.401L583.4 437.198L583.58 437.198L583.4 437.198C502.655 437.198 437.198 502.655 437.198 583.4Z" fill="#00B1B0" fill-opacity="0.2"/>
<path d="M583.4 583.401L583.4 584.401L584.4 584.401L584.4 583.401L583.4 583.401ZM437.198 583.4L436.198 583.4L436.198 584.4L437.198 584.4L437.198 583.4ZM583.4 437.198L583.4 436.198L582.4 436.198L582.4 437.198L583.4 437.198ZM583.58 437.198L583.58 438.198L583.581 436.198L583.58 437.198ZM583.4 437.198L583.401 436.198L583.4 436.198L583.4 437.198ZM583.4 582.401L437.198 582.4L437.198 584.4L583.4 584.401L583.4 582.401ZM584.4 583.401L584.4 437.198L582.4 437.198L582.4 583.401L584.4 583.401ZM583.4 438.198L583.58 438.198L583.58 436.198L583.4 436.198L583.4 438.198ZM583.581 436.198L583.401 436.198L583.4 438.198L583.579 438.198L583.581 436.198ZM583.4 436.198C502.103 436.198 436.198 502.103 436.198 583.4L438.198 583.4C438.198 503.207 503.207 438.198 583.4 438.198L583.4 436.198Z" fill="#00B1B0" mask="url(#path-10-inside-4_112_2686)"/>
</g>
<g opacity="0.2">
<mask id="path-12-inside-5_112_2686" fill="white">
<path fill-rule="evenodd" clip-rule="evenodd" d="M437.198 437.668C437.198 356.922 502.655 291.465 583.4 291.465L583.4 437.668L437.198 437.668C437.198 437.668 437.198 437.668 437.198 437.668Z"/>
</mask>
<path d="M583.4 291.465L584.4 291.465L584.4 290.465L583.4 290.465L583.4 291.465ZM437.198 437.668L436.198 437.668L437.198 437.668ZM583.4 437.668L583.4 438.668L584.4 438.668L584.4 437.668L583.4 437.668ZM437.198 437.668L436.198 437.668L436.198 438.668L437.198 438.668L437.198 437.668ZM583.4 290.465C502.103 290.465 436.198 356.37 436.198 437.668L438.198 437.668C438.198 357.475 503.207 292.465 583.4 292.465L583.4 290.465ZM584.4 437.668L584.4 291.465L582.4 291.465L582.4 437.668L584.4 437.668ZM583.4 436.668L437.198 436.668L437.198 438.668L583.4 438.668L583.4 436.668ZM436.198 437.668C436.198 437.609 436.203 437.555 436.211 437.506C436.219 437.457 436.23 437.415 436.24 437.382C436.249 437.349 436.259 437.323 436.265 437.307C436.268 437.299 436.271 437.292 436.272 437.288C436.274 437.285 436.275 437.282 436.275 437.282C436.275 437.282 436.275 437.282 436.275 437.282C436.275 437.282 436.275 437.282 436.275 437.282C436.275 437.282 436.275 437.282 436.275 437.282C436.275 437.283 436.275 437.283 436.275 437.283C436.275 437.283 436.275 437.283 436.274 437.284C436.274 437.285 436.273 437.286 436.272 437.289C436.271 437.292 436.268 437.299 436.265 437.307C436.259 437.323 436.249 437.349 436.239 437.382C436.23 437.415 436.219 437.457 436.211 437.506C436.203 437.555 436.198 437.609 436.198 437.668L438.198 437.668C438.198 437.726 438.193 437.781 438.185 437.83C438.177 437.879 438.166 437.92 438.156 437.954C438.146 437.987 438.137 438.013 438.13 438.029C438.127 438.037 438.125 438.043 438.123 438.047C438.122 438.051 438.12 438.054 438.12 438.053C438.12 438.053 438.12 438.053 438.12 438.053C438.12 438.053 438.12 438.053 438.121 438.053C438.121 438.053 438.121 438.053 438.121 438.053C438.121 438.053 438.121 438.053 438.121 438.053C438.121 438.053 438.121 438.052 438.121 438.052C438.122 438.051 438.122 438.049 438.123 438.047C438.125 438.043 438.127 438.037 438.13 438.029C438.137 438.013 438.146 437.986 438.156 437.954C438.166 437.92 438.177 437.879 438.185 437.83C438.193 437.781 438.198 437.726 438.198 437.668L436.198 437.668Z" fill="#00B1B0" mask="url(#path-12-inside-5_112_2686)"/>
</g>
<g opacity="0.2">
<mask id="path-14-inside-6_112_2686" fill="white">
<path fill-rule="evenodd" clip-rule="evenodd" d="M583.4 291.935C583.4 211.19 517.943 145.733 437.198 145.733L437.198 291.935L583.4 291.935Z"/>
</mask>
<path fill-rule="evenodd" clip-rule="evenodd" d="M583.4 291.935C583.4 211.19 517.943 145.733 437.198 145.733L437.198 291.935L583.4 291.935Z" fill="#00B1B0" fill-opacity="0.1"/>
<path d="M437.198 145.733L436.198 145.733L436.198 144.733L437.198 144.733L437.198 145.733ZM583.4 291.935L584.4 291.935L584.4 292.935L583.4 292.935L583.4 291.935ZM437.198 291.935L437.198 292.935L436.198 292.935L436.198 291.935L437.198 291.935ZM437.198 144.733C518.495 144.733 584.4 210.637 584.4 291.935L582.4 291.935C582.4 211.742 517.391 146.733 437.198 146.733L437.198 144.733ZM436.198 291.935L436.198 145.733L438.198 145.733L438.198 291.935L436.198 291.935ZM437.198 290.935L583.4 290.935L583.4 292.935L437.198 292.935L437.198 290.935Z" fill="#00B1B0" mask="url(#path-14-inside-6_112_2686)"/>
</g>
<g opacity="0.2">
<mask id="path-16-inside-7_112_2686" fill="white">
<path fill-rule="evenodd" clip-rule="evenodd" d="M291.465 437.668C291.465 356.922 356.922 291.465 437.668 291.465L437.668 437.668L291.465 437.668Z"/>
</mask>
<path d="M437.668 291.465L438.668 291.465L438.668 290.465L437.668 290.465L437.668 291.465ZM291.465 437.668L290.465 437.668L290.465 438.668L291.465 438.668L291.465 437.668ZM437.668 437.668L437.668 438.668L438.668 438.668L438.668 437.668L437.668 437.668ZM437.668 290.465C356.37 290.465 290.465 356.37 290.465 437.668L292.465 437.668C292.465 357.475 357.475 292.465 437.668 292.465L437.668 290.465ZM438.668 437.668L438.668 291.465L436.668 291.465L436.668 437.668L438.668 437.668ZM437.668 436.668L291.465 436.668L291.465 438.668L437.668 438.668L437.668 436.668Z" fill="#00B1B0" mask="url(#path-16-inside-7_112_2686)"/>
</g>
<g opacity="0.2">
<mask id="path-18-inside-8_112_2686" fill="white">
<path fill-rule="evenodd" clip-rule="evenodd" d="M437.668 437.198L291.465 437.198L291.465 583.4L291.303 583.4L291.465 583.4C372.211 583.4 437.668 517.943 437.668 437.198Z"/>
</mask>
<path fill-rule="evenodd" clip-rule="evenodd" d="M437.668 437.198L291.465 437.198L291.465 583.4L291.303 583.4L291.465 583.4C372.211 583.4 437.668 517.943 437.668 437.198Z" fill="#00B1B0" fill-opacity="0.2"/>
<path d="M291.465 437.198L291.465 436.198L290.465 436.198L290.465 437.198L291.465 437.198ZM437.668 437.198L438.668 437.198L438.668 436.198L437.668 436.198L437.668 437.198ZM291.465 583.4L291.465 584.4L292.465 584.4L292.465 583.4L291.465 583.4ZM291.303 583.4L291.303 582.4L291.303 584.4L291.303 583.4ZM291.465 583.4L291.465 584.4L291.465 584.4L291.465 583.4ZM291.465 438.198L437.668 438.198L437.668 436.198L291.465 436.198L291.465 438.198ZM290.465 437.198L290.465 583.4L292.465 583.4L292.465 437.198L290.465 437.198ZM291.465 582.4L291.303 582.4L291.303 584.4L291.465 584.4L291.465 582.4ZM291.303 584.4L291.465 584.4L291.466 582.4L291.304 582.4L291.303 584.4ZM291.465 584.4C372.763 584.4 438.668 518.495 438.668 437.198L436.668 437.198C436.668 517.391 371.658 582.4 291.465 582.4L291.465 584.4Z" fill="#00B1B0" mask="url(#path-18-inside-8_112_2686)"/>
</g>
<g opacity="0.2">
<mask id="path-20-inside-9_112_2686" fill="white">
<path fill-rule="evenodd" clip-rule="evenodd" d="M291.593 146.203C291.593 65.4573 357.05 0.000127793 437.795 0.000134852L437.795 146.203L291.593 146.203Z"/>
</mask>
<path fill-rule="evenodd" clip-rule="evenodd" d="M291.593 146.203C291.593 65.4573 357.05 0.000127793 437.795 0.000134852L437.795 146.203L291.593 146.203Z" fill="#00B1B0" fill-opacity="0.2"/>
<path d="M437.795 0.000134852L438.795 0.000135044L438.795 -0.999865L437.795 -0.999865L437.795 0.000134852ZM291.593 146.203L290.593 146.203L290.593 147.203L291.593 147.203L291.593 146.203ZM437.795 146.203L437.795 147.203L438.795 147.203L438.795 146.203L437.795 146.203ZM437.795 -0.999865C356.498 -0.999872 290.593 64.905 290.593 146.203L292.593 146.203C292.593 66.0096 357.602 1.00013 437.795 1.00013L437.795 -0.999865ZM438.795 146.203L438.795 0.000135044L436.795 0.00013466L436.795 146.203L438.795 146.203ZM437.795 145.203L291.593 145.203L291.593 147.203L437.795 147.203L437.795 145.203Z" fill="#00B1B0" mask="url(#path-20-inside-9_112_2686)"/>
</g>
<g opacity="0.2">
<mask id="path-22-inside-10_112_2686" fill="white">
<path fill-rule="evenodd" clip-rule="evenodd" d="M291.935 437.668C291.935 356.922 226.478 291.465 145.733 291.465L145.733 437.668L291.935 437.668Z"/>
</mask>
<path d="M145.733 291.465L144.733 291.465L144.733 290.465L145.733 290.465L145.733 291.465ZM291.935 437.668L292.935 437.668L292.935 438.668L291.935 438.668L291.935 437.668ZM145.733 437.668L145.733 438.668L144.733 438.668L144.733 437.668L145.733 437.668ZM145.733 290.465C227.03 290.465 292.935 356.37 292.935 437.668L290.935 437.668C290.935 357.475 225.926 292.465 145.733 292.465L145.733 290.465ZM144.733 437.668L144.733 291.465L146.733 291.465L146.733 437.668L144.733 437.668ZM145.733 436.668L291.935 436.668L291.935 438.668L145.733 438.668L145.733 436.668Z" fill="#00B1B0" mask="url(#path-22-inside-10_112_2686)"/>
</g>
<g opacity="0.2">
<mask id="path-24-inside-11_112_2686" fill="white">
<path fill-rule="evenodd" clip-rule="evenodd" d="M291.935 437.198L291.935 583.4C211.19 583.4 145.733 517.943 145.733 437.198L291.935 437.198Z"/>
</mask>
<path d="M291.935 583.4L292.935 583.4L292.935 584.4L291.935 584.4L291.935 583.4ZM291.935 437.198L291.935 436.198L292.935 436.198L292.935 437.198L291.935 437.198ZM145.733 437.198L144.733 437.198L144.733 436.198L145.733 436.198L145.733 437.198ZM290.935 583.4L290.935 437.198L292.935 437.198L292.935 583.4L290.935 583.4ZM146.733 437.198C146.733 517.391 211.742 582.4 291.935 582.4L291.935 584.4C210.638 584.4 144.733 518.495 144.733 437.198L146.733 437.198ZM291.935 438.198L145.733 438.198L145.733 436.198L291.935 436.198L291.935 438.198Z" fill="#00B1B0" mask="url(#path-24-inside-11_112_2686)"/>
</g>
<g opacity="0.2">
<mask id="path-26-inside-12_112_2686" fill="white">
<path fill-rule="evenodd" clip-rule="evenodd" d="M145.733 291.935C145.733 211.19 211.19 145.733 291.935 145.733L291.935 291.935L145.733 291.935Z"/>
</mask>
<path fill-rule="evenodd" clip-rule="evenodd" d="M145.733 291.935C145.733 211.19 211.19 145.733 291.935 145.733L291.935 291.935L145.733 291.935Z" fill="#00B1B0" fill-opacity="0.2"/>
<path d="M291.935 145.733L292.935 145.733L292.935 144.733L291.935 144.733L291.935 145.733ZM145.733 291.935L144.733 291.935L144.733 292.935L145.733 292.935L145.733 291.935ZM291.935 291.935L291.935 292.935L292.935 292.935L292.935 291.935L291.935 291.935ZM291.935 144.733C210.637 144.733 144.733 210.638 144.733 291.935L146.733 291.935C146.733 211.742 211.742 146.733 291.935 146.733L291.935 144.733ZM292.935 291.935L292.935 145.733L290.935 145.733L290.935 291.935L292.935 291.935ZM291.935 290.935L145.733 290.935L145.733 292.935L291.935 292.935L291.935 290.935Z" fill="#00B1B0" mask="url(#path-26-inside-12_112_2686)"/>
</g>
<g opacity="0.1">
<mask id="path-28-inside-13_112_2686" fill="white">
<path fill-rule="evenodd" clip-rule="evenodd" d="M291.593 145.733C291.593 226.478 357.05 291.935 437.795 291.936L437.795 145.733L291.593 145.733ZM437.795 -0.4698C357.05 -0.469793 291.593 64.9874 291.593 145.733C291.593 145.733 291.593 145.733 291.593 145.733"/>
</mask>
<path d="M291.239 145.379L437.442 -0.823346L438.149 -0.116254L291.946 146.087L291.239 145.379ZM437.795 291.936L438.795 291.936L438.795 292.936L437.795 292.936L437.795 291.936ZM291.593 145.733L290.593 145.733L291.593 145.733ZM437.795 145.733L437.795 144.733L438.795 144.733L438.795 145.733L437.795 145.733ZM437.795 292.936C356.498 292.935 290.593 227.031 290.593 145.733L292.593 145.733C292.593 225.926 357.602 290.935 437.795 290.936L437.795 292.936ZM438.795 145.733L438.795 291.936L436.795 291.936L436.795 145.733L438.795 145.733ZM437.795 146.733L291.593 146.733L291.593 144.733L437.795 144.733L437.795 146.733ZM290.593 145.733C290.593 64.4351 356.498 -1.46979 437.795 -1.4698L437.795 0.5302C357.602 0.530207 292.593 65.5397 292.593 145.733L290.593 145.733ZM290.593 145.733C290.593 145.766 290.594 145.797 290.597 145.826C290.6 145.854 290.603 145.879 290.607 145.9C290.61 145.92 290.614 145.937 290.616 145.947C290.617 145.952 290.618 145.957 290.619 145.959C290.619 145.962 290.62 145.964 290.62 145.963C290.62 145.963 290.62 145.963 290.62 145.963C290.62 145.963 290.62 145.963 290.62 145.963C290.62 145.963 290.62 145.963 290.62 145.963C290.62 145.963 290.62 145.963 290.62 145.963C290.62 145.963 290.62 145.963 290.619 145.962C290.619 145.962 290.619 145.961 290.619 145.959C290.618 145.957 290.617 145.952 290.616 145.947C290.614 145.937 290.61 145.92 290.607 145.9C290.603 145.879 290.6 145.854 290.597 145.826C290.594 145.797 290.593 145.766 290.593 145.733L292.593 145.733C292.593 145.7 292.591 145.669 292.588 145.64C292.586 145.612 292.582 145.587 292.579 145.566C292.575 145.546 292.572 145.529 292.57 145.519C292.568 145.513 292.567 145.509 292.567 145.507C292.566 145.504 292.566 145.502 292.566 145.502C292.566 145.502 292.566 145.502 292.566 145.502C292.566 145.502 292.566 145.502 292.566 145.502C292.566 145.502 292.566 145.502 292.566 145.503C292.566 145.503 292.566 145.503 292.566 145.503C292.566 145.503 292.566 145.503 292.566 145.503C292.566 145.504 292.566 145.505 292.567 145.507C292.567 145.509 292.568 145.513 292.57 145.519C292.572 145.529 292.575 145.546 292.579 145.566C292.582 145.587 292.586 145.612 292.588 145.64C292.591 145.669 292.593 145.7 292.593 145.733L290.593 145.733Z" fill="#00B1B0" mask="url(#path-28-inside-13_112_2686)"/>
</g>
<g opacity="0.2">
<mask id="path-30-inside-14_112_2686" fill="white">
<path fill-rule="evenodd" clip-rule="evenodd" d="M291.935 146.203C291.935 65.4578 226.478 0.000645533 145.733 0.000592615L145.733 146.203L291.935 146.203Z"/>
</mask>
<path d="M145.733 0.000592615L144.733 0.000592703L144.733 -0.999408L145.733 -0.999407L145.733 0.000592615ZM291.935 146.203L292.935 146.203L292.935 147.203L291.935 147.203L291.935 146.203ZM145.733 146.203L145.733 147.203L144.733 147.203L144.733 146.203L145.733 146.203ZM145.733 -0.999407C227.03 -0.999354 292.935 64.9055 292.935 146.203L290.935 146.203C290.935 66.0101 225.926 1.00065 145.733 1.00059L145.733 -0.999407ZM144.733 146.203L144.733 0.000592703L146.733 0.000592528L146.733 146.203L144.733 146.203ZM145.733 145.203L291.935 145.203L291.935 147.203L145.733 147.203L145.733 145.203Z" fill="#00B1B0" mask="url(#path-30-inside-14_112_2686)"/>
</g>
<g opacity="0.2">
<mask id="path-32-inside-15_112_2686" fill="white">
<path fill-rule="evenodd" clip-rule="evenodd" d="M728.474 436.716C728.474 517.462 663.017 582.919 582.272 582.919L582.272 436.716L728.474 436.716Z"/>
</mask>
<path fill-rule="evenodd" clip-rule="evenodd" d="M728.474 436.716C728.474 517.462 663.017 582.919 582.272 582.919L582.272 436.716L728.474 436.716Z" fill="white" fill-opacity="0.2"/>
<path d="M582.272 582.919L581.272 582.919L581.272 583.919L582.272 583.919L582.272 582.919ZM728.474 436.716L729.474 436.716L729.474 435.716L728.474 435.716L728.474 436.716ZM582.272 436.716L582.272 435.716L581.272 435.716L581.272 436.716L582.272 436.716ZM582.272 583.919C663.569 583.919 729.474 518.014 729.474 436.716L727.474 436.716C727.474 516.909 662.465 581.919 582.272 581.919L582.272 583.919ZM581.272 436.716L581.272 582.919L583.272 582.919L583.272 436.716L581.272 436.716ZM582.272 437.716L728.474 437.716L728.474 435.716L582.272 435.716L582.272 437.716Z" fill="#00B1B0" mask="url(#path-32-inside-15_112_2686)"/>
</g>
<g style="mix-blend-mode:multiply" opacity="0.4">
<mask id="path-34-inside-16_112_2686" fill="white">
<path fill-rule="evenodd" clip-rule="evenodd" d="M4.82537e-05 437.668C2.56542e-05 356.922 65.4572 291.465 146.203 291.465L146.203 437.668L4.82537e-05 437.668Z"/>
</mask>
<path fill-rule="evenodd" clip-rule="evenodd" d="M4.82537e-05 437.668C2.56542e-05 356.922 65.4572 291.465 146.203 291.465L146.203 437.668L4.82537e-05 437.668Z" fill="#00B1B0" fill-opacity="0.2"/>
<path d="M146.203 291.465L147.203 291.465L147.203 290.465L146.203 290.465L146.203 291.465ZM4.82537e-05 437.668L-0.999952 437.668L-0.999951 438.668L4.81663e-05 438.668L4.82537e-05 437.668ZM146.203 437.668L146.203 438.668L147.203 438.668L147.203 437.668L146.203 437.668ZM146.203 290.465C64.9049 290.465 -0.999974 356.37 -0.999952 437.668L1.00005 437.668C1.00003 357.475 66.0095 292.465 146.203 292.465L146.203 290.465ZM147.203 437.668L147.203 291.465L145.203 291.465L145.203 437.668L147.203 437.668ZM146.203 436.668L4.83412e-05 436.668L4.81663e-05 438.668L146.203 438.668L146.203 436.668Z" fill="#00B1B0" fill-opacity="0.2" mask="url(#path-34-inside-16_112_2686)"/>
</g>
<g opacity="0.2">
<mask id="path-36-inside-17_112_2686" fill="white">
<path fill-rule="evenodd" clip-rule="evenodd" d="M-0.00012207 583.401L-0.180054 583.4L-0.000106812 583.4L-9.40301e-05 437.198L146.203 437.198C146.203 517.943 80.7454 583.401 -0.00012207 583.401Z"/>
</mask>
<path fill-rule="evenodd" clip-rule="evenodd" d="M-0.00012207 583.401L-0.180054 583.4L-0.000106812 583.4L-9.40301e-05 437.198L146.203 437.198C146.203 517.943 80.7454 583.401 -0.00012207 583.401Z" fill="#00B1B0" fill-opacity="0.2"/>
<path d="M-0.180054 583.4L-0.180054 582.4L-0.180649 584.4L-0.180054 583.4ZM-0.00012207 583.401L-0.000717251 584.401L-0.000122158 584.401L-0.00012207 583.401ZM-0.000106812 583.4L-0.000106899 584.4L0.999893 584.4L0.999893 583.4L-0.000106812 583.4ZM-9.40301e-05 437.198L-9.39427e-05 436.198L-1.00009 436.198L-1.00009 437.198L-9.40301e-05 437.198ZM146.203 437.198L147.203 437.198L147.203 436.198L146.203 436.198L146.203 437.198ZM-0.180649 584.4L-0.000717251 584.401L0.00047311 582.401L-0.179459 582.4L-0.180649 584.4ZM-0.000106724 582.4L-0.180054 582.4L-0.180054 584.4L-0.000106899 584.4L-0.000106724 582.4ZM-1.00009 437.198L-1.00011 583.4L0.999893 583.4L0.999906 437.198L-1.00009 437.198ZM-9.41175e-05 438.198L146.203 438.198L146.203 436.198L-9.39427e-05 436.198L-9.41175e-05 438.198ZM-0.000122158 584.401C81.2976 584.401 147.203 518.496 147.203 437.198L145.203 437.198C145.203 517.391 80.1931 582.401 -0.000121983 582.401L-0.000122158 584.401Z" fill="#00B1B0" mask="url(#path-36-inside-17_112_2686)"/>
</g>
<g opacity="0.2">
<mask id="path-38-inside-18_112_2686" fill="white">
<path fill-rule="evenodd" clip-rule="evenodd" d="M4.82537e-05 291.935C5.53127e-05 211.19 65.4572 145.733 146.203 145.733L146.203 291.935L4.82537e-05 291.935Z"/>
</mask>
<path d="M146.203 145.733L147.203 145.733L147.203 144.733L146.203 144.733L146.203 145.733ZM4.82537e-05 291.935L-0.999952 291.935L-0.999952 292.935L4.87925e-05 292.935L4.82537e-05 291.935ZM146.203 291.935L146.203 292.935L147.203 292.935L147.203 291.935L146.203 291.935ZM146.203 144.733C64.9049 144.733 -0.999945 210.638 -0.999952 291.935L1.00005 291.935C1.00006 211.742 66.0095 146.733 146.203 146.733L146.203 144.733ZM147.203 291.935L147.203 145.733L145.203 145.733L145.203 291.935L147.203 291.935ZM146.203 290.935L4.77149e-05 290.935L4.87925e-05 292.935L146.203 292.935L146.203 290.935Z" fill="#00B1B0" mask="url(#path-38-inside-18_112_2686)"/>
</g>
<g opacity="0.2">
<mask id="path-40-inside-19_112_2686" fill="white">
<path fill-rule="evenodd" clip-rule="evenodd" d="M-1.27814e-05 0.000442505C-5.72245e-06 80.7459 65.4572 146.203 146.203 146.203L146.203 0.000460241L-1.27814e-05 0.000442505Z"/>
</mask>
<path fill-rule="evenodd" clip-rule="evenodd" d="M-1.27814e-05 0.000442505C-5.72245e-06 80.7459 65.4572 146.203 146.203 146.203L146.203 0.000460241L-1.27814e-05 0.000442505Z" fill="#00B1B0" fill-opacity="0.2"/>
<path d="M146.203 146.203L147.203 146.203L147.203 147.203L146.203 147.203L146.203 146.203ZM-1.27814e-05 0.000442505L-1.00001 0.000442592L-1.00001 -0.999557L-1.26601e-05 -0.999557L-1.27814e-05 0.000442505ZM146.203 0.000460241L146.203 -0.99954L147.203 -0.99954L147.203 0.000460154L146.203 0.000460241ZM146.203 147.203C64.9049 147.203 -1.00001 81.2982 -1.00001 0.000442592L0.999987 0.000442417C0.999994 80.1936 66.0094 145.203 146.203 145.203L146.203 147.203ZM147.203 0.000460154L147.203 146.203L145.203 146.203L145.203 0.000460328L147.203 0.000460154ZM146.203 1.00046L-1.29028e-05 1.00044L-1.26601e-05 -0.999557L146.203 -0.99954L146.203 1.00046Z" fill="#00B1B0" fill-opacity="0.2" mask="url(#path-40-inside-19_112_2686)"/>
</g>
<g opacity="0.2">
<mask id="path-42-inside-20_112_2686" fill="white">
<path fill-rule="evenodd" clip-rule="evenodd" d="M-1.27814e-05 0.00012207C-2.48946e-05 80.7455 65.4571 146.203 146.203 146.203L146.203 6.35125e-05L-1.27814e-05 0.00012207Z"/>
</mask>
<path d="M146.203 146.203L147.203 146.203L147.203 147.203L146.203 147.203L146.203 146.203ZM-1.27814e-05 0.00012207L-1.00001 0.000122158L-1.00001 -0.999878L-1.3182e-05 -0.999878L-1.27814e-05 0.00012207ZM146.203 6.35125e-05L146.203 -0.999936L147.203 -0.999937L147.203 6.34251e-05L146.203 6.35125e-05ZM146.203 147.203C64.9048 147.203 -1.00002 81.2978 -1.00001 0.000122158L0.999987 0.000121983C0.999975 80.1932 66.0094 145.203 146.203 145.203L146.203 147.203ZM147.203 6.34251e-05L147.203 146.203L145.203 146.203L145.203 6.35999e-05L147.203 6.34251e-05ZM146.203 1.00006L-1.23809e-05 1.00012L-1.3182e-05 -0.999878L146.203 -0.999936L146.203 1.00006Z" fill="#00B1B0" mask="url(#path-42-inside-20_112_2686)"/>
</g>
<g opacity="0.2">
<mask id="path-44-inside-21_112_2686" fill="white">
<path fill-rule="evenodd" clip-rule="evenodd" d="M1167.27 437.668C1167.27 356.922 1101.81 291.465 1021.07 291.465L1021.07 437.668L1167.27 437.668Z"/>
</mask>
<path d="M1021.07 291.465L1020.07 291.465L1020.07 290.465L1021.07 290.465L1021.07 291.465ZM1167.27 437.668L1168.27 437.668L1168.27 438.668L1167.27 438.668L1167.27 437.668ZM1021.07 437.668L1021.07 438.668L1020.07 438.668L1020.07 437.668L1021.07 437.668ZM1021.07 290.465C1102.37 290.465 1168.27 356.37 1168.27 437.668L1166.27 437.668C1166.27 357.475 1101.26 292.465 1021.07 292.465L1021.07 290.465ZM1020.07 437.668L1020.07 291.465L1022.07 291.465L1022.07 437.668L1020.07 437.668ZM1021.07 436.668L1167.27 436.668L1167.27 438.668L1021.07 438.668L1021.07 436.668Z" fill="#00B1B0" mask="url(#path-44-inside-21_112_2686)"/>
</g>
<g opacity="0.2">
<mask id="path-46-inside-22_112_2686" fill="white">
<path fill-rule="evenodd" clip-rule="evenodd" d="M873.925 438.608C873.925 357.863 808.468 292.406 727.723 292.406L727.723 438.608L873.925 438.608Z"/>
</mask>
<path d="M727.723 292.406L726.723 292.406L726.723 291.406L727.723 291.406L727.723 292.406ZM873.925 438.608L874.925 438.608L874.925 439.608L873.925 439.608L873.925 438.608ZM727.723 438.608L727.723 439.608L726.723 439.608L726.723 438.608L727.723 438.608ZM727.723 291.406C809.02 291.406 874.925 357.311 874.925 438.608L872.925 438.608C872.925 358.415 807.916 293.406 727.723 293.406L727.723 291.406ZM726.723 438.608L726.723 292.406L728.723 292.406L728.723 438.608L726.723 438.608ZM727.723 437.608L873.925 437.608L873.925 439.608L727.723 439.608L727.723 437.608Z" fill="#00B1B0" mask="url(#path-46-inside-22_112_2686)"/>
</g>
<g opacity="0.2">
<mask id="path-48-inside-23_112_2686" fill="white">
<path fill-rule="evenodd" clip-rule="evenodd" d="M1315.82 290.055C1315.82 209.309 1250.37 143.852 1169.62 143.852L1169.62 290.055L1315.82 290.055C1315.82 301.799 1314.44 313.22 1311.82 324.163C1314.44 313.22 1315.82 301.799 1315.82 290.055Z"/>
</mask>
<path d="M1169.62 143.852L1168.62 143.852L1168.62 142.852L1169.62 142.852L1169.62 143.852ZM1169.62 290.055L1169.62 291.055L1168.62 291.055L1168.62 290.055L1169.62 290.055ZM1315.82 290.055L1315.82 289.055L1316.82 289.055L1316.82 290.055L1315.82 290.055ZM1169.62 142.852C1250.92 142.852 1316.82 208.757 1316.82 290.055L1314.82 290.055C1314.82 209.862 1249.81 144.852 1169.62 144.852L1169.62 142.852ZM1168.62 290.055L1168.62 143.852L1170.62 143.852L1170.62 290.055L1168.62 290.055ZM1315.82 291.055L1169.62 291.055L1169.62 289.055L1315.82 289.055L1315.82 291.055ZM1310.85 323.931C1313.45 313.063 1314.82 301.72 1314.82 290.055L1316.82 290.055C1316.82 301.878 1315.43 313.377 1312.8 324.396L1310.85 323.931ZM1316.82 290.055C1316.82 301.878 1315.43 313.377 1312.8 324.396L1310.85 323.931C1313.45 313.063 1314.82 301.72 1314.82 290.055L1316.82 290.055Z" fill="white" mask="url(#path-48-inside-23_112_2686)"/>
</g>
</svg>
