<svg width="128" height="113" viewBox="0 0 128 113" fill="none" xmlns="http://www.w3.org/2000/svg">
<path d="M93.834 37.3439H78.6673V29.7606L71.084 22.1772H55.9173L48.334 29.7606V37.3439H33.1673C28.9965 37.3439 25.584 40.7564 25.584 44.9272V63.8856C25.584 66.7293 27.1007 69.1181 29.3757 70.4452V82.8439C29.3757 87.0527 32.7502 90.4272 36.959 90.4272H90.0423C94.2511 90.4272 97.6257 87.0527 97.6257 82.8439V70.4072C99.8627 69.0802 101.417 66.6535 101.417 63.8856V44.9272C101.417 40.7564 98.0048 37.3439 93.834 37.3439ZM55.9173 29.7606H71.084V37.3439H55.9173V29.7606ZM33.1673 44.9272H93.834V63.8856H74.8757V52.5106H52.1257V63.8856H33.1673V44.9272ZM67.2923 67.6772H59.709V60.0939H67.2923V67.6772ZM90.0423 82.8439H36.959V71.4689H52.1257V75.2606H74.8757V71.4689H90.0423V82.8439Z" fill="#E468FF"/>
</svg>
