<svg width="130" height="131" viewBox="0 0 130 131" fill="none" xmlns="http://www.w3.org/2000/svg">
<g clip-path="url(#clip0_213_14910)">
<path d="M74.7188 68.9987H84.4025V61.8306H74.7188C74.6241 61.5751 74.5187 61.325 74.4043 61.0802L81.2544 54.2301L76.1856 49.1613L69.3355 56.0114C69.0908 55.897 68.8406 55.7916 68.5851 55.6969V46.0132H61.417V55.6969C61.1615 55.7916 60.9114 55.897 60.6666 56.0114L53.8165 49.1613L48.7477 54.2301L55.5978 61.0802C55.4835 61.325 55.3781 61.5751 55.2834 61.8306H45.5996V68.9987H55.2834C55.3781 69.2542 55.4835 69.5043 55.5978 69.7491L48.7477 76.5992L53.8165 81.668L60.6666 74.8179C60.9114 74.9322 61.1615 75.0377 61.417 75.1324V84.8161H68.5851V75.1324C68.8406 75.0377 69.0908 74.9322 69.3355 74.8179L76.1856 81.668L81.2544 76.5992L74.4043 69.7491C74.5187 69.5043 74.6241 69.2542 74.7188 68.9987ZM70.5022 65.4146C70.5022 68.4484 68.0348 70.9158 65.0011 70.9158C61.9673 70.9158 59.4999 68.4484 59.4999 65.4146C59.4999 62.3809 61.9673 59.9135 65.0011 59.9135C68.0348 59.9135 70.5022 62.3809 70.5022 65.4146Z" fill="#E468FF"/>
<path d="M58.4934 31.4733H71.5075V20.6175H79.5868L65.0004 0.413818L50.4141 20.6175H58.4934V31.4733Z" fill="#113F64"/>
<path d="M71.5075 99.3545H58.4934V110.21H50.4141L65.0004 130.414L79.5868 110.21H71.5075V99.3545Z" fill="#113F64"/>
<path d="M130.001 65.4148L109.797 50.8284V58.9077H98.9414V71.9218H109.797V80.0011L130.001 65.4148Z" fill="#113F64"/>
<path d="M20.2037 71.9218H31.0595V58.9077H20.2037V50.8284L0 65.4148L20.2037 80.0011V71.9218Z" fill="#113F64"/>
<path d="M93.5998 46.0151L101.277 38.3395L106.989 44.0533L110.963 19.4526L86.362 23.4244L92.074 29.1364L84.3984 36.8137L93.5998 46.0151Z" fill="#113F64"/>
<path d="M36.4001 84.8125L28.7228 92.488L23.0108 86.7761L19.0391 111.377L43.6397 107.403L37.926 101.691L45.6015 94.0139L36.4001 84.8125Z" fill="#113F64"/>
<path d="M28.7228 38.3395L36.4001 46.0151L45.6015 36.8137L37.926 29.1364L43.6397 23.4244L19.0391 19.4526L23.0108 44.0533L28.7228 38.3395Z" fill="#113F64"/>
<path d="M101.277 92.488L93.5998 84.8125L84.3984 94.0139L92.074 101.691L86.362 107.403L110.963 111.377L106.989 86.7761L101.277 92.488Z" fill="#113F64"/>
</g>
<defs>
<clipPath id="clip0_213_14910">
<rect width="130" height="130" fill="white" transform="translate(0 0.413818)"/>
</clipPath>
</defs>
</svg>
