<svg width="2215" height="1724" viewBox="0 0 2215 1724" fill="none" xmlns="http://www.w3.org/2000/svg">
<g clip-path="url(#clip0_81_77)">
<path d="M1.04027 246.9C1.04027 111.09 111.1 1 246.86 1V246.9H1.03027H1.04027Z" stroke="#00B1B0" stroke-width="2" stroke-miterlimit="10"/>
<path d="M246.86 246.9C246.86 111.1 356.92 1 492.69 1V246.9H246.86Z" stroke="#FFE510" stroke-width="2" stroke-miterlimit="10"/>
<path d="M738.58 246.83C602.78 246.83 492.68 136.77 492.68 1H738.58V246.83Z" stroke="#E468FF" stroke-width="2" stroke-miterlimit="10"/>
<path d="M984.41 1C984.41 136.8 874.35 246.9 738.58 246.9V1H984.41Z" stroke="#00B1B0" stroke-width="2" stroke-miterlimit="10"/>
<path d="M984.41 246.9C984.41 111.1 1094.47 1 1230.24 1V246.9H984.41Z" stroke="#FFE510" stroke-width="2" stroke-miterlimit="10"/>
<path d="M1476.13 246.83C1340.33 246.83 1230.23 136.77 1230.23 1H1476.13V246.83Z" stroke="#FFE510" stroke-width="2" stroke-miterlimit="10"/>
<path d="M1721.96 1C1721.96 136.8 1611.9 246.9 1476.13 246.9V1H1721.96Z" stroke="#ED8B00" stroke-width="2" stroke-miterlimit="10"/>
<path d="M1721.96 246.9C1721.96 111.1 1832.02 1 1967.79 1V246.9H1721.96Z" stroke="#FFE510" stroke-width="2" stroke-miterlimit="10"/>
<path d="M2213.68 246.83C2077.88 246.83 1967.78 136.77 1967.78 1H2213.68V246.83Z" stroke="#E468FF" stroke-width="2" stroke-miterlimit="10"/>
<path d="M1 246.97C136.8 246.97 246.9 357.03 246.9 492.8H1V246.97Z" stroke="#E468FF" stroke-width="2" stroke-miterlimit="10"/>
<path d="M492.72 492.79C356.92 492.79 246.82 382.73 246.82 246.96H492.72V492.79Z" stroke="#ED8B00" stroke-width="2" stroke-miterlimit="10"/>
<path d="M738.55 246.9C738.55 382.7 628.49 492.8 492.72 492.8V246.9H738.55Z" stroke="#00B1B0" stroke-width="2" stroke-miterlimit="10"/>
<path d="M984.41 246.93C984.41 382.73 874.35 492.83 738.58 492.83V246.93H984.41Z" stroke="#ED8B00" stroke-width="2" stroke-miterlimit="10"/>
<path d="M1230.27 492.79C1094.47 492.79 984.37 382.73 984.37 246.96H1230.27V492.79Z" stroke="#00B1B0" stroke-width="2" stroke-miterlimit="10"/>
<path d="M1230.27 492.79C1230.27 356.99 1340.33 246.89 1476.1 246.89V492.79H1230.27Z" stroke="#ED8B00" stroke-width="2" stroke-miterlimit="10"/>
<path d="M1476.09 246.97C1611.89 246.97 1721.99 357.03 1721.99 492.8H1476.09V246.97Z" stroke="#00B1B0" stroke-width="2" stroke-miterlimit="10"/>
<path d="M1721.92 246.97C1857.72 246.97 1967.82 357.03 1967.82 492.8H1721.92V246.97Z" stroke="#ED8B00" stroke-width="2" stroke-miterlimit="10"/>
<path d="M2213.64 246.9C2213.64 382.7 2103.58 492.8 1967.81 492.8V246.9H2213.64Z" stroke="#00B1B0" stroke-width="2" stroke-miterlimit="10"/>
<path d="M1.04004 738.76C1.04004 602.96 111.1 492.86 246.87 492.86V738.76H1.04004Z" stroke="#ED8B00" stroke-width="2" stroke-miterlimit="10"/>
<path d="M246.86 738.76C246.86 602.96 356.92 492.86 492.69 492.86V738.76H246.86Z" stroke="#FFE510" stroke-width="2" stroke-miterlimit="10"/>
<path d="M492.69 492.86C628.49 492.86 738.59 602.92 738.59 738.69H492.69V492.86Z" stroke="#ED8B00" stroke-width="2" stroke-miterlimit="10"/>
<path d="M984.44 738.72C848.64 738.72 738.54 628.66 738.54 492.89H984.44V738.72Z" stroke="#FFE510" stroke-width="2" stroke-miterlimit="10"/>
<path d="M1230.27 738.72C1094.47 738.72 984.37 628.66 984.37 492.89H1230.27V738.72Z" stroke="#E468FF" stroke-width="2" stroke-miterlimit="10"/>
<path d="M1476.09 492.83C1476.09 628.63 1366.03 738.73 1230.26 738.73V492.83H1476.09Z" stroke="#00B1B0" stroke-width="2" stroke-miterlimit="10"/>
<path d="M1476.13 738.76C1476.13 602.96 1586.19 492.86 1721.96 492.86V738.76H1476.13Z" stroke="#E468FF" stroke-width="2" stroke-miterlimit="10"/>
<path d="M1721.92 492.9C1857.72 492.9 1967.82 602.96 1967.82 738.73H1721.92V492.9Z" stroke="#00B1B0" stroke-width="2" stroke-miterlimit="10"/>
<path d="M2213.68 738.69C2077.88 738.69 1967.78 628.63 1967.78 492.86H2213.68V738.69Z" stroke="#FFE510" stroke-width="2" stroke-miterlimit="10"/>
<path d="M246.86 738.79C246.86 874.59 136.8 984.69 1.03027 984.69V738.79H246.86Z" stroke="#00B1B0" stroke-width="2" stroke-miterlimit="10"/>
<path d="M492.69 738.79C492.69 874.59 382.63 984.69 246.86 984.69V738.79H492.69Z" stroke="#E468FF" stroke-width="2" stroke-miterlimit="10"/>
<path d="M492.72 984.65C492.72 848.85 602.78 738.75 738.55 738.75V984.65H492.72Z" stroke="#00B1B0" stroke-width="2" stroke-miterlimit="10"/>
<path d="M984.41 738.79C984.41 874.59 874.35 984.69 738.58 984.69V738.79H984.41Z" stroke="#E468FF" stroke-width="2" stroke-miterlimit="10"/>
<path d="M984.41 984.69C984.41 848.89 1094.47 738.79 1230.24 738.79V984.69H984.41Z" stroke="#ED8B00" stroke-width="2" stroke-miterlimit="10"/>
<path d="M1476.13 984.62C1340.33 984.62 1230.23 874.56 1230.23 738.79H1476.13V984.62Z" stroke="#E468FF" stroke-width="2" stroke-miterlimit="10"/>
<path d="M1721.96 738.79C1721.96 874.59 1611.9 984.69 1476.13 984.69V738.79H1721.96Z" stroke="#00B1B0" stroke-width="2" stroke-miterlimit="10"/>
<path d="M1721.96 984.69C1721.96 848.89 1832.02 738.79 1967.79 738.79V984.69H1721.96Z" stroke="#E468FF" stroke-width="2" stroke-miterlimit="10"/>
<path d="M1967.82 984.65C1967.82 848.85 2077.88 738.75 2213.65 738.75V984.65H1967.82Z" stroke="#00B1B0" stroke-width="2" stroke-miterlimit="10"/>
<path d="M1 984.76C136.8 984.76 246.9 1094.82 246.9 1230.59H1V984.76Z" stroke="#FFE510" stroke-width="2" stroke-miterlimit="10"/>
<path d="M492.72 1230.59C356.92 1230.59 246.82 1120.53 246.82 984.76H492.72V1230.59Z" stroke="#00B1B0" stroke-width="2" stroke-miterlimit="10"/>
<path d="M738.55 984.69C738.55 1120.49 628.49 1230.59 492.72 1230.59V984.69H738.55Z" stroke="#E468FF" stroke-width="2" stroke-miterlimit="10"/>
<path d="M984.44 1230.59C848.64 1230.59 738.54 1120.53 738.54 984.76H984.44V1230.59Z" stroke="#00B1B0" stroke-width="2" stroke-miterlimit="10"/>
<path d="M984.41 1230.62C984.41 1094.82 1094.47 984.72 1230.24 984.72V1230.62H984.41Z" stroke="#FFE510" stroke-width="2" stroke-miterlimit="10"/>
<path d="M1476.13 1230.55C1340.33 1230.55 1230.23 1120.49 1230.23 984.72H1476.13V1230.55Z" stroke="#00B1B0" stroke-width="2" stroke-miterlimit="10"/>
<path d="M1721.99 1230.59C1586.19 1230.59 1476.09 1120.53 1476.09 984.76H1721.99V1230.59Z" stroke="#ED8B00" stroke-width="2" stroke-miterlimit="10"/>
<path d="M1967.78 984.73C1967.78 1120.53 1857.72 1230.63 1721.95 1230.63V984.73H1967.78Z" stroke="#FFE510" stroke-width="2" stroke-miterlimit="10"/>
<path d="M1967.82 1230.59C1967.82 1094.79 2077.88 984.69 2213.65 984.69V1230.59H1967.82Z" stroke="#ED8B00" stroke-width="2" stroke-miterlimit="10"/>
<path d="M1.04004 1476.55C1.04004 1340.75 111.1 1230.65 246.87 1230.65V1476.55H1.04004Z" stroke="#00B1B0" stroke-width="2" stroke-miterlimit="10"/>
<path d="M492.72 1476.52C356.92 1476.52 246.82 1366.46 246.82 1230.69H492.72V1476.52Z" stroke="#ED8B00" stroke-width="2" stroke-miterlimit="10"/>
<path d="M738.58 1476.48C602.78 1476.48 492.68 1366.42 492.68 1230.65H738.58V1476.48Z" stroke="#00B1B0" stroke-width="2" stroke-miterlimit="10"/>
<path d="M984.41 1230.66C984.41 1366.46 874.35 1476.56 738.58 1476.56V1230.66H984.41Z" stroke="#ED8B00" stroke-width="2" stroke-miterlimit="10"/>
<path d="M984.41 1476.55C984.41 1340.75 1094.47 1230.65 1230.24 1230.65V1476.55H984.41Z" stroke="#E468FF" stroke-width="2" stroke-miterlimit="10"/>
<path d="M1230.27 1476.52C1230.27 1340.72 1340.33 1230.62 1476.1 1230.62V1476.52H1230.27Z" stroke="#ED8B00" stroke-width="2" stroke-miterlimit="10"/>
<path d="M1721.96 1230.66C1721.96 1366.46 1611.9 1476.56 1476.13 1476.56V1230.66H1721.96Z" stroke="#00B1B0" stroke-width="2" stroke-miterlimit="10"/>
<path d="M1967.78 1230.66C1967.78 1366.46 1857.72 1476.56 1721.95 1476.56V1230.66H1967.78Z" stroke="#ED8B00" stroke-width="2" stroke-miterlimit="10"/>
<path d="M2213.68 1476.48C2077.88 1476.48 1967.78 1366.42 1967.78 1230.65H2213.68V1476.48Z" stroke="#E468FF" stroke-width="2" stroke-miterlimit="10"/>
<path d="M1 1476.62C136.8 1476.62 246.9 1586.68 246.9 1722.45H1V1476.62Z" stroke="#E468FF" stroke-width="2" stroke-miterlimit="10"/>
<path d="M492.69 1476.59C492.69 1612.39 382.63 1722.49 246.86 1722.49V1476.59H492.69Z" stroke="#FFE510" stroke-width="2" stroke-miterlimit="10"/>
<path d="M492.72 1722.45C492.72 1586.65 602.78 1476.55 738.55 1476.55V1722.45H492.72Z" stroke="#ED8B00" stroke-width="2" stroke-miterlimit="10"/>
<path d="M738.55 1476.62C874.35 1476.62 984.45 1586.68 984.45 1722.45H738.55V1476.62Z" stroke="#FFE510" stroke-width="2" stroke-miterlimit="10"/>
<path d="M984.37 1476.62C1120.17 1476.62 1230.27 1586.68 1230.27 1722.45H984.37V1476.62Z" stroke="#ED8B00" stroke-width="2" stroke-miterlimit="10"/>
<path d="M1476.09 1476.55C1476.09 1612.35 1366.03 1722.45 1230.26 1722.45V1476.55H1476.09Z" stroke="#00B1B0" stroke-width="2" stroke-miterlimit="10"/>
<path d="M1476.09 1476.62C1611.89 1476.62 1721.99 1586.68 1721.99 1722.45H1476.09V1476.62Z" stroke="#E468FF" stroke-width="2" stroke-miterlimit="10"/>
<path d="M1967.78 1476.59C1967.78 1612.39 1857.72 1722.49 1721.95 1722.49V1476.59H1967.78Z" stroke="#FFE510" stroke-width="2" stroke-miterlimit="10"/>
<path d="M2213.64 1476.55C2213.64 1612.35 2103.58 1722.45 1967.81 1722.45V1476.55H2213.64Z" stroke="#00B1B0" stroke-width="2" stroke-miterlimit="10"/>
</g>
<defs>
<clipPath id="clip0_81_77">
<rect width="2214.68" height="1723.48" fill="white"/>
</clipPath>
</defs>
</svg>
