<svg width="64" height="64" viewBox="0 0 64 64" fill="none" xmlns="http://www.w3.org/2000/svg">
<path fill-rule="evenodd" clip-rule="evenodd" d="M19.1601 11.0134L38.5975 11.0034V18.7218L19.1601 18.7318C18.2822 18.7328 17.427 18.4474 16.7198 17.9174L13.569 15.5479C13.4656 15.47 13.3816 15.3685 13.3237 15.2515C13.2658 15.1345 13.2357 15.0053 13.2357 14.8743C13.2357 14.7433 13.2658 14.6141 13.3237 14.4971C13.3816 14.3801 13.4656 14.2785 13.569 14.2006L16.723 11.8278C17.4281 11.2979 18.2808 11.0114 19.1568 11.0101L19.1601 11.0134ZM46.5994 18.7151L42.7087 18.7184V11H46.6126C48.6978 11.0335 50.2929 12.9204 50.2929 14.8542C50.2929 16.7913 48.6978 18.6815 46.6126 18.7151H46.5994ZM27.093 26.4569C28.1947 26.906 29.1321 27.3987 29.9444 27.888V56C28.6911 55.0403 27.3201 54.2516 25.8662 53.654C23.4488 52.6687 19.9626 51.8542 14.6445 51.8542C14.2083 51.8542 13.79 51.6777 13.4816 51.3634C13.1733 51.0492 13 50.6229 13 50.1785V26.0883C13 25.6438 13.1733 25.2176 13.4816 24.9033C13.79 24.5891 14.2083 24.4125 14.6445 24.4125C20.3014 24.4125 24.2152 25.2806 27.093 26.4569ZM38.1305 53.654C36.3545 54.3812 35.108 55.2158 34.0523 55.9966V27.888C34.8646 27.3987 35.8053 26.906 36.907 26.4569C39.7848 25.2806 43.6986 24.4125 49.3555 24.4125C49.7917 24.4125 50.21 24.5891 50.5183 24.9033C50.8267 25.2176 51 25.6438 51 26.0883V50.1785C51 50.6229 50.8267 51.0492 50.5183 51.3634C50.21 51.6777 49.7917 51.8542 49.3555 51.8542C44.0374 51.8542 40.5511 52.6653 38.1305 53.654Z" fill="#E567FF"/>
</svg>
