<svg width="128" height="113" viewBox="0 0 128 113" fill="none" xmlns="http://www.w3.org/2000/svg">
<path d="M28.916 22.8623V55.7165C28.916 60.9616 29.9535 65.8033 32.0285 70.2415C34.1035 74.6797 36.9566 78.4838 40.5879 81.654C39.0893 79.4637 37.9227 77.0578 37.0881 74.4364C36.2534 71.815 35.835 69.0334 35.8327 66.0915C35.8327 61.8262 36.7123 57.373 38.4714 52.7319C40.2305 48.0908 43.1551 42.7166 47.2452 36.6092L28.916 22.8623ZM63.4993 26.0613C55.8334 35.2835 50.4591 43.2238 47.3766 49.8823C44.2941 56.5407 42.7517 61.9438 42.7493 66.0915C42.7493 71.8554 44.7667 76.7547 48.8014 80.7894C52.8362 84.8241 57.7355 86.8415 63.4993 86.8415C69.2632 86.8415 74.1625 84.8241 78.1973 80.7894C82.232 76.7547 84.2493 71.8554 84.2493 66.0915C84.2493 61.9415 82.6931 56.5084 79.5806 49.7923C76.4681 43.0763 71.1077 35.1659 63.4993 26.0613ZM98.0827 22.8623L79.7535 36.6092C83.8459 42.7189 86.7716 48.0943 88.5308 52.7354C90.2899 57.3765 91.1683 61.8285 91.166 66.0915C91.166 69.0311 90.7476 71.8127 89.9106 74.4364C89.0737 77.0602 87.9071 79.466 86.4108 81.654C90.0421 78.4838 92.8952 74.6797 94.9702 70.2415C97.0452 65.8033 98.0827 60.9616 98.0827 55.7165V22.8623Z" fill="#E468FF"/>
</svg>
