<?xml version="1.0" encoding="utf-8"?>
<!-- Generator: Adobe Illustrator 28.0.0, SVG Export Plug-In . SVG Version: 6.00 Build 0)  -->
<svg version="1.1" id="Layer_1" xmlns="http://www.w3.org/2000/svg" xmlns:xlink="http://www.w3.org/1999/xlink" x="0px" y="0px"
	 viewBox="0 0 128 113" style="enable-background:new 0 0 128 113;" xml:space="preserve">
<style type="text/css">
	.st0{fill:#E468FF;}
	.st1{fill:#FFE510;}
	.st2{fill-rule:evenodd;clip-rule:evenodd;fill:#FFE510;}
</style>
<path class="st0" d="M47.6,70.5l7.4-6.3c0,0,3.5,5.8,9.2,5.8c2.2,0,4.4-0.8,4.4-3.2c0-5.1-19.7-5.2-19.7-19.4
	c0-6.7,5.3-11,11.9-12.2v-5.6h6.9v5.6c5.1,0.8,10.2,3.7,10.2,9.1V49h-9.8v-1.9c0-1.6-2-2.5-4-2.5c-2.2,0-4.4,0.9-4.4,2.7
	c0,5.8,19.7,4.4,19.7,19.3c0,6.2-4.7,11.4-11.8,12.7V85h-6.9v-5.5C51.6,78,47.6,70.5,47.6,70.5z"/>
<path class="st1" d="M112,72.8L96,45.2h32L112,72.8z"/>
<path class="st2" d="M64,13.1c-14.2,0-26.8,7.1-34.3,18L19,23.8C28.8,9.6,45.3,0.2,64,0.2c30.1,0,54.5,24.4,54.5,54.5h-12.9
	C105.6,31.7,87,13.1,64,13.1z"/>
<path class="st1" d="M16.4,39.1l16.4,28.5H0L16.4,39.1z"/>
<path class="st2" d="M64,99.8c14.2,0,26.8-7.1,34.3-18L109,89c-9.8,14.2-26.3,23.6-44.9,23.6c-30.1,0-54.5-24.4-54.5-54.5h12.9
	C22.4,81.1,41,99.8,64,99.8z"/>
</svg>
