<svg width="128" height="113" viewBox="0 0 128 113" fill="none" xmlns="http://www.w3.org/2000/svg">
<path d="M47.5684 70.5415L55.0045 64.2433C55.0045 64.2433 58.5398 70.057 64.2084 70.057C66.4026 70.057 68.5969 69.2697 68.5969 66.8473C68.5969 61.7603 48.8484 61.6392 48.8484 47.4078C48.8484 40.7462 54.1512 36.3859 60.795 35.2353V29.6033H67.7436V35.2353C72.8026 36.0831 77.9836 38.9294 77.9836 44.3192V49.0429H68.2312V47.1655C68.2312 45.591 66.2807 44.622 64.2693 44.622C62.075 44.622 59.8198 45.5304 59.8198 47.2866C59.8198 53.0398 79.5683 51.7075 79.5683 66.6051C79.5683 72.8427 74.875 78.0508 67.7436 79.3226V84.9546H60.795V79.4437C51.5912 77.9903 47.5684 70.5415 47.5684 70.5415Z" fill="#E468FF"/>
<path d="M112 72.8464L96 45.1708L128 45.1708L112 72.8464Z" fill="#063860"/>
<path fill-rule="evenodd" clip-rule="evenodd" d="M63.9605 13.0628C49.724 13.0628 37.1523 20.195 29.6301 31.1082L19.0273 23.8106C28.8491 9.56116 45.3101 0.197754 63.9605 0.197754C94.0738 0.197754 118.487 24.5929 118.487 54.6842H105.612C105.612 31.6981 86.9634 13.0628 63.9605 13.0628Z" fill="#063860"/>
<path d="M16.4324 39.1167L32.8649 67.6572L-4.99018e-06 67.6572L16.4324 39.1167Z" fill="#063860"/>
<path fill-rule="evenodd" clip-rule="evenodd" d="M64.0395 99.7653C78.276 99.7653 90.8477 92.6331 98.3699 81.72L108.973 89.0175C99.1509 103.267 82.6899 112.63 64.0395 112.63C33.9262 112.63 9.51322 88.2352 9.51322 58.1439L22.3877 58.1439C22.3877 81.13 41.0366 99.7653 64.0395 99.7653Z" fill="#063860"/>
</svg>
