<svg width="1440" height="642" viewBox="0 0 1440 642" fill="none" xmlns="http://www.w3.org/2000/svg">
<g clip-path="url(#clip0_27_1085)">
<path d="M0.67618 160.863C0.67618 72.5288 72.238 0.923157 160.51 0.923157V160.863H0.669678H0.67618Z" stroke="#A1DCDC" stroke-width="2" stroke-miterlimit="10"/>
<path d="M160.51 160.863C160.51 72.5353 232.072 0.923157 320.35 0.923157V160.863H160.51Z" stroke="#A1DCDC" stroke-width="2" stroke-miterlimit="10"/>
<path d="M480.23 160.818C391.932 160.818 320.344 89.2318 320.344 0.923157H480.23V160.818Z" stroke="#A1DCDC" stroke-width="2" stroke-miterlimit="10"/>
<path d="M640.07 0.923157C640.07 89.2513 568.508 160.863 480.23 160.863V0.923157H640.07Z" stroke="#A1DCDC" stroke-width="2" stroke-miterlimit="10"/>
<path d="M640.07 160.863C640.07 72.5353 711.632 0.923119 799.911 0.923119V160.863H640.07Z" stroke="#A1DCDC" stroke-width="2" stroke-miterlimit="10"/>
<path d="M959.79 160.818C871.492 160.818 799.904 89.2318 799.904 0.923157H959.79V160.818Z" stroke="#A1DCDC" stroke-width="2" stroke-miterlimit="10"/>
<path d="M1119.63 0.923119C1119.63 89.2513 1048.07 160.863 959.79 160.863V0.923119H1119.63Z" stroke="#A1DCDC" stroke-width="2" stroke-miterlimit="10"/>
<path d="M1119.63 160.863C1119.63 72.5353 1191.19 0.923157 1279.47 0.923157V160.863H1119.63Z" stroke="#A1DCDC" stroke-width="2" stroke-miterlimit="10"/>
<path d="M1439.35 160.818C1351.05 160.818 1279.46 89.2318 1279.46 0.923157H1439.35V160.818Z" stroke="#A1DCDC" stroke-width="2" stroke-miterlimit="10"/>
<path d="M0.650146 160.909C88.9482 160.909 160.536 232.495 160.536 320.804H0.650146V160.909Z" stroke="#A1DCDC" stroke-width="2" stroke-miterlimit="10"/>
<path d="M320.37 320.797C232.072 320.797 160.484 249.211 160.484 160.902H320.37V320.797Z" stroke="#A1DCDC" stroke-width="2" stroke-miterlimit="10"/>
<path d="M480.21 160.863C480.21 249.192 408.648 320.804 320.37 320.804V160.863H480.21Z" stroke="#A1DCDC" stroke-width="2" stroke-miterlimit="10"/>
<path d="M640.07 160.883C640.07 249.211 568.508 320.823 480.23 320.823V160.883H640.07Z" stroke="#A1DCDC" stroke-width="2" stroke-miterlimit="10"/>
<path d="M799.93 320.797C711.632 320.797 640.044 249.211 640.044 160.902H799.93V320.797Z" stroke="#A1DCDC" stroke-width="2" stroke-miterlimit="10"/>
<path d="M799.93 320.797C799.93 232.469 871.491 160.857 959.77 160.857V320.797H799.93Z" stroke="#A1DCDC" stroke-width="2" stroke-miterlimit="10"/>
<path d="M959.764 160.909C1048.06 160.909 1119.65 232.495 1119.65 320.804H959.764V160.909Z" stroke="#A1DCDC" stroke-width="2" stroke-miterlimit="10"/>
<path d="M1119.6 160.909C1207.9 160.909 1279.49 232.495 1279.49 320.804H1119.6V160.909Z" stroke="#A1DCDC" stroke-width="2" stroke-miterlimit="10"/>
<path d="M1439.32 160.863C1439.32 249.192 1367.76 320.804 1279.48 320.804V160.863H1439.32Z" stroke="#A1DCDC" stroke-width="2" stroke-miterlimit="10"/>
<path d="M0.67627 480.783C0.67627 392.455 72.238 320.843 160.517 320.843V480.783H0.67627Z" stroke="#A1DCDC" stroke-width="2" stroke-miterlimit="10"/>
<path d="M160.51 480.783C160.51 392.455 232.072 320.843 320.35 320.843V480.783H160.51Z" stroke="#A1DCDC" stroke-width="2" stroke-miterlimit="10"/>
<path d="M320.35 320.843C408.648 320.843 480.236 392.429 480.236 480.738H320.35V320.843Z" stroke="#A1DCDC" stroke-width="2" stroke-miterlimit="10"/>
<path d="M640.089 480.757C551.791 480.757 480.204 409.171 480.204 320.862H640.089V480.757Z" stroke="#A1DCDC" stroke-width="2" stroke-miterlimit="10"/>
<path d="M799.93 480.757C711.632 480.757 640.044 409.171 640.044 320.862H799.93V480.757Z" stroke="#A1DCDC" stroke-width="2" stroke-miterlimit="10"/>
<path d="M959.764 320.823C959.764 409.151 888.202 480.764 799.923 480.764V320.823H959.764Z" stroke="#A1DCDC" stroke-width="2" stroke-miterlimit="10"/>
<path d="M959.79 480.783C959.79 392.455 1031.35 320.843 1119.63 320.843V480.783H959.79Z" stroke="#A1DCDC" stroke-width="2" stroke-miterlimit="10"/>
<path d="M1119.6 320.869C1207.9 320.869 1279.49 392.455 1279.49 480.764H1119.6V320.869Z" stroke="#A1DCDC" stroke-width="2" stroke-miterlimit="10"/>
<path d="M1439.35 480.738C1351.05 480.738 1279.46 409.151 1279.46 320.843H1439.35V480.738Z" stroke="#A1DCDC" stroke-width="2" stroke-miterlimit="10"/>
<path d="M160.51 480.803C160.51 569.131 88.9483 640.743 0.669678 640.743V480.803H160.51Z" stroke="#A1DCDC" stroke-width="2" stroke-miterlimit="10"/>
<path d="M320.35 480.803C320.35 569.131 248.789 640.743 160.51 640.743V480.803H320.35Z" stroke="#A1DCDC" stroke-width="2" stroke-miterlimit="10"/>
<path d="M320.37 640.717C320.37 552.389 391.932 480.777 480.21 480.777V640.717H320.37Z" stroke="#A1DCDC" stroke-width="2" stroke-miterlimit="10"/>
<path d="M640.07 480.803C640.07 569.131 568.508 640.743 480.23 640.743V480.803H640.07Z" stroke="#A1DCDC" stroke-width="2" stroke-miterlimit="10"/>
<path d="M640.07 640.743C640.07 552.415 711.632 480.802 799.911 480.802V640.743H640.07Z" stroke="#A1DCDC" stroke-width="2" stroke-miterlimit="10"/>
<path d="M959.79 640.697C871.492 640.697 799.904 569.111 799.904 480.803H959.79V640.697Z" stroke="#A1DCDC" stroke-width="2" stroke-miterlimit="10"/>
<path d="M1119.63 480.802C1119.63 569.131 1048.07 640.743 959.79 640.743V480.802H1119.63Z" stroke="#A1DCDC" stroke-width="2" stroke-miterlimit="10"/>
<path d="M1119.63 640.743C1119.63 552.415 1191.19 480.803 1279.47 480.803V640.743H1119.63Z" stroke="#A1DCDC" stroke-width="2" stroke-miterlimit="10"/>
<path d="M1279.49 640.717C1279.49 552.389 1351.05 480.777 1439.33 480.777V640.717H1279.49Z" stroke="#A1DCDC" stroke-width="2" stroke-miterlimit="10"/>
<path d="M0.650146 640.788C88.9482 640.788 160.536 712.374 160.536 800.683H0.650146V640.788Z" stroke="#A1DCDC" stroke-width="2" stroke-miterlimit="10"/>
<path d="M320.37 800.683C232.072 800.683 160.484 729.097 160.484 640.788H320.37V800.683Z" stroke="#A1DCDC" stroke-width="2" stroke-miterlimit="10"/>
<path d="M480.21 640.743C480.21 729.071 408.648 800.683 320.37 800.683V640.743H480.21Z" stroke="#A1DCDC" stroke-width="2" stroke-miterlimit="10"/>
<path d="M640.089 800.683C551.791 800.683 480.204 729.097 480.204 640.788H640.089V800.683Z" stroke="#A1DCDC" stroke-width="2" stroke-miterlimit="10"/>
<path d="M640.07 800.703C640.07 712.374 711.632 640.762 799.911 640.762V800.703H640.07Z" stroke="#A1DCDC" stroke-width="2" stroke-miterlimit="10"/>
<path d="M959.79 800.657C871.492 800.657 799.904 729.071 799.904 640.762H959.79V800.657Z" stroke="#A1DCDC" stroke-width="2" stroke-miterlimit="10"/>
<path d="M1119.65 800.683C1031.35 800.683 959.764 729.097 959.764 640.788H1119.65V800.683Z" stroke="#A1DCDC" stroke-width="2" stroke-miterlimit="10"/>
<path d="M1279.46 640.769C1279.46 729.097 1207.9 800.709 1119.62 800.709V640.769H1279.46Z" stroke="#A1DCDC" stroke-width="2" stroke-miterlimit="10"/>
<path d="M1279.49 800.683C1279.49 712.355 1351.05 640.743 1439.33 640.743V800.683H1279.49Z" stroke="#A1DCDC" stroke-width="2" stroke-miterlimit="10"/>
</g>
<defs>
<clipPath id="clip0_27_1085">
<rect width="1440" height="641" fill="white" transform="translate(0 0.272728)"/>
</clipPath>
</defs>
</svg>
