<?xml version="1.0" encoding="UTF-8"?><svg id="Layer_1" xmlns="http://www.w3.org/2000/svg" xmlns:xlink="http://www.w3.org/1999/xlink" viewBox="0 0 792 612"><defs><filter id="outer-glow-1" filterUnits="userSpaceOnUse"><feOffset dx="0" dy="0"/><feGaussianBlur result="blur" stdDeviation="5"/><feFlood flood-color="#231f20" flood-opacity=".75"/><feComposite in2="blur" operator="in"/><feComposite in="SourceGraphic"/></filter></defs><path d="M538.33247,453.0003c-59.36313,4.9087-113.22167-29.50357-145.49158-50.12205-20.19959-12.90628-35.55341-25.50197-45.86739-34.67852-80.34349-9.87402-148.30694-59.38681-167.06936-117.50126-13.20343-40.8961-4.58846-93.94025,37.87285-118.50789,34.26014-19.82252,76.395-12.9137,88.59633-10.91305,42.0979,6.90276,73.04866,28.38762,87.03901,38.31097,36.16261,25.65013,32.80712,38.58929,58.47319,50.25243,36.2204,16.45922,52.40364-4.99223,96.80468,4.02082,48.72057,9.88988,101.88979,50.4664,114.40641,95.93999,8.63792,31.38214-4.38959,56.72555-11.60263,70.75755-15.12538,29.42443-39.21934,44.3174-49.23223,50.33407-11.38186,6.83932-32.45951,19.50472-63.92928,22.10695Z" fill="none" opacity=".41" stroke="#030303" stroke-dasharray="0 12" stroke-linecap="round" stroke-linejoin="round" stroke-width="2"/><path d="M634.66967,305.66924c-39.03924,47.84843-103.47356,63.30127-142.08006,72.56-24.16602,5.79558-44.61428,8.19699-58.88452,9.29555-65.16777,52.87704-151.0219,67.99704-207.90403,40.1985-40.0289-19.5623-73.43146-64.15191-61.2271-113.52433,9.84716-39.83639,45.31529-66.32202,55.58608-73.99167,35.43702-26.46239,73.74136-34.11307,91.21377-37.41898,45.16313-8.54521,52.40898,3.26781,79.57934-7.50302,38.34327-15.19998,33.97046-42.71295,72.6397-69.37666,42.43116-29.25768,110.97149-39.76156,153.92363-16.39365,29.64202,16.12664,39.19048,44.08345,44.4772,59.56246,11.08599,32.45871,4.8719,61.15944,2.16069,72.9627-3.08186,13.41705-8.7891,38.26353-29.4847,63.6291Z" fill="none" opacity=".41" stroke="#030303" stroke-dasharray="0 12" stroke-linecap="round" stroke-linejoin="round" stroke-width="2"/><path d="M605.32618,395.70854c-51.70701,36.5912-115.29379,26.69895-153.39248,20.77189-23.84816-3.71007-43.17033-9.61845-56.45699-14.38054-77.06798,31.2104-159.91944,11.97735-201.86025-42.60904-29.51445-38.41335-44.46224-101.74372-16.511-151.26204,22.55262-39.95411,63.71214-54.40326,75.63103-58.58741,41.12342-14.43647,78.39799-6.85669,95.33768-3.19567,43.78615,9.46306,46.2956,25.56937,74.56581,25.0328,39.8954-.75721,45.36236-33.03203,89.47895-46.33732,48.40845-14.59969,114.01497,2.48855,144.87069,46.33732,21.29406,30.26084,20.35753,65.1948,19.83896,84.53687-1.0874,40.55937-16.53923,69.71372-23.03465,81.63834-7.38347,13.55501-21.05668,38.65694-48.46776,58.0548Z" fill="#44b5a4" stroke-width="0"/><polygon points="263.80902 304.86649 281.0415 372.6127 340.80085 350.781 317.63132 284.03156 263.80902 304.86649" fill="none" stroke="#fff" stroke-linecap="round" stroke-linejoin="round" stroke-width="2"/><path d="M320.05555,329.37655c.34824,1.36904.49011,2.72306.45821,4.07021-.16264,6.5639-4.65203,12.47402-11.326,14.17166-8.04652,2.04678-16.21528-2.78094-18.26195-10.82706-2.046-8.04345,2.82246-16.19021,10.86898-18.23699l.10132-.02577c7.99588-2.0339,16.12229,2.83931,18.15944,10.84795Z" fill="#fff" stroke-width="0"/><path d="M320.02466,329.3436c.34825,1.36908.48438,2.74473.45266,4.09275l-14.97506-.55388-3.66792-14.41972c8.13021-2.01089,16.15318,2.87221,18.19032,10.88085Z" fill="#f4db36" stroke-width="0"/><line x1="305.54454" y1="332.87171" x2="313.97928" y2="320.65263" fill="none" stroke="#030303" stroke-dasharray="0 12" stroke-linecap="round" stroke-linejoin="round" stroke-width="2"/><path d="M276.71359,315.77396c-.35586,9.22688-6.70467,17.50548-16.1108,19.8981-11.45795,2.91454-23.10505-4.01258-26.01847-15.46611-2.91454-11.45795,4.00816-23.10393,15.46611-26.01847.1713-.04357.34721-.08832.5208-.12287-.69105,2.88827-.71114,5.98049.07108,9.05567,2.58186,10.1501,12.89886,16.28282,23.04897,13.70096,1.05506-.26837,2.06474-.62132,3.0223-1.04728Z" fill="#fff" stroke-width="0"/><path d="M276.0689,309.6536c.52186,2.05159.72764,4.10667.64469,6.12036-.95756.42596-1.96724.77891-3.0223,1.04728-10.15011,2.58186-20.4671-3.55085-23.04897-13.70096-.78223-3.07518-.76214-6.1674-.07108-9.05567,11.28766-2.58312,22.6267,4.30234,25.49766,15.58899Z" fill="#8cd5e7" stroke-width="0"/><path d="M287.39225,293.77228c2.31348,9.095-2.37123,18.32823-10.67866,22.00169.08296-2.01369-.12283-4.06877-.64469-6.12036-2.87096-11.28665-14.21001-18.1721-25.49766-15.58899,1.57642-6.63752,6.69716-12.19367,13.77204-13.9933,10.1501-2.58186,20.4671,3.55085,23.04897,13.70096Z" fill="#fb4731" stroke-width="0"/><polygon points="247.49545 220.72807 292.9294 234.01412 285.15633 181.69257 247.49545 220.72807" fill="none" stroke="#fff" stroke-linecap="round" stroke-linejoin="round" stroke-width="2"/><polyline points="292.87816 234.16379 348.38748 253.16748 345.2649 200.10435 285.15633 181.69257" fill="none" stroke="#fff" stroke-linecap="round" stroke-linejoin="round" stroke-width="2"/><path d="M282.5415,170.26904c-.04883-.0166-.08545-.0498-.10986-.09912-.02441-.0498-.02734-.09912-.01074-.14844.01074-.03076.02734-.0625.05225-.09473l4.38574-5.18994c.04541-.05322.09326-.08789.14502-.10498.04932-.01758.11133-.01318.18555.01221l.31348.10742c.07422.02539.12549.05957.15527.10449.0293.04443.0459.10156.05029.17188l.28223,6.78809c.00146.04102-.00537.07617-.01611.10742-.0166.04883-.0498.08594-.09766.11035-.0498.02441-.1001.02783-.14893.01123l-.18457-.06348c-.06152-.021-.10254-.0542-.12158-.09814-.01855-.04395-.03125-.08105-.03418-.11035l-.06689-1.67188-3.2666-1.11816-1.07764,1.28027c-.01465.02246-.04395.04541-.08984.06738-.04541.02197-.09912.02295-.16064.00195l-.18457-.06348ZM284.46533,168.50537l2.82324.96631-.16699-4.11865-2.65625,3.15234Z" fill="#fff" stroke-width="0"/><path d="M355.53564,199.22998c-.0625-.02148-.10498-.05615-.12939-.10596s-.02637-.10498-.00537-.1665l2.06934-6.04443c.02295-.06787.05957-.11377.10938-.1377.0498-.02441.10498-.02637.16748-.00537l2.40723.82471c.43066.14697.75684.34521.97754.59229.22168.24707.354.51807.39746.81152.04492.29346.01611.58789-.08496.88281-.09082.26465-.20996.47656-.35742.63574s-.30371.27637-.46973.34961c-.16602.07373-.32178.12012-.46582.13965.2041.20703.35547.479.45312.81445.09863.33691.08105.69824-.05176,1.08594-.10547.30762-.27734.57617-.51855.80664-.24023.23096-.5332.38477-.87939.46191-.34717.07715-.72852.04395-1.14746-.09912l-2.47168-.84619ZM356.10303,198.80518l2.00293.68604c.4541.15576.84766.15674,1.1792.00146.33203-.1543.56006-.41553.68652-.78467.12842-.37549.10938-.72412-.05957-1.04639-.16797-.32227-.47998-.56152-.93408-.71729l-2.00293-.68604-.87207,2.54688ZM357.16455,195.70557l1.91016.65381c.45508.15576.83545.17285,1.14209.05029.30713-.12158.52197-.36426.64648-.72705.12402-.36279.09961-.67725-.07422-.94287-.17432-.26562-.48828-.47656-.94336-.63232l-1.91016-.65381-.771,2.25195Z" fill="#fff" stroke-width="0"/><path d="M351.50684,264.72656c-.55957-.19189-.979-.45752-1.25781-.79639-.27881-.33984-.44043-.72754-.48438-1.16113-.04395-.43408.00781-.89453.15332-1.38086.07959-.25439.16895-.52539.26855-.81494.09863-.28906.19629-.56494.29395-.82764.18262-.47363.42432-.86963.72656-1.18896.30176-.31982.66699-.52588,1.09424-.62061.42725-.09375.9209-.0459,1.48047.146.43652.1499.78857.33838,1.0542.56787.26465.22754.45996.47559.58594.74121.125.26611.1958.53125.2124.79492.01562.2627-.00781.50684-.0708.7334-.01367.05664-.04492.0957-.09668.11621-.05273.01953-.10547.02051-.16113.00098l-.18457-.06299c-.04883-.0166-.08691-.04541-.11475-.08545-.02686-.04004-.03467-.09961-.021-.17676.07031-.58789-.021-1.03906-.2749-1.35254-.25342-.31348-.62598-.55371-1.11816-.72266-.55957-.19141-1.05811-.18555-1.49561.01855-.43848.20361-.78906.64941-1.05078,1.33594-.19141.49854-.36865,1.01514-.53125,1.55029-.21338.70361-.20996,1.27051.01172,1.69971.2207.42969.61084.74023,1.17041.93213.49219.16846.93408.20605,1.32666.11377.39258-.0918.74121-.39209,1.0459-.89941.03711-.07031.07959-.1123.125-.12793.04688-.01465.09473-.01367.14355.00293l.18457.06348c.05566.01855.09668.05176.12598.09961.02832.04785.02979.09766.00488.15137-.08838.2168-.21973.4248-.39355.62305-.17432.19824-.39258.36377-.6543.49805-.2627.13281-.56934.20898-.91797.22656-.34961.01758-.74414-.04785-1.18066-.19775Z" fill="#fff" stroke-width="0"/><line x1="269.88736" y1="226.29286" x2="283.43846" y2="188.73816" fill="none" stroke="#fff" stroke-dasharray="0 12" stroke-linecap="round" stroke-linejoin="round" stroke-width="2"/><polygon points="626.0274 207.75424 621.90875 226.14427 594.13712 229.49102 570.48388 214.44745 574.60261 196.05727 602.37459 192.71059 626.0274 207.75424" fill="none" stroke="#fff" stroke-linecap="round" stroke-linejoin="round" stroke-width="2"/><polygon points="612.40654 275.20683 608.28788 293.59687 580.51625 296.94362 556.86306 281.89985 560.98175 263.50987 588.75372 260.16318 612.40654 275.20683" fill="none" stroke="#fff" stroke-linecap="round" stroke-linejoin="round" stroke-width="2"/><line x1="570.48388" y1="214.44745" x2="560.98175" y2="263.50987" fill="none" stroke="#fff" stroke-linecap="round" stroke-linejoin="round" stroke-width="2"/><line x1="594.03609" y1="229.56744" x2="580.41523" y2="297.02004" fill="none" stroke="#fff" stroke-linecap="round" stroke-linejoin="round" stroke-width="2"/><line x1="621.90875" y1="226.14427" x2="612.40654" y2="275.20683" fill="none" stroke="#fff" stroke-linecap="round" stroke-linejoin="round" stroke-width="2"/><line x1="602.26283" y1="192.7558" x2="601.0752" y2="198.63709" fill="none" stroke="#fff" stroke-linecap="round" stroke-linejoin="round" stroke-width="2"/><line x1="599.73786" y1="205.25966" x2="597.73188" y2="215.19353" fill="none" stroke="#fff" stroke-dasharray="0 0 6.75625 6.75625" stroke-linecap="round" stroke-linejoin="round" stroke-width="2"/><line x1="597.06324" y1="218.50483" x2="595.87562" y2="224.38611" fill="none" stroke="#fff" stroke-linecap="round" stroke-linejoin="round" stroke-width="2"/><path d="M603.61621,183.72949c-.04492-.00879-.08105-.03369-.1084-.07422-.02734-.04102-.03516-.08398-.02637-.12988.00586-.02783.0166-.05811.03516-.08984l3.26074-5.07568c.0332-.05176.07227-.08838.11426-.10938.04297-.02051.09863-.02441.16699-.01074l.28809.05859c.06738.01367.11719.03906.14844.07422.03125.03564.05176.08398.06348.14502l1.03418,5.94336c.00488.03662.00488.06885-.00098.09668-.00879.0459-.03516.08203-.0752.10938-.04102.02686-.08398.03516-.12988.02588l-.16895-.03418c-.05664-.01123-.09668-.03516-.11719-.07227-.02344-.03613-.03613-.06738-.04395-.09229l-.25195-1.46484-3.00488-.60645-.80078,1.25195c-.00977.021-.03516.04443-.07129.06885-.03906.02539-.08496.03174-.14062.02051l-.1709-.03467ZM605.10547,181.95459l2.59766.52441-.62305-3.60742-1.97461,3.08301Z" fill="#fff" stroke-width="0"/><path d="M578.91016,309.22461c-.05566-.01172-.09766-.03809-.125-.07812-.02734-.04102-.03516-.08984-.02344-.14648l1.12305-5.56055c.0127-.06201.03906-.10693.08008-.13428.04102-.02686.08984-.03467.14551-.02344l2.21582.44727c.39551.08008.70703.21631.92969.4082.22266.19336.37109.41602.44336.66895.07324.25293.08105.51562.02637.78711-.04883.24316-.12988.44385-.24023.60156-.11133.15625-.23633.27734-.37305.36133-.1377.08398-.26953.14307-.39355.17676.20312.15918.36719.38037.49219.66455.125.28516.15234.60547.08008.96191-.05762.28223-.17773.54004-.36328.77051-.18457.23047-.4248.39941-.72168.50781-.29492.1084-.63574.12402-1.02051.0459l-2.27539-.45898ZM579.36133,308.78516l1.84277.37207c.41797.08496.76465.03906,1.03809-.13477.27441-.1748.44531-.43164.51367-.77148.06934-.34473.01172-.64941-.17285-.91406-.18457-.26367-.48828-.43848-.90625-.52295l-1.84277-.37207-.47266,2.34326ZM579.9375,305.93311l1.75781.35498c.41797.08447.75586.05518,1.01074-.0874.25586-.14258.41699-.38086.48438-.71533.06738-.33398.00977-.60742-.17383-.82129-.18359-.21338-.48438-.36328-.90332-.44775l-1.75781-.35498-.41797,2.07178Z" fill="#fff" stroke-width="0"/><path d="M615.95605,302.13135c-.51562-.104-.91699-.28906-1.2002-.55566-.28516-.26709-.47168-.58887-.56055-.96582-.08887-.37744-.09766-.78857-.02539-1.2334.04102-.2334.08887-.48242.14258-.74854s.1084-.52051.16309-.76318c.10547-.4375.27344-.81445.50195-1.13086.22949-.31592.52539-.54004.8916-.67236.36426-.13232.80566-.14648,1.32129-.04248.40137.08105.73242.20703.99316.37695.25879.1709.45898.36523.59961.58594.14258.21973.23438.44434.28027.67432.04492.22998.05176.44824.02246.65381-.00488.05225-.0293.09082-.07129.11426-.04297.02344-.09082.03027-.1416.02002l-.16992-.03418c-.0459-.00928-.08203-.02979-.11035-.06201-.02832-.03271-.04297-.08398-.04004-.1543-.00586-.5249-.1377-.91162-.39648-1.1582-.26074-.24707-.61719-.41602-1.06934-.50732-.51562-.104-.9541-.04102-1.31543.18945-.36035.23047-.61719.66357-.77051,1.29785-.11035.46094-.20605.93652-.28809,1.42627-.10547.64453-.03613,1.14307.20703,1.49561s.62305.58057,1.13867.68457c.45215.09131.8457.07324,1.18164-.05322.33496-.12646.60547-.43115.81543-.91309.02441-.06543.05762-.10791.09668-.12598.03906-.01855.08008-.02393.12598-.01465l.16992.03418c.05078.01025.0918.03516.12207.07324.03027.03906.03711.08301.02148.13281-.05273.20166-.14355.39941-.27441.59424-.13086.19385-.30273.36572-.51953.51318-.21484.14795-.47559.25-.78027.30664-.30664.05566-.66016.04297-1.06152-.03809Z" fill="#fff" stroke-width="0"/><circle cx="461.86312" cy="216.36399" r="14.18818" transform="translate(-38.34658 116.75892) rotate(-13.83936)" fill="#f3eae8" stroke-width="0"/><polyline points="495.10612 178.46651 453.89542 221.43641 518.43294 221.43641" fill="none" stroke="#fff" stroke-linecap="round" stroke-linejoin="round" stroke-width="2"/><path d="M476.90405,197.44575s11.98159,5.25821,9.26013,24.34394" fill="none" stroke="#fff" stroke-linecap="round" stroke-linejoin="round" stroke-width="2"/><path d="M503.10118,192.141c0,1.47122-1.19254,2.66396-2.66377,2.66396-1.47161,0-2.66412-1.19274-2.66412-2.66396,0-1.47138,1.19251-2.66392,2.66412-2.66392,1.47122,0,2.66377,1.19254,2.66377,2.66392Z" fill="none" stroke="#fff" stroke-linecap="round" stroke-linejoin="round" stroke-width="2"/><path d="M508.83203,180.65283c-.09766,0-.17578-.03467-.23535-.10498s-.08887-.15381-.08887-.25098c0-.03223.01074-.08105.03223-.14551l4.15918-9.85596h-5.51855c-.10742,0-.19434-.03223-.25879-.09717s-.09668-.15088-.09668-.25879v-.24316c0-.11816.03223-.20996.09668-.2749s.15137-.09717.25879-.09717h6.24707c.11816,0,.20996.03223.27539.09717.06445.06494.09668.15674.09668.2749v.24316c0,.12939-.00781.23438-.02441.31543-.01562.08105-.0459.17529-.08887.2832l-4.09473,9.70996c-.04297.08691-.09375.17578-.15332.26709-.05957.0918-.14844.1377-.2666.1377h-.33984Z" fill="#fff" stroke-width="0"/><path d="M520.03027,180.81445c-.7334,0-1.3457-.11865-1.83691-.35596-.49121-.23682-.88477-.56348-1.18066-.979-.29688-.41504-.51074-.89258-.63965-1.43213-.12988-.53955-.20508-1.10596-.22656-1.69922,0-.2915-.00293-.58789-.00781-.89014-.00586-.30225-.00586-.60693,0-.91455.00488-.30762.00781-.6123.00781-.91455.01074-.59277.08301-1.15918.21875-1.69922.13477-.53906.35059-1.0166.64746-1.43213.2959-.41504.68945-.7417,1.18066-.979s1.10352-.35596,1.83691-.35596,1.3457.11865,1.83691.35596.88477.56396,1.18164.979c.29688.41553.51172.89307.64746,1.43213.13477.54004.20703,1.10645.21777,1.69922.01074.30225.0166.60693.0166.91455v.91455c0,.30225-.00586.59863-.0166.89014-.01074.59326-.08301,1.15967-.21777,1.69922-.13574.53955-.35059,1.01709-.64746,1.43213-.29688.41553-.69043.74219-1.18164.979-.49121.2373-1.10352.35596-1.83691.35596ZM520.03027,179.84375c.95996,0,1.67285-.31836,2.13672-.95508.46387-.63623.70605-1.51025.72754-2.62158.01074-.31299.0166-.60693.0166-.88184v-.82568c0-.2749-.00586-.55811-.0166-.84961-.02148-1.08936-.26367-1.95801-.72754-2.60547s-1.17676-.97119-2.13672-.97119c-.94922,0-1.6582.32373-2.12793.97119s-.71484,1.51611-.73633,2.60547c0,.2915-.00293.57471-.00781.84961-.00586.27539-.00586.55029,0,.82568.00488.2749.00781.56885.00781.88184.02148,1.11133.2666,1.98535.73633,2.62158.46973.63672,1.17871.95508,2.12793.95508Z" fill="#fff" stroke-width="0"/><path d="M469.30957,246.31055c-.44043,0-.83301-.05664-1.17871-.1709-.34668-.11377-.63867-.26514-.87891-.45361-.23926-.18896-.42383-.40283-.55371-.64258s-.19922-.48926-.20703-.74902c0-.0708.02441-.12549.07129-.16504.04688-.03906.10645-.05859.17676-.05859h.16504c.0625,0,.12402.01562.18262.04688.05957.03174.10449.10596.13574.22412.08594.33789.24219.59961.46582.78418s.47949.31055.7666.37695c.28613.06689.57129.10059.85449.10059.60547,0,1.10254-.14551,1.49121-.43652.38965-.29053.58398-.72705.58398-1.30859s-.1748-.99805-.52441-1.25c-.35059-.25146-.82812-.37695-1.43262-.37695h-1.03809c-.07812,0-.1416-.02393-.18848-.0708-.04688-.04736-.07031-.10986-.07031-.18896v-.17676c0-.0625.00977-.11572.0293-.15918.01953-.04297.04492-.08447.07617-.12354l2.42871-2.86523h-3.56055c-.07812,0-.1416-.02344-.18848-.0708-.04688-.04688-.07031-.10986-.07031-.18848v-.17676c0-.08643.02344-.15332.07031-.20068.04688-.04688.11035-.0708.18848-.0708h4.39844c.08594,0,.15332.02393.2002.0708.04688.04736.07031.11426.07031.20068v.17676c0,.04688-.00977.08838-.0293.12354-.01953.03564-.04102.06885-.06445.10059l-2.48828,2.91211h.23633c.54199,0,1.01562.08447,1.4209.25342.4043.16895.71875.42627.94238.77246.22461.3457.33691.78223.33691,1.30859,0,.51855-.12207.96094-.36621,1.32617-.24316.36572-.57715.64502-1.00195.8374s-.9082.28857-1.4502.28857Z" fill="#fff" stroke-width="0"/><path d="M473.9668,246.19287c-.0625,0-.11816-.02344-.16504-.0708-.04688-.04688-.07031-.10205-.07031-.16504,0-.03125.00586-.06494.01758-.1001.01172-.03564.03711-.08057.07617-.13574l2.0752-2.66455-1.96875-2.52295c-.04004-.05518-.06543-.10059-.07715-.13574-.01172-.03564-.01758-.06885-.01758-.1001,0-.06299.02344-.11816.07129-.16504.04688-.04736.10156-.0708.16504-.0708h.24707c.0791,0,.13965.01953.18262.05859.04395.03955.08105.0791.1123.11816l1.76855,2.27539,1.76855-2.26367c.03906-.03906.07812-.08057.11816-.12402.03906-.04297.09766-.06445.17676-.06445h.23535c.06348,0,.11816.02344.16504.0708.04785.04688.07129.10205.07129.16504,0,.03125-.00586.06445-.01758.1001-.01172.03516-.03809.08057-.07715.13574l-1.99219,2.55811,2.0752,2.62939c.03906.05518.06445.1001.07617.13574.01172.03516.01758.06885.01758.1001,0,.06299-.02344.11816-.07031.16504-.04688.04736-.10254.0708-.16504.0708h-.24805c-.07812,0-.13965-.01953-.18262-.05908-.04297-.03906-.08008-.07812-.11133-.11768l-1.86328-2.38184-1.86328,2.38184c-.03125.03955-.06836.07861-.11133.11768-.04395.03955-.10449.05908-.18262.05908h-.23633Z" fill="#fff" stroke-width="0"/><path d="M487.25391,245.80371c-.07812,0-.14062-.02344-.18848-.0708-.04688-.04688-.07031-.10986-.07031-.18848v-2.58203h-2.55859c-.0791,0-.1416-.02393-.18848-.0708-.04785-.04736-.07129-.10986-.07129-.18848v-.16553c0-.07812.02344-.14111.07129-.18848.04688-.04688.10938-.0708.18848-.0708h2.55859v-2.51123c0-.07861.02344-.1416.07031-.18848.04785-.04736.11035-.0708.18848-.0708h.17773c.07812,0,.14062.02344.18848.0708.04688.04688.07031.10986.07031.18848v2.51123h2.57031c.0791,0,.1416.02393.18848.0708.04785.04736.07129.11035.07129.18848v.16553c0,.07861-.02344.14111-.07129.18848-.04688.04688-.10938.0708-.18848.0708h-2.57031v2.58203c0,.07861-.02344.1416-.07031.18848-.04785.04736-.11035.0708-.18848.0708h-.17773Z" fill="#fff" stroke-width="0"/><path d="M498.64355,246.31055c-.44043,0-.83301-.05664-1.17871-.1709-.34668-.11377-.63867-.26514-.87891-.45361-.23926-.18896-.42383-.40283-.55371-.64258s-.19922-.48926-.20703-.74902c0-.0708.02441-.12549.07129-.16504.04688-.03906.10645-.05859.17676-.05859h.16504c.0625,0,.12402.01562.18262.04688.05957.03174.10449.10596.13574.22412.08594.33789.24219.59961.46582.78418s.47949.31055.7666.37695c.28613.06689.57129.10059.85449.10059.60547,0,1.10254-.14551,1.49121-.43652.38965-.29053.58398-.72705.58398-1.30859s-.1748-.99805-.52441-1.25c-.35059-.25146-.82812-.37695-1.43262-.37695h-1.03809c-.07812,0-.1416-.02393-.18848-.0708-.04688-.04736-.07031-.10986-.07031-.18896v-.17676c0-.0625.00977-.11572.0293-.15918.01953-.04297.04492-.08447.07617-.12354l2.42871-2.86523h-3.56055c-.07812,0-.1416-.02344-.18848-.0708-.04688-.04688-.07031-.10986-.07031-.18848v-.17676c0-.08643.02344-.15332.07031-.20068.04688-.04688.11035-.0708.18848-.0708h4.39844c.08594,0,.15332.02393.2002.0708.04688.04736.07031.11426.07031.20068v.17676c0,.04688-.00977.08838-.0293.12354-.01953.03564-.04102.06885-.06445.10059l-2.48828,2.91211h.23633c.54199,0,1.01562.08447,1.4209.25342.4043.16895.71875.42627.94238.77246.22461.3457.33691.78223.33691,1.30859,0,.51855-.12207.96094-.36621,1.32617-.24316.36572-.57715.64502-1.00195.8374s-.9082.28857-1.4502.28857Z" fill="#fff" stroke-width="0"/><path d="M504.64453,248.43311c-.0625,0-.11719-.02344-.16504-.0708-.04688-.04736-.07031-.10205-.07031-.16504,0-.03174.00586-.06494.01758-.1001.01172-.03564.0293-.08105.05273-.13574l.9082-2.12207-2.25195-5.30566c-.04688-.11816-.07031-.19678-.07031-.23584,0-.06299.02344-.11816.07031-.16504.04688-.04736.10254-.0708.16504-.0708h.24805c.07812,0,.13867.01758.18262.05273.04297.03564.07227.07666.08789.12402l1.98145,4.66895,2.02734-4.66895c.02344-.04736.05469-.08838.09473-.12402.03906-.03516.09766-.05273.17676-.05273h.23535c.06348,0,.11816.02344.16504.0708.04785.04688.07129.10205.07129.16504,0,.03906-.02344.11768-.07129.23584l-3.34766,7.72266c-.02441.04688-.05566.08838-.09473.12354-.03906.03564-.09863.05322-.17676.05322h-.23633Z" fill="#fff" stroke-width="0"/><path d="M513.98242,241.52393c-.07812,0-.1416-.02344-.18848-.0708s-.07031-.10986-.07031-.18848v-.16504c0-.07861.02344-.1416.07031-.18896.04688-.04688.11035-.0708.18848-.0708h4.42188c.07812,0,.1416.02393.18848.0708.04688.04736.07031.11035.07031.18896v.16504c0,.07861-.02344.14111-.07031.18848s-.11035.0708-.18848.0708h-4.42188ZM513.98242,244.47168c-.07812,0-.1416-.02393-.18848-.0708-.04688-.04736-.07031-.11035-.07031-.18896v-.16504c0-.07812.02344-.14111.07031-.18848s.11035-.0708.18848-.0708h4.42188c.07812,0,.1416.02344.18848.0708s.07031.11035.07031.18848v.16504c0,.07861-.02344.1416-.07031.18896-.04688.04688-.11035.0708-.18848.0708h-4.42188Z" fill="#fff" stroke-width="0"/><path d="M497.33789,354.41895c-.12207-.03711-.20996-.10352-.26074-.2002-.05176-.0957-.05859-.20508-.02051-.32812l.08301-.27539c.03809-.12305.10742-.23242.20996-.3291.10254-.0957.26465-.19824.48535-.30566l6.21777-3.32227c.5957-.28711,1.06641-.55469,1.4082-.79883.3418-.24512.60742-.50977.79492-.79492.18652-.28516.33789-.61816.45312-.99902.25-.82227.20898-1.53809-.12207-2.14844-.33105-.60938-.93359-1.04688-1.80469-1.31152-.55273-.16797-1.06445-.20312-1.53613-.10449-.47266.09766-.88672.31152-1.24023.63965-.35449.32812-.64844.74512-.88281,1.25-.05664.14453-.14453.23438-.2627.27246-.12012.03809-.21484.0459-.28809.02344l-.36816-.1123c-.12402-.03711-.20898-.09961-.25586-.1875s-.05566-.18066-.02637-.2793c.13965-.41406.35742-.82031.65234-1.2207.29492-.39941.66406-.74023,1.10449-1.02246.44043-.28125.9502-.46582,1.52539-.55273.57617-.08691,1.21484-.02344,1.91406.18848.93262.2832,1.63184.68945,2.09375,1.21875.46289.5293.7373,1.11621.82422,1.75879.08594.64355.03027,1.29004-.16699,1.94043-.15234.50391-.36621.94434-.64355,1.32324-.27539.37891-.62207.72363-1.03613,1.03223-.41602.31055-.91406.60547-1.49512.88477l-5.63965,3.07422,6.16895,1.87305c.13574.04102.22852.10938.28027.20508.05078.0957.05566.21289.01465.34766l-.08301.27539c-.03809.12305-.10449.20996-.2002.26172-.09668.05078-.21094.05566-.34668.01465l-7.55078-2.29102Z" fill="#fff" stroke-width="0"/><path d="M508.57129,357.82812c-.12207-.03711-.20996-.10352-.26074-.2002-.05176-.09668-.05859-.20508-.02148-.32812l.08398-.27637c.03711-.12305.10742-.23242.20996-.32812s.26465-.19824.48535-.30566l6.21777-3.32227c.5957-.28809,1.06641-.55469,1.4082-.79883.3418-.24512.60645-.50977.79492-.79492.18652-.28516.33789-.61816.45312-.99902.25-.82227.20898-1.53809-.12207-2.14844-.33105-.60938-.93359-1.04688-1.80469-1.31152-.55273-.16797-1.06445-.20312-1.53516-.10449-.47363.09766-.8877.31152-1.24121.63965-.35449.32812-.64844.74512-.88281,1.25-.05566.14355-.14453.23438-.2627.27246-.12012.03711-.21484.04492-.28809.02344l-.36816-.1123c-.12402-.03711-.20898-.09961-.25586-.18848-.04688-.08789-.05566-.17969-.02539-.2793.13867-.41309.35645-.82031.65137-1.21973s.66406-.74023,1.10449-1.02246c.44043-.28125.9502-.46582,1.52539-.55273.57617-.08691,1.21484-.02344,1.91406.18848.93262.2832,1.63086.69043,2.09375,1.21875.46289.5293.7373,1.11621.82422,1.75879.08594.64258.03027,1.29004-.16699,1.94043-.15332.50391-.36621.94434-.64355,1.32324-.27539.37891-.62109.72266-1.03613,1.03223-.41504.31055-.91406.60547-1.49512.88379l-5.63965,3.0752,6.16895,1.87207c.13574.04102.22852.11035.28027.20605.05078.0957.05566.21191.01465.34668l-.08398.27637c-.03711.12305-.10352.20996-.19922.26074-.09668.05176-.21094.05664-.34668.01562l-7.55078-2.29102Z" fill="#fff" stroke-width="0"/><path d="M529.93359,363.64648c-.12305-.03711-.20898-.10352-.26074-.19922-.05078-.09668-.05859-.20508-.02148-.32812l1.22461-4.0332-3.99609-1.21289c-.12305-.03711-.20996-.10352-.26172-.19922-.05078-.09668-.05762-.20605-.02051-.3291l.07812-.25684c.03711-.12305.10352-.21094.19922-.26172.09668-.05176.20605-.05859.3291-.02148l3.99609,1.21289,1.19043-3.92188c.03711-.12305.10352-.21094.19922-.26172.09668-.05078.20508-.05859.32812-.02148l.27734.08398c.12109.03711.20898.10449.25977.2002.05176.0957.05957.20605.02246.32812l-1.19043,3.92285,4.01465,1.21777c.12207.03711.20898.10449.26074.2002.05078.0957.05762.20508.02051.32812l-.07812.25781c-.03809.12305-.10352.20996-.19922.26172-.09668.05078-.20605.05762-.32812.02051l-4.01465-1.21777-1.22461,4.0332c-.03711.12207-.10352.20898-.2002.26074-.0957.05176-.20605.05762-.32715.02051l-.27734-.08398Z" fill="#fff" stroke-width="0"/><path d="M543.28516,368.3623c-.09766-.03027-.17285-.09277-.22461-.18848-.05078-.09668-.06152-.19336-.03223-.29102.01465-.04883.04102-.09863.0752-.14844.03516-.0498.09766-.1084.18457-.17578l4.50391-3.17773-1.87891-4.875c-.03613-.10449-.05469-.1875-.05566-.24805-.00195-.06055.00488-.11523.01953-.16504.0293-.09766.09277-.17285.18848-.22461.0957-.05078.19238-.06152.29102-.03223l.38672.11719c.12207.03711.20898.09766.25879.17969.04883.08105.08789.16113.11914.2373l1.68262,4.3916,3.83594-2.69727c.08008-.04199.16016-.08789.24316-.1377.08203-.04785.18262-.05469.30664-.0166l.36816.11133c.09766.0293.17285.09277.22461.18848.05078.09668.06152.19434.03223.29199-.01465.04883-.04102.09766-.07617.14746-.03418.0498-.0957.1084-.18262.17578l-4.3252,3.05176,1.99512,5.08984c.03516.10547.05371.1875.05469.24902.00195.06055-.00488.11621-.01953.16504-.0293.09766-.09277.17188-.18848.22363-.09668.05176-.19336.0625-.29102.03223l-.38672-.11719c-.12402-.03711-.20996-.09668-.25879-.17871s-.08789-.16016-.11816-.2373l-1.78125-4.60352-4.03906,2.83789c-.06738.04688-.14453.08984-.23145.13086-.08594.04102-.18945.04297-.31152.00488l-.36914-.11133Z" fill="#fff" stroke-width="0"/><path d="M554.7832,375.67383c-.09863-.03027-.17285-.09375-.22363-.18945-.05176-.0957-.06348-.19336-.0332-.29199.01465-.04883.04004-.09766.0752-.14746.03613-.0498.08398-.1123.14746-.18652l2.42383-2.88477-1.00195-9.35449c-.01855-.20703-.01758-.33984.00098-.40234.0293-.09766.0918-.17285.18848-.22461.09668-.05078.19336-.06152.29102-.03125l.38672.11719c.12305.03711.20996.09375.26074.16895.05078.07617.07812.1543.08008.23535l.87988,8.23145,5.38086-6.33105c.05957-.0625.12793-.1123.20605-.14844.07812-.03711.17773-.03711.30176.00098l.36816.11133c.09766.03027.17285.09277.22461.18848.05078.09668.0625.19336.03223.29102-.01855.0625-.09277.17383-.22168.33594l-8.8916,10.47461c-.05957.0625-.12793.1123-.20605.14844-.0791.03711-.17871.03711-.30176,0l-.36816-.11133Z" fill="#fff" stroke-width="0"/><polyline points="474.75548 346.13228 481.25621 356.79492 489.36448 330.07581 573.16531 355.50629" fill="none" stroke="#fff" stroke-linecap="round" stroke-linejoin="round" stroke-width="2"/><g filter="url(#outer-glow-1)"><path d="M414.96987,245.46807c4.77762,2.15399,9.31168,2.92889,11.3034,2.1537,4.99603-1.94414,3.21786-20.85616-1.65799-27.81339-4.87516-6.95724-25.76449-7.74886-25.03872,7.10251.25185,5.15442,2.94244,9.45996,6.55821,12.80357l-2.52109,27.18185,16.51701-1.97241-5.16082-19.45585Z" fill="#b28b68" fill-rule="evenodd" stroke-width="0"/><path d="M413.58864,226.88733c1.17469-2.29787,2.35252-4.08432,4.02453-5.23965,7.275-.75239,7.96948-2.15564,7.44554-6.54311-1.27293-.69923-5.57987-1.61816-10.26174-1.46224-2.44479-.39428-5.23061.06746-7.79362,1.51815-3.21741,1.3426-5.79397,3.71441-6.58466,7.67308-3.57834,8.31546.80884,16.00289,5.74871,18.21799,1.05348-1.60024,1.9561-3.13695,2.75097-4.59972-.85758-.65808-1.45878-1.64763-1.59703-2.80534-.27233-2.28052,1.35543-4.35,3.63615-4.62235.16793-.02005.33428-.0298.49902-.02978.44304,2.83907,2.01756,12.43516,3.52639,15.65352,1.78003,3.79415,9.52741,3.85278,12.18871,3.53498,2.29931-.27458,1.96088-2.44215,1.71814-3.99558-.03439-.2238-.06796-.43471-.09074-.62548-.04759-.39854-.56568-.33563-1.15122-.26452-.76029.09232-1.63411.19842-1.73831-.67416-.11359-.95124,1.11376-1.83778,2.21195-2.63114.68499-.49496,1.32055-.95372,1.54805-1.36913.71881-1.31073.81473-2.97412-.48667-2.81871-.71161.08498-1.63851.61162-2.75436,1.24535-1.68387.95663-3.79653,2.15704-6.24449,2.44936-4.04391.48291-6.56343-12.44976-6.59531-12.61152Z" fill="#191947" fill-rule="evenodd" stroke-width="0"/><path d="M516.4815,260.30154c.84663-.56589,1.95478-1.8041-1.16595-2.03478-3.12072-.23069-6.39275-.61412-6.65819-1.73235-.11627-.48954.213-.95238.56585-1.44767.45315-.63667.94481-1.32721.58265-2.19964-.42971-1.03511-3.50084.93032-9.21315,5.89525l-18.21674,4.51434,2.38526,10.05031,19.23775-10.09817c4.88606-.55551,9.04698-1.53829,12.48253-2.94728Z" fill="#b28b68" fill-rule="evenodd" stroke-width="0"/><path d="M492.85927,260.60007c.42335,2.71869.84667,5.43736,1.27003,8.15605-7.5016,4.32137-18.74553,9.5794-33.18875,12.2173-23.98713,4.38097-43.61403-.87301-53.3881-4.25754,6.02766-6.69362,12.05535-13.38725,18.08301-20.08086,7.70263,3.51249,21.13916,8.40281,38.38348,8.46552,12.04295.04381,21.96131-2.2814,28.84034-4.50047Z" fill="#424967" stroke-width="0"/><path d="M402.49956,470.31081v16.17596h-2.58817l-.71893-1.0784-1.15028,1.0784s-22.14309,3.88223-22.07121.9346c.0719-2.94761,12.797-7.405,13.7316-12.14995.93462-4.74495,1.0784-6.2547,1.0784-6.2547l11.7186,1.29408Z" fill="#414042" stroke-width="0"/><path d="M415.6673,470.31081v16.17596h2.58817l.71891-1.0784,1.1503,1.0784s22.14309,3.88223,22.07119.9346c-.07188-2.94761-12.79698-7.405-13.7316-12.14995-.93459-4.74495-1.07838-6.2547-1.07838-6.2547l-11.7186,1.29408Z" fill="#414042" stroke-width="0"/><polygon points="417.67889 328.02244 435.00641 326.42186 436.73549 340.50702 431.32185 476.08138 412.94702 476.08138 409.16798 338.6829 417.67889 328.02244" fill="#2b1a12" stroke-width="0"/><path d="M422.40879,328.02244s-.67057,16.32051-7.09703,18.404l-11.53132,129.65494h-19.54415v-140.37613l38.1725-7.68281Z" fill="#3c2415" stroke-width="0"/><path d="M405.2307,250.65103c-2.36941.58619-4.73879,1.17236-7.1082,1.75855l-.82133,2.70881,5.47553,74.63289s16.28966,6.02308,29.02025,0l-3.83287-38.2906-3.77231-34.39692c-2.4593-1.98793-4.91862-3.97585-7.37792-5.96378-.71235.58487-2.12427,1.56831-4.13043,1.88562-4.0088.63407-6.99506-1.92872-7.45272-2.33457Z" fill="#5c94ae" stroke-width="0"/><path d="M424.19178,257.06377l1.33333-1.93331s7.50382,3.57597,9.83092,5.4924c0,0,3.96974,15.60523.54756,46.81569l6.84438,33.94824s-4.23549,3.83287-11.42613,3.28531c0,0-5.51801-27.2397-5.34708-35.454,0,0,4.31806-32.95913-1.78299-52.15434Z" fill="#424967" stroke-width="0"/><path d="M428.34651,261.94791h2.93921l2.14265,1.81409s-1.28267,31.46053-6.35129,40.79815l.42315-14.24601.84628-28.36623Z" fill="#343a54" stroke-width="0"/><path d="M420.66913,254.20882c1.21975,4.64701,2.31875,9.62189,3.2165,14.90791,2.55346,15.03488,2.80919,28.6432,2.08916,40.10138,0,0,5.85848-17.15485,5.31092-47.2702l-5.76061-6.81745c-2.11036-.69582-4.22075-1.39166-6.33112-2.08749.49171.38861.98344.77724,1.47515,1.16585Z" fill="#565f86" stroke-width="0"/><path d="M397.36772,256.02545l-1.16166-2.93142s-9.99283,3.88208-15.74212,8.85388l4.38042,43.16355-6.15996,32.44246s10.35362,15.11756,36.95975,5.88618c0,0,2.35364-27.2407,1.99814-36.00155l-18.60057-48.45834-1.67402-2.95476Z" fill="#424967" stroke-width="0"/><path d="M393.78938,261.94791l-1.90443,3.42365s18.74503,28.04567,25.75735,42.06699l-18.01684-43.67655-4.95696-3.13914-.87913,1.32505Z" fill="#343a54" stroke-width="0"/><path d="M405.17248,319.02478l6.22833-.23051s4.58497.03063,6.05905-4.20867l1.74196.38033s.73184,4.52918,2.08004,4.51771c1.3482-.01149.35334-6.10086.35334-6.10086,0,0,.84513,5.56732,2.18598,5.49308,1.34085-.07426-.02445-6.428-.02445-6.428,0,0,1.0183,5.42164,2.12022,5.41754,1.10192-.00407.03833-6.53663.03833-6.53663,0,0-6.56446-3.6353-7.56236-3.54735-.99789.08798-6.95219,3.6685-6.95219,3.6685l-4.94122.09624-1.32703,7.47862Z" fill="#b28b68" stroke-width="0"/><path d="M384.82173,259.07571s-4.12134.26592-8.52645,9.53236-13.8805,36.6213-10.44771,41.43408c3.43281,4.81278,23.52775,11.39058,39.62193,14.25542l2.94918-13.50749-26.5939-8.46856,4.68422-22.09588s1.31222-15.63596-1.68727-21.14994Z" fill="#495371" stroke-width="0"/><path d="M398.12249,252.40958s17.13756,37.09664,19.51982,55.02896c0,0-17.60337-37.59496-24.72155-45.49064l3.28531-8.85388,1.91642-.68444Z" fill="#565f86" stroke-width="0"/></g></svg>