<?xml version="1.0" encoding="UTF-8"?><svg id="Layer_1" xmlns="http://www.w3.org/2000/svg" viewBox="0 0 1224 792"><g opacity=".46"><path d="M615.20364,87.81945c3.05942-.13817,6.01261,1.17398,7.95725,3.54274l30.94068,37.59519c3.42532,4.14939,2.82554,10.2892-1.3308,13.70207-4.14922,3.41603-10.2789,2.83493-13.70218-1.33368l-22.6932-27.56073-20.11704,29.49413c-3.02767,4.4501-9.08578,5.58219-13.5262,2.56337-4.44994-3.02419-5.59781-9.08508-2.56337-13.5262l27.42938-40.2313c1.72319-2.53441,4.54551-4.10739,7.60547-4.24559Z" fill="#345dab" stroke-width="0"/><path d="M615.20364,87.81945c5.37727-.24285,9.92284,3.9099,10.16572,9.28774l4.83292,107.01312c.24285,5.37724-3.90974,9.9263-9.287,10.16915-5.37784.24287-9.92646-3.91322-10.16931-9.29047l-4.83292-107.01312c-.24287-5.37784,3.91276-9.92355,9.2906-10.16643Z" fill="#345dab" stroke-width="0"/><path d="M439.13857,290.73711c2.96448-.13388,5.94142,1.07513,7.96706,3.5423,3.42531,4.1488,2.82554,10.28863-1.33369,13.70161l-27.56071,22.69377,29.49413,20.11704c4.44995,3.02422,5.60072,9.08495,2.56335,13.52623-3.02782,4.4466-9.0958,5.57857-13.52618,2.56334l-40.23133-27.42936c-2.53439-1.72319-4.11028-4.54538-4.24847-7.60536-.13817-3.05942,1.17689-6.01274,3.54563-7.95736l37.59509-30.94358c1.68853-1.3878,3.70379-2.11688,5.73512-2.20862Z" fill="#45b0e4" stroke-width="0"/><path d="M401.5532,321.67736l107.01255-4.8329c5.37783-.24287,9.92646,3.91322,10.16931,9.29047.24287,5.37784-3.91276,9.92354-9.2906,10.16641l-107.01255,4.8329c-5.37784.24287-9.92631-3.90974-10.16918-9.28757-.24285-5.37724,3.91263-9.92643,9.29047-10.16931Z" fill="#45b0e4" stroke-width="0"/><path d="M808.83954,274.04068c2.0342-.09187,4.1041.45272,5.91088,1.68266l40.23475,27.42864c2.53441,1.72319,4.10683,4.54611,4.245,7.60552.13819,3.05998-1.17339,6.01258-3.54215,7.9572l-37.59851,30.94431c-4.13622,3.42183-10.28533,2.83467-13.70222-1.33366-3.42241-4.14954-2.82554-10.2892,1.33368-13.70222l27.56418-22.6939-29.4976-20.11691c-4.44994-3.02417-5.59781-9.08508-2.56334-13.52561,1.795-2.63972,4.65089-4.11215,7.61535-4.24603Z" fill="#45b0e4" stroke-width="0"/><path d="M742.04831,306.29993l107.01602-4.83305c5.37436-.24272,9.92299,3.91338,10.16583,9.29062.24287,5.37784-3.91276,9.92354-9.28712,10.16626l-107.01602,4.83305c-5.37436.24272-9.92342-3.90987-10.16629-9.2877-.24285-5.37724,3.91322-9.92646,9.28758-10.16918Z" fill="#45b0e4" stroke-width="0"/><path d="M478.92781,428.47013c.45557-.02057.92171-.01262,1.38957.03297,5.35432.52096,9.2738,5.28554,8.75286,10.64045l-3.44846,35.54027,35.08459-6.6415c5.31639-.96113,10.38461,2.47251,11.38569,7.7616.99803,5.28629-2.47555,10.38184-7.76173,11.38278l-47.84505,9.05195c-3.07848.5764-6.12732-.32307-8.38044-2.38148-2.26568-2.06653-3.41981-5.08065-3.13007-8.13093l4.70568-48.46987c.47478-4.88702,4.47792-8.57084,9.24736-8.78624Z" fill="#11b470" stroke-width="0"/><path d="M546.48574,397.85151c2.48977-.11244,5.02239.72389,7.00873,2.53912,3.97032,3.62999,4.24826,9.7841.6213,13.7572l-72.25316,79.08803c-3.62983,3.9738-9.78741,4.25189-13.75777.62133-3.9732-3.62984-4.25113-9.78397-.6213-13.7572l72.25376-79.08805c1.81461-1.98688,4.26153-3.04811,6.74844-3.16042Z" fill="#11b470" stroke-width="0"/><polygon points="728.97611 164.99248 776.82162 155.9376 772.11568 204.40112 728.97611 164.99248" fill="#fff" stroke-width="0"/><path d="M776.3822,146.20771c2.56621-.11589,5.09203.78806,7.00873,2.53914,2.2628,2.06666,3.41693,5.08076,3.12716,8.13107l-4.70218,48.46972c-.52094,5.35489-5.27724,9.25138-10.64043,8.75284-5.3543-.52039-9.2703-5.2851-8.75283-10.63984l3.45136-35.54043-35.0875,6.64163c-5.27474,1.03582-10.38114-2.47269-11.3828-7.76173-1.00094-5.28616,2.47266-10.38171,7.75882-11.38265l47.84855-9.05211c.46183-.08755.91554-.13707,1.37111-.15764Z" fill="#f8ac24" stroke-width="0"/><path d="M776.82162,155.9376l-72.2537,79.08865,72.2537-79.08865Z" fill="#fff" stroke-width="0"/><path d="M776.3822,146.20771c2.48977-.11244,5.02241.72392,7.00873,2.53914,3.9703,3.6294,4.24826,9.7841.6213,13.75717l-72.25314,79.08862c-3.62999,3.96976-9.7876,4.24785-13.75774.62133-3.97326-3.63043-4.25119-9.78453-.62133-13.75776l72.25373-79.08806c1.81463-1.98689,4.26155-3.04813,6.74844-3.16044Z" fill="#f8ac24" stroke-width="0"/><path d="M781.63044,414.79949c4.76944-.2154,9.08891,3.09255,10.00227,7.91689l9.05211,47.84855c.56354,3.01175-.3142,6.11763-2.3815,8.37985-2.07055,2.25367-5.04603,3.41536-8.13107,3.12717l-48.46972-4.70218c-5.35487-.52037-9.27364-5.28207-8.75327-10.63693.52083-5.35782,5.25326-9.28221,10.63682-8.75618l35.54333,3.4518-6.64093-35.08461c-.99803-5.28632,2.47253-10.38464,7.7581-11.38612.46185-.08758.92885-.13767,1.38385-.15822Z" fill="#11b470" stroke-width="0"/><path d="M711.58469,390.39532c2.48977-.11244,5.02239.72389,7.0093,2.53909l79.08803,72.25316c3.97032,3.62999,4.24826,9.78412.6213,13.7572-3.62981,3.9738-9.78394,4.25173-13.75717.6213l-79.0886-72.25314c-3.97323-3.62986-4.25116-9.78397-.6213-13.7572,1.81518-1.98691,4.25865-3.04798,6.74844-3.16042Z" fill="#11b470" stroke-width="0"/><circle cx="625.74818" cy="321.30201" r="136.33814" fill="#fff" stroke-width="0"/><path d="M619.15785,175.3757c3.40963-.15399,6.90986-.21577,10.42881-.08118,2.63255.08181,5.0223,1.14502,6.85734,3.00132,1.74999,1.87347,2.74002,4.36248,2.65791,7.00141-.15104,5.27383-4.23802,9.64414-10.00066,9.41945-3.21825-.05245-6.24377-.01153-9.06469.11587-69.55036,3.23675-123.807,62.62222-120.75781,132.18105,3.23786,69.65242,62.62204,123.80353,132.18102,120.75781,69.65227-3.24133,123.80813-62.52013,120.75783-132.18102-1.81015-40.08136-21.85903-76.12373-55.16066-98.88563,0,0-.0926.00418-.09733-.10058-2.11393-1.45506-3.57441-3.63568-4.077-6.14557-.50735-2.61579.06288-5.17122,1.51358-7.38122,2.93283-4.22539,9.21475-5.48824,13.53605-2.56381,37.81543,25.78726,61.67655,68.47148,63.74166,114.19814,3.63372,80.45969-58.87627,148.88291-139.33542,152.5166-80.44987,3.63327-148.88579-58.87616-152.51951-139.33586-3.63327-80.44987,58.889-148.88348,139.33887-152.51676ZM667.12054,181.78529c1.15895-.05234,2.24416.09992,3.33495.43989l.0955-.00431c2.46853.76557,4.50034,2.52133,5.66928,4.81025,1.18586,2.3804,1.39738,5.00955.63487,7.48144-1.52852,4.94387-7.24795,7.92386-12.29169,6.30413q-.00431-.09553-.09982-.09121c-2.37679-.77666-4.40567-2.53195-5.5732-4.72526-1.18311-2.38398-1.39709-5.00319-.53558-7.47951,1.19447-3.85048,4.77661-6.55526,8.76569-6.73542Z" fill="#8251a1" stroke-width="0"/></g><path d="M621.15513,338.75723l-3.10452,12.93299c-.06062.25252-.13338.55562-.21851.80261-.31568.99257-.71734,1.80472-1.20459,2.43553l-8.04884,12.76132c-.77938,1.20214-1.70615,1.83478-2.51221,1.64129-.78159-.18762-1.34467-1.17789-1.46899-2.59696l-1.50148-15.26743c-.11139-.93495-.01537-1.9806.23932-3.04163l3.16513-13.18551c.66697-2.77849,2.31184-4.78811,3.65515-4.46565l9.76978,2.3452c1.34331.32245,1.89671,2.85976,1.22974,5.63825Z" fill="#b28b68" stroke-width="0"/><path d="M669.94755,295.03967l-5.54068-3.64852-.70337-4.48271,4.16027-5.20196c1.38301-1.71699,1.52578-4.10917.36353-6.00572l-6.10942-10.03997c-1.17451-1.84549-3.37087-2.80418-5.52849-2.35158l-6.524,1.34585-3.72568-2.6738-.68481-6.58088c-.22429-2.21078-1.83127-4.05212-3.97242-4.5661l-11.42-2.74133c-2.14116-.51398-4.40888.39726-5.61228,2.26533l-3.64854,5.54067-4.48239.70348-5.20218-4.16067c-1.71707-1.38271-4.10928-1.52548-5.99354-.41424l-10.05192,6.1605c-1.89686,1.16221-2.80449,3.37079-2.35159,5.52849l1.34559,6.52362-2.66159,3.67497-6.64419.72358c-2.15935.23631-4.00103,1.8432-4.51508,3.98466l-2.74133,11.42c-.51398,2.14115.3976,4.409,2.21431,5.60003l5.59173,3.66081.70345,4.48237-4.16034,5.20227c-1.38301,1.71699-1.57677,4.09665-.41424,5.99355l6.1602,10.05185c1.17444,1.84579,3.37087,2.80418,5.52849,2.35158l6.52392-1.34551,3.67462,2.66154.73595,6.59279c.22429,2.21078,1.83118,4.05246,3.97234,4.56644l11.42,2.74133c2.14116.51398,4.40896-.3976,5.61236-2.26567l3.59741-5.55259,4.53344-.69123,5.20226,4.16034c1.71707,1.38271,4.10921,1.52578,5.99354.41424l10.00113-6.17238c1.89658-1.16257,2.8552-3.35862,2.4023-5.51632l-1.34551-6.52393,2.66151-3.67463,6.59314-.73588c2.21047-.22432,4.05216-1.83126,4.56614-3.97241l2.74133-11.42c.51405-2.14146-.39753-4.40926-2.26537-5.61228ZM620.06293,315.74058c-11.26721-2.70465-18.20226-14.02126-15.49768-25.28817,2.70464-11.26717,14.02096-18.20233,25.28817-15.49768s18.20233,14.021,15.49769,25.28817c-2.70458,11.26691-14.02096,18.20234-25.28817,15.49768Z" fill="#f99b26" stroke-width="0"/><path d="M443.59983,247.58842c-.82278.00177-1.64533-.27136-2.46897-.54311l-15.92222-9.01441c-2.19666-1.36593-3.02534-4.1063-1.93352-6.5759l7.10307-11.80695c-2.20016-2.73659-3.85107-5.47519-5.22881-8.76224l-13.70931.02951c-2.74131.0059-4.93975-2.18365-4.94565-4.92523l-.03955-18.37054c-.0059-2.74241,2.18309-4.94056,4.9244-4.94647l12.88626-.02774c.54516-1.6462,1.36381-3.56732,2.45685-5.21552,1.09276-1.64654,1.91345-2.74544,2.73304-3.84434l-6.87972-11.50085c-.55024-1.09623-.82754-2.46547-.55555-3.56319.2714-1.37207,1.09241-2.19607,2.18694-3.02121l15.88378-9.35641c1.09595-.55024,2.4652-.82726,3.56292-.55555,1.09717.27199,2.19607,1.09268,3.02067,2.18721l6.60537,11.50227c3.28966-.55551,6.85374-.56318,10.14577-.02184l6.82841-12.07989c1.36676-2.19638,4.38147-3.02593,6.57703-1.65917l15.9225,9.0144c2.19721,1.36676,3.02535,4.10658,1.93326,6.57673l-6.82755,12.35259c1.92468,2.46366,3.57558,5.20225,4.95273,8.21579l14.25857-.03152c2.74213-.0059,4.94057,2.18309,4.94648,4.9244l.03955,18.37081c.0059,2.74213-2.18309,4.94056-4.92523,4.94647l-14.25857.03069c-.54433,1.64619-1.36357,3.29352-2.45661,4.94089-.8196,1.09835-1.36676,2.19666-1.9126,3.0198l7.43056,12.87142c.54996,1.09595.82809,2.46602.55527,3.56292-.27171,1.098-1.09158,2.1969-2.18694,3.02121l-15.88296,9.3564c-1.09595.55024-2.46601.82837-3.56291.55555-1.37207-.2714-2.1969-1.09158-3.02121-2.18721l-6.88118-12.04955c-3.28855.55496-6.30505.56145-9.59565.29501l-7.37565,12.62895c-1.09536.82597-2.73805,1.65229-4.38305,1.65583h0ZM459.36981,186.1347c-.82195.00177-1.91936.00413-2.74072.28025-2.74037.82896-4.93054,2.47868-6.2973,4.67508-1.36534,2.47018-1.90814,5.21405-1.07918,7.95387.82785,2.74036,2.47759,4.93026,4.9486,6.29642,2.47074,1.36563,5.21346,1.6338,7.95442,1.07947,2.73954-.82814,4.92971-2.47786,6.02212-4.67366,1.36617-2.47101,1.90814-5.21434,1.08001-7.9547-.82868-2.73955-2.47842-4.92971-4.94915-6.29588h0c-1.64737-1.09442-3.29297-1.3644-4.9388-1.36086Z" fill="#49c2c6" fill-rule="evenodd" stroke-width="0"/><path d="M459.16121,216.29687c-3.56436.00767-6.8567-.80802-9.87649-2.72089-4.6674-2.73128-7.96628-6.83782-9.34814-12.04424-1.3827-5.20698-.57113-10.41811,2.16096-15.08634,2.73215-4.39304,6.83868-7.69192,12.04483-9.07461,5.20725-1.38187,10.41753-.84438,15.08575,1.88689,4.66658,2.73211,7.96626,6.83809,9.34814,12.04507,1.38187,5.20698.5703,10.41811-2.16125,15.08552-2.45774,4.66681-6.83781,7.96682-12.04477,9.34813-1.64524.27789-3.28967.55634-5.20902.56047h0ZM459.36981,186.1347c-.82195.00177-1.91936.00413-2.74072.28025-2.74037.82896-4.93054,2.47868-6.2973,4.67508-1.36534,2.47018-1.90814,5.21405-1.07918,7.95387.82785,2.74036,2.47759,4.93026,4.9486,6.29642,2.47074,1.36563,5.21346,1.6338,7.95442,1.07947,2.73954-.82814,4.92971-2.47786,6.02212-4.67366,1.36617-2.47101,1.90814-5.21434,1.08001-7.9547-.82868-2.73955-2.47842-4.92971-4.94915-6.29588h0c-1.64737-1.09442-3.29297-1.3644-4.9388-1.36086Z" fill="#2aa5a6" fill-rule="evenodd" stroke-width="0"/><path d="M710.73364,512.14283c10.20769,0,18.48171,8.27403,18.48171,18.48171v106.26986c0,10.20769-8.27403,18.48171-18.48171,18.48171h-132.83732c-10.20769,0-18.48171-8.27403-18.48171-18.48171v-106.26986c0-10.20769,8.27403-18.48171,18.48171-18.48171h132.83732ZM692.25192,544.48583c2.55165,0,4.62043,2.06878,4.62043,4.62043v69.30643c0,2.55165-2.06878,4.62043-4.62043,4.62043h-95.87389c-2.55163,0-4.62043-2.06878-4.62043-4.62043v-69.30643c0-2.55165,2.0688-4.62043,4.62043-4.62043h95.87389Z" fill="#c5cfd6" fill-rule="evenodd" stroke-width="0"/><path d="M444.87533,649.60059c22.77398-27.81035,38.18334-48.42785,46.2282-61.85136,13.775-22.9855,25.04884-43.43898,28.60657-51.25212,8.48426-18.63072-19.53159-27.35409-25.87209-18.66423-9.59674,13.15205-30.09169,54.54071-61.48519,124.16362l12.52252,7.60408Z" fill="#b28b68" fill-rule="evenodd" stroke-width="0"/><path d="M491.54328,641.51484l42.38388-106.68917c9.06529-19.44853-34.71189-32.23326-41.37397-23.18185-15.12498,20.5482-51.07364,101.61016-55.57994,107.73225l54.57004,22.13877Z" fill="#523466" fill-rule="evenodd" stroke-width="0"/><path d="M604.42566,620.11877c-8.2567-12.04314-38.28718-52.56083-54.6435-69.3249-4.70013-4.81681-9.28705-9.4407-13.62449-13.75039-12.8933-12.80668-38.56867,8.71988-25.69883,20.38531,32.05077,29.05097,78.81412,68.26917,82.7207,71.76568,5.47636,4.9011,16.43486-1.50744,11.24611-9.07571Z" fill="#b28b68" fill-rule="evenodd" stroke-width="0"/><path d="M599.07636,615.16106c.8005-1.09042,2.34948-1.34916,3.38447-.47822,1.88859,1.58827,4.60425,4.0348,5.58493,5.73281,1.56171,2.70524,3.65707,8.41725,3.65707,8.41725-3.13842,1.81236-56.42121,32.57516-56.42121,32.57516,0,0-6.39698-6.00075-1.99371-9.31591,4.40326-3.31632,7.26794-5.59304,7.26794-5.59304l19.47511-26.83083c.38233-.52672,1.12391-.63417,1.63909-.23682l4.04635,3.11535s5.56877-.48516,8.31099-2.06881c1.66914-.9645,3.70905-3.48957,5.04898-5.31695Z" fill="#a7a9ac" fill-rule="evenodd" stroke-width="0"/><path d="M451.4703,644.1531c1.23793-.54407,2.70907.00694,3.17019,1.2787.84103,2.31832,1.96957,5.79633,1.96957,7.75654,0,3.12458-1.04098,9.11843-1.04098,9.11843h-65.15018s-2.53954-8.39532,2.93193-9.06527c5.47145-.66882,9.09048-1.20827,9.09048-1.20827l30.28113-13.49972c.59442-.26569,1.29026.01269,1.53826.6145l1.94647,4.72209s5.06515,2.36334,8.23187,2.36334c1.92788,0,4.95657-1.1678,7.03125-2.08034Z" fill="#a7a9ac" fill-rule="evenodd" stroke-width="0"/><path d="M549.17804,540.15418s52.84037-8.60785,70.78613-11.77285c34.10337-6.01348,44.0477-24.36468,38.1682-64.40415h-62.83322c-12.47283,3.60162-104.22936,44.55247-104.22936,44.55247-11.00586,5.46367-8.95623,21.57163-6.94462,26.87935.12314.32459,55.66184,95.37837,55.66184,95.37837l51.39996-32.745-42.10596-54.03013s-1.66798-3.35904.09703-3.85805Z" fill="#8251a1" fill-rule="evenodd" stroke-width="0"/><path d="M454.45208,262.06563c-.89315-1.94733-1.51147-5.38566,4.33599-2.35152,5.84757,3.03416,12.1342,5.96378,13.84491,4.256.74891-.74726.66942-1.93829.5848-3.21558-.10939-1.63802-.22799-3.41675,1.38444-4.57766,1.9126-1.3772,5.24599,5.53097,10.00126,20.72372l27.65942,28.19843-15.3723,15.34383-23.32436-39.31496c-8.14237-6.39189-14.51385-12.74517-19.11415-19.06226Z" fill="#b28b68" fill-rule="evenodd" stroke-width="0"/><path d="M701.03304,523.58764c-3.38446-6.86712-14.91244-73.79749-14.91244-73.79749l-24.13826.09472s22.35593,72.17224,24.13826,76.58823c2.31487,5.73625-1.61714,14.07036-4.28313,19.72231-.41237.8744-.7947,1.68412-1.11929,2.41068,3.69979,1.65528,5.47751-.34535,7.34994-2.4546,2.11616-2.38297,4.3559-4.90341,9.62668-2.45228,2.03645.94836,3.96317,2.06765,5.846,3.16269,6.50326,3.77951,12.47747,7.25291,20.60478,2.23742,1.28797-.7947,2.70066-3.78759-.71154-6.12667-8.49812-5.82751-20.74571-16.02711-22.401-19.38501Z" fill="#b28b68" fill-rule="evenodd" stroke-width="0"/><path d="M627.65725,373.69168l.39889-10.1262c-36.56398-32.5785-99.52548-39.66806-137.74048-80.46923l-12.01485,12.60482c19.92982,76.86623,96.85211,86.47143,149.35645,77.9906Z" fill="#e87725" fill-rule="evenodd" stroke-width="0"/><path d="M661.06403,474.0243h-88.37841c-4.0394,0-3.27819-5.83099-2.69371-8.77419,6.73659-33.96016,33.03838-70.56782,33.03838-118.91055l25.49206-3.99748c21.08647,33.91164,28.37752,75.6653,32.54168,131.68222Z" fill="#dde3e9" fill-rule="evenodd" stroke-width="0"/><path d="M671.00141,498.28155c3.97243,9.54003,7.86744,17.86373,11.53722,24.25725h18.95415c2.03878-65.93466-22.9231-116.67044-43.81553-147.26114,4.63892-.33152,8.82618-2.27325,11.47253-7.04846,9.31709-16.81247,5.95227-26.06916-4.00475-29.11183-5.47521-1.67317-10.62584-.53112-16.78949.83595-5.04436,1.1186-10.76906,2.38795-17.90647,2.38876h-.00693c-.69191,0-1.32146.04632-1.89323.13503l-8.45885.4826s-34.3448,116.40049-18.94375,155.32183h69.85509Z" fill="#f99b26" fill-rule="evenodd" stroke-width="0"/><path d="M671.00141,498.28155c-5.21184-12.51674-10.55537-27.12653-15.6979-42.21455-1.91517,16.61623-5.10326,33.30405-10.41098,42.21455h26.10888Z" fill="rgba(1,1,1,.1)" fill-rule="evenodd" stroke-width="0"/><circle cx="624.52331" cy="295.26152" r="10.30176" fill="#e87725" stroke-width="0"/></svg>