<?xml version="1.0" encoding="UTF-8"?><svg id="Layer_1" xmlns="http://www.w3.org/2000/svg" viewBox="0 0 1224 792"><g opacity=".56"><g opacity=".66"><path d="M450.09635,375.83786c-1.41914,16.63044,5.00941,32.83065,17.34447,47.20599-50.07419,10.06389-86.32109,37.18088-89.279,71.84346-3.61562,42.3701,43.70653,81.94667,109.87674,95.6646,24.34934,25.40478,67.49481,44.3827,117.89254,48.62748,80.83612,6.80847,149.7112-26.8626,153.83659-75.20642.8058-9.44282-.92878-18.74509-4.82762-27.65524,8.17493-9.78705,13.18026-20.86673,14.20282-32.84974,2.17836-25.52733-14.13752-50.0388-41.92043-68.4945,9.00529-10.18052,14.52806-21.82613,15.60787-34.47995,4.12538-48.34378-58.06113-93.05362-138.89724-99.86209-80.83641-6.80849-149.71135,26.86263-153.83673,75.20641Z" fill="#c5e7ea" stroke-width="0"/></g><path d="M541.6126,235.96779c-32.27744,13.45186-47.53862,50.52279-34.08674,82.80026l15.60533-6.50364c-9.78958-23.48988,1.31671-50.46821,24.80658-60.25778,23.48988-9.78958,50.46821,1.31671,60.25778,24.80658l16.21731-6.75868c-13.45188-32.27747-50.52283-47.5386-82.80026-34.08674Z" fill="#f26849" stroke-width="0"/><path d="M596.56703,220.64054c-40.8003-16.79643-87.49169,2.66252-104.28814,43.46285l15.32687,6.30968c13.31171-32.33553,50.3161-47.75736,82.65159-34.44566,32.3355,13.31169,47.75737,50.31606,34.44566,82.65159l15.32687,6.30968c16.79645-40.80033-2.66255-87.4917-43.46285-104.28814Z" fill="#f2c058" stroke-width="0"/><path d="M476.16796,257.82259c-20.42057,49.6037,3.23703,106.36957,52.84073,126.79014l6.56206-15.93994c-40.80033-16.79645-60.25929-63.48784-43.46285-104.28814,16.79643-40.8003,63.4878-60.2593,104.28814-43.46285l6.56206-15.93994c-49.6037-20.42057-106.36959,3.23706-126.79014,52.84073Z" fill="#2bb673" stroke-width="0"/></g><path d="M578.06837,332.68737c6.476,3.9032,12.839,5.789,15.825,5.0192,7.49001-1.9305,8.17801-29.3284,2.38301-40.1296-5.79401-10.8011-35.58501-15.5089-37.086,5.8916-.52101,7.4274,2.597,14.0559,7.20499,19.4646l-8.26199,38.5099h24l-4.065-28.7557Z" fill="#facbca" fill-rule="evenodd" stroke-width="0"/><path d="M586.79637,285.81307c-3.27899-1-8.03999-1.3392-10.04199-1.1097,1.13899-2.7295,1.591-5.7704,1.22299-8.7312-.35899-2.877-1.644-5.3267-2.83299-7.8937-.548-1.18323-1.16901-2.36-2.095-3.26502-.944-.92204-2.138-1.53065-3.39-1.82101-1.28101-.29722-2.621-.27247-3.90401-.00274-.56799.1193-1.077.37887-1.63399.52316-.57001.14784-.847-.20902-1.261-.56766-.99701-.86416-2.459-1.29075-3.72101-1.44343-1.416-.17122-2.88499.04232-4.235.50769-1.314.45304-2.57599,1.1887-3.526,2.26042-.423.47706-.80699,1.02006-1.05699,1.61957-.10201.24602-.119.39177-.36501.48189-.227.08343-.492.08585-.727.16526-2.265.76742-4.203,2.51817-5.258,4.76597-.615,1.3114-.906,3.6203-.827,6.2082.08,2.5879,2.417,9.3404,4.602,11.8034,1.951,2.1984,4.81901,3.6492,7.58601,4.2842-1.83701,2.0995-3.05901,4.7231-3.964,7.3914-.982,2.8983-1.59,5.9099-1.814,8.9784-.213,2.9154-.23299,5.9984.45,8.8516.64,2.6681,2.007,4.857,4.28999,6.2456,1.045.6361,2.17,1.114,3.302,1.5507,1.11501.4304,2.233.8489,3.401,1.0904,2.211.4569,4.758.3784,6.461-1.3812.614-.6343,1.289-1.4314,1.73601-2.2063.161-.2787.259-.46091.06299-.73331-.23399-.32619-.61299-.57619-.91399-.8314-1.71701-1.4551-2.78001-3.3977-3.04701-5.7063-.27199-2.3423.35701-5.3656,2.634-6.3879,2.811-1.2618,5.907.1866,8.40601,1.5367,1.062-3.7477,3.242-7.1222,6.66-8.8413,3.782-1.9019,8.12199-2.1245,12.008-3.7563,1.013-.4252,2.04399-.9079,2.78999-1.7743.31201-.3621.677-.8318.802-1.3108.16301-.629-.243-1.1565-.556-1.6469-1.662-2.6005-7.964-7.8541-11.244-8.8541Z" fill="#f7941d" fill-rule="evenodd" stroke-width="0"/><path d="M551.13338,441.44307l36.631,126.22699,17.229,94.77301h17.293l-17.26199-221h-53.89101Z" fill="#facbca" fill-rule="evenodd" stroke-width="0"/><path d="M534.67138,441.44307c2.556,65.57401,1.548,101.34.976,107.298s-3.82,45.858-25.9503,115.702h17.98631c29.308-67.00299,39.539-106.90399,42.89999-115.702,3.362-8.798,13.289-44.56401,27.783-107.298h-63.695Z" fill="#facbca" fill-rule="evenodd" stroke-width="0"/><path d="M550.34737,441.44307c9.52801,43.435,26.008,112.76801,49.439,208h25.293c1.868-97.746-6.07899-162.08-19.841-208h-54.891Z" fill="#69a1ac" fill-rule="evenodd" stroke-width="0"/><path d="M534.54338,441.44307c2.503,65.57401-3.984,130.177-24.07951,209.021h26.9865c29.362-66.00299,50.40601-130.28699,64.789-209.021h-67.696Z" fill="#89c6cd" fill-rule="evenodd" stroke-width="0"/><path d="M507.13338,677.44307l.9149-14.75101c.0397-.63998.6625-1.078,1.28979-.94501,8.66721,1.84201,20.6213-2.30399,20.6213-2.30399,12.03101,8.522,29.37501,12.43301,35.482,13.604,1.18201.22699,1.94,1.41901,1.612,2.57599l-1.367,4.82001h-56.56819l-1.9848-3Z" fill="#191947" fill-rule="evenodd" stroke-width="0"/><path d="M601.13338,677.44307l.91499-14.75101c.04001-.63998.662-1.078,1.29001-.94501,8.66699,1.84201,20.621-2.30399,20.621-2.30399,12.03099,8.522,29.375,12.43301,35.48199,13.604,1.18201.22699,1.94,1.41901,1.612,2.57599l-1.367,4.82001h-56.56799l-1.985-3Z" fill="#191947" fill-rule="evenodd" stroke-width="0"/><path d="M636.48138,363.13307l-34.71001,19.00999,12.81799,13.758,25.22101-23.09299c13.286-3.661,19.362-6.34,18.228-8.036-.957-1.429-2.49899-1.38-3.92-1.334-1.10699.036-2.14.069-2.765-.60101-1.42599-1.531,1.295-6.8836,4.095-11.8525,2.799-4.96889-.194-4.53629-1.90601-3.82169-5.60199,3.7924-11.289,9.1157-17.06099,15.9702ZM671.38037,389.80707l-15.24699,8.37601.868,15.29999s9.875-7.127,18.37001-9.49599c10.83301-3.02,15.215-5.326,20.508-12.071,2.832-3.60901,5.23599-10.86301,2.54001-13.22501-1.034-.907-4.88702,1.234-8.81802,3.419-2.996,1.665-6.03799,3.355-7.91199,3.741-2.522.519-2.22699-2.75101-1.991-5.36301.16901-1.875.30798-3.41199-.647-2.96799-4.463.077-7.67101,12.28699-7.67101,12.28699Z" fill="#facbca" fill-rule="evenodd" stroke-width="0"/><path d="M584.86737,377.90806c12.158-.128,28.37001-2.696,45.668-13.67599l6.79401,15.15c-11.93199,11.841-28.71001,21.57099-43.38,21.159-11.56099-.32501-17.46899-14.30901-9.082-22.63301Z" fill="#2c3896" fill-rule="evenodd" stroke-width="0"/><path d="M552.07838,481.70207c-11.55801-1.507-22.17901-2.892-28.47201-1.653-7.0617-22.933-1.1981-37.37201,4.215-50.701,3.26199-8.034,6.361-15.664,6.368-24.508.019-25.755,20.698-65.397,23.741-65.397h27.74701c1.23999,15.9374,6.53499,33.193,11.86299,50.56,1.245,4.05501,2.491,8.117,3.688,12.16901,20.16499,4.578,64.94099-11.356,64.94099-11.356,0,0,11.304,23.386,10.451,33.34399-26.063,13.614-48.39999,19.68401-66.804,20.08501.58501,10.91899-.744,21.31-5.209,30.804-5.983,12.72099-30.89799,9.47299-52.52899,6.653Z" fill="#3c4ca0" fill-rule="evenodd" stroke-width="0"/><rect x="661.6708" y="482.33996" width="4.14122" height="6.17039" transform="translate(172.53552 1144.89996) rotate(-89.49939)" fill="#39bec3" stroke-width="0"/><rect x="682.84454" y="479.58056" width="4.14122" height="12.05968" transform="translate(193.31695 1166.24058) rotate(-89.49753)" fill="#39bec3" stroke-width="0"/><polygon points="707.13425 483.73422 703.02197 483.69816 702.98629 487.83923 711.21397 487.91093 711.28068 479.62816 707.16745 479.59452 707.13425 483.73422" fill="#39bec3" stroke-width="0"/><rect x="702.74841" y="457.64548" width="13.27302" height="4.11336" transform="translate(243.89601 1165.3034) rotate(-89.53137)" fill="#39bec3" stroke-width="0"/><polygon points="707.55586 431.52505 707.48917 439.77656 711.60241 439.8102 711.63621 435.63851 715.77985 435.6102 715.75192 431.46914 707.55586 431.52505" fill="#39bec3" stroke-width="0"/><rect x="750.43653" y="431.19259" width="11.55718" height="4.14116" transform="translate(-2.90442 5.10922) rotate(-.38636)" fill="#39bec3" stroke-width="0"/><rect x="727.32267" y="431.35056" width="11.55718" height="4.14114" transform="translate(-2.90601 4.95336) rotate(-.38636)" fill="#39bec3" stroke-width="0"/><rect x="773.55004" y="431.03481" width="11.55722" height="4.14116" transform="translate(-2.90283 5.26508) rotate(-.38636)" fill="#39bec3" stroke-width="0"/><polygon points="796.65007 430.91652 796.67799 435.05758 800.79898 435.02927 800.84177 439.17774 804.95501 439.13466 804.86939 430.85987 796.65007 430.91652" fill="#39bec3" stroke-width="0"/><rect x="801.03108" y="451.34293" width="4.11375" height="12.18777" transform="translate(-4.74621 8.43496) rotate(-.60001)" fill="#39bec3" stroke-width="0"/><rect x="801.28393" y="475.71745" width="4.11344" height="12.18777" transform="translate(-5.0091 8.45201) rotate(-.60093)" fill="#39bec3" stroke-width="0"/><rect x="801.53647" y="500.09203" width="4.11346" height="12.18769" transform="translate(-5.25704 8.44351) rotate(-.60005)" fill="#39bec3" stroke-width="0"/><rect x="801.789" y="524.46653" width="4.11376" height="12.18772" transform="translate(-5.45419 8.35745) rotate(-.59367)" fill="#39bec3" stroke-width="0"/><rect x="802.01082" y="548.84087" width="4.11346" height="6.2119" transform="translate(-5.66466 8.34433) rotate(-.5925)" fill="#39bec3" stroke-width="0"/><rect x="422.74956" y="390.08073" width="4.14123" height="12.41753" transform="translate(24.90533 817.69864) rotate(-89.50908)" fill="#39bec3" stroke-width="0"/><rect x="447.58372" y="390.29325" width="4.14123" height="12.41753" transform="translate(49.31306 842.74155) rotate(-89.50893)" fill="#39bec3" stroke-width="0"/><rect x="397.91534" y="389.86839" width="4.14121" height="12.41753" transform="translate(.50636 792.66502) rotate(-89.51054)" fill="#39bec3" stroke-width="0"/><rect x="497.25203" y="390.71807" width="4.14121" height="12.41753" transform="translate(98.14609 892.84154) rotate(-89.51069)" fill="#39bec3" stroke-width="0"/><rect x="472.41788" y="390.50559" width="4.14121" height="12.41753" transform="translate(73.73529 867.79659) rotate(-89.51054)" fill="#39bec3" stroke-width="0"/><polygon points="377.29441 389.66937 373.18105 389.63773 373.11793 397.91751 381.34281 397.98819 381.37788 393.84713 377.26277 393.81215 377.29441 389.66937" fill="#39bec3" stroke-width="0"/><rect x="369.82361" y="322.59352" width="11.81902" height="4.11348" transform="translate(48.19934 697.87245) rotate(-89.55882)" fill="#39bec3" stroke-width="0"/><rect x="369.64331" y="346.23105" width="11.81935" height="4.1134" transform="translate(24.38669 721.15051) rotate(-89.55926)" fill="#39bec3" stroke-width="0"/><rect x="369.46333" y="369.86854" width="11.81895" height="4.1134" transform="translate(.571 744.42588) rotate(-89.55924)" fill="#39bec3" stroke-width="0"/><rect x="370.36401" y="251.68092" width="11.81902" height="4.11344" transform="translate(119.64613 628.04625) rotate(-89.55882)" fill="#39bec3" stroke-width="0"/><rect x="370.18392" y="275.31858" width="11.819" height="4.11344" transform="translate(95.83334 651.32397) rotate(-89.55927)" fill="#39bec3" stroke-width="0"/><rect x="370.00376" y="298.95589" width="11.81897" height="4.11344" transform="translate(72.01784 674.59919) rotate(-89.55925)" fill="#39bec3" stroke-width="0"/><rect x="373.32644" y="230.84753" width="6.21178" height="4.11336" transform="translate(140.63641 607.53197) rotate(-89.55881)" fill="#39bec3" stroke-width="0"/><ellipse cx="375.19031" cy="395.86488" rx="13.92249" ry="14.01584" fill="#f1b962" stroke-width="0"/><rect x="331.40489" y="152.04555" width="88.59734" height="86.64336" rx="1.75953" ry="1.75953" fill="#e38126" stroke-width="0"/><rect x="336.73088" y="146.4157" width="88.59747" height="86.64336" rx="1.75953" ry="1.75953" fill="#fbca55" stroke-width="0"/><path d="M363.18805,185.88604l14.01142,13.39771,28.38431-27.80443c1.62689-1.59328,4.23002-1.56094,5.81675.08092,1.58474,1.63782,1.54858,4.26036-.08034,5.8557l-34.05245,33.35681-19.74383-18.88136c-1.64894-1.57517-1.71518-4.19564-.15062-5.85367,1.56876-1.66003,4.17372-1.72068,5.81475-.15167Z" fill="#fff" stroke-width="0"/><path d="M802.83417,418.92897c-7.6891,0-13.92253,6.27512-13.92253,14.01584s6.23344,14.01584,13.92253,14.01584,13.92225-6.27509,13.92225-14.01584-6.23312-14.01584-13.92225-14.01584Z" fill="#3f519d" stroke-width="0"/><path d="M709.17411,471.80691c-7.6891,0-13.92253,6.27512-13.92253,14.01584s6.23344,14.01584,13.92253,14.01584,13.92222-6.27512,13.92222-14.01584-6.23312-14.01584-13.92222-14.01584Z" fill="#f47643" stroke-width="0"/><rect x="817.83139" y="309.34224" width="115.76651" height="98.18783" rx="1.54838" ry="1.54838" fill="#a23f29" stroke-width="0"/><ellipse cx="681.27994" cy="350.4703" rx="12.25178" ry="12.33392" fill="#39bec3" stroke-width="0"/><rect x="843.81218" y="348.58275" width="3.64418" height="5.4298" transform="translate(490.05248 1195.13943) rotate(-89.70942)" fill="#39bec3" stroke-width="0"/><rect x="742.1644" y="345.57879" width="3.64416" height="10.41408" transform="translate(389.45627 1092.99531) rotate(-89.71129)" fill="#39bec3" stroke-width="0"/><rect x="762.99236" y="345.68372" width="3.64418" height="10.41407" transform="translate(410.0764 1113.92836) rotate(-89.71145)" fill="#39bec3" stroke-width="0"/><rect x="700.50853" y="345.36897" width="3.64419" height="10.41408" transform="translate(348.22205 1051.13219) rotate(-89.71145)" fill="#39bec3" stroke-width="0"/><rect x="721.33648" y="345.47384" width="3.64415" height="10.41414" transform="translate(368.84211 1072.06518) rotate(-89.7116)" fill="#39bec3" stroke-width="0"/><rect x="825.4763" y="345.99812" width="3.64418" height="10.41414" transform="translate(471.9269 1176.72248) rotate(-89.71115)" fill="#39bec3" stroke-width="0"/><rect x="783.82036" y="345.78842" width="3.64418" height="10.41415" transform="translate(430.71381 1134.86893) rotate(-89.71284)" fill="#39bec3" stroke-width="0"/><rect x="804.64834" y="345.89328" width="3.64416" height="10.41401" transform="translate(451.3109 1155.79132) rotate(-89.71129)" fill="#39bec3" stroke-width="0"/><polygon points="679.34786 355.89388 682.9668 355.97627 683.04924 352.30127 686.70056 352.31969 686.7187 348.67556 679.5107 348.63939 679.34786 355.89388" fill="#39bec3" stroke-width="0"/><path d="M810.70707,301.48539h112.7759c1.40043,0,2.53741,1.13697,2.53741,2.53741v94.06393c0,1.40054-1.13706,2.5376-2.5376,2.5376h-112.77579c-1.40054,0-2.5376-1.13706-2.5376-2.5376v-94.06365c0-1.40059,1.1371-2.53769,2.53769-2.53769Z" fill="#ea5051" stroke-width="0"/><rect x="829.16097" y="324.71998" width="80.44819" height="11.51297" rx="5.30292" ry="5.30292" fill="#f4a1a9" stroke-width="0"/><rect x="829.42387" y="342.71729" width="80.44822" height="11.51297" rx="5.30289" ry="5.30289" fill="#f4a1a9" stroke-width="0"/><rect x="830.2309" y="363.84522" width="80.44822" height="11.51297" rx="5.30292" ry="5.30292" fill="#f4a1a9" stroke-width="0"/><ellipse cx="502.87009" cy="542.7503" rx="12.25178" ry="12.33392" fill="#6d6e71" stroke-width="0"/><rect x="438.34146" y="537.22773" width="3.64416" height="10.41408" transform="translate(-104.48226 979.85947) rotate(-89.71129)" fill="#6d6e71" stroke-width="0"/><rect x="417.51349" y="537.12281" width="3.64418" height="10.41407" transform="translate(-125.09923 958.92883) rotate(-89.71145)" fill="#6d6e71" stroke-width="0"/><rect x="479.99731" y="537.43754" width="3.64419" height="10.41408" transform="translate(-63.2448 1021.72506) rotate(-89.71145)" fill="#6d6e71" stroke-width="0"/><rect x="459.1694" y="537.33262" width="3.64415" height="10.41414" transform="translate(-83.86171 1000.79448) rotate(-89.7116)" fill="#6d6e71" stroke-width="0"/><rect x="355.02956" y="536.80834" width="3.64418" height="10.41414" transform="translate(-186.95592 896.12999) rotate(-89.71115)" fill="#6d6e71" stroke-width="0"/><rect x="396.68549" y="537.01803" width="3.64418" height="10.41415" transform="translate(-145.70798 938.01011) rotate(-89.71284)" fill="#6d6e71" stroke-width="0"/><rect x="375.85753" y="536.91331" width="3.64416" height="10.41401" transform="translate(-166.3369 917.06346) rotate(-89.71129)" fill="#6d6e71" stroke-width="0"/><polygon points="504.80217 537.32672 501.18323 537.24433 501.10079 540.91933 497.44947 540.9009 497.43133 544.54504 504.63933 544.58121 504.80217 537.32672" fill="#6d6e71" stroke-width="0"/><rect x="758.96651" y="549.58827" width="92.28602" height="92.50973" rx="1.27386" ry="1.27386" fill="#154067" stroke-width="0"/><rect x="754.50467" y="544.84697" width="92.28602" height="92.50973" rx="5.35767" ry="5.35767" fill="#3983c4" stroke-width="0"/><path d="M804.96737,563.42791v31.23192h-31.02375c0,17.249,13.88985,31.23196,31.02375,31.23196s31.02388-13.98296,31.02388-31.23196-13.8897-31.23192-31.02388-31.23192Z" fill="#8bceb7" stroke-width="0"/><path d="M765.69687,586.95075l30.23841.19767.39274-31.42954c-29.84579.19763-30.63114,31.23187-30.63114,31.23187Z" fill="#fbca55" stroke-width="0"/><path d="M236.17065,576.77074v-67.47803h3.76577v-5.38584c0-1.81114,1.46825-3.27935,3.27938-3.27935h21.68461c1.81114,0,3.27935,1.46821,3.27935,3.27935v5.01711h62.90809v67.84676h-94.91721Z" fill="#eda024" stroke-width="0"/><polygon points="247.38561 513.53313 343.07165 513.53313 331.08786 576.77074 236.17065 576.77074 247.38561 513.53313" fill="#f9bb36" stroke-width="0"/></svg>