<?xml version="1.0" encoding="utf-8"?>
<!-- Generator: Adobe Illustrator 28.1.0, SVG Export Plug-In . SVG Version: 6.00 Build 0)  -->
<svg version="1.1" id="Layer_1" xmlns="http://www.w3.org/2000/svg" xmlns:xlink="http://www.w3.org/1999/xlink" x="0px" y="0px"
	 viewBox="0 0 792 612" style="enable-background:new 0 0 792 612;" xml:space="preserve">
<style type="text/css">
	.st0{opacity:0.78;}
	.st1{opacity:0.11;fill:#662D91;enable-background:new    ;}
	.st2{opacity:0.31;fill:#662D91;enable-background:new    ;}
	.st3{fill-rule:evenodd;clip-rule:evenodd;fill:#D5A282;}
	.st4{fill-rule:evenodd;clip-rule:evenodd;fill:#412312;}
	.st5{opacity:0.14;fill:#323340;enable-background:new    ;}
	.st6{fill:#D5A282;}
	.st7{fill:#FFFFFF;}
	.st8{fill:#201F3B;}
	.st9{fill:#3C3C4E;}
	.st10{opacity:0.46;fill:#201F3B;enable-background:new    ;}
	.st11{opacity:0.54;fill:#201F3B;enable-background:new    ;}
	.st12{opacity:0.35;fill:#201F3B;enable-background:new    ;}
	.st13{fill:#F26822;}
	.st14{opacity:0.18;fill:#201F3B;enable-background:new    ;}
	.st15{opacity:0.18;fill:#201F39;enable-background:new    ;}
	.st16{fill:#F2AD1D;}
	.st17{fill:#55C1AE;}
	.st18{fill:#F1F9F8;}
	.st19{fill:#00B59C;}
	.st20{fill:#7CCCC1;}
	.st21{fill:#E3E8E6;}
	.st22{opacity:4.000000e-02;fill:#030303;enable-background:new    ;}
	.st23{fill:#CD5928;}
	.st24{fill:#F9EFDD;}
	.st25{opacity:0.42;fill:#010101;enable-background:new    ;}
	.st26{opacity:0.35;}
	.st27{fill:#F9A11B;}
	.st28{opacity:0.19;fill:#F9A11B;enable-background:new    ;}
	.st29{fill:#E98D24;}
	.st30{fill:#FCE586;}
	.st31{opacity:0.32;fill:#FEF8E7;enable-background:new    ;}
	.st32{opacity:0.29;fill:#FEF8E7;enable-background:new    ;}
	.st33{opacity:0.24;fill:#FEF8E7;enable-background:new    ;}
	.st34{fill:#E5E1D3;}
	.st35{fill:#F04D6E;}
	.st36{opacity:0.62;}
	.st37{fill:#07B28F;}
	.st38{fill:#039E84;}
	.st39{fill:#65C5B3;}
	.st40{fill:#FECF09;}
	.st41{fill:#F0536D;}
	.st42{opacity:0.52;}
	.st43{fill:#ED184A;}
	.st44{fill:#F7ACBC;}
	.st45{opacity:0.16;fill:#010101;enable-background:new    ;}
	.st46{opacity:0.27;fill:#010101;enable-background:new    ;}
	.st47{fill:#FFFDF9;}
	.st48{fill:#F7E8CA;}
	.st49{fill:#E98C24;}
	.st50{fill:#C1BCB2;}
	.st51{opacity:8.000000e-02;fill:#1C1C1B;enable-background:new    ;}
	.st52{fill:none;}
	.st53{fill:#D9EDF9;}
</style>
<g class="st0">
	<circle class="st1" cx="346.2" cy="167.9" r="135.2"/>
	<circle class="st2" cx="346.2" cy="167.9" r="113.9"/>
	<circle class="st2" cx="346.2" cy="167.9" r="79.3"/>
	<circle class="st2" cx="346.2" cy="167.9" r="50.2"/>
</g>
<path class="st3" d="M391.3,307.2l16.6,3.3l-0.5-27.8c3.9-3.1,7-7.3,7.6-12.5c1.9-15-19.4-15.8-24.9-9.1c-5.5,6.7-8.7,25.8-3.8,28.1
	c2,0.9,6.6,0.5,11.6-1.3L391.3,307.2L391.3,307.2z"/>
<path class="st4" d="M419.1,273.6c0,0-0.1-0.1-0.1-0.1c-0.1,0.3-0.1,0.6-0.2,0.8c-2.1,8.1-8.2,14.5-13.8,13c-3-0.8-5.1-4.7-6.2-9.4
	c2.4,0.5,4.6-1.1,5.4-4c0.6-2.2-0.6-4.8-3.2-5.5c-0.9-0.2-1.9,0-2.8,0.7c0.1-1.4,0.3-2.8,0.7-4.1c0.4-1.5,0.9-2.7,1.5-3.7
	c-1.7,0.2-3.3-0.4-4.2-1.7c-1.2-1.6-1.1-3.9,0.2-5.7c0.5-0.2,0.9-0.4,1.3-0.6c1.6-0.6,3.6-0.9,5.7-0.5c0.3,0.1,0.6,0.2,1.2,0.3
	c4.2,1.3,7.8,2.9,10.1,4.6c0.4,0.3,0.9,0.6,1.3,1c0.7,0.6,1.1,1.1,1.4,1.7c0.5,0.9,1.1,1.9,1.5,3.1
	C420.1,267.5,419.7,271.1,419.1,273.6L419.1,273.6z"/>
<path class="st5" d="M481,568.9c0,2.8-41.1,6.1-88.6,6.1s-85.8-2.3-85.8-5.2s38.4-5.2,85.8-5.2S481,566.1,481,568.9z"/>
<path class="st6" d="M349.7,245.3c0,0,9.1-2.7,9.3-4.7c0.2-2-0.4-6.9-2.2-10.6c-0.6-1.1-0.6-2.6-0.4-4.2c0.3-2.4,1.2-5.1,1.9-7.4
	c0.7-2.6,1.1-4.7-0.4-4.8c-2.1-0.3-5.1,3.5-6.9-8.3c-0.4-2.2-4.1,1.1-6,4.9c-0.2,0.3-0.3,0.6-0.4,0.9c-0.9,2.1-0.9,4.8-0.4,7.4
	c0.5,3,1.6,5.7,2.4,7c1.7,2.8,1.2,5.6,1.6,10C348.4,240.1,349.1,242,349.7,245.3L349.7,245.3z"/>
<path class="st7" d="M372.8,557.1c-0.4-4.4-0.1-15.6-0.1-15.6l12.2-0.4l-0.7,16.8l-8.1,5.3L372.8,557.1z"/>
<path class="st8" d="M371.8,553.4c-1-0.8-3.3,2-3.8,3.8c-1.1,4.2-14.7,4.8-17.1,5.2c-1.3,0.2-3.3,6.4,3,6.4c5.4,0,22.7,0,28.6-0.1
	c1.2,0,2.3-0.8,2.6-2c1.1-4.1,1.2-13.7-0.5-13.9C382.4,553.4,375.8,556.4,371.8,553.4L371.8,553.4z"/>
<path class="st7" d="M419.7,557.1c-0.5-4.4-0.2-15.6-0.2-15.6l12.2-0.5l-0.6,16.8l-8,5.4L419.7,557.1L419.7,557.1z"/>
<path class="st8" d="M418.4,552.1c-1.3,0.1-1.1,1.3-1.5,3.2c-1,4.3-16.5,7-19,7.4c-1.3,0.2-3.2,6.5,3,6.4c5.4-0.1,22.7-0.2,28.5-0.3
	c1.2,0,2.3-0.8,2.6-2c1-4.1,1.4-15.4-0.2-15.5C429.6,551.8,424.4,551.7,418.4,552.1L418.4,552.1z"/>
<path class="st9" d="M437.2,411c-0.2,2-0.4,4.2-0.6,6.6c-1.1,8.9-3.3,39-2.7,58.2c0.5,19-1.1,63.6-1.1,70.4c-5.8,2.5-9.4,1.7-17.6,0
	c0,0-1.5-36.7-3.1-68.9c-1.3-26.1-1.7-23.5-6.5-56.8l0,0c-0.1,0.2-1.2,3.4-2.9,8.4c-3.6,10.6-9.7,29.2-12.6,42.7
	c-4.5,21-2.2,75.7-4.1,77.6c-5.7,3.3-15.3,3.7-17.8-1c0,0-1.1-67.7,0.9-78.3c1.4-7.2,12.9-77.8,15.5-96.8c0,0,50.8-11.1,52.4,6.3
	c0.2,2.4,0.3,4.5,0.2,6.5c0,2.7,0.1,5.2,0.3,7.9C437.6,398.3,437.8,403.4,437.2,411L437.2,411z"/>
<path class="st10" d="M410,410.9C410,410.9,410,410.9,410,410.9c-0.1,0-0.1-0.1-0.1-0.1C409.8,410.9,410,410.9,410,410.9z"/>
<path class="st11" d="M405.5,420.5L405.5,420.5c-0.1,0.2-2.3,6.5-4,11.4l2-20.1C403.5,411.8,403.4,413,405.5,420.5z"/>
<path class="st12" d="M437.5,405.8c-0.4-0.1-20-4.3-22.7-14.1c0,0,17,1.5,22.5,2C437.6,398.3,437.7,403.3,437.5,405.8L437.5,405.8z"
	/>
<path class="st7" d="M407,295.6c-4.4-1.2-4.8,6.1-9.3,6.4c-2.3,0.2-1.8-0.8-2.9-1.9c-0.7-0.7-1.3-1.4-2.4-0.3
	c-21.9,22.5,0.9,79.2-1.9,83.1c-2.3,3.2,16.3,10.3,27.9,7.5c16-3.9,15-21.2,14.5-24.6c-0.5-3.3-10.8-59.6-10.8-59.6
	S414.1,302,407,295.6L407,295.6z"/>
<path class="st13" d="M359.9,235.4c1,2.9,4.9,34.5,6.7,38.3c2.5,5.4,11.6,16.5,25.8,26.1c0,0,0.5,3.8-0.7,13.6
	c-1.7,13,5.6,22.2,4.1,37.9c-1.9,20.3,3.1,41-1.9,45.6c-2.9,2.7-6.9,3.2-11.8-1.9c-7.7-8-2.6-34.1-1.9-40.3c0.3-2.4,0.9-5.7,1.4-9
	c0.6-4.2-1.4-25.3-2.7-27.5c-3.9-6.9-19.8-28.5-23.2-37.8c-3.7-10.1-7.4-39.1-7.7-40.6C347.6,237.9,359.4,234.1,359.9,235.4
	L359.9,235.4z"/>
<path class="st6" d="M425,400.9c-0.4,0.8-1.7,0.8-1.1,1.3c0.7,0.5,8.7,4.1,8.7,4.1s0.8,0.8,1.7-0.5s0.9-2.8,0.9-2.8L425,400.9
	L425,400.9z"/>
<path class="st13" d="M439.1,396.6c-7,4.4-16.3,4.5-22.4-2c-5.1-5.4,0.1-12.3-3.7-24.8c-2.1-6.9-5.3-19.4-6-28.1
	c-1.5-18.4-0.3-41,0.1-46.2c0,0,11.1,0.3,20.2,9.8c3.8,4,6.2,15.5,6.6,24c0.1,2.8,0.2,5,0.2,6.9c0.1,3.8,0,6.2-0.1,8.9
	c0,1-0.1,2.1-0.2,3.4v0c-0.1,1.4-0.1,2.9-0.1,4.8c-0.1,3.1,1,8.2,2.3,13.8l0,0C438.8,379.4,442.8,394.3,439.1,396.6z"/>
<path class="st13" d="M414.1,317.6c24.5,40.2,25.8,34.8,26.4,41.4c0.6,6.6-16.2,42.1-16.2,42.1s10.1,5.6,11.2,3.9
	c1.1-1.7,22.7-41.5,21.9-50.1c-0.9-9.4-27.3-46-30.4-49.6c-3.1-3.6-16.5-5.1-16.3,1.3C410.9,313.1,414.1,317.6,414.1,317.6
	L414.1,317.6z"/>
<path class="st14" d="M435.7,366.2c-9.2-8.2-9.8-29-9.8-29l7.7,10.4v0c-0.1,1.4-0.1,2.9-0.1,4.8
	C433.4,355.5,434.4,360.6,435.7,366.2L435.7,366.2z"/>
<path class="st14" d="M437.4,373.4c-0.6,2.9-12,25.8-12,25.8l11.1-29.9L437.4,373.4z"/>
<path class="st15" d="M399.1,304.6c0.5-0.2,3.6,9.4,9.2,13.3c1.6,1.1,3.3,1.9,5.1,2.4c5.5,1.2,18.3,1.1,25.4,1.4
	c-1.4-2.7-2.9-3.3-5.5-7.4c-5.3,0.8-15.5,1.4-18.3,0.6c-2.1-0.6-4-1.5-5.8-2.6c-3.3-2.1-5.9-4.9-7.8-7.2c-1-1.2-0.9-2.8-2.3-3
	C397.2,301.5,398.5,304.9,399.1,304.6L399.1,304.6z"/>
<path class="st16" d="M396.8,301.7c0.2-0.9,1-2.2,2.9-1.8c1.4,0.3,1.4,0.9,2.4,2.1c3,3.6,7.6,8.2,13.6,9.9c6,1.7,21.4-4.1,30.2-0.6
	c8.8,3.5,10.2,12.1,23,16.4s27.9,1,31.6,2.4c3.8,1.3,6,2.5,5.6,4.1s-2.7,3.7-5.6,4.4c-2.9,0.6-27.2-1.7-33.4-3.6
	c-10.1-3.1-17.5-13.9-24.1-15.6s-21.2-0.2-29-1.9c-8.6-1.9-14.1-13.3-14.7-13c-0.6,0.3-1.2,0.6-2.3,0.1
	C396.4,304.1,396.6,302.6,396.8,301.7L396.8,301.7z"/>
<path class="st17" d="M257.3,167.7l1.5,2.2c0,0-5.3,7.1-7.6,9.8c-0.5,0.6-1.4,1.5-1.8,1.8c-0.7,0.5-1.3,0.6-2,0.4
	c-1.4-1.1,0.8-3.7,0.8-3.7L257.3,167.7L257.3,167.7z"/>
<path class="st18" d="M258.6,169.8c-0.8,1.1-5.6,7.4-7.7,9.8c-0.5,0.6-1.4,1.5-1.8,1.7c0,0,0,0,0,0c-0.8,0.6-2-0.2-1.7-1.2
	c0.2-1,0.9-1.8,1-1.8l9.1-10.4L258.6,169.8z"/>
<path class="st17" d="M240.2,154.6l16.9,13l0.1,0.2l-9.2,10.4c0,0-2.2,2.6-0.8,3.7c-0.5-0.2-1.1-0.5-1.6-0.9l-15.4-12.8L240.2,154.6
	L240.2,154.6z"/>
<path class="st19" d="M231.7,166.2L231.7,166.2l-1.5,2l15.4,12.8c0.5,0.4,1,0.8,1.6,0.9c-0.9-0.8-0.2-2.2,0.3-3L231.7,166.2
	L231.7,166.2z"/>
<rect x="234.4" y="162.5" transform="matrix(0.5773 -0.8165 0.8165 0.5773 -32.7242 264.0297)" class="st20" width="8.5" height="2.2"/>
<path class="st21" d="M257.9,169.2c-0.8,1-1.5,2-2.3,2.9c-0.4,0.5-0.8,1-1.2,1.4l-1.2,1.4l-1.2,1.4c-0.4,0.5-0.8,0.9-1.2,1.4
	c-0.8,0.9-1.7,1.9-2.5,2.8c0.8-1,1.5-2,2.3-2.9c0.4-0.5,0.8-1,1.2-1.4l1.2-1.4l1.2-1.4c0.4-0.5,0.8-0.9,1.2-1.4
	C256.2,171,257,170.1,257.9,169.2L257.9,169.2z"/>
<path class="st17" d="M428.1,167.4l-2.2,1.5c0,0-7.3-5.1-10-7.3c-0.6-0.5-1.5-1.4-1.8-1.8c-0.5-0.6-0.6-1.3-0.4-2
	c1.1-1.4,3.8,0.7,3.8,0.7L428.1,167.4L428.1,167.4z"/>
<path class="st18" d="M426.1,168.8c-1.1-0.8-7.6-5.3-10.1-7.3c-0.6-0.5-1.5-1.4-1.8-1.7c0,0,0,0,0,0c-0.6-0.8,0.1-2,1.1-1.8
	c1,0.2,1.8,0.9,1.8,0.9l10.7,8.7L426.1,168.8L426.1,168.8z"/>
<path class="st17" d="M440.6,150l-12.4,17.4l-0.2,0.1l-10.8-8.8c0,0-2.7-2.1-3.8-0.7c0.1-0.5,0.5-1.1,0.9-1.6l12.2-15.9L440.6,150
	L440.6,150z"/>
<path class="st19" d="M428.7,141.9L428.7,141.9l-2.1-1.4l-12.2,15.9c-0.4,0.5-0.7,1.1-0.9,1.6c0.7-0.9,2.2-0.3,3,0.2L428.7,141.9
	L428.7,141.9z"/>
<rect x="430.5" y="144.5" transform="matrix(0.5482 -0.8363 0.8363 0.5482 70.5934 428.0715)" class="st20" width="2.2" height="8.5"/>
<path class="st21" d="M426.7,168.1c-1-0.7-2-1.5-3-2.2c-0.5-0.4-1-0.8-1.5-1.1l-1.5-1.2l-1.5-1.2c-0.5-0.4-1-0.8-1.5-1.2
	c-1-0.8-1.9-1.6-2.9-2.4c1,0.7,2,1.5,3,2.2c0.5,0.4,1,0.8,1.5,1.1l1.5,1.2l1.5,1.2c0.5,0.4,1,0.8,1.5,1.2
	C424.8,166.5,425.7,167.3,426.7,168.1z"/>
<polygon class="st7" points="374.4,95.7 370.1,92 352.4,93.4 352.5,96.5 "/>
<path class="st22" d="M373.5,94.9c0,0-11.7-1.2-19.3,0.2l11.3-1.9l7.3,0.9L373.5,94.9L373.5,94.9z"/>
<path class="st7" d="M374.3,94.7c0,0-11.7-2.6-22.6,1.2l1.2-2.6l17.8-2.5L374.3,94.7L374.3,94.7z"/>
<path class="st22" d="M372.3,92.4l0.6,0.7c0,0-14.8-0.1-20.9,2.2l3.9-1.7l15.6-2.1L372.3,92.4z"/>
<path class="st7" d="M374.5,92.4c0,0-17.8-0.2-23.1,3.2l2.5-3.2l14.1-3.6C368.1,89,374.5,92.4,374.5,92.4z"/>
<path class="st22" d="M369.2,89.6l1,0.6c0,0-9,0.9-15.4,3.9C354.9,94,363.9,89.3,369.2,89.6L369.2,89.6z"/>
<path class="st7" d="M352.1,95.6c0,0,10.7-6.5,21.6-6.2c0,0-6.1-5-10-4.9l-11.8,9.8L352.1,95.6L352.1,95.6z"/>
<path class="st22" d="M364.2,84.4c0,0,0.9,0.1,1.7,0.4L352.4,95l1.3-3L364.2,84.4L364.2,84.4z"/>
<path class="st7" d="M352,95.3c0,0,10.1-10.7,16.7-13.5L357,81.5l-9.4,8.8l4.3,5"/>
<path class="st7" d="M351.1,93.9c0,0,0.3-13.6-2.7-20l-1.5,3.5C346.9,77.5,349.3,83,351.1,93.9z"/>
<path class="st7" d="M340.9,79.3l4.7-5.1l1.3,3.3c0,0,3.1,6.8,4.2,16.5L340.9,79.3L340.9,79.3z"/>
<polygon class="st7" points="337.5,80.1 339.2,77.1 340.9,79.3 351.1,93.9 "/>
<path class="st22" d="M346.9,77.5l0.3-0.7c0,0,3.9,8.2,3.9,17.2C351.1,93.9,351,87.5,346.9,77.5L346.9,77.5z"/>
<polygon class="st22" points="340.9,79.3 341.6,78.5 351,93.7 "/>
<path class="st23" d="M332.6,78.8l-1.4-1.7l0.3,1.9l15.8,18.3c0,0,0.7,2.3,2.3,2.8c1.6,0.5,3,0,4.1-0.4c1-0.4,24.8-1,24.8-1l0.1-0.9
	l-2.7,0.1L357,97.8l-5.2-1.2l-9.6-8.7L332.6,78.8L332.6,78.8z"/>
<path class="st24" d="M332.6,78.8l4.3,0.5L352,94.9l22.4,0.8l2.4,2.3l-20.4,0.4l-3.1,0.4c0,0-2.1-2.5-5-1.8L332.6,78.8z"/>
<polygon class="st7" points="289.6,124.1 286.2,125 281,134.8 282.7,135.7 "/>
<path class="st22" d="M288.9,124.3c0,0-4.5,5.7-6.3,10.1l2.8-6.5l2.9-3.5C288.3,124.4,288.9,124.3,288.9,124.3z"/>
<path class="st7" d="M289.1,123.8c0,0-5.2,5.2-7,12.2l-0.9-1.5l4.7-10.1C285.8,124.3,289.1,123.8,289.1,123.8z"/>
<path class="st22" d="M287.2,124.1l0.5-0.1c0,0-5,7.7-5.8,11.6l0.4-2.6l4.1-8.8L287.2,124.1L287.2,124.1z"/>
<path class="st7" d="M287.9,122.9c0,0-6.1,9.2-6,13.1l-0.8-2.3l2.9-8.5L287.9,122.9L287.9,122.9z"/>
<path class="st22" d="M284.7,124.7l0.6-0.4c0,0-2.5,5-3.1,9.3C282.2,133.7,282.7,127.4,284.7,124.7z"/>
<path class="st7" d="M282.1,135.6c0,0,0.2-7.8,4-13.3c0,0-4.6,1.5-5.9,3.6l1.1,9.4L282.1,135.6L282.1,135.6z"/>
<path class="st22" d="M280.3,125.6c0,0,0.4-0.5,0.8-0.8l0.8,10.4l-1.1-1.7C280.8,133.5,280.3,125.6,280.3,125.6z"/>
<path class="st7" d="M281.9,135.6c0,0-2.2-8.8-1.4-13.2l-4.1,6l1.4,7.9l4-0.5"/>
<path class="st7" d="M280.9,135.6c0,0-7-4.7-11.3-5.3l1.3,2C270.9,132.3,274.6,132.8,280.9,135.6z"/>
<path class="st7" d="M269.8,136l-1.1-4.2l2.2,0.4c0,0,4.6,0.6,10,3.3L269.8,136L269.8,136z"/>
<polygon class="st7" points="269.1,138.1 268.2,136.2 269.8,136 280.9,135.6 "/>
<path class="st22" d="M270.9,132.3l-0.3-0.4c0,0,5.6,0.7,10.2,3.7C280.9,135.6,277.5,133.5,270.9,132.3z"/>
<polygon class="st22" points="269.8,136 269.7,135.4 280.7,135.5 "/>
<path class="st23" d="M266.9,140.2l-1.3,0.2l1.1,0.5l14.8-2.1c0,0,1.4,0.4,2.2-0.2c0.8-0.7,1-1.6,1.2-2.2c0.2-0.6,7.8-13.3,7.8-13.3
	l-0.4-0.4l-0.8,1.4l-6.5,9.8l-2.4,2.3l-7.7,2.1L266.9,140.2L266.9,140.2z"/>
<path class="st24" d="M266.9,140.2l1.7-2.1l13.2-2.7l7.9-11.4l2-0.5l-6.6,10.8l-0.8,1.7c0,0-2,0.3-2.6,2L266.9,140.2L266.9,140.2z"
	/>
<polygon class="st25" points="313.1,190.7 310.2,192.3 318.1,194.1 "/>
<path class="st7" d="M378.9,211.9l-0.1-6.5l-46.6,10.7l-17.8-10.5c0,0-0.4-0.3-0.7-0.2c-0.3,0.2-0.4,0.4-0.4,0.4l-0.2,5.3
	c0,0,0,0.3,0.2,0.5c0.2,0.2,18.5,11.6,18.5,11.6L378.9,211.9L378.9,211.9z"/>
<polygon class="st13" points="356.6,191.7 379.5,203.3 332.4,214.5 312.5,202.6 "/>
<g class="st26">
	<path class="st27" d="M332.6,213.1c0,0-0.1,0-0.1,0l-16.1-9.7c-0.1,0-0.1-0.1-0.1-0.2c0-0.1,0.1-0.2,0.2-0.2l39.8-9.9
		c0.1,0,0.1,0,0.2,0l18.6,9.4c0.1,0,0.1,0.1,0.1,0.2s-0.1,0.2-0.2,0.2L332.6,213.1C332.7,213.1,332.7,213.1,332.6,213.1L332.6,213.1
		z M317.2,203.3l15.5,9.3l41.6-9.9l-17.9-9.1L317.2,203.3L317.2,203.3z"/>
</g>
<path class="st23" d="M379.9,211.6v1.9l-47.9,12l-20.3-13.1c0,0-1.5-5.2,0.8-9.8l19.9,11.9l47.1-11.2v1.9l-47.3,10.9l-18-10.6
	c-0.4-0.2-0.8,0-0.9,0.5l-0.2,5.3c0,0.2,0.1,0.4,0.2,0.5l18.4,11.5L379.9,211.6L379.9,211.6z"/>
<polygon class="st28" points="331.8,223.3 332.2,216.1 378.8,205.4 378.9,211.9 "/>
<polygon class="st29" points="379.9,211.6 378.9,211.1 378.9,211.9 "/>
<polygon class="st29" points="379.5,205.2 378.8,205.5 378.8,205.4 "/>
<polygon class="st30" points="355,195.1 367.3,201.9 362.6,203.6 350.9,196.2 "/>
<polygon class="st30" points="347.2,197.6 358.9,204.5 358.4,204.8 346.7,197.8 "/>
<polygon class="st31" points="332.4,214.5 336.2,196.7 341.4,195.5 338.7,213 "/>
<polygon class="st32" points="346.7,194.1 344.7,211.6 353.9,209.4 354.6,192.2 "/>
<polygon class="st33" points="362.1,194.5 361.2,207.7 367.3,206.2 367.8,197.4 "/>
<polygon class="st31" points="323.4,199.9 320.4,207.4 322.9,208.8 328.2,198.7 "/>
<path class="st34" d="M314.3,207.1c1.4,0.8,2.8,1.6,4.1,2.4c0.7,0.4,1.4,0.8,2,1.2l2,1.3l2,1.3c0.7,0.4,1.3,0.8,2,1.3
	c1.3,0.9,2.7,1.7,4,2.6c-1.4-0.8-2.8-1.6-4.1-2.4c-0.7-0.4-1.4-0.8-2-1.2l-2-1.3l-2-1.3c-0.7-0.4-1.3-0.8-2-1.3
	C317,208.8,315.6,208,314.3,207.1L314.3,207.1z"/>
<path class="st34" d="M314.3,208.8c1.4,0.8,2.8,1.6,4.1,2.4c0.7,0.4,1.4,0.8,2,1.2l2,1.3l2,1.3c0.7,0.4,1.3,0.8,2,1.3
	c1.3,0.9,2.7,1.7,4,2.6c-1.4-0.8-2.8-1.6-4.1-2.4c-0.7-0.4-1.4-0.8-2-1.2l-2-1.3l-2-1.3c-0.7-0.4-1.3-0.8-2-1.3
	C316.9,210.6,315.6,209.7,314.3,208.8L314.3,208.8z"/>
<path class="st34" d="M314.3,210.6c1.4,0.8,2.8,1.6,4.1,2.4c0.7,0.4,1.4,0.8,2,1.2l2,1.3l2,1.3c0.7,0.4,1.3,0.8,2,1.3
	c1.3,0.9,2.7,1.7,4,2.6c-1.4-0.8-2.8-1.6-4.1-2.4c-0.7-0.4-1.4-0.8-2-1.2l-2-1.3l-2-1.3c-0.7-0.4-1.3-0.8-2-1.3
	C317,212.4,315.6,211.5,314.3,210.6L314.3,210.6z"/>
<path class="st34" d="M334.6,217.3c3.6-1,7.1-1.9,10.7-2.8c1.8-0.5,3.6-0.9,5.4-1.3l5.4-1.3l5.4-1.3l2.7-0.6l1.3-0.3l1.3-0.3
	c3.6-0.8,7.2-1.6,10.8-2.3c-3.6,1-7.1,1.9-10.7,2.8l-1.3,0.3l-1.3,0.3l-2.7,0.7l-5.4,1.3l-5.4,1.3c-1.8,0.4-3.6,0.8-5.4,1.2
	C341.8,215.8,338.2,216.5,334.6,217.3L334.6,217.3z"/>
<path class="st34" d="M334.6,218.9c3.6-1,7.1-1.9,10.7-2.8c1.8-0.5,3.6-0.9,5.4-1.3l5.4-1.3l5.4-1.3l2.7-0.6l1.3-0.3l1.3-0.3
	c3.6-0.8,7.2-1.6,10.8-2.3c-3.6,1-7.1,1.9-10.7,2.8l-1.3,0.3l-1.3,0.3l-2.7,0.7l-5.4,1.3l-5.4,1.3c-1.8,0.4-3.6,0.8-5.4,1.2
	C341.8,217.4,338.2,218.2,334.6,218.9L334.6,218.9z"/>
<path class="st34" d="M334.6,220.7c3.6-1,7.1-1.9,10.7-2.8c1.8-0.5,3.6-0.9,5.4-1.3l5.4-1.3l5.4-1.3l2.7-0.6l1.3-0.3l1.3-0.3
	c3.6-0.8,7.2-1.6,10.8-2.3c-3.6,1-7.1,1.9-10.7,2.8l-1.3,0.3l-1.3,0.3l-2.7,0.7l-5.4,1.3l-5.4,1.3c-1.8,0.4-3.6,0.8-5.4,1.2
	C341.8,219.2,338.2,220,334.6,220.7L334.6,220.7z"/>
<path class="st35" d="M367.9,209.5l3.3-0.8c0,0,0.5,1.9,0,3.4L370,211l-1.2,1.6C368.8,212.6,368.8,210.2,367.9,209.5z"/>
<path class="st35" d="M346.9,216.1l3.3-0.8c0,0,0.5,1.9,0,3.4l-1.3-1.1l-1.2,1.6C347.8,219.3,347.7,216.8,346.9,216.1L346.9,216.1z"
	/>
<path class="st7" d="M379.4,191.9l0.3,8.4l-19.5,11.6c0,0-2.7-2.1-0.9-7.8L379.4,191.9L379.4,191.9z"/>
<polygon class="st17" points="379.6,191.2 358.9,203.8 310.2,192.3 331.9,180.8 "/>
<g class="st36">
	<path class="st37" d="M358.6,202.2C358.6,202.2,358.5,202.2,358.6,202.2l-43.4-10.3c-0.1,0-0.2-0.1-0.3-0.3c0-0.1,0.1-0.3,0.2-0.3
		l16.9-8.9c0.1,0,0.2,0,0.2,0l42.6,9.3c0.1,0,0.2,0.1,0.3,0.3c0,0.1,0,0.3-0.2,0.3l-16.2,9.9C358.7,202.2,358.6,202.2,358.6,202.2
		L358.6,202.2z M316.3,191.5l42.3,10l15.4-9.3l-41.6-9.1L316.3,191.5L316.3,191.5z"/>
</g>
<path class="st19" d="M310.2,192.3c0,0-2.1,6.4,0.4,8.5c2.5,2.2,48.8,12.7,48.8,12.7l21.5-12.5l0-1.4l-20.5,12.3c0,0-1.5-1-1.4-3.6
	c0.1-2.6,0.5-4.2,0.5-4.2l20.1-12.2l0.2-0.7l-20.7,12.6L310.2,192.3L310.2,192.3z"/>
<polygon class="st38" points="380.8,199.6 379.7,199.6 379.8,200.2 "/>
<path class="st39" d="M317.9,194.1c0,0-3.4,6.2,0.1,9.3l1.8,0.5c0,0-3-3.6,0.8-9.1L317.9,194.1z"/>
<path class="st39" d="M322.1,195.1c0,0-3.4,6.3,0.1,9.4l1.8,0.5c0,0-3.1-3.8,0.8-9.3L322.1,195.1L322.1,195.1z"/>
<path class="st39" d="M342.3,199.9c0,0-3.4,6.6,0.1,9.7l1.8,0.4c0,0-3.1-4,0.8-9.5L342.3,199.9L342.3,199.9z"/>
<path class="st39" d="M346.5,200.9c0,0-3.4,6.6,0.1,9.7l1.8,0.4c0,0-3.1-4,0.8-9.5L346.5,200.9L346.5,200.9z"/>
<path class="st34" d="M378.9,194.1c-1.5,1.1-2.9,2.1-4.4,3c-0.7,0.5-1.5,1-2.3,1.5L370,200l-2.3,1.4c-0.8,0.5-1.5,0.9-2.3,1.4
	c-1.6,0.9-3.1,1.8-4.7,2.6c1.4-1.1,2.9-2.1,4.4-3c0.7-0.5,1.5-1,2.3-1.5l2.3-1.4l2.3-1.4c0.8-0.5,1.5-0.9,2.3-1.4
	C375.8,195.8,377.3,194.9,378.9,194.1L378.9,194.1z"/>
<path class="st34" d="M378.7,198.4c-1.5,1.1-2.9,2.1-4.4,3c-0.7,0.5-1.5,1-2.3,1.5l-2.3,1.4l-2.3,1.4c-0.8,0.5-1.5,0.9-2.3,1.4
	c-1.6,0.9-3.1,1.8-4.7,2.6c1.4-1.1,2.9-2.1,4.4-3c0.7-0.5,1.5-1,2.3-1.5l2.3-1.4l2.3-1.4c0.8-0.5,1.5-0.9,2.3-1.4
	C375.5,200.1,377.1,199.2,378.7,198.4L378.7,198.4z"/>
<path class="st34" d="M378.7,196.3c-1.5,1-3,2-4.5,3c-1.5,1-3,1.9-4.5,2.9c-1.5,0.9-3.1,1.9-4.6,2.8c-1.5,0.9-3.1,1.8-4.7,2.7
	c1.5-1,3-2,4.5-3c1.5-1,3-1.9,4.5-2.8c1.5-0.9,3.1-1.9,4.6-2.8C375.6,198,377.2,197.1,378.7,196.3L378.7,196.3z"/>
<path class="st7" d="M380.5,190.4l-0.1-6.5l-46.6,10.7l-17.8-10.5c0,0-0.4-0.3-0.7-0.2c-0.3,0.2-0.4,0.4-0.4,0.4l-0.2,5.3
	c0,0,0,0.3,0.2,0.5c0.2,0.2,18.5,11.6,18.5,11.6L380.5,190.4L380.5,190.4z"/>
<polygon class="st40" points="358.1,170.2 381,181.8 333.9,193.1 314,181.1 "/>
<g class="st26">
	<path class="st27" d="M334.2,191.6c0,0-0.1,0-0.1,0l-16.1-9.7c-0.1,0-0.1-0.1-0.1-0.2c0-0.1,0.1-0.2,0.2-0.2l39.8-9.9
		c0.1,0,0.1,0,0.2,0l18.6,9.4c0.1,0,0.1,0.1,0.1,0.2c0,0.1-0.1,0.2-0.2,0.2L334.2,191.6C334.2,191.6,334.2,191.6,334.2,191.6
		L334.2,191.6z M318.7,181.8l15.5,9.3l41.6-9.9l-17.9-9.1L318.7,181.8L318.7,181.8z"/>
</g>
<path class="st27" d="M381.4,190.2v1.9l-47.9,12l-20.3-13.1c0,0-1.5-5.2,0.8-9.8l19.9,11.9l47.1-11.2v1.9l-47.3,10.9l-18-10.6
	c-0.4-0.2-0.8,0-0.9,0.5l-0.2,5.3c0,0.2,0.1,0.4,0.2,0.5l18.4,11.5L381.4,190.2z"/>
<polygon class="st28" points="333.3,201.8 333.7,194.6 380.3,183.9 380.5,190.4 "/>
<polygon class="st29" points="381.4,190.2 380.4,189.7 380.5,190.4 "/>
<polygon class="st29" points="381,183.8 380.3,184 380.3,183.9 "/>
<polygon class="st30" points="356.5,173.6 368.8,180.4 364.1,182.1 352.4,174.7 "/>
<polygon class="st30" points="348.7,176.1 360.4,183 360,183.3 348.3,176.3 "/>
<polygon class="st31" points="333.9,193.1 337.7,175.3 342.9,174 340.2,191.6 "/>
<polygon class="st32" points="348.3,172.7 346.2,190.1 355.4,188 356.1,170.7 "/>
<polygon class="st33" points="363.7,173 362.7,186.2 368.8,184.7 369.4,175.9 "/>
<polygon class="st31" points="324.9,178.4 321.9,185.9 324.4,187.4 329.7,177.3 "/>
<path class="st34" d="M315.9,185.6c1.4,0.8,2.8,1.6,4.1,2.4c0.7,0.4,1.4,0.8,2,1.2l2,1.3l2,1.3c0.7,0.4,1.3,0.8,2,1.3
	c1.3,0.9,2.7,1.7,4,2.6c-1.4-0.8-2.8-1.6-4.1-2.4c-0.7-0.4-1.4-0.8-2-1.2l-2-1.3l-2-1.3c-0.7-0.4-1.3-0.8-2-1.3
	C318.5,187.4,317.2,186.5,315.9,185.6L315.9,185.6z"/>
<path class="st34" d="M315.8,187.4c1.4,0.8,2.8,1.6,4.1,2.4c0.7,0.4,1.4,0.8,2,1.2l2,1.3l2,1.3c0.7,0.4,1.3,0.8,2,1.3
	c1.3,0.9,2.7,1.7,4,2.6c-1.4-0.8-2.8-1.6-4.1-2.4c-0.7-0.4-1.4-0.8-2-1.2l-2-1.3l-2-1.3c-0.7-0.4-1.3-0.8-2-1.3
	C318.4,189.1,317.1,188.2,315.8,187.4L315.8,187.4z"/>
<path class="st34" d="M315.9,189.2c1.4,0.8,2.8,1.6,4.1,2.4c0.7,0.4,1.4,0.8,2,1.2l2,1.3l2,1.3c0.7,0.4,1.3,0.8,2,1.3
	c1.3,0.9,2.7,1.7,4,2.6c-1.4-0.8-2.8-1.6-4.1-2.4c-0.7-0.4-1.4-0.8-2-1.2l-2-1.3l-2-1.3c-0.7-0.4-1.3-0.8-2-1.3
	C318.5,190.9,317.2,190.1,315.9,189.2L315.9,189.2z"/>
<path class="st34" d="M336.1,195.8c3.6-1,7.1-1.9,10.7-2.8c1.8-0.5,3.6-0.9,5.4-1.3l5.4-1.3l5.4-1.3l2.7-0.6l1.3-0.3l1.3-0.3
	c3.6-0.8,7.2-1.6,10.8-2.3c-3.6,1-7.1,1.9-10.7,2.8l-1.3,0.3l-1.3,0.3l-2.7,0.7l-5.4,1.3l-5.4,1.3c-1.8,0.4-3.6,0.8-5.4,1.2
	C343.3,194.3,339.7,195.1,336.1,195.8L336.1,195.8z"/>
<path class="st34" d="M336.1,197.5c3.6-1,7.1-1.9,10.7-2.8c1.8-0.5,3.6-0.9,5.4-1.3l5.4-1.3l5.4-1.3l2.7-0.6l1.3-0.3l1.3-0.3
	c3.6-0.8,7.2-1.6,10.8-2.3c-3.6,1-7.1,1.9-10.7,2.8l-1.3,0.3l-1.3,0.3l-2.7,0.7l-5.4,1.3l-5.4,1.3c-1.8,0.4-3.6,0.8-5.4,1.2
	C343.3,195.9,339.7,196.7,336.1,197.5L336.1,197.5z"/>
<path class="st34" d="M336.1,199.3c3.6-1,7.1-1.9,10.7-2.8c1.8-0.5,3.6-0.9,5.4-1.3l5.4-1.3l5.4-1.3l2.7-0.6l1.3-0.3l1.3-0.3
	c3.6-0.8,7.2-1.6,10.8-2.3c-3.6,1-7.1,1.9-10.7,2.8l-1.3,0.3l-1.3,0.3l-2.7,0.7l-5.4,1.3l-5.4,1.3c-1.8,0.4-3.6,0.8-5.4,1.2
	C343.3,197.7,339.7,198.5,336.1,199.3L336.1,199.3z"/>
<path class="st35" d="M369.4,188l3.3-0.8c0,0,0.5,1.9,0,3.4l-1.3-1.1l-1.2,1.6C370.3,191.2,370.3,188.7,369.4,188z"/>
<path class="st35" d="M348.4,194.7l3.3-0.8c0,0,0.5,1.9,0,3.4l-1.3-1.1l-1.2,1.6C349.3,197.8,349.3,195.3,348.4,194.7L348.4,194.7z"
	/>
<path class="st7" d="M313,178.5l0.2-6.5l46.5,11.1l17.9-10.3c0,0,0.4-0.3,0.7-0.2s0.4,0.4,0.4,0.4l0.2,5.3c0,0,0,0.3-0.2,0.5
	c-0.2,0.2-18.5,11.4-18.5,11.4L313,178.5z"/>
<polygon class="st41" points="335.5,158.5 312.6,169.9 359.5,181.5 379.5,169.7 "/>
<g class="st42">
	<path class="st7" d="M359.3,180.1c0,0,0.1,0,0.1,0l16.2-9.5c0.1,0,0.1-0.1,0.1-0.2c0-0.1-0.1-0.2-0.2-0.2l-39.8-10.2
		c-0.1,0-0.1,0-0.2,0l-18.6,9.3c-0.1,0-0.1,0.1-0.1,0.2s0.1,0.2,0.2,0.2L359.3,180.1C359.3,180.1,359.3,180.1,359.3,180.1
		L359.3,180.1z M374.9,170.4l-15.6,9.2l-41.5-10.2l18-9L374.9,170.4z"/>
</g>
<path class="st43" d="M312.1,178.2l0,1.9l47.8,12.3l20.4-12.9c0,0,1.5-5.1-0.8-9.8l-20,11.8l-47-11.6l0,1.9l47.2,11.2l18.1-10.5
	c0.4-0.2,0.8,0,0.9,0.5l0.2,5.3c0,0.2-0.1,0.4-0.3,0.5l-18.5,11.4L312.1,178.2L312.1,178.2z"/>
<polygon class="st28" points="360.1,190.2 359.7,183.1 313.2,172 313,178.5 "/>
<polygon class="st29" points="312.1,178.2 313,177.7 313,178.5 "/>
<polygon class="st29" points="312.5,171.8 313.2,172.1 313.2,172 "/>
<polygon class="st44" points="337.1,161.9 324.7,168.6 329.4,170.3 341.1,163 "/>
<polygon class="st44" points="344.8,164.4 333.1,171.3 333.6,171.6 345.3,164.7 "/>
<polygon class="st31" points="359.5,181.5 355.9,163.7 350.7,162.4 353.3,180 "/>
<polygon class="st32" points="345.3,161 347.3,178.5 338.1,176.2 337.5,159 "/>
<polygon class="st33" points="329.9,161.3 330.8,174.4 324.7,172.9 324.2,164.1 "/>
<polygon class="st31" points="368.7,167 371.6,174.4 369.1,175.9 363.9,165.7 "/>
<path class="st34" d="M377.7,174.2c-1.4,0.8-2.8,1.6-4.1,2.4c-0.7,0.4-1.4,0.8-2.1,1.2l-2,1.2l-2,1.3c-0.7,0.4-1.4,0.8-2,1.3
	c-1.3,0.8-2.7,1.7-4,2.6c1.4-0.8,2.8-1.6,4.1-2.4c0.7-0.4,1.4-0.8,2.1-1.2l2-1.2l2-1.3c0.7-0.4,1.4-0.8,2-1.3
	C375,175.9,376.3,175.1,377.7,174.2L377.7,174.2z"/>
<path class="st34" d="M377.7,175.9c-1.4,0.8-2.8,1.6-4.1,2.4c-0.7,0.4-1.4,0.8-2.1,1.2l-2,1.2l-2,1.3c-0.7,0.4-1.4,0.8-2,1.3
	c-1.3,0.8-2.7,1.7-4,2.6c1.4-0.8,2.8-1.6,4.1-2.4c0.7-0.4,1.4-0.8,2.1-1.2l2-1.2l2-1.3c0.7-0.4,1.4-0.8,2-1.3
	C375.1,177.7,376.4,176.8,377.7,175.9L377.7,175.9z"/>
<path class="st34" d="M377.6,177.7c-1.4,0.8-2.8,1.6-4.1,2.4c-0.7,0.4-1.4,0.8-2.1,1.2l-2,1.2l-2,1.3c-0.7,0.4-1.4,0.8-2,1.3
	c-1.3,0.8-2.7,1.7-4,2.6c1.4-0.8,2.8-1.6,4.1-2.4c0.7-0.4,1.4-0.8,2.1-1.2l2-1.2l2-1.3c0.7-0.4,1.4-0.8,2-1.3
	C375,179.5,376.3,178.6,377.6,177.7L377.6,177.7z"/>
<path class="st34" d="M357.4,184.2c-3.5-1-7.1-2-10.7-2.9c-1.8-0.5-3.6-0.9-5.4-1.4l-5.4-1.3l-5.4-1.3l-2.7-0.6l-1.3-0.3l-1.3-0.3
	c-3.6-0.8-7.2-1.7-10.8-2.4c3.5,1,7.1,2,10.7,2.9l1.3,0.4l1.3,0.3l2.7,0.7l5.4,1.3l5.4,1.3c1.8,0.4,3.6,0.9,5.4,1.3
	C350.2,182.6,353.7,183.5,357.4,184.2z"/>
<path class="st34" d="M357.3,185.9c-3.5-1-7.1-2-10.7-2.9c-1.8-0.5-3.6-0.9-5.4-1.4l-5.4-1.3l-5.4-1.3l-2.7-0.6l-1.3-0.3l-1.3-0.3
	c-3.6-0.8-7.2-1.7-10.8-2.4c3.5,1,7.1,2,10.7,2.9l1.3,0.4l1.3,0.3l2.7,0.7l5.4,1.3l5.4,1.3c1.8,0.4,3.6,0.9,5.4,1.3
	C350.1,184.3,353.7,185.1,357.3,185.9L357.3,185.9z"/>
<path class="st34" d="M357.3,187.7c-3.5-1-7.1-2-10.7-2.9c-1.8-0.5-3.6-0.9-5.4-1.4l-5.4-1.3l-5.4-1.3l-2.7-0.6l-1.3-0.3l-1.3-0.3
	c-3.6-0.8-7.2-1.7-10.8-2.4c3.5,1,7.1,2,10.7,2.9l1.3,0.4l1.3,0.3l2.7,0.7l5.4,1.3l5.4,1.3c1.8,0.4,3.6,0.9,5.4,1.3
	C350.1,186.1,353.7,186.9,357.3,187.7L357.3,187.7z"/>
<path class="st35" d="M324.1,176.2l-3.3-0.9c0,0-0.5,1.9-0.1,3.4l1.3-1.1l1.2,1.6C323.1,179.3,323.2,176.8,324.1,176.2z"/>
<path class="st35" d="M345.1,183l-3.3-0.8c0,0-0.5,1.9-0.1,3.4l1.3-1.1l1.2,1.6C344.1,186.2,344.2,183.6,345.1,183L345.1,183z"/>
<polygon class="st45" points="352,190.4 346.4,191.7 314,181.1 315,180.9 "/>
<polygon class="st45" points="378.6,180.6 380,181.3 374,183.5 "/>
<polygon class="st25" points="377.6,193 351.6,202.1 346.2,200.8 "/>
<polygon class="st46" points="314.1,202.2 312.5,202.6 341.4,212.4 347.9,210.9 "/>
<polygon class="st47" points="402.7,192.9 397.6,172.8 363.8,160.9 353.4,173.8 "/>
<path class="st47" d="M353.2,174.3c0,0,31.9-18.5,47.5-13.6c0,0-19-9.4-41.6,1.2L353.2,174.3z"/>
<path class="st48" d="M353.4,173.8c0,0,16.2-3.8,32.3,7.6c16.5,11.7,17,11.5,17,11.5l-1.5,7.9l-2.7-0.1L357.6,181
	C357.6,181,356.4,176.5,353.4,173.8L353.4,173.8z"/>
<polygon class="st49" points="403.6,201.7 402.4,194.1 401.2,200.7 "/>
<path class="st50" d="M357.1,175.1c1,0,2.1,0.1,3.1,0.2c1,0.1,2,0.2,3.1,0.4c1,0.1,2,0.3,3.1,0.5c0.5,0.1,1,0.2,1.5,0.3
	c0.5,0.1,1,0.2,1.5,0.4c1,0.2,2,0.5,3,0.8c1,0.3,2,0.7,2.9,1c0.5,0.2,1,0.4,1.4,0.6c0.5,0.2,0.9,0.4,1.4,0.7
	c0.5,0.2,0.9,0.5,1.4,0.8c0.4,0.3,0.9,0.6,1.3,0.9c0.1,0.1,0.2,0.2,0.3,0.2l0.3,0.2l0.6,0.5c0.4,0.3,0.8,0.6,1.2,0.9
	c0.8,0.6,1.7,1.2,2.5,1.8c1.7,1.2,3.4,2.3,5.2,3.3c0.9,0.5,1.8,1.1,2.6,1.6c0.9,0.5,1.8,1,2.7,1.5c1.8,1,3.6,1.9,5.5,2.8
	c-1-0.3-1.9-0.7-2.9-1.2c-0.9-0.4-1.9-0.8-2.8-1.3c-1.9-0.9-3.7-1.9-5.5-2.9c-0.4-0.3-0.9-0.5-1.3-0.8c-0.4-0.3-0.9-0.5-1.3-0.8
	c-0.4-0.3-0.9-0.5-1.3-0.8c-0.4-0.3-0.9-0.6-1.3-0.8l-0.6-0.4L384,185c-0.4-0.3-0.8-0.6-1.3-0.9c-0.4-0.3-0.8-0.6-1.2-0.9l-0.6-0.5
	l-0.3-0.2c-0.1-0.1-0.2-0.1-0.3-0.2c-1.6-1.2-3.5-2.1-5.3-2.9c-1.9-0.8-3.8-1.4-5.8-2c-1-0.3-2-0.5-3-0.8c-1-0.2-2-0.4-3-0.6
	c-1-0.2-2-0.4-3-0.5c-0.5-0.1-1-0.2-1.5-0.2C358.1,175.2,357.6,175.1,357.1,175.1L357.1,175.1z"/>
<path class="st50" d="M358.9,177.2c1,0.1,1.9,0.3,2.9,0.4c1,0.2,1.9,0.3,2.9,0.5c1,0.2,1.9,0.4,2.8,0.7c0.9,0.2,1.9,0.5,2.8,0.8
	c1.9,0.6,3.7,1.3,5.4,2.3c0.2,0.1,0.4,0.3,0.6,0.4c0.2,0.1,0.4,0.3,0.6,0.4l1.2,0.9c0.8,0.6,1.6,1.1,2.4,1.7
	c0.4,0.3,0.8,0.5,1.2,0.8l1.2,0.8l1.2,0.8l0.6,0.4l0.6,0.4c1.6,1,3.3,2,5,2.9c0.4,0.2,0.8,0.5,1.3,0.7l0.6,0.3l0.3,0.2l0.3,0.2
	c0.4,0.2,0.9,0.4,1.3,0.6c0.4,0.2,0.9,0.4,1.3,0.6c1.8,0.8,3.5,1.6,5.3,2.3c-1.9-0.6-3.7-1.2-5.5-1.9c-0.5-0.2-0.9-0.4-1.3-0.6
	c-0.4-0.2-0.9-0.4-1.3-0.6c-0.2-0.1-0.4-0.2-0.7-0.3l-0.7-0.3c-0.4-0.2-0.9-0.4-1.3-0.6c-3.5-1.8-6.8-3.8-10-6.1
	c-0.8-0.6-1.6-1.1-2.4-1.7l-1.2-0.9c-0.2-0.1-0.4-0.3-0.6-0.4c-0.2-0.1-0.4-0.3-0.6-0.4c-0.8-0.5-1.7-0.9-2.5-1.3
	c-0.9-0.4-1.8-0.7-2.7-1.1c-1.8-0.6-3.7-1.2-5.5-1.7C362.7,178.1,360.8,177.6,358.9,177.2L358.9,177.2z"/>
<path class="st50" d="M359.7,179.6c0.9,0.1,1.9,0.2,2.8,0.4c0.9,0.2,1.8,0.4,2.8,0.7c0.9,0.3,1.8,0.6,2.7,0.9
	c0.9,0.3,1.8,0.7,2.6,1.2c0.9,0.4,1.7,0.9,2.5,1.4c0.8,0.5,1.6,1,2.4,1.6c0.2,0.1,0.4,0.3,0.6,0.4l0.6,0.4l0.5,0.4
	c0.2,0.1,0.4,0.3,0.6,0.4l0.3,0.2l0.3,0.2c0.2,0.1,0.4,0.3,0.6,0.4c0.4,0.3,0.8,0.5,1.2,0.7c0.8,0.5,1.6,1,2.4,1.4
	c0.8,0.4,1.7,0.9,2.5,1.3c0.8,0.4,1.7,0.8,2.5,1.2c0.4,0.2,0.9,0.4,1.3,0.6l0.6,0.3l0.6,0.3c0.4,0.2,0.9,0.4,1.3,0.6l1.3,0.6
	c0.9,0.4,1.7,0.7,2.6,1.1c1.7,0.7,3.5,1.4,5.3,2.1c-1.8-0.5-3.6-1.1-5.4-1.7c-1.8-0.6-3.6-1.3-5.3-2c-3.5-1.4-6.9-3-10.2-5
	c-0.4-0.2-0.8-0.5-1.2-0.8c-0.2-0.1-0.4-0.3-0.6-0.4l-0.3-0.2l-0.3-0.2c-0.2-0.1-0.4-0.3-0.6-0.4l-0.6-0.4l-0.5-0.4l-0.3-0.2
	c-0.1-0.1-0.2-0.1-0.3-0.2c-1.5-1.1-3-2.1-4.7-3c-0.8-0.4-1.7-0.8-2.5-1.2c-0.9-0.4-1.7-0.7-2.6-1c-0.9-0.3-1.8-0.6-2.7-0.8
	c-0.5-0.1-0.9-0.2-1.4-0.3C360.6,179.7,360.1,179.6,359.7,179.6L359.7,179.6z"/>
<polygon class="st47" points="307.6,147.6 326.4,138.9 356.9,157.6 353.4,173.8 "/>
<path class="st48" d="M353.4,173.8c0,0-7.2-15-26.2-20.3c-19.5-5.5-19.6-5.9-19.6-5.9l-5.1,6.1l1.8,2l41,19.3
	C345.2,175.1,349.4,173.3,353.4,173.8L353.4,173.8z"/>
<path class="st27" d="M358.4,179.5c-0.8-3.6-5-5.7-5-5.7s-4.2-1.9-7.6-0.2c-3.3,1.7-45.8-21.1-45.8-21.1l-0.2,2.1l42.5,21.4l5.7,3.1
	c0,0,1.3-2,3.2-1c2,0.8,1.3,3.1,1.3,3.1l6,2.5l43.4,19.5l1.5-1.5C403.6,201.7,359.2,183.2,358.4,179.5z"/>
<path class="st47" d="M349.8,126.4l-12.7-0.2c0,0,13.5,24,12.1,41.4l4.2,6.2C353.4,173.8,364.9,155.7,349.8,126.4z"/>
<path class="st51" d="M353.3,173.7l1.5-4.3c2.7-7,5.5-22.6-5-43.1l-4.5-0.1C359.5,151.1,353.3,173.7,353.3,173.7L353.3,173.7z"/>
<polygon class="st49" points="300.1,152.5 306.8,148.6 302.4,153.7 "/>
<path class="st50" d="M350.1,171.8c-0.4-0.4-0.7-0.7-1.1-1.1c-0.4-0.3-0.8-0.7-1.1-1c-0.8-0.7-1.5-1.4-2.3-2
	c-0.8-0.7-1.6-1.3-2.4-1.9c-0.8-0.6-1.6-1.2-2.5-1.8c-1.7-1.2-3.4-2.3-5.2-3.3c-1.8-1-3.7-1.8-5.6-2.3c-0.1,0-0.2-0.1-0.4-0.1
	l-0.4-0.1l-0.8-0.2c-0.5-0.1-1-0.3-1.5-0.4c-0.5-0.1-1-0.3-1.5-0.4l-0.7-0.2l-0.7-0.2c-0.5-0.2-1-0.3-1.5-0.5
	c-0.5-0.2-1-0.3-1.5-0.5c-0.5-0.2-1-0.3-1.5-0.5c-0.5-0.2-1-0.4-1.4-0.6c-1.9-0.7-3.8-1.6-5.7-2.4c-0.9-0.4-1.9-0.9-2.8-1.4
	c-0.9-0.5-1.8-1-2.7-1.5c1.9,0.9,3.7,1.7,5.6,2.5c0.9,0.4,1.9,0.8,2.9,1.1c1,0.4,1.9,0.7,2.9,1.1c1.9,0.7,3.9,1.3,5.9,1.9
	c1,0.3,2,0.6,3,0.8c0.5,0.1,1,0.3,1.5,0.4l0.7,0.2l0.4,0.1c0.1,0,0.3,0.1,0.4,0.1c0.5,0.1,1,0.3,1.5,0.5c0.5,0.2,1,0.4,1.5,0.6
	c0.5,0.2,1,0.4,1.4,0.7c0.5,0.2,0.9,0.5,1.4,0.7c0.9,0.5,1.8,1.1,2.7,1.6c0.9,0.6,1.7,1.2,2.5,1.8c0.4,0.3,0.8,0.6,1.2,1
	c0.4,0.3,0.8,0.6,1.2,1c0.8,0.7,1.6,1.3,2.3,2c0.8,0.7,1.5,1.4,2.2,2.2C348.7,170.2,349.4,171,350.1,171.8L350.1,171.8z"/>
<path class="st47" d="M353.4,174c0,0,9.9-20.6-7.6-49.4l20.1-1.4c0,0,2.5,21.1-5.1,38.1L353.4,174z"/>
<path class="st50" d="M347.3,171.7c-1.5-1.2-3-2.4-4.6-3.6c-1.6-1.1-3.2-2.2-4.8-3.2c-0.8-0.5-1.7-1-2.5-1.4
	c-0.9-0.4-1.7-0.8-2.6-1.1c-0.2-0.1-0.4-0.1-0.7-0.2c-0.2-0.1-0.4-0.1-0.7-0.2l-1.4-0.4c-0.9-0.2-1.9-0.5-2.8-0.8
	c-3.7-1.1-7.4-2.3-11-3.9c-0.4-0.2-0.9-0.4-1.3-0.6l-0.7-0.3c-0.2-0.1-0.4-0.2-0.7-0.3c-0.4-0.2-0.9-0.4-1.3-0.7
	c-0.4-0.2-0.9-0.5-1.3-0.7c-1.7-1-3.3-2-5-3c1.7,0.9,3.4,1.8,5.2,2.7c0.4,0.2,0.9,0.4,1.3,0.6c0.4,0.2,0.9,0.4,1.3,0.6l0.3,0.1
	l0.3,0.1l0.7,0.3c0.4,0.2,0.9,0.4,1.3,0.6c1.8,0.7,3.6,1.4,5.4,2l0.7,0.2l0.7,0.2l1.4,0.4l1.4,0.4c0.5,0.1,0.9,0.3,1.4,0.4
	c0.9,0.3,1.9,0.5,2.8,0.8l1.4,0.4c0.2,0.1,0.5,0.1,0.7,0.2c0.2,0.1,0.5,0.2,0.7,0.2c1.9,0.7,3.6,1.7,5.2,2.7
	c0.8,0.5,1.6,1.1,2.4,1.7c0.8,0.6,1.6,1.2,2.3,1.8c0.8,0.6,1.5,1.2,2.2,1.9C345.9,170.4,346.6,171,347.3,171.7L347.3,171.7z"/>
<path class="st50" d="M345,172.6c-0.4-0.3-0.7-0.6-1.1-0.9c-0.4-0.3-0.7-0.6-1.1-0.8c-0.8-0.5-1.5-1.1-2.3-1.5
	c-0.8-0.5-1.6-0.9-2.4-1.4c-0.8-0.4-1.7-0.8-2.5-1.2c-1.7-0.7-3.5-1.3-5.3-1.7c-0.1,0-0.2-0.1-0.3-0.1l-0.3-0.1l-0.7-0.1l-0.7-0.2
	c-0.2-0.1-0.5-0.1-0.7-0.2l-0.3-0.1l-0.3-0.1c-0.2-0.1-0.5-0.1-0.7-0.2c-0.5-0.1-0.9-0.3-1.4-0.4c-3.6-1.3-7-2.9-10.3-4.7
	c-1.7-0.9-3.3-1.9-4.9-2.9c-1.6-1-3.2-2-4.7-3.1c1.6,0.9,3.3,1.9,4.9,2.8c0.8,0.5,1.7,0.9,2.5,1.3l1.2,0.7c0.4,0.2,0.8,0.4,1.3,0.6
	l0.6,0.3l0.6,0.3c0.4,0.2,0.8,0.4,1.3,0.6c0.8,0.4,1.7,0.8,2.6,1.2c0.9,0.4,1.7,0.8,2.6,1.1c0.9,0.3,1.7,0.7,2.6,1
	c0.4,0.2,0.9,0.3,1.3,0.4c0.2,0.1,0.4,0.1,0.7,0.2l0.3,0.1l0.3,0.1c0.2,0.1,0.4,0.1,0.7,0.2l0.7,0.2l0.7,0.2c0.2,0,0.5,0.1,0.7,0.2
	c0.9,0.2,1.8,0.5,2.7,0.8c0.9,0.3,1.8,0.7,2.6,1.1c0.9,0.4,1.7,0.8,2.5,1.3c0.8,0.5,1.6,1,2.4,1.5c0.8,0.5,1.5,1.1,2.3,1.7
	C343.7,171.3,344.4,171.9,345,172.6L345,172.6z"/>
<path class="st51" d="M374,164.5l2.4,0.9l-13.8,7.9c0,0-5.4-0.5-9.3,0.5L374,164.5L374,164.5z"/>
<path class="st48" d="M400.7,160.7l-7.3,4.9c0,0-9.7-3.3-18.7-1.4C374.7,164.3,391.9,156.8,400.7,160.7z"/>
<polygon class="st51" points="360.6,161.2 362.3,160.5 353.4,173.8 "/>
<line class="st52" x1="345.5" y1="145.5" x2="335" y2="134"/>
<path class="st47" d="M345.5,145.5L335,134c0,0-12.1,8.4-13.6,9c0,0,25.4,9.6,30.7,26.3C352.1,169.3,350.6,154.5,345.5,145.5
	L345.5,145.5z"/>
<path class="st51" d="M350.5,165.5c-7.5-14.3-29.1-22.5-29.1-22.5c0.6-0.3,3-1.9,5.6-3.6l-0.6-0.5c-2.8,1.9-5.5,3.7-6.1,4
	c0,0,28.7,15.4,32.5,28.5C352.8,171.4,352.3,168.8,350.5,165.5z"/>
<path class="st51" d="M345.5,145.5l-3.2-3.4c0,0,4.6,9.1,9.7,27.3L345.5,145.5L345.5,145.5z"/>
<path class="st7" d="M440.1,89.7l-2.8-3.7L415,111.7l-14.6,1.4c0,0-0.4,0-0.5,0.2c-0.1,0.2,0,0.4,0,0.4l2.1,3.2c0,0,0.1,0.2,0.3,0.2
	s15.5-1.1,15.5-1.1L440.1,89.7L440.1,89.7z"/>
<polygon class="st13" points="418.8,87.4 436.8,84.5 414.4,110.7 398,112.2 "/>
<g class="st26">
	<path class="st27" d="M414,109.8C414,109.8,413.9,109.8,414,109.8l-13.4,1.2c-0.1,0-0.1,0-0.2-0.1c0-0.1,0-0.1,0-0.2l18.8-22.4
		c0,0,0.1-0.1,0.1-0.1L434,86c0.1,0,0.1,0,0.2,0.1c0,0.1,0,0.1,0,0.2L414,109.8C414,109.8,414,109.8,414,109.8L414,109.8z
		 M400.9,110.6l12.9-1.1l19.8-23.1l-14.1,2.3C419.5,88.6,400.9,110.6,400.9,110.6z"/>
</g>
<path class="st23" d="M440.6,89.2l0.8,1.1l-22.6,26.9l-17.2,1c0,0-3-2.4-3.6-6l16.4-1.4l22.4-26.2l0.8,1.1l-22.7,26l-14.8,1.4
	c-0.3,0-0.5,0.4-0.3,0.6l2.1,3.2c0.1,0.1,0.2,0.2,0.3,0.2l15.4-1.1L440.6,89.2L440.6,89.2z"/>
<polygon class="st28" points="417.7,116 415,111.7 437.3,86 440.1,89.7 "/>
<polygon class="st29" points="440.6,89.2 439.8,89.3 440.1,89.7 "/>
<polygon class="st29" points="437.6,85.7 437.4,86.1 437.3,86 "/>
<polygon class="st30" points="419.3,90.1 429.2,88.8 427.2,91.7 417.4,92.4 "/>
<polygon class="st30" points="415.9,94.7 425.5,93.8 425.3,94.2 415.7,95.1 "/>
<polygon class="st31" points="414.4,110.7 409.2,98.9 411.6,96 417.4,107.2 "/>
<polygon class="st32" points="414.2,93 420.3,103.9 424.7,98.8 417.9,88.5 "/>
<polygon class="st33" points="423.2,86.7 428.1,94.7 431.1,91.3 427.7,86 "/>
<polygon class="st31" points="403.1,106.1 404.5,111.6 406.6,111.4 405.4,103.4 "/>
<path class="st34" d="M400.9,114c1.1-0.1,2.3-0.2,3.4-0.3c0.6-0.1,1.1-0.1,1.7-0.1l1.7-0.1l1.7-0.1c0.6,0,1.1-0.1,1.7-0.1
	c1.1-0.1,2.3-0.1,3.4-0.2c-1.1,0.1-2.3,0.2-3.4,0.3c-0.6,0.1-1.1,0.1-1.7,0.1l-1.7,0.1l-1.7,0.1c-0.6,0-1.1,0.1-1.7,0.1
	C403.2,113.9,402,114,400.9,114L400.9,114z"/>
<path class="st34" d="M401.6,115c1.1-0.1,2.3-0.2,3.4-0.3c0.6-0.1,1.1-0.1,1.7-0.1l1.7-0.1l1.7-0.1c0.6,0,1.1-0.1,1.7-0.1
	c1.1-0.1,2.3-0.1,3.4-0.2c-1.1,0.1-2.3,0.2-3.4,0.3c-0.6,0.1-1.1,0.1-1.7,0.1l-1.7,0.1l-1.7,0.1c-0.6,0-1.1,0.1-1.7,0.1
	C403.9,114.9,402.7,115,401.6,115L401.6,115z"/>
<path class="st34" d="M402.4,116c1.1-0.1,2.3-0.2,3.4-0.3c0.6-0.1,1.1-0.1,1.7-0.1l1.7-0.1l1.7-0.1c0.6,0,1.1-0.1,1.7-0.1
	c1.1-0.1,2.3-0.1,3.4-0.2c-1.1,0.1-2.3,0.2-3.4,0.3c-0.6,0.1-1.1,0.1-1.7,0.1l-1.7,0.1l-1.7,0.1c-0.6,0-1.1,0.1-1.7,0.1
	C404.7,116,403.5,116,402.4,116z"/>
<path class="st34" d="M416.8,111.4c1.6-2.1,3.3-4.1,5-6.1c0.8-1,1.7-2,2.5-3l2.5-3l2.6-3l1.3-1.5l0.6-0.7l0.6-0.7
	c1.7-2,3.5-3.9,5.2-5.9c-1.6,2.1-3.3,4.1-5,6.1l-0.6,0.8l-0.6,0.8l-1.3,1.5l-2.5,3l-2.6,3c-0.9,1-1.7,2-2.6,3
	C420.3,107.5,418.6,109.5,416.8,111.4L416.8,111.4z"/>
<path class="st34" d="M417.5,112.3c1.6-2.1,3.3-4.1,5-6.1c0.8-1,1.7-2,2.5-3l2.5-3l2.6-3l1.3-1.5l0.6-0.7l0.6-0.7
	c1.7-2,3.5-3.9,5.2-5.9c-1.6,2.1-3.3,4.1-5,6.1l-0.6,0.8l-0.6,0.8l-1.3,1.5l-2.5,3l-2.6,3c-0.9,1-1.7,2-2.6,3
	C421,108.4,419.3,110.4,417.5,112.3L417.5,112.3z"/>
<path class="st34" d="M418.3,113.4c1.6-2.1,3.3-4.1,5-6.1c0.8-1,1.7-2,2.5-3l2.5-3l2.6-3l1.3-1.5l0.6-0.7l0.6-0.7
	c1.7-2,3.5-3.9,5.2-5.9c-1.6,2.1-3.3,4.1-5,6.1l-0.6,0.8l-0.6,0.8l-1.3,1.5l-2.5,3l-2.6,3c-0.9,1-1.7,2-2.6,3
	C421.8,109.5,420.1,111.5,418.3,113.4z"/>
<path class="st35" d="M432.8,92.9l1.6-1.9c0,0,1.1,0.9,1.5,2l-1.2-0.1l0,1.4C434.6,94.4,433.6,93,432.8,92.9L432.8,92.9z"/>
<path class="st35" d="M423.4,105.6l1.6-1.8c0,0,1.1,0.9,1.5,2l-1.2-0.1l0,1.4C425.3,107,424.2,105.6,423.4,105.6z"/>
<path class="st7" d="M299.8,78.9l-1.8-4.1l-26.7,18.9l-14-2c0,0-0.3-0.1-0.5,0.1c-0.2,0.2-0.1,0.4-0.1,0.4l1.2,3.4
	c0,0,0.1,0.2,0.3,0.3c0.2,0,14.7,2.5,14.7,2.5L299.8,78.9z"/>
<polygon class="st40" points="280.4,72 297.9,73.4 271,92.7 255.4,90.4 "/>
<g class="st26">
	<path class="st27" d="M270.8,91.8C270.8,91.8,270.8,91.8,270.8,91.8L258,89.9c-0.1,0-0.1-0.1-0.1-0.1c0-0.1,0-0.1,0.1-0.2L280.6,73
		c0,0,0.1,0,0.1,0l14.2,1.1c0.1,0,0.1,0.1,0.1,0.1c0,0.1,0,0.1-0.1,0.2L270.8,91.8C270.8,91.8,270.8,91.8,270.8,91.8L270.8,91.8z
		 M258.5,89.6l12.2,1.9l23.7-17.1l-13.7-1.1L258.5,89.6L258.5,89.6z"/>
</g>
<path class="st27" d="M300.3,78.5l0.5,1.2l-27.2,20l-16.2-3c0,0-2.3-2.9-2-6.4l15.7,2.4l26.8-19.4l0.5,1.2l-27.1,19.2l-14.1-2
	c-0.3,0-0.5,0.2-0.4,0.5l1.2,3.4c0,0.1,0.2,0.2,0.3,0.2l14.7,2.5L300.3,78.5L300.3,78.5z"/>
<polygon class="st28" points="272.9,98.4 271.3,93.8 298,74.9 299.8,78.9 "/>
<polygon class="st29" points="300.3,78.5 299.6,78.5 299.8,78.9 "/>
<polygon class="st29" points="298.4,74.6 298,74.9 298,74.9 "/>
<polygon class="st30" points="280.2,74.6 289.8,75.6 287.3,77.9 278,76.3 "/>
<polygon class="st30" points="276,78.1 285.2,79.5 285,79.8 275.8,78.4 "/>
<polygon class="st31" points="271,92.7 268.8,80.5 271.8,78.3 274.6,90.2 "/>
<polygon class="st32" points="274.8,76.1 278,87.7 283.3,83.9 279.3,72.8 "/>
<polygon class="st33" points="284.6,72.3 287.4,80.9 290.9,78.4 289,72.7 "/>
<polygon class="st31" points="261.5,85.8 261.6,91.3 263.5,91.6 264.2,83.8 "/>
<path class="st34" d="M257.7,92.7c1.1,0.1,2.2,0.3,3.2,0.5c0.5,0.1,1.1,0.2,1.6,0.3l1.6,0.3l1.6,0.3c0.5,0.1,1.1,0.2,1.6,0.3
	c1.1,0.2,2.1,0.4,3.2,0.6c-1.1-0.1-2.2-0.3-3.2-0.5c-0.5-0.1-1.1-0.2-1.6-0.3l-1.6-0.3l-1.6-0.3c-0.5-0.1-1.1-0.2-1.6-0.3
	C259.8,93.1,258.7,92.9,257.7,92.7L257.7,92.7z"/>
<path class="st34" d="M258.1,93.8c1.1,0.1,2.2,0.3,3.2,0.5c0.5,0.1,1.1,0.2,1.6,0.3l1.6,0.3l1.6,0.3c0.5,0.1,1.1,0.2,1.6,0.3
	c1.1,0.2,2.1,0.4,3.2,0.6c-1.1-0.1-2.2-0.3-3.2-0.5c-0.5-0.1-1.1-0.2-1.6-0.3l-1.6-0.3l-1.6-0.3c-0.5-0.1-1.1-0.2-1.6-0.3
	C260.2,94.3,259.1,94.1,258.1,93.8L258.1,93.8z"/>
<path class="st34" d="M258.6,95c1.1,0.1,2.2,0.3,3.2,0.5c0.5,0.1,1.1,0.2,1.6,0.3l1.6,0.3l1.6,0.3c0.5,0.1,1.1,0.2,1.6,0.3
	c1.1,0.2,2.1,0.4,3.2,0.6c-1.1-0.1-2.2-0.3-3.2-0.5c-0.5-0.1-1.1-0.2-1.6-0.3l-1.6-0.3l-1.6-0.3c-0.5-0.1-1.1-0.2-1.6-0.3
	C260.7,95.4,259.7,95.2,258.6,95L258.6,95z"/>
<path class="st34" d="M273.1,93.9c2-1.5,4-3.1,6-4.6c1-0.8,2-1.5,3-2.2l3.1-2.2l3.1-2.2l1.5-1.1l0.8-0.5l0.8-0.5
	c2.1-1.5,4.1-2.9,6.2-4.3c-2,1.5-4,3.1-6,4.6l-0.8,0.6l-0.8,0.6l-1.5,1.1l-3.1,2.2l-3.1,2.2c-1,0.7-2.1,1.5-3.1,2.2
	C277.3,91.1,275.2,92.5,273.1,93.9z"/>
<path class="st34" d="M273.5,94.9c2-1.5,4-3.1,6-4.6c1-0.8,2-1.5,3-2.2l3.1-2.2l3.1-2.2l1.5-1.1l0.8-0.5l0.8-0.5
	c2.1-1.5,4.1-2.9,6.2-4.3c-2,1.5-4,3.1-6,4.6l-0.8,0.6l-0.8,0.6L289,84l-3.1,2.2l-3.1,2.2c-1,0.7-2.1,1.5-3.1,2.2
	C277.7,92.1,275.6,93.5,273.5,94.9L273.5,94.9z"/>
<path class="st34" d="M274,96.1c2-1.5,4-3.1,6-4.6c1-0.8,2-1.5,3-2.2l3.1-2.2l3.1-2.2l1.5-1.1l0.8-0.5l0.8-0.5
	c2.1-1.5,4.1-2.9,6.2-4.3c-2,1.5-4,3.1-6,4.6l-0.8,0.6l-0.8,0.6l-1.5,1.1l-3.1,2.2l-3.1,2.2c-1,0.7-2.1,1.5-3.1,2.2
	C278.2,93.3,276.1,94.7,274,96.1z"/>
<path class="st35" d="M292.2,80.3l1.9-1.4c0,0,0.8,1.1,0.9,2.2l-1.1-0.3l-0.3,1.3C293.6,82,292.9,80.5,292.2,80.3z"/>
<path class="st35" d="M280.6,90l1.9-1.4c0,0,0.8,1.1,0.9,2.2l-1.1-0.3l-0.3,1.3C282,91.8,281.3,90.2,280.6,90L280.6,90z"/>
<circle class="st53" cx="223" cy="213.7" r="1.1"/>
<circle class="st53" cx="288.6" cy="150.6" r="0.9"/>
<circle class="st53" cx="300.3" cy="102.9" r="0.5"/>
<path class="st53" d="M358.1,129.4c0,0.3-0.2,0.5-0.5,0.5s-0.5-0.2-0.5-0.5s0.2-0.5,0.5-0.5S358.1,129.2,358.1,129.4z"/>
<circle class="st53" cx="426.7" cy="241.3" r="1.3"/>
<circle class="st53" cx="364.5" cy="115" r="1"/>
<circle class="st53" cx="380.4" cy="122.4" r="0.6"/>
<circle class="st53" cx="492.3" cy="155.4" r="2.1"/>
<circle class="st53" cx="468" cy="191.5" r="1.9"/>
<circle class="st53" cx="401.7" cy="208" r="1.1"/>
<ellipse transform="matrix(0.1602 -0.9871 0.9871 0.1602 -15.6687 447.4438)" class="st53" cx="255.1" cy="232.9" rx="1.4" ry="1.4"/>
<circle class="st53" cx="407.7" cy="131.5" r="1.5"/>
<circle class="st53" cx="403.1" cy="65.1" r="0.6"/>
<circle class="st53" cx="302.3" cy="232.9" r="1.6"/>
<circle class="st53" cx="273.7" cy="162.4" r="1.1"/>
<path class="st53" d="M273.6,206.9c0,0.4-0.3,0.7-0.7,0.7s-0.7-0.3-0.7-0.7s0.3-0.7,0.7-0.7S273.6,206.5,273.6,206.9z"/>
<circle class="st53" cx="265" cy="113.4" r="1.1"/>
<circle class="st53" cx="277.6" cy="257.9" r="2.1"/>
<circle class="st53" cx="218.1" cy="146.2" r="1.1"/>
<circle class="st53" cx="455.8" cy="235.9" r="2.9"/>
<circle class="st53" cx="438" cy="122.3" r="1.2"/>
<circle class="st53" cx="427.6" cy="190.1" r="0.9"/>
</svg>
