<?xml version="1.0" encoding="UTF-8"?><svg xmlns="http://www.w3.org/2000/svg" xmlns:xlink="http://www.w3.org/1999/xlink" viewBox="0 0 792 612"><defs><clipPath id="clippath"><circle cx="512.52526" cy="203.2433" r="71.00249" fill="#fbe9d1" stroke-width="0"/></clipPath></defs><g isolation="isolate"><g id="Layer_1"><g opacity=".25"><circle cx="289.10941" cy="202.84206" r="98.75795" transform="translate(-57.36958 134.42084) rotate(-23.88308)" fill="#f49f23" stroke-width="0"/></g><g opacity=".25"><circle cx="314.08408" cy="206.96864" r="68.32983" transform="translate(-56.90182 144.88573) rotate(-23.88308)" fill="#f49f23" stroke-width="0"/></g><g opacity=".25"><circle cx="331.63146" cy="207.44644" r="46.16148" transform="translate(-55.59275 152.03107) rotate(-23.88308)" fill="#f49f23" stroke-width="0"/></g><circle cx="342.12456" cy="206.74325" r="33.77836" transform="translate(-54.40956 156.21922) rotate(-23.88308)" fill="#f49f23" stroke-width="0"/><g opacity=".07"><path d="M329.1493,412.37707c-1.86676,0-3.66472-1.02822-4.56135-2.80924-1.26711-2.517-.25362-5.58455,2.26338-6.85138l275.42332-138.63972c2.51672-1.26683,5.58455-.2539,6.85138,2.26338,1.26711,2.517.25362,5.58455-2.26332,6.85138l-275.42338,138.63972c-.7357.37047-1.51869.54586-2.29003.54586Z" fill="#f49f23" stroke-width="0"/><polygon points="380.39294 510.70662 441.72567 510.70662 441.72567 378.96538 439.08221 378.96538 380.39294 408.50777 380.39294 510.70662" fill="#fd0" stroke-width="0"/><polygon points="449.47449 510.70662 510.80714 510.70662 510.80714 343.32579 509.88426 343.32579 449.47449 373.73426 449.47449 510.70662" fill="#74cce5" stroke-width="0"/><polygon points="518.55603 338.96071 518.55603 510.70662 579.88868 510.70662 579.88868 308.08768 518.55603 338.96071" fill="#f58e81" stroke-width="0"/><polygon points="588.03376 256.92843 624.47464 255.9892 607.06761 288.01753 588.03376 256.92843" fill="#f49f23" stroke-width="0"/></g><path d="M403.28245,220.98331s-3.99904-3.02081-5.21547-3.95593c-1.21645-.93512-3.5747-6.11547-3.5747-6.11547l4.56483-2.0855,4.22533,12.15689Z" fill="#e8b489" stroke-width="0"/><path d="M396.44148,196.20145c-.11541-.42436-1.38798.72021-2.17899,1.16321s-.85495,4.51343-.85495,4.51343c0,0,.43612-.13547.94717-.47831.51107-.34284.63946-.58607.63946-.58607,0,0,.99896,2.11795,1.19071,3.6609.19176,1.54295.73327,7.30125,1.66764,8.64223.81845,1.17462,4.48575,6.49663,5.42993,7.86646,1.01295,2.01068,3.33129,3.10036,5.5882,2.48657,2.57803-.70113,4.09955-3.35939,3.39841-5.93741-.10599-.38975-.25738-.75483-.44579-1.09228,0,0-1.56543-4.62719-2.37418-6.34417-.80876-1.71695-2.06893-5.93165-2.59761-8.29446-.52866-2.36282-1.11591-3.68426-2.23451-3.60793-1.11859.07635-.89888,2.97893-1.3037,2.74722-.40482-.2317-.46075-2.95095-1.09639-4.03138-.63564-1.08042-2.7481-.05017-2.7481-.05017-1.36716-2.93231-3.02731-.65786-3.02731-.65786Z" fill="#e8b489" stroke-width="0"/><path d="M396.4614,196.19214c.97918,2.10363,2.18903,4.34806,2.26031,6.68925-.95205-2.09317-1.50764-4.6303-2.26031-6.68925Z" fill="#e8b489" stroke-width="0"/><path d="M399.48924,196.85124c.64963,1.60451,1.67991,3.27032,1.58674,5.04354-.76315-1.46915-1.17558-3.51834-1.58674-5.04354Z" fill="#e8b489" stroke-width="0"/><path d="M354.86799,228.60216c5.49715,3.31323,10.89839,4.91399,13.43305,4.26054,6.35789-1.6387,6.9419-24.89541,2.02282-34.064-4.91824-9.16851-30.20633-13.16473-31.48045,5.00109-.44226,6.30475,2.20446,11.93135,6.11595,16.52252l-7.01319,32.68913h20.3724l-3.45058-24.40927Z" fill="#e8b489" fill-rule="evenodd" stroke-width="0"/><path d="M355.88661,205.80596c1.76222-2.62379,3.45397-4.62521,5.65504-5.78738,8.95622.14151,10.00454-1.4641,10.00454-6.87568-1.44644-1.03517-6.55057-2.77812-12.26672-3.26841-2.9158-.8345-6.37062-.67755-9.69811.71439-4.10759,1.16547-7.58533,3.67561-9.12174,8.37484-5.55911,9.5926-1.34033,19.57821,4.34527,22.98932,1.5135-1.79303,2.83431-3.53071,4.01336-5.19412-.94731-.92482-1.53472-2.2155-1.53472-3.64343,0-2.81284,2.28001-5.0931,5.0931-5.0931.20712,0,.41084.01231.61117.03625.12648,3.51687.64767,15.41511,2.01516,19.548,1.61366,4.87248,11.02657,6.06885,14.30907,6.06885,2.83601,0,2.73923-2.68508,2.66962-4.60942-.00933-.27715-.01952-.53851-.01952-.77381,0-.49157-.63918-.4903-1.36156-.48886-.93798.00187-2.01602.00399-2.01602-1.07227,0-1.17328,1.62131-2.07315,3.07199-2.87845.90488-.50244,1.74439-.96803,2.08138-1.44016,1.06447-1.48956,1.42268-3.49845-.1825-3.49845-.87771,0-2.08138.50583-3.53036,1.11445-2.18664.9188-4.93012,2.07179-7.94948,2.07179-4.98784,0-6.17368-16.09301-6.18897-16.29435Z" fill="#231f20" fill-rule="evenodd" stroke-width="0"/><path d="M331.15537,323.46598l30.77506,107.99662,22.45377,79.59921h16.37686l-23.86032-187.59583h-45.74538Z" fill="#1c1b4b" fill-rule="evenodd" stroke-width="0"/><path d="M322.92493,323.46598c-.71133,55.66249-3.13905,86.02245-3.88604,91.0799-.74783,5.05745-12.0484,37.22886-33.90272,96.51593h16.96537c27.82216-56.87548,43.35356-89.04774,46.59362-96.51593,3.23922-7.46819,13.23867-37.82816,28.29811-91.0799h-54.06834Z" fill="#2c2a6c" fill-rule="evenodd" stroke-width="0"/><path d="M283.61978,526.34111l.84885-17.82585h17.82585c12.67842,8.91292,33.10515,14.43045,33.10515,14.43045v3.3954h-32.2563l-11.03505-1.6977v1.6977h-8.4885Z" fill="#191947" fill-rule="evenodd" stroke-width="0"/><path d="M382.08637,526.34111l.84885-17.82585h17.82585c12.67843,8.91292,33.10515,14.43045,33.10515,14.43045v3.3954h-32.2563l-11.03505-1.6977v1.6977h-8.4885Z" fill="#191947" fill-rule="evenodd" stroke-width="0"/><path d="M265.25432,354.26564c3.1657-4.65169,21.47828-54.11249,21.47828-54.11249l15.03458,2.18325s-24.2075,52.52173-25.95588,55.55383c-2.27118,3.93781-.2623,10.4052,1.09994,14.79036.21077.67823.40601,1.30724.56754,1.86832-2.86147.82678-3.95004-.8115-5.09768-2.53807-1.29619-1.94981-2.66777-4.01336-6.75438-2.7681-1.57886.4813-3.09576,1.09927-4.57768,1.7028-5.11907,2.08562-9.82179,4.00147-15.2231-.47876-.85632-.71048-1.57767-3.03294,1.14408-4.386,6.78087-3.37163,16.73669-9.54108,18.28431-11.81515Z" fill="#e8b489" fill-rule="evenodd" stroke-width="0"/><path d="M348.83171,260.61039c3.08967-6.64633,6.17937-13.29267,9.26904-19.939,12.53393,7.59057,23.1193,9.312,29.19147,9.73048,10.19265.70245,13.18588-1.88613,14.34522-3.242.4923-.57575,2.10529-2.6266,2.24175-9.96334.07629-4.10219-.29974-10.35444-2.76449-17.88861,2.50559,1.78505,5.61736,2.09309,7.9676.75882,1.75956-.99893,2.55132-2.61129,2.8456-3.31984,3.46793,7.19251,7.51639,18.59915,6.39813,32.15656-.4188,5.07743-.96951,10.88005-4.98168,16.6886-4.62575,6.69687-11.15403,9.4947-14.69592,10.95968-3.44032,1.42297-8.27048,2.84969-18.68128,2.989-12.15883.1627-32.65513.43696-35.36988-7.72159-.58382-1.7545-.77419-5.18801,4.23443-11.20877Z" fill="#c04027" fill-rule="evenodd" stroke-width="0"/><path d="M317.57378,327.71023s40.02921,4.24425,63.01522,0c1.89889-.35057,2.19853-3.52952,1.31742-5.68645-13.71062-33.59493-23.11248-62.90741-23.11248-86.24179-3.77313,1.90253-13.2081.57026-13.2081.57026-16.904,24.04673-24.67352,51.6369-28.01205,91.35798Z" fill="#f4d41e" fill-rule="evenodd" stroke-width="0"/><path d="M340.74144,234.33674c.43632-.29404.66719-.4403.66719-.4403l-.02546.4403h7.04546c.35398,2.08189.87178,9.79827,1.62809,21.04978,2.74773,40.88655,8.63196,128.45562,21.15673,161.96735h-86.41767c1.82333-38.09977,15.87044-83.66179,30.42159-122.34982-10.73744,10.68362-23.27767,28.59181-33.41243,58.40342l-16.18697-4.15511c16.49595-71.0827,64.82607-107.74139,74.20417-114.28424.09166-.21162.1825-.42205.27332-.63137h.64598Z" fill="#cf4a27" fill-rule="evenodd" stroke-width="0"/><polygon points="382.7957 210.67678 439.15282 222.66859 439.15282 190.75244 382.7957 202.7442 382.7957 210.67678" fill="#aec9cb" stroke-width="0"/><polygon points="382.7957 206.71051 382.7957 210.67683 439.15287 222.66859 439.15287 206.71051 382.7957 206.71051" fill="#98b9ba" stroke-width="0"/><rect x="374.59633" y="202.75133" width="8.19937" height="7.92135" transform="translate(757.39203 413.424) rotate(-180)" fill="#1c464e" stroke-width="0"/><rect x="371.73321" y="201.25579" width="3.00606" height="10.91242" transform="translate(746.47249 413.424) rotate(-180)" fill="#1c464e" stroke-width="0"/><g id="Eye"><circle cx="512.52526" cy="203.2433" r="83.35783" fill="#f49f23" stroke-width="0"/><circle cx="512.52526" cy="203.2433" r="71.00249" fill="#fbe9d1"/><g clip-path="url(#clippath)"><path d="M603.82733,281.27607h-182.40481c-.32989,0-.59674-.26805-.59674-.59674v-152.29034c0-.32988.26685-.59674.59674-.59674h182.40481c.32868,0,.59674.26686.59674.59674v152.29034c0,.32868-.26805.59674-.59674.59674ZM422.01925,280.08259h181.21134v-151.09687h-181.21134s0,151.09687,0,151.09687Z" fill="#d5c8b5" stroke-width="0"/><path d="M603.82733,264.35545h-182.40481c-.32989,0-.59674-.26805-.59674-.59674,0-.32868.26685-.59674.59674-.59674h182.40481c.32868,0,.59674.26805.59674.59674s-.26805.59674-.59674.59674Z" fill="#d5c8b5" stroke-width="0"/><path d="M603.82733,247.43459h-182.40481c-.32989,0-.59674-.26805-.59674-.59674s.26685-.59674.59674-.59674h182.40481c.32868,0,.59674.26805.59674.59674,0,.32868-.26805.59674-.59674.59674Z" fill="#d5c8b5" stroke-width="0"/><path d="M603.82733,230.51159h-182.40481c-.32989,0-.59674-.26805-.59674-.59674s.26685-.59674.59674-.59674h182.40481c.32868,0,.59674.26805.59674.59674s-.26805.59674-.59674.59674Z" fill="#d5c8b5" stroke-width="0"/><path d="M603.82733,213.59073h-182.40481c-.32989,0-.59674-.26805-.59674-.59674s.26685-.59674.59674-.59674h182.40481c.32868,0,.59674.26805.59674.59674s-.26805.59674-.59674.59674Z" fill="#d5c8b5" stroke-width="0"/><path d="M603.82733,196.66987h-182.40481c-.32989,0-.59674-.26805-.59674-.59674s.26685-.59674.59674-.59674h182.40481c.32868,0,.59674.26805.59674.59674s-.26805.59674-.59674.59674Z" fill="#d5c8b5" stroke-width="0"/><path d="M603.82733,179.74925h-182.40481c-.32989,0-.59674-.26805-.59674-.59674s.26685-.59674.59674-.59674h182.40481c.32868,0,.59674.26805.59674.59674s-.26805.59674-.59674.59674Z" fill="#d5c8b5" stroke-width="0"/><path d="M603.82733,162.82839h-182.40481c-.32989,0-.59674-.26805-.59674-.59674s.26685-.59674.59674-.59674h182.40481c.32868,0,.59674.26805.59674.59674,0,.32868-.26805.59674-.59674.59674Z" fill="#d5c8b5" stroke-width="0"/><path d="M603.82733,145.90515h-182.40481c-.32989,0-.59674-.26805-.59674-.59674,0-.32844.26685-.59674.59674-.59674h182.40481c.32868,0,.59674.26829.59674.59674,0,.32868-.26805.59674-.59674.59674Z" fill="#d5c8b5" stroke-width="0"/><path d="M451.82342,281.27607c-.32988,0-.59674-.26805-.59674-.59674v-152.29034c0-.32988.26686-.59674.59674-.59674s.59674.26686.59674.59674v152.29034c0,.32868-.26686.59674-.59674.59674Z" fill="#d5c8b5" stroke-width="0"/><path d="M482.22458,281.27607c-.32988,0-.59674-.26805-.59674-.59674v-152.29034c0-.32988.26686-.59674.59674-.59674.32964,0,.59674.26686.59674.59674v152.29034c0,.32868-.2671.59674-.59674.59674Z" fill="#d5c8b5" stroke-width="0"/><path d="M512.62553,281.27607c-.32989,0-.59674-.26805-.59674-.59674v-152.29034c0-.32988.26684-.59674.59674-.59674.32986,0,.59674.26686.59674.59674v152.29034c0,.32868-.26688.59674-.59674.59674Z" fill="#d5c8b5" stroke-width="0"/><path d="M543.02524,281.27607c-.32868,0-.59674-.26805-.59674-.59674v-152.29034c0-.32988.26805-.59674.59674-.59674s.59674.26686.59674.59674v152.29034c0,.32868-.26805.59674-.59674.59674Z" fill="#d5c8b5" stroke-width="0"/><path d="M573.42616,281.27607c-.32844,0-.59674-.26805-.59674-.59674v-152.29034c0-.32988.26829-.59674.59674-.59674.32868,0,.59674.26686.59674.59674v152.29034c0,.32868-.26805.59674-.59674.59674Z" fill="#d5c8b5" stroke-width="0"/></g><polygon points="455.85929 236.15167 453.62391 235.31265 465.37226 203.98153 467.45725 203.70178 480.0773 221.17737 494.93296 184.37082 496.96426 184.0629 509.84544 199.84161 525.52962 153.81594 527.71726 153.65028 541.98884 181.05368 555.5133 160.79013 557.52264 160.82761 572.53443 185.26115 570.50168 186.51048 556.4645 163.66426 542.85363 184.05598 540.8023 183.94403 526.88851 157.22617 511.4108 202.64818 509.35707 203.01888 496.39211 187.13539 481.48297 224.07465 479.40823 224.32647 466.82566 206.90459 455.85929 236.15167" fill="#dd3626" stroke-width="0"/></g><path d="M354.10025,168.43195c.55471-1.002,1.8163-1.36468,2.81912-.81025,1.00173.55493,1.36441,1.81652.80975,2.81803-.55471,1.0031-1.81602,1.36578-2.81808.81079-1.002-.55444-1.36551-1.81602-.81079-2.81858Z" fill="#f49f23" stroke-width="0"/><path d="M328.19318,198.09776c.68151-1.23165,2.23222-1.67745,3.46387-.99601,1.23171.68184,1.67812,2.23256.99667,3.46461-.68217,1.23165-2.23356,1.67778-3.4652.99661-1.23171-.68184-1.67745-2.2329-.99533-3.46521Z" fill="#f49f23" stroke-width="0"/><path d="M279.10999,158.1491c1.16216-2.10051,3.80695-2.8608,5.90747-1.69853,2.10051,1.16216,2.86193,3.80753,1.69967,5.90804-1.16274,2.10109-3.80913,2.86138-5.90978,1.6991-2.10051-1.16216-2.86021-3.80753-1.69736-5.90861Z" fill="#f49f23" stroke-width="0"/><path d="M327.81403,200.64686c.55471-1.002,1.8163-1.36468,2.81912-.81025,1.00173.55493,1.36441,1.81652.80975,2.81803-.55471,1.0031-1.81602,1.36578-2.81808.81079-1.002-.55444-1.36551-1.81602-.81079-2.81858Z" fill="#fff" stroke-width="0"/><path d="M330.47915,184.50892c.28532-.51539.93423-.70193,1.45004-.41676.51525.28543.70179.93434.4165,1.44947-.28532.51595-.93408.7025-1.4495.41704-.51539-.28518-.70236-.93408-.41704-1.44975Z" fill="#fff" stroke-width="0"/><path d="M290.1601,200.92755c1.16216-2.10051,3.80695-2.8608,5.90747-1.69853,2.10051,1.16216,2.86193,3.80753,1.69967,5.90804-1.16274,2.10109-3.80913,2.86138-5.90978,1.6991-2.10051-1.16216-2.86021-3.80753-1.69736-5.90861Z" fill="#f49f23" stroke-width="0"/><path d="M260.08997,227.17089c.7506-1.35664,2.45876-1.84768,3.8154-1.09701,1.35664.7506,1.84841,2.45913,1.09775,3.81577-.75097,1.35701-2.46017,1.84805-3.81689,1.09738-1.35664-.7506-1.8473-2.45913-1.09626-3.81614Z" fill="#f49f23" stroke-width="0"/><path d="M216.31271,202.33685c1.16216-2.10051,3.80695-2.8608,5.90747-1.69853,2.10051,1.16216,2.86193,3.80753,1.69967,5.90804-1.16274,2.10109-3.80913,2.86138-5.90978,1.6991-2.10051-1.16216-2.86021-3.80753-1.69736-5.90861Z" fill="#f49f23" stroke-width="0"/><path d="M308.68904,195.19424c.37979-.68643,1.24409-.93489,1.93052-.55507.68643.37979.93526,1.24428.55544,1.93071-.37997.68662-1.2448.93508-1.93128.55526-.68643-.37979-.9347-1.24428-.55469-1.9309Z" fill="#fff" stroke-width="0"/><path d="M305.81608,235.49734c.37979-.68643,1.24409-.93489,1.93052-.55507.68643.37979.93526,1.24428.55544,1.93071-.37997.68662-1.2448.93508-1.93128.55526-.68643-.37979-.9347-1.24428-.55469-1.9309Z" fill="#fff" stroke-width="0"/><path d="M212.48204,219.45209l.69404-.71049s2.66889.93019,3.83363,1.93756l1.96038-2.6399s4.83506,4.32188,3.82819,12.89972l.52056.33932s3.39751-6.0474,8.73958-5.59389l-15.08876,13.98647-10.01408-12.99953,5.52646-7.21925Z" fill="#efdec0" stroke-width="0"/><path d="M208.78543,221.09408c.18905-.03406,2.8783-2.08001,2.8783-2.08001,0,0,8.32648,3.96499,10.52454,11.83175,0,0-.79414-8.37993-9.0122-12.10423,0,0,7.56862,1.56413,9.51631,12.0134,0,0,.99011-6.78219-3.7223-12.71574,0,0,4.72038,4.5334,4.16851,13.02572,0,0,2.99867-5.74514,8.91982-5.38058,0,0-6.52592.97312-8.52025,5.79281,0,0,5.22317-5.12084,9.61456-3.41363l-9.34749,5.97926-4.27726-1.35146-10.74254-11.5973Z" fill="#fef1d9" stroke-width="0"/><path d="M221.82433,231.78598s-3.46131-9.02366-11.78673-11.71997c-.53907-.17459-1.13053-.06247-1.573.29148l-11.8102,9.44778c-.85102.68079-.84663,1.97606.00886,2.65123,3.28898,2.59576,10.36153,8.36769,11.69648,11.01939l13.46458-11.68991Z" fill="#c9785a" stroke-width="0"/><path d="M224.0745,231.90786l9.87571-4.18198c.1448-.06131.26084.13116.13902.23058l-17.61229,14.37503-6.28819,2.28519,13.88575-12.70882Z" fill="#c9785a" stroke-width="0"/><polygon points="224.15758 232.36894 231.77017 229.32257 216.54801 241.74452 212.28903 243.30762 224.15758 232.36894" fill="#f79c90" mix-blend-mode="multiply" opacity=".54" stroke-width="0"/><path d="M223.86628,232.09874c-.75547.42378-2.31006-.93558-2.31006-.93558l-1.23717,1.10355-.30394.27258-8.43909,7.52162-.36439.32444-.61407.54789-.31027.2779-2.13428,1.90097c.00256,2.36368,2.03677,1.50384,2.03677,1.50384l1.96709-1.80036.44299-.40558.00357-.00034.41211-.37688.26913-.24709,8.46034-7.74562.21959-.20133,1.9017-1.74002Z" fill="#b24e39" stroke-width="0"/><path d="M210.28678,241.21129c.16648.46228.66254,1.46484,1.8698,1.60441l.44341-.40577c-.43834-.10475-1.54909-.45928-2.00276-1.47642l-.31046.27778Z" fill="#a03c25" stroke-width="0"/><path d="M211.57601,240.06092l-.36439.32444c.2387.65079.74386,1.36497,1.8039,1.64745l.26913-.24709c-.60876-.17665-1.32938-.624-1.70864-1.7248Z" fill="#a03c25" stroke-width="0"/><path d="M220.71879,232.27819l-1.18399,1.07416c-.09562.08676-.10549.22897-.02203.31764l.77596.82436c.08346.08867.22864.09022.32426.00346l1.18399-1.07414c.09562-.08676.10549-.22897.02203-.31764l-.77596-.82437c-.08346-.08866-.22864-.0902-.32426-.00346Z" fill="#a03c25" stroke-width="0"/><path d="M219.56583,235.27669c.03655.00713.07707-.00369.10688-.03221.04657-.04471.04939-.11585.00629-.15894l-.86012-.8593c-.04306-.04326-.11576-.04184-.16257.00284-.04657.04471-.04939.11585-.00629.15894l.86012.8593c.0156.01561.03503.02534.05569.02938Z" fill="#a03c25" stroke-width="0"/><path d="M218.79283,235.94341c.03656.00713.07707-.00369.10689-.03221.04657-.04471.04939-.11585.00629-.15894l-.86012-.85931c-.04306-.04325-.11577-.04183-.16257.00285-.04659.04471-.0494.11585-.00629.15894l.86011.8593c.01561.01561.03503.02534.05569.02938Z" fill="#a03c25" stroke-width="0"/><rect x="205.15424" y="226.44526" width="14.90534" height="3.52083" rx="1.7604" ry="1.7604" transform="translate(197.39889 539.73134) rotate(-134.23181)" fill="#ac4631" stroke-width="0"/><rect x="197.04836" y="231.03654" width="3.55749" height="1.55411" rx=".77704" ry=".77704" transform="translate(171.42194 535.9825) rotate(-134.23186)" fill="#ac4631" stroke-width="0"/><path d="M216.57358,231.76824c.07873.0824.1577.16343.23681.24346.07903.07996.15769.16044.23607.24109l-.22597.25401-.19881-.18531-.058.06668c.00325.0282.01314.0556.02988.08235.01677.02665.03552.05003.05613.06987.03032.02937.06316.04894.09824.05861.03527.00985.07039.01184.10536.00644.0352-.00535.06931-.01765.10228-.03662.03311-.01905.06316-.04269.09048-.07089.04345-.04515.07441-.09356.09261-.14505.01832-.05152.02545-.10335.02171-.15535-.00399-.05197-.01828-.10275-.04315-.1526-.02491-.0497-.05913-.09547-.10252-.13733-.03098-.02988-.06462-.05839-.10082-.08548-.03617-.02716-.07505-.04962-.11647-.06766l.27737-.33332c.03219.00796.06471.01997.0976.03586.03283.01605.06465.03437.09534.05515.03091.02085.06055.04308.08897.06685.02843.02382.05425.04695.07761.06947.06241.06028.11292.12518.1516.19494.03868.06977.0663.14223.08319.21709.01687.07495.02309.15107.01889.22832-.00419.07725-.01804.15315-.04118.22772-.02329.07465-.05539.1469-.09664.21683-.04122.06977-.0904.13431-.14752.19362-.07489.07769-.15848.13709-.25058.17836-.09205.04105-.18614.06341-.2822.06675-.09605.00333-.19069-.0129-.28422-.04851-.09351-.03566-.1796-.09146-.2584-.16745-.04071-.03931-.07987-.08464-.11738-.13589-.03731-.05153-.07001-.10577-.09772-.16286-.02769-.05719-.04881-.11572-.06313-.17571-.01452-.06011-.0189-.11849-.01362-.17516l.53819-.53829Z" fill="#2f1612" stroke-width="0"/><path d="M215.82875,230.56671c.07606-.02508.15292-.03328.23045-.02466.07751.00875.15365.03253.22786.07123.07433.03866.14247.08792.20435.14761.04028.03879.07851.07751.11497.11641.03647.03883.07071.07876.10304.11981.03209.04109.06235.08395.09024.12884.02814.04483.05434.09267.07874.1435-.05704.06561-.11451.12977-.17279.19218-.05803.06236-.11671.12541-.17597.18894-.11619.12698-.23229.25312-.34822.37822-.11596.12519-.23241.25096-.34906.37746l-.35037-.33789.31239-.35309-.09788-.10075-.46024.22612-.29746-.42525.52708-.15854c-.01374-.05644-.0213-.10881-.02271-.15741-.00142-.04853.0038-.09477.01593-.13881.01199-.04396.03091-.08676.05687-.1283.02598-.04165.0594-.08356.10029-.12593.06546-.06796.13629-.11452.21249-.13969ZM215.90673,231.17226c-.00664.03133-.00624.06258.00086.09362.00731.03116.02007.0613.03853.0907.01828.02923.03925.05514.06261.07764l.01947.01885.27947-.31576c-.00718-.01222-.01531-.02382-.02432-.03517-.00903-.01131-.01894-.02227-.02977-.03279-.02447-.02354-.04963-.04001-.07536-.0498-.02575-.00974-.05145-.01347-.07706-.01139-.02558.00204-.05076.00959-.07528.02254-.02453.01305-.0478.03092-.06981.05372-.0263.02731-.0427.05644-.04936.08783Z" fill="#2f1612" stroke-width="0"/><path d="M215.21839,229.5862l.43094.45974-.72288,1.39841-.45473-.3601.137-.22349-.18579-.17923-.22654.13713-.35371-.44193,1.37571-.79055ZM214.8149,230.57841l.21334-.34173-.3355.22385.12216.11788Z" fill="#2f1612" stroke-width="0"/><path d="M213.70692,228.71499c.08776-.03825.17628-.05642.26602-.05497.08973.00152.17831.02205.26611.06162.08767.03955.17042.09673.24799.17164.06253.06027.12161.12491.17721.19372.05568.06894.10426.14168.14552.21838l-1.03206,1.11576c-.0281-.02195-.05501-.04406-.08076-.0662s-.05138-.04564-.07694-.07027c-.06838-.06603-.12985-.13567-.18464-.20887-.05458-.07314-.10017-.14861-.13655-.22594-.03628-.07764-.06216-.15683-.07738-.23769-.01536-.08078-.01759-.16205-.00684-.2433.0109-.08143.03595-.16195.07537-.24207.03937-.0799.09573-.15793.16917-.23404.07752-.08033.16018-.1397.24778-.17777ZM213.73176,229.27863c-.02924.03247-.05291.06875-.07094.1085-.01793.03983-.0289.08125-.03299.12398-.00399.04283-.00063.08525.00992.12742.01061.04235.02987.08155.05776.118l.45468-.53674c-.03416-.03094-.06931-.05144-.10546-.06181-.03633-.01017-.07217-.01247-.10776-.00643-.03568.00591-.07007.01929-.10302.03993-.03305.02057-.06342.04589-.09115.07566l-.01103.0115Z" fill="#2f1612" stroke-width="0"/><path d="M212.91581,227.42781l.38133.36782c-.04326.03913-.08575.07925-.1277.11991-.04185.04081-.08325.08248-.12415.12486-.011.01139-.02758.02916-.04959.05288-.02195.0239-.04673.05201-.07409.08434-.02744.03219-.0568.06732-.08778.10567-.03118.03816-.06121.07728-.09035.11731-.02923.04-.05601.07977-.08036.11914-.02438.03943-.04393.0762-.05854.11033-.01463.0342-.02279.06478-.02477.09186-.00192.02686.00499.04808.0207.06326.01361.01313.03148.01823.05358.01546.02211-.00281.04621-.01064.07207-.02346.02582-.01267.05236-.02895.07919-.04866.02686-.01975.05226-.03965.07622-.06022.0238-.02043.04496-.03943.06337-.05677.0183-.01738.03201-.03078.04084-.03998.08385-.08698.16201-.17859.23439-.27498.07259-.09629.14262-.19421.21028-.29367l.39524.35322c-.05863.08905-.12079.17522-.18616.25832-.06547.08306-.13503.16277-.20834.23881-.04767.04947-.09965.09869-.15596.14776-.0562.04909-.1151.09357-.17648.13333-.06149.03984-.12502.07244-.19051.09797-.06538.02556-.13129.03948-.1976.04205-.06665.00258-.13277-.00839-.19887-.03279-.06606-.02451-.13055-.067-.1935-.12783-.0538-.05178-.09388-.10818-.12035-.16874-.02654-.06069-.04206-.12404-.04696-.19014s-.00046-.1337.01312-.20282c.01379-.06906.03376-.13803.06038-.20688.02658-.06874.05839-.13635.09561-.20267.03725-.06644.07639-.1295.11749-.18952.04112-.06008.08312-.11603.12593-.16802.04283-.05205.08363-.09808.12237-.13836.07453-.07722.15116-.15009.22993-.21879Z" fill="#2f1612" stroke-width="0"/><path d="M212.21826,226.69188l.43083.45971-.72287,1.39841-.45464-.36001.13689-.22351-.18568-.1792-.22664.13705-.35361-.44184,1.37573-.7906ZM211.81477,227.68415l.21324-.34182-.33539.22388.12215.11794Z" fill="#2f1612" stroke-width="0"/><path d="M212.00329,226.49088l-.3613.39406-.23021-.24726-.74347.7742-.32642-.34955.68327-.83231-.23333-.24406.32512-.35345.88635.85836Z" fill="#2f1612" stroke-width="0"/><path d="M211.02632,225.62382l-1.06597,1.10513-.32642-.34955.98104-1.19644.41134.44086Z" fill="#2f1612" stroke-width="0"/><path d="M209.25811,224.56238c.08732-.0401.17589-.06067.26548-.06173.08949-.00107.1787.01749.26724.05548.08846.03831.1721.09519.25077.17115.0489.04718.08873.0988.11969.15489.03088.05595.0534.11445.06747.17534.01435.06075.02032.12276.01822.18579-.00212.06303-.01177.12501-.02918.1859-.01718.06089-.04205.11944-.0745.17584-.03223.05636-.07134.10828-.11694.15553-.0467.04834-.09747.08895-.15265.1217-.05517.0327-.11254.05798-.17192.07555-.05954.01765-.12021.02731-.18214.02893-.06184.00176-.1229-.00478-.18326-.01941-.0603-.0148-.11863-.03718-.17494-.06737-.05632-.03014-.10881-.06883-.15771-.11602-.05058-.04872-.09186-.10139-.12423-.15825-.03215-.0568-.05584-.11565-.07111-.1764-.01531-.061-.022-.12292-.02059-.18588.00163-.06298.01106-.12496.02847-.1858.0172-.06095.04235-.11976.07531-.17673.03271-.05692.07297-.11015.12075-.1596.07645-.07924.15839-.13894.24578-.17891ZM209.2982,225.1917c-.0139.02962-.02208.0598-.02444.09057-.00243.03063.00167.0609.01233.09068.01069.02968.02882.0568.0544.08138.02544.02464.05337.04064.08369.04777.03021.0072.06086.0078.09181.00194.0307-.00582.06033-.01716.08897-.03364.02845-.01664.05379-.03627.07579-.05906.023-.02391.04111-.05031.05423-.07915.01309-.02872.02015-.0581.02125-.088.00096-.02987-.00405-.05922-.01527-.08776-.01121-.02855-.02945-.05524-.05501-.07992-.0249-.02406-.05223-.04012-.08166-.04811-.02956-.0079-.05909-.00971-.08855-.00517-.02956.00452-.05837.01451-.08639.02994-.02795.01555-.05319.03487-.07584.05831-.02299.02391-.04141.05063-.05531.08024Z" fill="#2f1612" stroke-width="0"/><path d="M208.79157,223.40827l-.52154.56674.84794-.31497.38834.41259-1.08528,1.1839-.3665-.35368.54582-.63763-.79875.37166-.38917-.45103,1.00716-1.16154.37197.38396Z" fill="#2f1612" stroke-width="0"/><path d="M214.96445,235.53577c.05719.01485.12059-.00047.16499-.04569.06609-.06732.06522-.1755-.00209-.24166l-8.48074-8.33153c-.06743-.06614-.17551-.06517-.24173.00213-.06611.06732-.06522.1755.00209.24166l8.48074,8.33154c.02217.02174.04874.03628.07674.04354Z" fill="#a03c25" stroke-width="0"/><path d="M213.76127,236.6509c.05719.01485.1206-.00047.16499-.04567.06611-.06734.06522-.1755-.00209-.24167l-5.9076-5.80368c-.06742-.06618-.17562-.06519-.24173.00214-.06611.06732-.06522.1755.00209.24166l5.9076,5.80368c.02217.02174.04875.03628.07674.04354Z" fill="#a03c25" stroke-width="0"/><path d="M212.0432,238.2434c.05719.01485.12059-.00047.16498-.04567.06611-.06734.06522-.1755-.00209-.24167l-3.78995-3.7233c-.06754-.06617-.17562-.06519-.24173.00213-.06609.06734-.06522.1755.00209.24166l3.78995,3.72331c.02217.02174.04875.03628.07676.04354Z" fill="#a03c25" stroke-width="0"/><path d="M210.66738,239.77555c.05719.01485.12059-.00047.16498-.04567.06611-.06734.06523-.1755-.00209-.24167l-5.96354-5.85872c-.06743-.06613-.17561-.06519-.24172.00214-.06611.06732-.06523.17549.00209.24166l5.96354,5.85872c.02217.02174.04874.03628.07674.04354Z" fill="#a03c25" stroke-width="0"/><circle cx="221.44872" cy="99.22099" r="7.49443" fill="#f68a4a" stroke-width="0"/><circle cx="385.49725" cy="116.30311" r="7.49443" fill="#f68a4a" stroke-width="0"/><circle cx="175.5316" cy="198.00528" r="7.49443" fill="#f68a4a" stroke-width="0"/><circle cx="239.54866" cy="140.51742" r="2.46782" fill="#f68a4a" stroke-width="0"/><circle cx="284.65244" cy="97.18316" r="2.46782" fill="#f68a4a" stroke-width="0"/><circle cx="237.08093" cy="254.52801" r="2.46782" fill="#f68a4a" stroke-width="0"/><circle cx="338.25256" cy="123.39939" r="2.46782" fill="#f68a4a" stroke-width="0"/><polygon points="218.13832 163.11128 211.19622 157.73395 209.87465 164.73514 203.45708 166.43905 208.26951 170.59402 206.38999 181.16883 217.36908 174.67098 226.67455 178.04778 222.3957 168.04558 225.34789 163.38596 218.13832 163.11128" fill="#fff082" stroke-width="0"/><polygon points="376.08949 155.64102 374.73581 152.08091 372.66355 154.37351 369.90284 153.55306 370.74463 156.17916 367.6578 159.66833 373.19092 159.7458 375.87174 163.09983 376.54961 158.43009 378.69596 157.37291 376.08949 155.64102" fill="#fff082" stroke-width="0"/><polygon points="206.73362 283.84375 200.46421 278.98747 199.27069 285.31025 193.47496 286.84906 197.82109 290.60141 196.12369 300.15154 206.03891 294.28332 214.44269 297.33291 210.57846 288.29992 213.24458 284.0918 206.73362 283.84375" fill="#fff082" stroke-width="0"/><polygon points="275.02894 126.47013 273.87908 120.18614 269.76347 123.33745 265.45929 121.1445 266.04892 125.73222 259.89578 130.54867 268.99907 132.35929 272.40073 138.707 274.93946 131.21056 278.80145 130.11957 275.02894 126.47013" fill="#fff082" stroke-width="0"/><polygon points="254.80401 210.68499 252.40437 206.75897 254.27814 202.55657 249.80279 203.62556 246.38505 200.54486 246.01873 205.13153 242.03271 207.43003 246.28166 209.19571 247.23589 213.69693 250.2282 210.20153 254.80401 210.68499" fill="#fff082" stroke-width="0"/><polygon points="258.18815 95.15685 259.11031 92.08575 262.16305 91.10441 259.52712 89.27835 259.53709 86.07181 256.98582 88.01432 253.93922 87.01394 254.9984 90.04051 253.10555 92.62877 256.31139 92.55679 258.18815 95.15685" fill="#fff082" stroke-width="0"/><polygon points="292.40664 259.98441 292.97379 256.5103 296.15732 255.00797 293.02837 253.3951 292.5833 249.90325 290.08232 252.38055 286.62373 251.72488 288.207 254.86876 286.51453 257.95534 289.99403 257.42109 292.40664 259.98441" fill="#fff082" stroke-width="0"/><polygon points="209.61261 129.64287 221.9374 139.42996 240.33161 119.97998 239.84465 119.94949 209.61261 129.64287" fill="#eab56f" stroke-width="0"/><polygon points="239.84465 119.94949 209.93384 144.75413 210.95604 133.11709 239.84465 119.94949" fill="#fbead1" stroke-width="0"/><polygon points="239.84465 119.94949 202.18445 120.23156 209.61261 129.64287 239.84465 119.94949" fill="#fbead1" stroke-width="0"/><polygon points="337.50876 74.40101 331.34639 79.29454 322.14928 69.56956 322.39275 69.55431 337.50876 74.40101" fill="#eab56f" stroke-width="0"/><polygon points="322.39275 69.55431 337.34816 81.95663 336.83707 76.13811 322.39275 69.55431" fill="#fbead1" stroke-width="0"/><polygon points="322.39275 69.55431 341.22284 69.69536 337.50876 74.40101 322.39275 69.55431" fill="#fbead1" stroke-width="0"/><path d="M289.98825,113.05424l-.77788-.88165s1.3322-3.06911,2.6236-4.35574l-2.94452-2.54585s5.52617-5.32882,15.56422-3.38778l.44626-.58476s-6.84113-4.5413-5.83716-10.80796l15.18791,19.03949-16.22465,10.68162-8.03777-7.15736Z" fill="#efdec0" stroke-width="0"/><path d="M291.60243,117.56221c-.02363-.22617-2.20305-3.58035-2.20305-3.58035,0,0,5.41112-9.48184,14.89083-11.38667,0,0-9.96239.20244-15.07984,9.5774,0,0,2.51037-8.79776,15.01684-10.1805,0,0-7.91971-1.76375-15.33776,3.27891,0,0,5.76584-5.17488,15.74283-3.77847,0,0-6.51925-4.04396-5.56952-11.00203,0,0,.57639,7.78936,6.09121,10.56648,0,0-5.58714-6.61526-3.18655-11.64966l6.23877,11.55944-1.9706,4.93086-14.63317,11.6646Z" fill="#fef1d9" stroke-width="0"/><path d="M305.36815,103.10728s-10.95626,3.29467-14.86958,12.88652c-.25338.62107-.17291,1.32915.20614,1.88254l10.11743,14.77097c.72904,1.06435,2.25854,1.17279,3.13064.22209,3.35285-3.65504,10.7871-11.49808,14.03461-12.84144l-12.61924-16.92068Z" fill="#c9785a" stroke-width="0"/><path d="M305.70941,100.46158l-4.07071-12.02534c-.05969-.17631.1777-.29641.2844-.14388l15.42527,22.05266,2.14617,7.6238-13.78513-17.50724Z" fill="#c9785a" stroke-width="0"/><polygon points="306.26101 100.40395 303.33242 91.14989 316.66167 110.20963 318.13338 115.37458 306.26101 100.40395" fill="#f79c90" mix-blend-mode="multiply" opacity=".54" stroke-width="0"/><path d="M305.91649,100.72415c.43403.92902-1.3071,2.64502-1.3071,2.64502l1.19426,1.55732.29513.38271,8.13924,10.62234.35106.45863.59294.773.30085.39066,2.05693,2.68631c2.7906.2043,1.95397-2.27256,1.95397-2.27256l-1.95283-2.48013-.43995-.55854-.00009-.00424-.40877-.51956-.26808-.33939-8.40181-10.66707-.21842-.27688-1.88734-2.39763Z" fill="#b24e39" stroke-width="0"/><path d="M315.48298,117.55439c.56033-.15598,1.78741-.65365,2.05806-2.0666l-.44012-.55906c-.1621.50829-.67807,1.78846-1.91863,2.23481l.30069.39085Z" fill="#a03c25" stroke-width="0"/><path d="M314.23802,115.93154l.35106.45863c.7892-.2247,1.67662-.75842,2.10306-1.98505l-.26808-.33939c-.26194.70317-.85326,1.51464-2.18605,1.8658Z" fill="#a03c25" stroke-width="0"/><path d="M305.85225,104.45559l1.16422,1.49194c.09403.12051.26105.14463.37304.05388l1.04125-.84373c.11198-.09075.12655-.262.03252-.38249l-1.16421-1.49194c-.09403-.12051-.26105-.14463-.37304-.05388l-1.04125.84373c-.11199.09075-.12654.262-.03253.38249Z" fill="#a03c25" stroke-width="0"/><path d="M309.29093,106.07969c.01163-.04251.00242-.09131-.02864-.129-.04871-.05891-.13244-.06847-.18708-.02136l-1.08987.94001c-.05485.04704-.05954.133-.01092.19217.04871.05891.13244.06847.18708.02136l1.08987-.94001c.01979-.01706.03299-.03913.03956-.06317Z" fill="#a03c25" stroke-width="0"/><path d="M310.01021,107.05071c.01163-.04251.00242-.09131-.02864-.129-.04871-.05891-.13244-.06846-.18708-.02136l-1.08987.94001c-.05485.04704-.05954.133-.01092.19217.04871.05891.13244.06847.18708.02138l1.08987-.94003c.01979-.01706.03299-.03913.03956-.06317Z" fill="#a03c25" stroke-width="0"/><rect x="291.51071" y="111.5907" width="17.64464" height="4.16789" rx="2.08395" ry="2.08395" transform="translate(603.50256 7.79694) rotate(140.01754)" fill="#ac4631" stroke-width="0"/><rect x="301.27797" y="129.33868" width="4.21127" height="1.83972" rx=".91984" ry=".91984" transform="translate(619.54648 35.12736) rotate(140.01744)" fill="#ac4631" stroke-width="0"/><path d="M304.88667,109.30438c.10419-.08572.20676-.17184.30818-.25822.10131-.08627.20323-.17207.30531-.25753l.28005.28904-.23619.21845.07362.07432c.03358-.00135.06679-.01065.09985-.02805.03293-.01745.06218-.03754.0874-.06013.03733-.03321.0633-.07028.07781-.11083.01472-.04077.02014-.08205.01683-.12381-.00323-.04201-.01474-.08336-.03424-.12395-.01959-.04076-.04486-.0783-.07575-.11303-.0495-.05525-.10393-.09605-.16313-.12205-.0592-.02613-.11976-.0391-.18149-.03926-.06169.00014-.12289.01256-.18393.03756-.06085.02507-.1179.06143-.1711.10899-.03799.03396-.0746.07117-.10976.11151-.03522.04032-.06515.08426-.09008.13157l-.36917-.35668c.01222-.03731.02925-.07464.05088-.11207.02184-.03737.04626-.07331.07349-.10773.02731-.03466.05617-.0677.08671-.09917.03061-.03146.0602-.05993.08882-.08553.07664-.06837.15769-.12231.24344-.16186.08575-.03953.17371-.06579.26357-.07916.08997-.01334.18036-.014.27119-.00228.09084.01173.17922.03472.26522.0686.08608.03404.16856.07826.24749.1331.07875.05479.15063.11849.21564.19113.08516.09523.14794.19913.18858.31147.0404.11227.05853.2253.05405.33899-.00448.11368-.03195.22399-.08219.33128-.05029.10726-.12372.20401-.22034.29036-.04997.04462-.10694.08686-.17072.12665-.06411.03953-.13101.07337-.20083.10109-.06996.02766-.14091.04747-.21298.05911-.07222.01186-.14153.01191-.20797.00071l-.58825-.68257Z" fill="#2f1612" stroke-width="0"/><path d="M303.4029,110.07828c-.02295-.09199-.0259-.18344-.0089-.27421.01711-.09073.05188-.17853.10407-.26275.05217-.08436.11629-.16049.19217-.22829.04934-.04414.0984-.08588.14751-.12551.04905-.03965.09919-.07657.15048-.11115.05133-.03427.10459-.06624.16003-.09523.05539-.02927.11417-.05601.17631-.08036.07245.07308.14316.14656.21172.22084.06852.07398.13781.14878.20761.2243.13971.14832.27843.29643.41595.44425.13763.14788.27587.29639.41499.44519l-.42962.38398-.38942-.39974-.12754.10671.22657.56317-.52811.31385-.14092-.63613c-.06784.01127-.13032.0156-.18782.01299-.05741-.00258-.11153-.01279-.16247-.03097-.05084-.01801-.09969-.0441-.14646-.07839-.04689-.03433-.09343-.07745-.13987-.12944-.07448-.08324-.12323-.17095-.14626-.26311ZM304.12459,110.03934c.03639.01057.07333.01287.1106.00719.03743-.00591.07414-.01831.11045-.03753.03612-.01902.06855-.04151.09716-.06711l.02396-.02134-.34825-.35763c-.01504.0074-.02945.01599-.04365.02563-.01415.00965-.02795.0204-.04132.03227-.02993.02681-.05159.05506-.06539.0846-.01376.02955-.02043.05956-.0202.08995.00016.0304.00686.06078.01998.09085.01327.03012.03233.05915.05729.08713.02995.03344.0629.05538.09936.06598Z" fill="#2f1612" stroke-width="0"/><path d="M302.19184,110.71282l.58053-.4684,1.58746.97604-.46499.50522-.25181-.18132-.22788.20361.14201.27947-.55272.37879-.81259-1.69342ZM303.32777,111.27617l-.3847-.28182.23483.4157.14987-.13388Z" fill="#2f1612" stroke-width="0"/><path d="M301.03078,112.42074c-.03747-.10695-.05116-.21306-.04156-.31887.00967-.1058.04166-.20858.09608-.30873.05438-.10004.12914-.19272.22438-.27771.07663-.06853.15814-.13261.24425-.1922.08626-.05967.17639-.11066.27055-.15262l1.22666,1.31624c-.02838.03125-.05683.06107-.08523.08952-.02841.02845-.05839.05665-.08971.08467-.08395.07494-.17155.1414-.26278.19966-.09114.05802-.18422.10523-.2787.14137-.09484.03602-.19061.05963-.28739.07051-.09671.01104-.19286.00654-.28781-.01327-.09518-.02003-.18803-.05665-.27917-.11022-.09086-.05348-.17804-.12685-.26145-.22023-.08804-.09857-.15087-.20136-.18812-.3081ZM301.69835,112.44085c.03577.03737.07651.0685.12185.09325.04545.02466.09337.04126.14347.04983.05019.00846.10057.00823.15128-.00053.05094-.00882.0989-.02811.14437-.05784l-.59375-.58382c-.03953.0376-.06682.07729-.08222.11907-.01521.042-.02106.08411-.01704.12666.00385.04263.01661.08441.03809.12512.02138.04081.04862.07889.08132.11423l.01262.01403Z" fill="#2f1612" stroke-width="0"/><path d="M299.44184,113.24175l.46768-.4179c.04238.0545.08602.10818.13035.16127.0445.05299.09007.10551.1365.15751.01249.01399.03203.03511.05809.06319.02628.02801.05729.05973.09307.09485.03558.03522.0745.07295.11704.1129.04234.04017.08586.07905.13057.11695.04464.03802.08926.07311.13361.10533.0444.03223.08609.05853.12512.07877.03909.02027.07447.03259.10626.0373.03155.00461.05721-.00167.0765-.0189.01668-.01491.02427-.03556.02295-.06189-.0014-.02635-.00851-.05549-.02139-.08715-.01269-.03159-.02958-.06434-.05048-.09776-.02096-.03344-.04222-.06516-.06441-.09526-.02203-.02989-.0426-.05652-.06146-.07978-.01892-.02314-.03352-.0405-.04361-.05172-.09533-.10662-.19663-.20692-.30407-.30084-.1073-.09413-.21676-.1854-.32824-.274l.45164-.43561c.09998.07703.19626.15795.28862.24242.09232.08458.18033.17369.26366.2669.05421.06062.10776.1263.16075.19708.05302.07065.10037.14409.14193.22002.04163.0761.07454.15395.09894.2335.02443.07942.03509.15846.03228.23696-.00279.07892-.02154.15602-.05613.2319-.03473.07584-.09056.14824-.1679.21722-.06585.05897-.13594.10134-.20974.12727-.07398.02602-.15012.03877-.22859.03877s-.15788-.01118-.23828-.03326c-.08033-.02234-.16-.05198-.23893-.08944-.07882-.0374-.15585-.08089-.23088-.13064-.07516-.0498-.14617-.10154-.21343-.15533-.06731-.05381-.12967-.10829-.1873-.1634-.05768-.05512-.10844-.10733-.15261-.1566-.08461-.09475-.16392-.19161-.23811-.29062Z" fill="#2f1612" stroke-width="0"/><path d="M298.51187,114.00066l.58048-.46827,1.58747.97603-.46488.50514-.25185-.18121-.22784.20349.1419.27956-.55263.3787-.81264-1.69344ZM299.64787,114.56404l-.38481-.28172.23487.41559.14994-.13387Z" fill="#2f1612" stroke-width="0"/><path d="M298.25572,114.23681l.43352.4611-.31209.25007.84876.94562-.44129.35467-.92264-.87962-.30857.25406-.38875-.41482,1.09105-.97107Z" fill="#2f1612" stroke-width="0"/><path d="M297.14646,115.3141l1.21111,1.35534-.44127.35469-1.32637-1.26309.55652-.44693Z" fill="#2f1612" stroke-width="0"/><path d="M295.73829,117.30841c-.03968-.10659-.05619-.21294-.04957-.3188.00657-.10574.03632-.20943.08893-.31062.05299-.10106.12748-.19481.22404-.28103.06-.05359.12441-.09609.19335-.12771.06876-.03155.13979-.053.21293-.06428.07295-.0116.1467-.01321.22091-.0052.07422.00802.14655.02485.21689.05075.07037.02563.13732.06012.20107.10338.06369.04299.12156.09371.17334.1517.05297.05935.09646.12287.13029.19087.03375.06798.05856.13794.07409.2096.01562.07182.0217.1443.01818.21754-.00334.07316-.01642.14468-.03898.21464-.02276.06989-.0543.13679-.0949.20061-.04051.06384-.09079.12241-.15078.176-.06195.05544-.12774.09955-.19772.13277-.06987.03298-.14143.05578-.21448.06847-.07336.01274-.14703.0152-.22126.00801-.07419-.00745-.14654-.02402-.21683-.0499-.07043-.02564-.13767-.06051-.20204-.1044-.06433-.04361-.12364-.0958-.17781-.15656-.08684-.09719-.15014-.19917-.18966-.30585ZM296.48475,117.31631c.03374.019.06865.03131.10476.03678.03596.00556.07205.00339.10814-.0066.03597-.01001.06958-.02903.10083-.05708.03133-.02786.05266-.05943.06373-.09462.01117-.03502.01455-.07115.01034-.10821-.00418-.03677-.01497-.07271-.03191-.10798-.01714-.03507-.03809-.06669-.06307-.09467-.02622-.02925-.05578-.05294-.08869-.07097-.03276-.01798-.06683-.02887-.10203-.03279-.03517-.00377-.07026-.00042-.10494.01032-.03469.01073-.06779.02994-.09917.05793-.03059.0273-.05195.05814-.06395.09219-.01193.0342-.01664.06891-.01387.10409.00274.0353.012.07017.02776.10462.01592.03436.03649.06585.06218.09464.02622.02925.05614.05335.08988.07235Z" fill="#2f1612" stroke-width="0"/><path d="M294.33491,117.75795l.62331.66541-.29745-1.02865.52113-.42226,1.30244,1.38504-.44967.40164-.70487-.70029.36868.97555-.56657.41985-1.2829-1.29085.4859-.40544Z" fill="#2f1612" stroke-width="0"/><path d="M309.19318,111.53446c.02255-.0662.01001-.14241-.03946-.19877-.07369-.08395-.20146-.09239-.28548-.01873l-10.57946,9.28093c-.08399.0738-.09232.20148-.01869.28555.07369.08395.20146.09239.28548.01873l10.57946-9.28093c.0276-.02427.04711-.05437.05815-.08678Z" fill="#a03c25" stroke-width="0"/><path d="M310.40409,113.05267c.02255-.06621.01001-.14241-.03946-.19877-.07369-.08395-.20146-.09239-.28548-.01873l-7.36956,6.465c-.08405.07379-.09236.2016-.01869.28555.07369.08395.20146.09239.28548.01873l7.36956-6.465c.0276-.02427.04711-.05437.05814-.08678Z" fill="#a03c25" stroke-width="0"/><path d="M312.13338,115.22059c.02255-.06621.01001-.14241-.03946-.19878-.07369-.08393-.20146-.09239-.28547-.01871l-4.72789,4.14754c-.08404.07393-.09237.2016-.01869.28555s.20146.09239.28548.01873l4.72788-4.14754c.0276-.02427.04711-.05437.05814-.08678Z" fill="#a03c25" stroke-width="0"/><path d="M313.82144,116.97917c.02255-.0662.01003-.14241-.03946-.19877-.07367-.08395-.20146-.09239-.28547-.01873l-7.43946,6.52621c-.08399.07382-.09236.20162-.01869.28557.07369.08393.20148.09239.28548.01871l7.43944-6.52621c.02762-.02427.04711-.05437.05814-.08678Z" fill="#a03c25" stroke-width="0"/><path d="M313.68009,181.98982c.05109.43458.07852.88745.08035,1.36226.00909-.11141.01274-.22644.01274-.33967,0-.34877-.03285-.69023-.09309-1.02258Z" fill="#ab4f25" stroke-width="0"/></g></g></svg>