<?xml version="1.0" encoding="UTF-8"?><svg id="Layer_1" xmlns="http://www.w3.org/2000/svg" viewBox="0 0 792 612"><path d="M591.06753,396.17337c-48.90674,75.45857-164.68853,104.55705-230.13403,70.81646-22.95536-11.8347-17.37926-19.8837-43.33067-35.40824-76.40895-45.70904-154.30856,6.38379-184.87753-29.0529-20.45997-23.71796-5.79555-70.50784,12.51775-96.23778,13.59069-19.09473,30.91042-29.00659,42.36776-35.40823,33.28759-18.59898,50.44169-12.57417,95.32747-26.3292,52.04876-15.95008,46.16617-29.31698,77.99521-33.59243,42.91047-5.76396,54.09366,18.46466,117.47427,31.77662,72.37613,15.20131,97.54708-8.04328,121.3259,12.71065,31.43417,27.43543,20.01174,96.47775-8.66614,140.72505Z" fill="#c49a6c" opacity=".22" stroke-width="0"/><path d="M484.99497,297.32849l-26.57811,113.89999-12.50093,85.51799h-12.54734l12.52526-199.41797h39.10111Z" fill="#f69576" fill-rule="evenodd" stroke-width="0"/><path d="M484.7582,298.15125c4.06396,25.70046,8.14489,57.39627,11.08004,94.99282.11756,1.50574.15896,2.1053.24774,3.17975.9152,11.07603,4.41995,45.64233,18.58036,101.22335h-13.04993c-21.26468-60.45988-28.68813-96.46395-31.12697-104.40311-2.43881-7.93913-9.64157-40.21194-20.15815-96.81911,11.47564.60876,22.95127,1.21753,34.42691,1.82629Z" fill="#f69576" fill-rule="evenodd" stroke-width="0"/><path d="M485.1728,296.32496c-6.91349,39.19299-18.87053,101.75576-35.87159,187.68755h-18.35152c.00219-15.46193.16841-61.6888,2.94524-111.38063.9897-17.71092,2.54188-39.99305,10.16857-67.8304.95622-3.49017,1.81535-6.36479,2.4163-8.32281,12.89766-.05124,25.79533-.10248,38.69299-.15372Z" fill="#639ea8" fill-rule="evenodd" stroke-width="0"/><path d="M486.26569,295.25102c3.79803,18.34459,7.37372,37.19594,10.6768,56.54179,7.93364,46.46665,13.47104,90.96313,17.16746,133.14051h-19.5797c-21.3037-59.5574-36.57286-117.56412-47.0085-188.60837,12.91465-.35797,25.82929-.71597,38.74394-1.07394Z" fill="#7dc2c7" fill-rule="evenodd" stroke-width="0"/><path d="M516.52673,509.2776l-.67636-13.55582c-.02207-.45194-.37468-.76122-.72842-.66024-6.30226,1.7929-15.15652-2.02593-15.15652-2.02593-8.97939,7.91022-22.03724,11.41761-26.10498,12.36033-.6701.15533-1.0929.99564-.90615,1.81337l1.08896,4.77564h41.04359l1.43987-2.70734Z" fill="#1b1b48" fill-rule="evenodd" stroke-width="0"/><path d="M477.7407,179.5492c-.03983.00024-.07897-.00601-.11881-.00649-.00289.05403-.00313.10827-.00613.16227.0413-.05258.08294-.1043.12494-.15578Z" fill="#d4b99a" stroke-width="0"/><path d="M429.58723,496.8102c-.98804-4.69016-1.98089-9.37889-2.99815-14.06159-.10077-.46339-.2017-.92652-.30247-1.38991-.72101-3.31256-1.43655-6.62667-2.16226-9.93777-.21579-.98466-.43589-1.96813-.65204-2.95265-3.31954-15.1115-6.68354-30.2114-10.05927-45.30872-3.93181-17.58385-7.87966-35.16326-11.81525-52.74636-3.68931-16.48267-7.37156-32.96763-11.00231-49.46577-2.66281-12.10132-5.31008-24.20835-7.82557-36.34774l-3.45904,14.52656c1.30852,6.09855,2.64012,12.19107,3.9755,18.28202,3.52814,16.09842,7.11496,32.18126,10.71064,48.26152,3.93183,17.58443,7.87968,35.16383,11.81525,52.74694,3.68931,16.48267,7.37156,32.96763,11.00233,49.46577.11394.51765.22569,1.0359.33964,1.55341.81412,3.70094,1.62066,7.40401,2.42838,11.10679.10182.46669.20444.93312.306,1.39981,1.72784,7.93455,3.43767,15.87365,5.07801,23.83012.23625,1.14354.46989,2.28782.70224,3.43279.01942.09575.05436.17208.07861.26184.75362,2.78757,3.77602,2.7525,5.27866,1.03318-.48828-4.56233-.96679-9.12592-1.4389-13.69022Z" fill="#1b0009" stroke-width="0"/><path d="M349.5405,353.70356h14.88709l14.88327-56.92634,3.18384-12.17754,4.18615-16.01135c-3.93412-1.79317-7.80441-3.7241-11.60293-5.78933l-5.54753,21.10019h6.10906c.62284,0,.36613.97447-.25551.97447h-15.04034c-1.65697,7.10824-3.98538,14.0582-7.00781,20.705-1.17559,2.58656-2.46138,5.13399-3.89609,7.58757.20175.00876.40647.00204.60401.03132,3.79311.56319,5.10507,4.57017,5.95774,8.14165.42013,1.7586.84089,3.51709,1.26163,5.27499h-19.14658c-2.14574,1.76424-4.42568,3.37224-6.79237,4.83649.6538-.13646,1.31373-.19552,1.95123-.13273,2.38313.23436,3.40981,1.90502,4.1276,3.39395.3534.73302.70732,1.46615,1.06063,2.19917h-17.72219c-5.41001,2.27946-11.08354,3.9123-16.90051,4.67029-10.98595,1.43098-22.19924-.24315-32.81846-3.40454-5.69862-1.69524-11.39495-3.90319-16.29253-7.20114l-6.23349,22.72789h10.79385c.26294-.03348.52995-.03589.79818,0h88.65389c.26294-.03348.52997-.03589.79818,0Z" fill="#ffe9c6" stroke-width="0"/><path d="M362.02395,240.15871c.02196.14426.04152.28851.06288.43274.0725.02401.14618.04765.21854.07166-.09971-.16477-.18767-.33614-.28141-.5044Z" fill="#ffe9c6" stroke-width="0"/><path d="M323.68341,335.96994c.57603-.36914,1.10324-.76863,1.62335-1.17246-1.39079.69929-2.80171,1.35646-4.23283,1.9679.12602.0139.24507.04296.37864.03851.81509-.02699,1.58974-.42314,2.23084-.83395Z" fill="#ffe9c6" stroke-width="0"/><path d="M360.27867,231.05123c.17593-.22681.40659-.34742.66905-.21024.17341.09071.2748.27482.36144.45049.62299,1.25877,1.02609,2.61177,1.49485,3.93499.89478,2.52498,2.0399,4.96079,3.40992,7.26197.4432.74454,1.67713,2.8489,2.29266,4.74466.44775.16345.8913.32428,1.33089.48304.06456-.09913.13896-.1871.22416-.25969l1.27667-4.83732h9.04518l-1.78069,6.7727c4.0485,1.20754,8.06183,2.5946,12.04469,4.02497l13.01353-49.77475h-53.00901c1.07815,3.47485,2.78684,6.70249,4.16105,10.09526,2.2738,5.61654,4.09182,11.41297,5.46558,17.31391Z" fill="#ffe9c6" stroke-width="0"/><path d="M366.6264,257.92326c-.19691-.12073-.4049-.25608-.49107-.46995-.08845-.22154-.02341-.47116.04392-.69977.47404-1.60583,1.03795-3.18023,1.66934-4.72787-1.0106-.52588-2.02049-1.05294-2.97333-1.61808-.58818-.11306-1.1749-.24637-1.76031-.39724.51989,7.61362.31803,15.27594-.62381,22.84477-.35521,2.86078-.81822,5.70836-1.38513,8.53491l6.10197-23.12101c-.19249-.11739-.38942-.22768-.58157-.34576Z" fill="#ffe9c6" stroke-width="0"/><path d="M303.84088,341.58134c5.81697-.75798,11.4905-2.39083,16.90051-4.67029h-34.62868c1.45259-1.82184,6.08828-3.09921,8.41587-2.2331,1.15544.4307,1.90608,1.20357,3.05637,1.63896,1.20417.45591,2.81806.49634,4.29585.10776,1.11979-.29414,2.12127-.80741,3.12863-1.28386,1.64016-.77646,3.38101-1.48546,5.23153-1.86278,1.84994-.37742,3.83466-.39327,5.31425.17521,1.88929.72546,2.702,2.2683,4.52204,3.0588.29498.12816.63545.213.99668.25334,1.43113-.61144,2.84204-1.26861,4.23283-1.9679.8421-.65395,1.66022-1.32252,2.59628-1.91739.98768-.62826,2.19315-1.17286,3.42109-1.42942,2.3667-1.46425,4.64664-3.07225,6.79237-4.83649h-65.29034c2.73825-4.37025,10.48783-7.43432,14.05353-5.35589,1.77085,1.03196,2.81503,2.88717,4.57772,3.93138,1.84467,1.09232,4.43879,1.18952,6.90459.25849,1.86865-.70552,3.59259-1.9367,5.31892-3.0805,2.80916-1.8623,5.76607-3.56284,8.82846-4.46818,3.06226-.90474,6.26529-.9434,8.5307.42016,2.89294,1.74097,3.88038,5.44143,6.65088,7.33769.60581.41427,1.32071.74177,2.15752.70085,1.31963-.06504,2.6516-1.01551,3.7714-2.00115,2.63277-2.31881,4.80323-5.10339,7.44307-7.41212,2.46018-2.15247,5.59747-3.89955,8.37673-3.7787,1.43471-2.45359,2.7205-5.00101,3.89609-7.58757,3.02243-6.6468,5.35084-13.59676,7.00781-20.705h-39.26546c-.62284,0-.36038-.97447.26198-.97447h9.1358l8.58483-32.12061h9.05454l-8.55218,32.12061h6.18683l5.99432-22.57139h9.06402l-5.97116,22.57139h5.60671l.6622-2.50915c.56692-2.82655,1.02992-5.67413,1.38513-8.53491.94183-7.56883,1.1437-15.23115.62381-22.84477-3.33947-.86021-6.62712-2.25377-9.80675-3.33384-4.60055-1.56287-9.28366-2.88188-14.02363-3.94841-.5127-.11544-1.1005-.28707-1.3015-.77285-.35151-.84739.75712-1.53239,1.64374-1.76678,1.92316-.50859,3.87617-.90414,5.84516-1.18365-.08267-.35329-.16586-.70732-.24853-1.06124,5.66922-.96569,11.3982.83455,16.86339,2.64788-.02136-.14423-.04092-.28849-.06288-.43274-1.36786-2.45729-2.10112-5.26552-2.08418-8.07841.00226-.34754.13237-.76265.3389-1.02908-1.37376-5.90094-3.19177-11.69736-5.46558-17.31391-1.37421-3.39277-3.0829-6.62041-4.16105-10.09526h-60.99884l-34.9233,127.33361c4.89758,3.29794,10.59391,5.50589,16.29253,7.20114,10.61922,3.16139,21.83251,4.83552,32.81846,3.40454ZM289.50669,299.33917l.34983-1.29033h3.35999l-.34982,1.29033h-3.35999ZM289.82829,300.62891l-.34983,1.29033h-3.36109l.35043-1.29033h3.36049ZM292.22211,296.75908l.34983-1.29033h3.35881l-.34923,1.29033h-3.35941ZM291.25701,292.88868h3.35761l-.34983,1.29033h-3.3576l.34982-1.29033ZM289.99716,287.6377l.35043-1.29033h3.35532l-.34983,1.29033h-3.35592ZM296.7371,285.05703h-3.35474l.34983-1.28973h3.35415l-.34923,1.28973ZM298.40066,286.34736l-.34923,1.29033h-3.35595l.34983-1.29033h3.35535ZM295.45323,279.89689h-3.35304l.3504-1.28973h3.35246l-.34983,1.28973ZM296.0948,282.47696l.34922-1.28973h3.35366l-.34922,1.28973h-3.35366ZM296.79384,279.89689l.34997-1.28973h3.35231l-.34922,1.28973h-3.35306ZM298.83424,277.31683h-3.35174l.35043-1.28976h3.35113l-.34983,1.28976ZM298.19329,274.73674l.34983-1.28973h3.35063l-.34934,1.28973h-3.35111ZM300.23306,272.15667h-3.35005l.34983-1.28973h3.34945l-.34922,1.28973ZM297.20296,273.447l-.34983,1.28973h-3.35126l.35043-1.28973h3.35065ZM294.49221,276.02707l-.35043,1.28976h-3.35186l.35043-1.28976h3.35186ZM291.74977,281.18723h3.35304l-.34983,1.28973h-3.35363l.35042-1.28973ZM292.39025,283.76729l-.34983,1.28973h-3.35532l.35103-1.28973h3.35412ZM287.86999,295.46875h3.35833l-.34995,1.29033h-3.35881l.35043-1.29033ZM286.20522,294.17902l.35103-1.29033h3.35761l-.35043,1.29033h-3.35821ZM288.51287,298.04884l-.35043,1.29033h-3.35999l.35089-1.29033h3.35953ZM285.76695,303.20897h3.36169l-.34983,1.29033h-3.3623l.35043-1.29033ZM286.41094,305.78904l-.34983,1.29033h-3.36301l.35042-1.29033h3.36242ZM287.37892,309.65944h-3.36407l.35042-1.29033h3.36347l-.34983,1.29033ZM290.7694,307.07937h-3.36347l.35043-1.29033h3.36228l-.34923,1.29033ZM293.48545,304.49931h-3.36182l.34983-1.29033h3.36121l-.34922,1.29033ZM294.1839,301.91924h-3.3605l.34922-1.29033h3.36109l-.34982,1.29033ZM300.74754,304.49931h-5.51357l.34874-1.29033h5.51345l-.34862,1.29033ZM301.44419,301.91924h-5.51224l.34922-1.29033h5.51119l-.34817,1.29033ZM302.14097,299.33917h-7.93006l.34922-1.29033h7.92898l-.34814,1.29033ZM302.83714,296.75908h-5.50876l.34862-1.29033h5.50876l-.34862,1.29033ZM303.5339,294.17902h-7.92538l.34922-1.29033h7.92419l-.34804,1.29033ZM305.99613,285.05703h-7.91722l.34934-1.28973h7.91604l-.34816,1.28973ZM306.69291,282.47696h-5.50062l.34925-1.28973h5.4994l-.34802,1.28973ZM307.38907,279.89689h-5.49832l.34862-1.28973h5.49832l-.34862,1.28973ZM308.08572,277.31683h-7.91072l.3498-1.28976h7.90909l-.34817,1.28976ZM308.78251,274.73674h-5.49593l.34922-1.28973h5.49473l-.34802,1.28973ZM309.47867,272.15667h-7.90606l.34983-1.28973h7.90486l-.34863,1.28973ZM294.3932,237.55211c2.84722-10.44042,13.49044-18.90367,23.77255-18.90367,1.78586,0,3.43453.27025,4.94136.74694l1.96874-3.0816.1871-.29294.3466.02449c2.75251.19273,4.88004.9974,6.49379,2.12799,1.61495,1.12953,2.70895,2.57456,3.44341,4.01372,1.46724,2.88164,1.533,5.74218,1.53588,6.32529l-.0012.10683-.01056.38499-4.78548,1.90142c.21134,2.07025.0509,4.30386-.5782,6.64656-2.80327,10.44042-13.44651,18.90379-23.77207,18.90379-10.32616,0-16.38865-8.46338-13.54191-18.90379ZM292.54374,270.86694h3.34957l-.35043,1.28973h-3.35005l.35091-1.28973ZM285.30864,270.86694h5.49305l-.35103,1.28973h-5.49353l.35151-1.28973ZM284.60492,273.447h7.90726l-.35043,1.28973h-7.90846l.35163-1.28973ZM283.90179,276.02707h5.49593l-.35103,1.28976h-5.49714l.35223-1.28976ZM283.19792,278.60716h7.91135l-.35043,1.28973h-7.91243l.35151-1.28973ZM282.49421,281.18723h7.91421l-.35091,1.28973h-7.91481l.35151-1.28973ZM281.79107,283.76729h5.5006l-.35103,1.28973h-5.5018l.35223-1.28973ZM281.08733,286.34736h7.9183l-.35042,1.29033h-7.92011l.35223-1.29033ZM279.30352,292.88868h5.50649l-.35103,1.29033h-5.50755l.35209-1.29033ZM278.5998,295.46875h7.92658l-.35043,1.29033h-7.92778l.35163-1.29033ZM277.89606,298.04884h5.50996l-.35103,1.29033h-5.51056l.35163-1.29033ZM277.1928,300.62891h7.93066l-.35042,1.29033h-7.93235l.35211-1.29033ZM276.48906,303.20897h7.93367l-.35103,1.29033h-7.93424l.3516-1.29033ZM275.78535,305.78904h5.51465l-.35103,1.29033h-5.51525l.35163-1.29033ZM275.08221,308.36911h7.93764l-.35043,1.29033h-7.93944l.35223-1.29033Z" fill="#fff6d4" stroke-width="0"/><path d="M295.37803,258.21091c25.03103,0,50.83219-20.51676,57.62782-45.82623,1.52505-5.67912,1.91399-11.09379,1.40166-16.11247l-53.70764,21.33862,31.45783-49.24136c-3.65282-1.15558-7.64949-1.81072-11.97875-1.81072-24.92571,0-50.72681,20.51647-57.62898,45.82593-6.901,25.30947,7.79558,45.82623,32.82806,45.82623Z" fill="#f15a29" stroke-width="0"/><path d="M307.81879,211.73246l55.36587-21.99761c-.0561-1.52936-.31909-4.83254-1.49589-8.61219-1.42347-4.57392-4.14363-9.75377-9.34768-13.39323-3.31449-2.31606-7.70333-4.00864-13.50547-4.54745l-31.01682,48.55047Z" fill="#be1e2d" stroke-width="0"/><path d="M339.56309,283.89919l8.55218-32.12061h-9.05454l-8.58483,32.12061h9.08718Z" fill="#decfb9" stroke-width="0"/><path d="M368.90189,259.27614c-.56452-.33592-1.133-.66523-1.69392-1.00712l-6.10197,23.12101-.6622,2.50915h9.08658l5.54753-21.10019c-1.83373-.99716-3.64732-2.03008-5.44612-3.08904-.29176.18012-.76195-.02822-.72991-.43382Z" fill="#bcae79" stroke-width="0"/><path d="M370.82324,247.33801c2.60814.58287,5.20024,1.28444,7.77958,2.05383l1.78069-6.7727h-9.04518l-1.27667,4.83732c.08426-.0719.17606-.13177.28755-.15469.15638-.03288.31815.00168.47404.03625Z" fill="#bcae79" stroke-width="0"/><path d="M354.8371,283.89919l5.97116-22.57139h-9.06402l-5.99432,22.57139h9.08718Z" fill="#fcc189" stroke-width="0"/><path d="M360.4438,283.89919h-39.10369c-.62236,0-.88482.97447-.26198.97447h54.30581c.62164,0,.87835-.97447.25551-.97447h-15.19564Z" fill="#decfb9" stroke-width="0"/><polygon points="290.80169 270.86694 285.30864 270.86694 284.95713 272.15667 290.45066 272.15667 290.80169 270.86694" fill="#decfb9" stroke-width="0"/><polygon points="295.89331 270.86694 292.54374 270.86694 292.19283 272.15667 295.54288 272.15667 295.89331 270.86694" fill="#decfb9" stroke-width="0"/><polygon points="296.88301 272.15667 300.23306 272.15667 300.58229 270.86694 297.23284 270.86694 296.88301 272.15667" fill="#decfb9" stroke-width="0"/><polygon points="301.57261 272.15667 309.47867 272.15667 309.8273 270.86694 301.92244 270.86694 301.57261 272.15667" fill="#decfb9" stroke-width="0"/><polygon points="303.28657 274.73674 308.78251 274.73674 309.13053 273.447 303.6358 273.447 303.28657 274.73674" fill="#decfb9" stroke-width="0"/><polygon points="301.89374 273.447 298.54311 273.447 298.19329 274.73674 301.5444 274.73674 301.89374 273.447" fill="#decfb9" stroke-width="0"/><polygon points="293.50188 274.73674 296.85314 274.73674 297.20296 273.447 293.85231 273.447 293.50188 274.73674" fill="#decfb9" stroke-width="0"/><polygon points="292.51218 273.447 284.60492 273.447 284.25329 274.73674 292.16175 274.73674 292.51218 273.447" fill="#decfb9" stroke-width="0"/><polygon points="289.39772 276.02707 283.90179 276.02707 283.54955 277.31683 289.04669 277.31683 289.39772 276.02707" fill="#decfb9" stroke-width="0"/><polygon points="290.78992 277.31683 294.14178 277.31683 294.49221 276.02707 291.14035 276.02707 290.78992 277.31683" fill="#decfb9" stroke-width="0"/><polygon points="295.48251 277.31683 298.83424 277.31683 299.18407 276.02707 295.83293 276.02707 295.48251 277.31683" fill="#decfb9" stroke-width="0"/><polygon points="300.175 277.31683 308.08572 277.31683 308.43388 276.02707 300.5248 276.02707 300.175 277.31683" fill="#decfb9" stroke-width="0"/><polygon points="301.89076 279.89689 307.38907 279.89689 307.7377 278.60716 302.23938 278.60716 301.89076 279.89689" fill="#decfb9" stroke-width="0"/><polygon points="300.49612 278.60716 297.14381 278.60716 296.79384 279.89689 300.1469 279.89689 300.49612 278.60716" fill="#decfb9" stroke-width="0"/><polygon points="292.1002 279.89689 295.45323 279.89689 295.80306 278.60716 292.4506 278.60716 292.1002 279.89689" fill="#decfb9" stroke-width="0"/><polygon points="291.10927 278.60716 283.19792 278.60716 282.84641 279.89689 290.75884 279.89689 291.10927 278.60716" fill="#decfb9" stroke-width="0"/><polygon points="301.19229 282.47696 306.69291 282.47696 307.04093 281.18723 301.54153 281.18723 301.19229 282.47696" fill="#decfb9" stroke-width="0"/><polygon points="299.79768 281.18723 296.44402 281.18723 296.0948 282.47696 299.44845 282.47696 299.79768 281.18723" fill="#decfb9" stroke-width="0"/><polygon points="295.10281 281.18723 291.74977 281.18723 291.39935 282.47696 294.75298 282.47696 295.10281 281.18723" fill="#decfb9" stroke-width="0"/><polygon points="290.40842 281.18723 282.49421 281.18723 282.1427 282.47696 290.05751 282.47696 290.40842 281.18723" fill="#decfb9" stroke-width="0"/><polygon points="287.29167 283.76729 281.79107 283.76729 281.43884 285.05703 286.94064 285.05703 287.29167 283.76729" fill="#decfb9" stroke-width="0"/><polygon points="288.6851 285.05703 292.04042 285.05703 292.39025 283.76729 289.03613 283.76729 288.6851 285.05703" fill="#decfb9" stroke-width="0"/><polygon points="293.38235 285.05703 296.7371 285.05703 297.08632 283.76729 293.73218 283.76729 293.38235 285.05703" fill="#decfb9" stroke-width="0"/><polygon points="298.07891 285.05703 305.99613 285.05703 306.34429 283.76729 298.42825 283.76729 298.07891 285.05703" fill="#decfb9" stroke-width="0"/><polygon points="294.69549 287.6377 298.05144 287.6377 298.40066 286.34736 295.04532 286.34736 294.69549 287.6377" fill="#decfb9" stroke-width="0"/><polygon points="293.7029 286.34736 290.34758 286.34736 289.99716 287.6377 293.35308 287.6377 293.7029 286.34736" fill="#decfb9" stroke-width="0"/><polygon points="289.00563 286.34736 281.08733 286.34736 280.7351 287.6377 288.65521 287.6377 289.00563 286.34736" fill="#decfb9" stroke-width="0"/><polygon points="284.81001 292.88868 279.30352 292.88868 278.95143 294.17902 284.45898 294.17902 284.81001 292.88868" fill="#decfb9" stroke-width="0"/><polygon points="289.91386 292.88868 286.55625 292.88868 286.20522 294.17902 289.56343 294.17902 289.91386 292.88868" fill="#decfb9" stroke-width="0"/><polygon points="294.61462 292.88868 291.25701 292.88868 290.90719 294.17902 294.26479 294.17902 294.61462 292.88868" fill="#decfb9" stroke-width="0"/><polygon points="295.60853 294.17902 303.5339 294.17902 303.88195 292.88868 295.95775 292.88868 295.60853 294.17902" fill="#decfb9" stroke-width="0"/><polygon points="297.32838 296.75908 302.83714 296.75908 303.18576 295.46875 297.677 295.46875 297.32838 296.75908" fill="#decfb9" stroke-width="0"/><polygon points="295.93074 295.46875 292.57193 295.46875 292.22211 296.75908 295.58152 296.75908 295.93074 295.46875" fill="#decfb9" stroke-width="0"/><polygon points="291.22832 295.46875 287.86999 295.46875 287.51956 296.75908 290.87837 296.75908 291.22832 295.46875" fill="#decfb9" stroke-width="0"/><polygon points="286.52638 295.46875 278.5998 295.46875 278.24817 296.75908 286.17595 296.75908 286.52638 295.46875" fill="#decfb9" stroke-width="0"/><polygon points="283.40602 298.04884 277.89606 298.04884 277.54443 299.33917 283.05499 299.33917 283.40602 298.04884" fill="#decfb9" stroke-width="0"/><polygon points="284.80246 299.33917 288.16245 299.33917 288.51287 298.04884 285.15335 298.04884 284.80246 299.33917" fill="#decfb9" stroke-width="0"/><polygon points="293.2165 298.04884 289.85651 298.04884 289.50669 299.33917 292.86668 299.33917 293.2165 298.04884" fill="#decfb9" stroke-width="0"/><polygon points="294.21091 299.33917 302.14097 299.33917 302.48912 298.04884 294.56014 298.04884 294.21091 299.33917" fill="#decfb9" stroke-width="0"/><polygon points="295.93195 301.91924 301.44419 301.91924 301.79236 300.62891 296.28117 300.62891 295.93195 301.91924" fill="#decfb9" stroke-width="0"/><polygon points="290.82341 301.91924 294.1839 301.91924 294.53372 300.62891 291.17263 300.62891 290.82341 301.91924" fill="#decfb9" stroke-width="0"/><polygon points="286.11738 301.91924 289.47847 301.91924 289.82829 300.62891 286.4678 300.62891 286.11738 301.91924" fill="#decfb9" stroke-width="0"/><polygon points="285.12347 300.62891 277.1928 300.62891 276.84069 301.91924 284.77304 301.91924 285.12347 300.62891" fill="#decfb9" stroke-width="0"/><polygon points="295.23398 304.49931 300.74754 304.49931 301.09616 303.20897 295.58272 303.20897 295.23398 304.49931" fill="#decfb9" stroke-width="0"/><polygon points="290.12364 304.49931 293.48545 304.49931 293.83468 303.20897 290.47346 303.20897 290.12364 304.49931" fill="#decfb9" stroke-width="0"/><polygon points="289.12864 303.20897 285.76695 303.20897 285.41652 304.49931 288.77882 304.49931 289.12864 303.20897" fill="#decfb9" stroke-width="0"/><polygon points="284.42273 303.20897 276.48906 303.20897 276.13746 304.49931 284.07171 304.49931 284.42273 303.20897" fill="#decfb9" stroke-width="0"/><polygon points="281.3 305.78904 275.78535 305.78904 275.43372 307.07937 280.94897 307.07937 281.3 305.78904" fill="#decfb9" stroke-width="0"/><polygon points="282.6981 307.07937 286.06111 307.07937 286.41094 305.78904 283.04852 305.78904 282.6981 307.07937" fill="#decfb9" stroke-width="0"/><polygon points="287.40593 307.07937 290.7694 307.07937 291.11863 305.78904 287.75636 305.78904 287.40593 307.07937" fill="#decfb9" stroke-width="0"/><polygon points="284.01484 309.65944 287.37892 309.65944 287.72874 308.36911 284.36527 308.36911 284.01484 309.65944" fill="#decfb9" stroke-width="0"/><polygon points="283.01985 308.36911 275.08221 308.36911 274.72998 309.65944 282.66942 309.65944 283.01985 308.36911" fill="#decfb9" stroke-width="0"/><path d="M341.06296,316.94494c-2.63984,2.30873-4.8103,5.09331-7.44307,7.41212-1.11979.98564-2.45176,1.9361-3.7714,2.00115-.83681.04092-1.55171-.28659-2.15752-.70085-2.77051-1.89627-3.75795-5.59672-6.65088-7.33769-2.26541-1.36356-5.46844-1.3249-8.5307-.42016-3.06238.90534-6.01929,2.60588-8.82846,4.46818-1.72632,1.14379-3.45026,2.37498-5.31892,3.0805-2.46581.93103-5.05992.83383-6.90459-.25849-1.76269-1.04421-2.80688-2.89941-4.57772-3.93138-3.5657-2.07843-11.31528.98564-14.05353,5.35589h84.43691c-.42074-1.75791-.8415-3.51639-1.26163-5.27499-.85267-3.57147-2.16463-7.57846-5.95774-8.14165-.19754-.02927-.40226-.02256-.60401-.03132-2.77926-.12085-5.91655,1.62623-8.37673,3.7787Z" fill="#fcc189" stroke-width="0"/><path d="M325.30675,334.79748c-.52011.40383-1.04731.80333-1.62335,1.17246-.6411.41081-1.41575.80696-2.23084.83395-.13357.00445-.25262-.02461-.37864-.03851-.36122-.04034-.7017-.12518-.99668-.25334-1.82003-.7905-2.63275-2.33334-4.52204-3.0588-1.4796-.56848-3.46431-.55263-5.31425-.17521-1.85052.37732-3.59137,1.08633-5.23153,1.86278-1.00736.47645-2.00884.98972-3.12863,1.28386-1.47779.38858-3.09168.34814-4.29585-.10776-1.15029-.43539-1.90093-1.20826-3.05637-1.63896-2.32759-.86611-6.96328.41126-8.41587,2.2331h52.35087c-.35331-.73301-.70723-1.46615-1.06063-2.19917-.71779-1.48892-1.74446-3.15958-4.1276-3.39395-.63749-.06278-1.29743-.00373-1.95123.13273-1.22794.25656-2.43341.80115-3.42109,1.42942-.93606.59487-1.75418,1.26344-2.59628,1.91739Z" fill="#decfb9" stroke-width="0"/><path d="M346.5601,355.76614c.28933-1.30174,1.18507-1.93562,2.18223-2.06258h-88.65389c1.5876.21264,3.10751,1.59118,2.65711,3.6167-.13646.61337-.2729,1.22661-.40924,1.83998h83.46893c.25166-1.13133.5032-2.26276.75486-3.3941Z" fill="#1b0009" stroke-width="0"/><path d="M375.80579,353.70356h-26.26528c1.58773.21264,3.10775,1.59118,2.65735,3.6167-.13644.61337-.2729,1.22661-.40933,1.83998h24.01726v-5.45668Z" fill="#1b0009" stroke-width="0"/><path d="M233.54018,353.70356v5.45668h22.81273c.25166-1.13133.50332-2.26276.75486-3.3941.28959-1.30174,1.18534-1.93562,2.18249-2.06258h-25.75008Z" fill="#1b0009" stroke-width="0"/><path d="M237.04324,505.24423c.25659-1.46697.51316-2.93405.76987-4.40102,3.28308-18.77022,6.56653-37.53985,9.84983-56.30979,2.7464-15.70022,5.49257-31.40074,8.23909-47.10099.08676-.49635.17353-.99239.26032-1.48862.29053-1.66072.58106-3.32177.87162-4.98248,1.76748-10.10388,3.53486-20.20837,5.30234-30.31283.13634-.77986.27278-1.55957.40924-2.33944.4504-2.57533-1.06951-4.32808-2.65711-4.59844-.26823-.04563-.53524-.04257-.79818,0-.99716.16142-1.8929.96737-2.18249,2.62246-.25154,1.43843-.5032,2.87698-.75486,4.31541-1.81621,10.38278-3.63243,20.76574-5.44864,31.14866-.08725.49913-.17461.99808-.26186,1.49718-2.73777,15.65079-5.47539,31.30174-8.21316,46.9525-1.77073,10.12296-3.54148,20.24575-5.31221,30.36852-1.79904,10.28546-3.5981,20.57089-5.39726,30.85558-.10478.5989-.20954,1.1978-.31432,1.79669-.81569,4.66101,4.81969,6.65179,5.63778,1.97659Z" fill="#1b0009" stroke-width="0"/><path d="M336.20981,451.33242c.08304-.4821.16586-.96421.24889-1.44628,3.34248-19.43136,6.6851-38.86284,10.02757-58.29402,1.7675-10.27482,3.53486-20.55027,5.30225-30.82568.13643-.79306.27289-1.58596.40933-2.37902.4504-2.6189-1.06963-4.4013-2.65735-4.67624-.26821-.0464-.53524-.04329-.79818,0-.99716.16415-1.8929.98374-2.18223,2.66683-.25166,1.46277-.5032,2.92566-.75486,4.38842-4.94665,28.75637-9.89306,57.51258-14.83947,86.26896-.0834.48444-.1667.96872-.24997,1.45313-1.14129,6.63554-2.2828,13.27124-3.42421,19.90678-.24074,1.39944-.4816,2.79904-.72221,4.19848-1.90382,11.06851-3.80776,22.13698-5.71218,33.2047-.00289.01692-.0018.03197-.00457.04886-.76638,4.70358,4.82784,6.69855,5.64235,1.96117.09913-.57659.19838-1.1529.29748-1.72949,2.1466-12.4788,4.29309-24.95776,6.43969-37.43653.99259-5.77005,1.98517-11.54007,2.97766-17.31008Z" fill="#1b0009" stroke-width="0"/><path d="M454.84003,217.11496c1.02785-.41379,1.81285-.84953,2.63166-.76349.0762-.10957.14077-.22873.21902-.33638,1.30857-1.79966,2.31005-3.81953,2.96277-5.94597.36231-1.1804.47691-2.4381.65934-3.66998-.02232-.03673-.03541-.07669-.04861-.11715-15.9397,3.36843-18.10153-36.45365-7.52-44.58447,1.641-1.26082,3.38702-2.16556,5.15402-2.75025-.21036-1.68962-.12299-3.41964.22166-5.03976-1.88797-.13021-3.79335.00623-5.65229.38906-6.28764,1.29563-12.0483,5.38456-14.83465,11.31947-1.07998,2.29998-1.61088,4.82258-1.90154,7.34696-.85374,7.40743.32702,15.03866,3.37933,21.84126,1.08823,2.42537,2.41421,4.76229,3.15204,7.31597.73768,2.55426.82445,5.44025-.50284,7.74381-.89646,1.5558-2.3427,2.70019-3.67467,3.90437-5.15248,4.65624-9.00008,10.74271-10.99536,17.3948-.6322,2.10665-.95634,4.71479.65347,6.21322.29185.27158.62513.47681.98251.63352.58265-.67119,1.16325-1.34374,1.75632-2.00593,6.50437-7.26269,14.15901-15.18857,23.35783-18.88905Z" fill="#0d1115" stroke-width="0"/><path d="M366.84436,250.7069c-.65789-.06697-1.31398-.17353-1.96911-.29931.95285.56514,1.96273,1.0922,2.97333,1.61808.55515-1.36065,1.16121-2.70104,1.82076-4.0173.04934-.09841.10635-.1973.16814-.29221-.43959-.15876-.88314-.31959-1.33089-.48304.63759,1.96432.61084,3.70481-1.66224,3.47379Z" fill="#f69576" stroke-width="0"/><path d="M457.47235,216.35344c-.0481.06736-.09138.14191-.1371.21168-2.73741,1.88346-5.43391,4.3346-7.66137,5.915-1.679,1.1931-3.36523,2.42231-4.81091,3.87759-5.96795,10.45172-9.6964,21.78137-12.22935,33.51037-.01923.08903-.05773.15398-.10583.20689-.1299.14191-.33195.16115-.50755.089-1.73194,1.51783-3.46145,3.03568-5.18136,4.55595-1.57074,1.39033-3.13428,2.78788-4.68582,4.19991-.29108.26697-.5725.55564-.86596.82746-1.91473,2.735-4.26005,5.16932-6.96137,7.13218-.48831.35359-1.00071.7-1.58762.8299-.73368.16596-1.49619-.01926-2.22023-.21653-1.57799-.42818-3.14154-.91646-4.69786-1.42401-6.51396-2.13126-12.90283-4.63772-19.13781-7.47858-3.93529-1.79446-7.80569-3.72605-11.60391-5.78992-1.83293-.99827-3.64665-2.03022-5.44594-3.0886.00482-.00241.00963-.00722.01443-.01204-.0048.00241-.00962.00722-.01443.00963-.29346.18041-.76252-.02646-.73125-.43299v-.00241c-.56528-.33192-1.13057-.6615-1.69343-1.00306-.19245-.11786-.38729-.22851-.57972-.34637-.19725-.12027-.40652-.2574-.49312-.46908-.08659-.22372-.02166-.47149.0457-.7.47387-1.60683,1.03675-3.18,1.66939-4.7291.55566-1.36152,1.15943-2.70132,1.82093-4.01713.04811-.09863.10584-.19723.16838-.29108.06253-.10101.1371-.1876.22371-.25975.08419-.07218.17561-.13231.28625-.15639.15633-.03124.31991.00241.47387.03612,2.60994.58451,5.20059,1.28448,7.77926,2.05424,4.05075,1.20754,8.06306,2.59547,12.04648,4.02432,2.75908.99105,5.50371,1.99892,8.2339,2.98036,2.97314,1.0656,5.94868,2.14086,8.83764,3.42296.98382.43781,1.946.9189,2.90578,1.40481.44262-.50998.95977-.98385,1.30136-1.39036,6.02805-7.19472,11.64481-14.73341,17.79796-21.82468.58454-.67113,1.16423-1.34226,1.75837-2.00376,6.50436-7.26446,14.15853-15.19042,23.35699-18.89004,1.02713-.41373,1.81372-.84913,2.63155-.76251Z" fill="#4862ad" stroke-width="0"/><path d="M366.84436,250.7069c2.27308.23102,2.29983-1.50947,1.66224-3.47379-.61553-1.89576-1.84946-4.00013-2.29266-4.74466-1.37003-2.30118-2.51514-4.73699-3.40992-7.26197-.46875-1.32322-.87186-2.67621-1.49485-3.93499-.08664-.17567-.18803-.35978-.36144-.45049-.26246-.13718-.49312-.01657-.66905.21024-.20653.26643-.33664.68154-.3389,1.02908-.01693,2.81289.71632,5.62111,2.08418,8.07841.09374.16826.18171.33963.28141.5044-.07235-.02401-.14604-.04765-.21854-.07166-5.46519-1.81333-11.19417-3.61357-16.86339-2.64788.08268.35391.16586.70795.24853,1.06124-1.96898.27951-3.922.67507-5.84516,1.18365-.88663.23439-1.99525.91939-1.64374,1.76678.201.48578.7888.65741,1.3015.77285,4.73997,1.06653,9.42308,2.38554,14.02363,3.94841,3.17963,1.08007,6.46728,2.47363,9.80675,3.33384.58542.15087,1.17213.28418,1.76031.39724.65513.12578,1.31121.23234,1.96911.29931Z" fill="#f69576" stroke-width="0"/><path d="M504.3258,298.98321c-.06495,5.64078-.33915,11.25754-.75532,16.85982-.0481.64467-.10345,1.28691-.15636,1.93159-.45701,5.71533-1.05356,11.41869-1.73192,17.11962.01926.00241.04087.00482.06254.00721.58932.07698.63023.97902,0,.95497-.06014-.00241-.11786-.00962-.17559-.01202-.25981,2.16491-.52678,4.32982-.80585,6.49473-.03124.24535-1.52984-.13711-2.89856-.54364-1.07285-.31752-2.06387-.64707-2.21304-.7-.91406-.32232-2.52814-.74809-3.78859-1.41921-.98141-.52198-1.74877-1.1907-1.80891-2.0687-.09138-1.33743-.15633-2.67486-.2261-4.0123-.41132-.14673-.35841-.68555-.0481-.85875h.00241c-.26703-5.44836-.36082-10.90151-.33677-16.35709.00241-.64708.00241-1.29654.0096-1.9436.08181-8.54177.4354-17.08354.88763-25.61328.02164-.41614.05294-.84432.14191-1.25323-1.11851-3.89926-2.14565-7.82254-3.08137-11.7699-.76736-3.23535-1.4505-6.49235-2.09517-9.75413-.03847.03368-.07937.06254-.12509.08419-1.45769,4.41885-2.72534,8.89777-3.73806,13.43689-.40413,1.80168-.76976,3.69715-.25978,5.47.4041,1.40478,1.31578,2.59309,2.13361,3.80301,1.8378,2.72296,3.26422,5.72259,4.22158,8.8665.39691,1.30855.7,2.78554.06495,3.99789-.43059.82505-1.22678,1.38551-1.99895,1.90992-.16596.11064-.33674.21888-.5027.33192-1.14981.77458-2.30444,1.54193-3.46871,2.29481-1.21714.78418-2.47278,1.56836-3.88238,1.89794-3.8415.90442-6.24696-1.66702-9.53041-2.71577-3.14632-1.00549-6.77858-.03609-9.85517.76251-1.37832.356-2.81437.7024-4.25042.91649-2.62915.38968-5.25594.33192-7.51464-.97181-.23332-.13472-.45704-.29105-.67595-.45701-.78177-.59658-1.42401-1.37835-1.64051-2.32611-.23814-1.03914.05532-2.1216.41132-3.12468.81064-2.27314,1.98212-4.47411,2.17454-6.87956.267-3.3388-1.37835-6.49714-2.97555-9.44382-2.92023-5.38825-5.9054-10.72835-8.92905-16.04922-1.49622-2.63158-2.30201-5.15969-2.43913-7.77442.0481-.05291.08659-.11786.10583-.20689,2.53295-11.729,6.26141-23.05865,12.22935-33.51037,1.44568-1.45528,3.13191-2.6845,4.81091-3.87759,2.22745-1.5804,4.92396-4.03154,7.66137-5.915-2.99722,4.42123-4.38755,10.20636-5.82844,15.31795-.6711,2.38138-1.27728,4.86141-.89723,7.30293.02889.00963.06014.02167.08662.0385,6.96859-2.90819,13.764-6.23254,20.33331-9.95377,4.41397-2.49924,9.80942-5.62874,11.70492-10.63451l.04328-.28864-.16596-.20689c1.07282.45226,2.13604.89241,3.18482,1.29417,1.58762.60615,3.21853,1.26765,4.73154,2.08069,2.01577.46424,3.88963,1.77044,5.1645,3.44222,1.39996,1.83293,2.22267,4.00987,2.83845,6.24696.21168.76973.39931,1.54428.57491,2.31645,3.91368,16.97769,3.40851,34.36191,4.64254,51.64751.00479.06977-.00241.13469,0,.20205.2261,1.1859.19483,2.76146.2742,3.60818.31754,3.32435.33918,6.66791.30309,10.00431Z" fill="#4862ad" stroke-width="0"/><path d="M477.44003,197.95894c-.87077.58692-2.47281,1.37591-3.11987.15633-.01445-.02883-.02646-.06254-.04087-.09138-.02889-1.3134-.08662-2.6364-.26222-3.84632.08421-.00241.178-.01445.27663-.02889.05051-.00722.10104-.01442.14914-.02646.04328-.00719.089-.01683.13231-.02405.00722,0,.01442-.00241.02164-.00482,1.04877-.22851,1.85941-.86114,2.41746-1.43605.00482-.00482.00963-.00722.01204-.01204.00963-.00722.01685-.01683.02646-.02646.06495-.06251.13228-.12265.19723-.19001h.00241c.25258-.25499.50035-.5148.73849-.78177.24055-.26462.47387-.534.70237-.81067.27185-.32952.53641-.66632.789-1.01028,2.023-2.74942,3.39653-5.91982,3.86077-9.37164.07699-.56771.12509-1.16426-.08421-1.69586-.10342-.26459-.26456-.48591-.46424-.66632-.03847-.03847-.08178-.07218-.12268-.10342-.08659-.06495-.178-.12509-.2742-.178-.09625-.05291-.19486-.09863-.30068-.13713-.05053-.01923-.10345-.03606-.1588-.05291-.10583-.03368-.21647-.06014-.32952-.0794-.61822-.10583-1.29657-.01683-1.85222.26703-.76013.38968-1.42163,1.01269-2.01577,1.74155-.04087,0-.07937-.00722-.11786-.00722-.15633-.00241-.31031-.00963-.46424-.02164-.23332-.01923-.46186-.05053-.69039-.09141-.07455-.01445-.15152-.02886-.2261-.04569-.30068-.06495-.59655-.14917-.89001-.25018-.2189-.07458-.4354-.15877-.64708-.25258-.14191-.06254-.28145-.1275-.42095-.19726-.13951-.06974-.27663-.14429-.41132-.21888-.06736-.0385-.13469-.07699-.20205-.11546-.13472-.0794-.26703-.16358-.39691-.24777-.1299-.08419-.25737-.17078-.38246-.26222-.09863-.07215-.19486-.14429-.29108-.21888-.33436-.25258-.64946-.52678-.95014-.81304-.05535-.05291-.11067-.10586-.16358-.15877l-.15874-.15874c-.05053-.05532-.10345-.10826-.15398-.16358-.06733-.06974-.13228-.14191-.19961-.2165-.06736-.07218-.1299-.14673-.19486-.21888-.1299-.14917-.25499-.29827-.38008-.44985-.49551-.60377-.95737-1.23638-1.40956-1.87383-.22613-.32232-.44985-.64467-.67595-.967-.22372-.31991-.44503-.64227-.67113-.95977-.11305-.16118-.22851-.31991-.34396-.47868-.22854-.3151-.46427-.62782-.70722-.93573-.36323-.45945-.74569-.90686-1.15219-1.33263-1.18112-1.23397-2.56666-2.27074-3.74049-3.51196-.45945-.48591-.86117-1.01991-1.20754-1.59241-.48831-.80823-.86358-1.69104-1.13537-2.61714-.09144-.31028-.17078-.623-.24055-.94054-.09144-.42336-.16358-.85154-.2165-1.2845-.21168-1.68863-.12268-3.42055.22131-5.03944.178-.83709.40651-1.65252.71923-2.40064.35119-.84432.8082-1.68623,1.55873-2.22745,1.07523-.77455,2.5185-.77455,3.85595-.61097.08897.0096.178.01923.26456.03127,1.06566.14914,2.11922.36804,3.15598.63983,6.42978,1.69586,12.21009,5.71777,15.85674,11.16375,8.02703,11.98393,4.88308,29.39946-7.09128,37.45532Z" fill="#0d1115" stroke-width="0"/><path d="M468.9897,173.56762c.4522.63745.91406,1.27006,1.40956,1.87383-.49792-.60377-.95977-1.23397-1.40956-1.87383Z" stroke-width="0"/><path d="M471.17381,176.32667c.05053.05532.10345.10826.15398.16358-.05291-.05532-.10586-.10826-.15639-.16358-.06733-.06974-.13228-.14191-.1972-.2165.06733.07458.13228.14676.19961.2165Z" stroke-width="0"/><path d="M477.99089,191.64702c-.23814.26697-.48591.52678-.73849.78177h-.00241c.25258-.25499.50035-.5148.7409-.78177Z" stroke-width="0"/><path d="M477.05276,192.61881c-.01442.00963-.02886.01923-.04331.02886.00241.00241.00241.00722.00482.00963-.55805.57491-1.36869,1.20754-2.41746,1.43605-.00722.00241-.01442.00482-.02164.00482-.04331.00722-.08903.01685-.13231.02405-.0481.01204-.09863.01923-.14914.02646-.09382.01204-.18522.02167-.27663.02889.17559,1.20992.23332,2.53292.26222,3.84632.03847,1.62368.04087,3.21847.19242,4.51742.37283,3.18244.95977,6.19405,2.14808,9.17681,1.07764,2.70373,3.77896,4.60164,5.97273,6.40091l.01923.02164.16596.20689-.04328.28864c-1.8955,5.00577-7.29095,8.13526-11.70492,10.63451-6.56931,3.72123-13.36472,7.04559-20.33331,9.95377-.02649-.01683-.05773-.02886-.08662-.0385-.38005-2.44151.22613-4.92155.89723-7.30293,1.44089-5.11159,2.83122-10.89672,5.82844-15.31795.04572-.06977.089-.14432.1371-.21168.07699-.11064.14194-.23091.2189-.33677,1.30858-1.79928,2.30923-3.81986,2.96351-5.94628.02408-.07455.04572-.14914.06495-.22372.01204-.04087.02408-.08419.03368-.1275.02886-.10583.05535-.21165.08178-.31991.00241-.01201.00482-.02164.00722-.03368.0481-.21647.09141-.43299.13231-.65187.00482-.03368.01204-.06495.01685-.09622.0192-.10826.03606-.2165.05291-.32473.05051-.31513.09379-.63023.1371-.94773.00719-.05053.01442-.10345.02164-.15398v-.89723c-.15633.0313-.31031.06014-.46424.08421-.14194.02164-.28386.04087-.42336.05532-.31272.03365-.61822.05051-.9189.05051-.11546,0-.23091-.00241-.34396-.00963h-.02167c-.02164,0-.04087,0-.06014-.00241-.09619-.00482-.19242-.01201-.28864-.02164-.02164,0-.04569-.00238-.06736-.00479-.09619-.00963-.19245-.02167-.28864-.03612-.01204,0-.02646-.00241-.0385-.00482-.0096,0-.02164-.00238-.03368-.00479-.10823-.01442-.21165-.03127-.31751-.05053-.07937-.01683-.15636-.03365-.23576-.05051-.0096-.00241-.02161-.00482-.03124-.00722-.04569-.0096-.08903-.01923-.13231-.03124-.08178-.01926-.16115-.0409-.23814-.06254q-.00241,0-.00482-.00241c-.05051-.01204-.10101-.02649-.14914-.04331-.01923-.00479-.0385-.01201-.05773-.01683-.06492-.01926-.12747-.0409-.19242-.06254-.19726-.06736-.39212-.14435-.58454-.22851-.09141-.03852-.18282-.08181-.27182-.12509-.01204-.00722-.02646-.01204-.03847-.01926-.06014-.02886-.11789-.05773-.17562-.089-.07215-.03609-.14191-.07215-.21168-.11305-.04087-.02164-.08178-.04572-.12268-.06736-.24295-.14191-.47628-.29346-.70719-.45945-.05532-.03847-.11305-.07937-.16837-.12268-.06014-.04569-.12027-.09138-.18041-.13951-.05053-.0385-.10107-.07937-.14917-.12027-.16355-.13228-.32473-.27423-.4835-.42095-.05051-.04813-.10342-.09863-.15633-.14914-.05051-.0481-.10345-.10101-.15398-.15154-.09138-.09141-.18279-.1852-.27179-.28145-.08903-.09619-.178-.19483-.26462-.29346-.06974-.07937-.1371-.15874-.20443-.24055-.06014-.07458-.12268-.14673-.18041-.22369-.06254-.0794-.12509-.16118-.18763-.24295-.06254-.08181-.12509-.16358-.18522-.24777-.08181-.11064-.16118-.22369-.24055-.33915-.06014-.08662-.11786-.17322-.17559-.26222-.06014-.089-.11786-.178-.17319-.26941-.11549-.18041-.22613-.36804-.3368-.55564-.07215-.1275-.14429-.25499-.21647-.38249-.14676-.26941-.29105-.54364-.43059-.82505-.06014-.12509-.12268-.25499-.18282-.38249-.06495-.13951-.1299-.27901-.19245-.42095-.04569-.10583-.09379-.21165-.13951-.31991s-.09382-.2189-.1371-.32714c-.04331-.10342-.08421-.20449-.12509-.30791-.0481-.11786-.09382-.23814-.13954-.35841-.07215-.18763-.14188-.37527-.20924-.56768-.03612-.09622-.06977-.19242-.10104-.28867-.03368-.09619-.06495-.19242-.09863-.29105-.06736-.19486-.1299-.39209-.19245-.59173-.06254-.19967-.12268-.39931-.18282-.60136-.09379-.32235-.1852-.65187-.27179-.98385-.08662-.33192-.16837-.66632-.24777-1.00546-.07699-.33915-.15154-.68076-.22369-1.02713-.03612-.17319-.06977-.34637-.10345-.52196-.01923-.10586-.0385-.2093-.05776-.31513-.00238-.00722-.00479-.01445-.00479-.02405-.01201-.06014-.02164-.12268-.03368-.18522-.03127-.17559-.06254-.35122-.09141-.52922-.0096-.05291-.01683-.10583-.02646-.15874l-.01445-.09382c-.03365-.19964-.06495-.40413-.09379-.60859-.00482-.02886-.00963-.06014-.01445-.09141-.03368-.23091-.06495-.46183-.09382-.69515-.02164-.1588-.0409-.31994-.06014-.47868,0-.00963-.00241-.01685-.00241-.02649-.02164-.18041-.04331-.36323-.06251-.54604-.00722-.05291-.01204-.10583-.01685-.15874-.01445-.1299-.02649-.2574-.0385-.3873-.0096-.10342-.01923-.20684-.02886-.31028-.00241-.01442-.00241-.02886-.00241-.04331-.02405-.24777-.04328-.49792-.06254-.74809-.01204-.16358-.02405-.32714-.03365-.49069-.01445-.20449-.02649-.41135-.03852-.61822-.0192-.37045-.03365-.7409-.04569-1.11132-.00963-.27904-.01445-.55805-.01923-.83709-.00482-.27663-.00722-.55327-.00722-.83231,0-.2742.00241-.54845.00722-.82265,0-.10823.00238-.2165.00479-.32476.00482-.16596.00963-.33192.01445-.49792.00241-.1371.00722-.27423.01445-.40892.00482-.16599.01204-.32955.02164-.49551.00482-.10826.0096-.21412.01683-.32235.01445-.28864.03371-.57731.05532-.86358.01685-.25256.03852-.5027.06014-.75529.00722-.10104.01685-.20449.02649-.3055.01683-.16596.03365-.33195.05051-.49554.01204-.13228.02646-.26456.04328-.39688.01926-.16599.03852-.33198.05773-.49554.01204-.0986.02408-.19726.03852-.29587.03365-.26222.06974-.52196.10823-.77936.02646-.18041.05532-.36082.08178-.54123.00722-.02646.0096-.05291.01442-.08181.02889-.178.06014-.356.09144-.5316.04328-.25258.09138-.50514.13951-.75529.05051-.25018.10104-.49795.15395-.74331.05291-.24777.10823-.49072.16596-.73127.05773-.24295.11786-.48109.178-.71923.06254-.23573.12509-.47146.19245-.70237.06495-.23091.13472-.46186.20446-.68799.06977-.2261.14191-.44979.2165-.66869.03847-.11067.07458-.22131.11305-.32955.07699-.2165.15636-.43299.23573-.64465.0409-.10586.08181-.2093.12268-.31513.08421-.20689.16837-.41373.25499-.61581.08659-.20205.178-.40169.267-.59655.18282-.38968.37524-.76492.5725-1.12333.08659-.1588.17559-.31272.267-.46427.04572-.07696.09141-.15154.1371-.22613.04572-.07455.09144-.14911.13954-.22128.04569-.07218.09379-.14435.14191-.2165.06974-.10586.14191-.21168.2165-.3151.07218-.10345.14673-.20449.22128-.30309.11305-.15157.23094-.29827.34881-.44022v-.00241c.09141-.10583.18041-.20927.26941-.31031.09141-.10342.18282-.20202.2766-.29827.06254-.06495.12509-.1275.19004-.19001.25258-.24777.5148-.4763.78418-.68314,1.64294-1.26046,3.3869-2.16732,5.1549-2.75186.05291.43296.12506.86114.2165,1.2845.06977.31754.14911.63026.24055.94054.27179.92609.64705,1.80891,1.13537,2.61714.34637.5725.74809,1.1065,1.20754,1.59241,1.17383,1.24122,2.55938,2.27799,3.74049,3.51196.40651.42577.78897.87318,1.15219,1.33263.24295.30791.47868.62063.70722.93573.11546.15877.23091.31751.34396.47868.2261.31751.44741.63986.67113.95977.2261.32232.44982.64467.67595.967.44979.63986.91165,1.27006,1.40956,1.87383.12509.15157.25018.30068.38008.44985.06495.07215.1275.1467.19486.21888.06492.07458.12987.14676.1972.2165.05053.05532.10348.10826.15639.16358l.15874.15874c.05291.05291.10823.10586.16358.15877.30068.28626.61578.56046.95014.81304.09622.07699.19245.14914.29108.21888.12509.09144.25256.17803.38246.26222.12987.08659.26219.16837.39691.24777.06736.03847.13469.07696.20205.11546.13469.07699.27182.14914.41132.21888.13951.06977.27904.13472.42095.19726.21168.09382.42818.178.64708.25258.29346.10101.58932.18522.89001.25018.07458.01683.15154.03124.2261.04569.22854.04087.45707.07458.69039.09141.15392.01201.30791.01923.46424.02164-.00241.05532-.00241.10823-.00722.16355.0409-.05291.08421-.10583.12509-.15633.59414-.72886,1.25564-1.35186,2.01577-1.74155.55564-.28386,1.234-.37286,1.85222-.26703.11305.01926.22369.04572.32952.0794.05535.01685.10826.03368.1588.05291.10583.0409.20443.08662.30068.13713.09619.05291.1876.11305.2742.178.0409.03365.08421.06736.12268.10342.19967.18041.36082.40172.46424.66632.2093.5316.16121,1.12814.08421,1.69586-.46424,3.45182-1.83777,6.62222-3.86077,9.37164-.25258.34396-.51715.68076-.789,1.01028-.22851.27666-.46183.54604-.70237.81067-.24055.26697-.48831.52678-.7409.78177-.06495.06736-.13228.1275-.19723.19001Z" fill="#f69576" stroke-width="0"/><path d="M470.39926,175.44145c-.49792-.60377-.95977-1.23397-1.40956-1.87383.4522.63745.91406,1.27006,1.40956,1.87383Z" fill="#f69576" stroke-width="0"/><path d="M471.32779,176.49025c-.05291-.05532-.10586-.10826-.15639-.16358-.06733-.06974-.13228-.14191-.1972-.2165.06733.07458.13228.14676.19961.2165.05053.05532.10345.10826.15398.16358Z" fill="#f69576" stroke-width="0"/><path d="M477.05276,192.61881c-.0096.00963-.01683.01923-.02646.02646-.00241.00482-.00722.00722-.01204.01204-.00241-.00241-.00241-.00722-.00482-.00963.01445-.00963.02889-.01923.04331-.02886Z" fill="#f69576" stroke-width="0"/><path d="M477.99089,191.64702c-.23814.26697-.48591.52678-.73849.78177h-.00241c.25258-.25499.50035-.5148.7409-.78177Z" fill="#f69576" stroke-width="0"/><path d="M517.32238,319.16139l.21637-1.92398-13.96891-1.39451c-.04787.64384-.10428,1.28685-.15578,1.93023l13.90831,1.38826Z" fill="#fff6d4" stroke-width="0"/><path d="M470.05378,314.44336l19.39174,1.9355c.00289-.64829.00289-1.29656.00912-1.94498l-.4661-.04657-20.81219-2.07747c-.30482.4078-4.46048,39.04154-4.46048,39.04154l2.08551.20485c.84234-7.7929,3.98875-36.7598,4.25241-37.11287Z" fill="#fff6d4" stroke-width="0"/><path d="M517.32238,319.16139l-13.90831-1.38826c-.45819,5.71661-1.05474,11.4204-1.73231,17.12047.02064.00277.04116.00539.06192.00815.58948.07681.6304.97856,0,.95456-.05819-.00229-.1158-.00876-.17401-.01128-.26041,2.1646-.52756,4.32895-.80525,6.49343-.03122.24663-1.53071-.13764-2.90074-.54327.16441,2.74917-.05126,5.51164-.28875,8.25889-.18866,2.18346-.41066,4.39149-1.10191,6.46367l11.99932,1.17862,6.56256.64457,1.44816-12.8808,2.93314-26.08981-2.0938-.20894Z" fill="#f26823" stroke-width="0"/><path d="M488.32177,352.69332c.02401-2.17516.08436-4.35034.18156-6.52369.03168-.70612.06925-1.42222.29775-2.0902.11712-.34345.2819-.66509.47344-.97279.27013-.43238.59357-.83682.9165-1.23284.472-.58012,1.04168-1.49939,1.67232-2.197-.98155-.52157-1.75009-1.19015-1.81008-2.07016-.09109-1.33618-.15469-2.67345-.22431-4.01047-.41126-.1488-.35858-.68608-.04811-.8607-.26547-5.44756-.36005-10.90102-.33532-16.35662l-19.39174-1.9355c-.26366.35307-3.41007,29.31997-4.25241,37.11287-.13105,1.21136-.2081,1.92819-.2081,1.92819l22.89026,2.24847c-.23581-1.01214-.16718-2.56566-.16177-3.03958Z" fill="#f26823" stroke-width="0"/><path d="M495.65179,341.09554c-.91506-.32127-2.52763-.74875-3.78845-1.41874-.63064.69761-1.20032,1.61687-1.67232,2.197-.32293.39603-.64637.80046-.9165,1.23284-.19155.3077-.35632.62934-.47344.97279-.22849.66797-.26607,1.38407-.29775,2.0902-.0972,2.17335-.15756,4.34853-.18156,6.52369-.00541.47392-.07404,2.02744.16177,3.03958.2062.8847.64433,1.35706,1.57093.31574.75712.94279-.54257,1.33366-1.17023,1.6524-.9369.47585-1.46374,1.60093-.24372,2.24441.62703.33099,1.39281.23258,2.07434.03625.31778-.09134.66508-.16622,1.02176-.23966,1.37517-.28372,2.93769-.53861,3.94098-1.5534.2754-.27891.44174-.64636.58539-1.01144.0846-.21553.13704-.44044.21002-.65946.69126-2.07218.91325-4.28022,1.10191-6.46367.23749-2.74725.45316-5.50972.28875-8.25889-1.0712-.31706-2.06309-.64745-2.21189-.69965Z" fill="#f69576" stroke-width="0"/><path d="M448.32432,509.2776l-.67636-13.55582c-.02264-.45194-.37468-.76122-.72842-.66024-6.30283,1.7929-15.15709-2.02593-15.15709-2.02593-8.9788,7.91022-22.03665,11.41761-26.10439,12.36033-.67012.15533-1.09292.99564-.9067,1.81337l1.08895,4.77564h41.04358l1.44044-2.70734Z" fill="#1b1b48" fill-rule="evenodd" stroke-width="0"/><polyline points="345.07554 179.42571 386.88555 139.44546 411.44543 139.99489" fill="none" stroke="#4e4e4e" stroke-miterlimit="10" stroke-width="2.54467"/><circle cx="411.44543" cy="139.99489" r="12.53549" fill="#ffcf47" stroke-width="0"/><polyline points="280.99151 201.70738 240.08614 160.80202 213.02606 160.80202" fill="none" stroke="#4e4e4e" stroke-miterlimit="10" stroke-width="2.54467"/><circle cx="213.02606" cy="160.80202" r="12.53549" fill="#50b87a" stroke-width="0"/><circle cx="210.06496" cy="158.78721" r="20.56853" fill="#586c83" stroke-width="0"/><path d="M210.06496,158.78721h20.56853c0,11.28356-9.28497,20.56853-20.56853,20.56853s-20.56853-9.28497-20.56853-20.56853,9.28497-20.56853,20.56853-20.56853v20.56853Z" fill="#4fbc84" stroke-width="0"/><polygon points="565.55171 111.87876 486.55136 79.37911 467.55803 125.54823 496.15801 137.31386 500.20151 158.46553 517.95839 146.28224 546.55837 158.04787 565.55171 111.87876" fill="#50b87a" stroke-width="0"/><circle cx="498.53012" cy="110.61505" r="3.66174" fill="#fff" stroke-width="0"/><circle cx="516.37142" cy="117.9932" r="3.66174" fill="#fff" stroke-width="0"/><circle cx="534.21273" cy="125.37395" r="3.66174" fill="#fff" stroke-width="0"/><path d="M131.45025,237.4101h103.81222c4.829,0,8.74954,3.92054,8.74954,8.74954v.00002c0,4.829-3.92054,8.74954-8.74954,8.74954h-103.81222v-17.4991h0Z" transform="translate(375.46227 492.31931) rotate(180)" fill="#5a6e85" stroke-width="0"/><path d="M159.59081,237.4101h75.67167c4.829,0,8.74954,3.92054,8.74954,8.74954v.00002c0,4.829-3.92054,8.74954-8.74954,8.74954h-75.67167v-17.4991h0Z" transform="translate(403.60283 492.31931) rotate(180)" fill="#50b87a" stroke-width="0"/><path d="M131.45025,265.16682h103.81222c4.829,0,8.74954,3.92054,8.74954,8.74954v.00002c0,4.829-3.92054,8.74954-8.74954,8.74954h-103.81222v-17.4991h0Z" transform="translate(375.46227 547.83273) rotate(-180)" fill="#5a6e85" stroke-width="0"/><path d="M187.73113,265.16682h47.53134c4.829,0,8.74954,3.92054,8.74954,8.74954v.00002c0,4.829-3.92054,8.74954-8.74954,8.74954h-47.53134v-17.4991h0Z" transform="translate(431.74315 547.83273) rotate(-180)" fill="#ffcf47" stroke-width="0"/><path d="M131.45025,292.9236h103.81222c4.829,0,8.74954,3.92054,8.74954,8.74954v.00002c0,4.829-3.92054,8.74954-8.74954,8.74954h-103.81222v-17.4991h0Z" transform="translate(375.46227 603.34629) rotate(-180)" fill="#5a6e85" stroke-width="0"/><path d="M215.87162,292.9236h19.39086c4.829,0,8.74954,3.92054,8.74954,8.74954v.00002c0,4.829-3.92054,8.74954-8.74954,8.74954h-19.39086v-17.4991h0Z" transform="translate(459.88363 603.34629) rotate(-180)" fill="#dd6966" stroke-width="0"/></svg>