<svg width="128" height="115" viewBox="0 0 128 115" fill="none" xmlns="http://www.w3.org/2000/svg">
<path d="M69.8412 105L73.1725 90.5803L62 80.8816L76.76 79.5987L82.5 66L88.24 79.5987L103 80.8816L91.8275 90.5803L95.1587 105L82.5 97.3539L69.8412 105Z" fill="#24CCCA"/>
<path fill-rule="evenodd" clip-rule="evenodd" d="M7.79169 38.125L60.5 9.375L113.208 38.125V76.4583H103.625V43.3479L94.0417 48.5708V76.6459L84.4584 58.786V53.7938L60.5 66.875L36.5417 53.7938V71.6667L60 84.428V95.3521L26.9584 77.3208V48.5708L7.79169 38.125ZM60.5 55.95L93.1792 38.125L60.5 20.3L27.8209 38.125L60.5 55.95Z" fill="#FFE510"/>
</svg>
