<svg width="128" height="114" viewBox="0 0 128 114" fill="none" xmlns="http://www.w3.org/2000/svg">
<path d="M77 35.3332V43.9998H51V100.333H42.3333V74.3332H33.6667V100.333H25V65.6665H18.5V43.9998C18.5 41.7013 19.4131 39.4969 21.0384 37.8716C22.6637 36.2463 24.8681 35.3332 27.1667 35.3332H77ZM46.6667 22.3332C46.6667 24.6317 45.7536 26.8361 44.1283 28.4614C42.5029 30.0867 40.2985 30.9998 38 30.9998C35.7015 30.9998 33.4971 30.0867 31.8717 28.4614C30.2464 26.8361 29.3333 24.6317 29.3333 22.3332C29.3333 20.0346 30.2464 17.8302 31.8717 16.2049C33.4971 14.5796 35.7015 13.6665 38 13.6665C40.2985 13.6665 42.5029 14.5796 44.1283 16.2049C45.7536 17.8302 46.6667 20.0346 46.6667 22.3332Z" fill="#24CCCA"/>
<path fill-rule="evenodd" clip-rule="evenodd" d="M94 23H52V13H94C102.284 13 109 19.7157 109 28V71C109 79.2843 102.284 86 94 86H60.0388V76H94C96.7614 76 99 73.7614 99 71V28C99 25.2386 96.7614 23 94 23Z" fill="#FFE510"/>
</svg>
