<svg width="56" height="56" viewBox="0 0 56 56" fill="none" xmlns="http://www.w3.org/2000/svg">
<path fill-rule="evenodd" clip-rule="evenodd" d="M22.0364 11.1069C22.3218 10.4366 22.9903 10 23.7316 10H49.1633C50.1777 10 51 10.8058 51 11.7999V36.9631C51 37.6926 50.5507 38.35 49.8622 38.6276C49.1738 38.9052 48.3825 38.7481 47.8585 38.2299L41.9478 32.3841C31.2123 43.7567 19.6359 48.2125 7.3583 44.9665C6.55668 44.7546 5.99983 44.042 6 43.2284C6.00017 42.4148 6.55731 41.7024 7.35901 41.4908C18.1833 38.6337 25.7886 31.7994 30.2133 20.7738L22.4263 13.0662C21.9048 12.55 21.751 11.7773 22.0364 11.1069ZM28.1346 13.5998L33.655 19.0639C34.1559 19.5597 34.3193 20.2945 34.0743 20.9495C30.3003 31.0414 24.0572 38.2336 15.3728 42.3938C23.8806 42.2976 32.2315 37.8346 40.5015 28.5777C40.8372 28.2019 41.3173 27.9797 41.8268 27.9643C42.3363 27.9489 42.8294 28.1416 43.1882 28.4965L47.3265 32.5893V13.5998H28.1346Z" fill="white"/>
</svg>
