<svg width="56" height="56" viewBox="0 0 56 56" fill="none" xmlns="http://www.w3.org/2000/svg">
<path d="M18.6667 32.6C18.0056 32.6 17.451 32.3792 17.003 31.9376C16.555 31.496 16.3318 30.9501 16.3333 30.3C16.3333 29.6483 16.5573 29.1017 17.0053 28.6601C17.4533 28.2185 18.0071 27.9985 18.6667 28C19.3278 28 19.8823 28.2208 20.3303 28.6624C20.7783 29.104 21.0016 29.6499 21 30.3C21 30.9517 20.776 31.4983 20.328 31.9399C19.88 32.3815 19.3262 32.6015 18.6667 32.6ZM28 32.6C27.3389 32.6 26.7843 32.3792 26.3363 31.9376C25.8883 31.496 25.6651 30.9501 25.6667 30.3C25.6667 29.6483 25.8907 29.1017 26.3387 28.6601C26.7867 28.2185 27.3404 27.9985 28 28C28.6611 28 29.2157 28.2208 29.6637 28.6624C30.1117 29.104 30.3349 29.6499 30.3333 30.3C30.3333 30.9517 30.1093 31.4983 29.6613 31.9399C29.2133 32.3815 28.6596 32.6015 28 32.6ZM37.3333 32.6C36.6722 32.6 36.1177 32.3792 35.6697 31.9376C35.2217 31.496 34.9984 30.9501 35 30.3C35 29.6483 35.224 29.1017 35.672 28.6601C36.12 28.2185 36.6738 27.9985 37.3333 28C37.9944 28 38.549 28.2208 38.997 28.6624C39.445 29.104 39.6682 29.6499 39.6667 30.3C39.6667 30.9517 39.4427 31.4983 38.9947 31.9399C38.5467 32.3815 37.9929 32.6015 37.3333 32.6ZM11.6667 51C10.3833 51 9.28434 50.5492 8.36967 49.6476C7.455 48.746 6.99845 47.6635 7 46.4V14.2C7 12.935 7.45734 11.8517 8.372 10.9501C9.28667 10.0485 10.3849 9.59847 11.6667 9.6H14V5H18.6667V9.6H37.3333V5H42V9.6H44.3333C45.6167 9.6 46.7157 10.0508 47.6303 10.9524C48.545 11.854 49.0015 12.9365 49 14.2V46.4C49 47.665 48.5427 48.7483 47.628 49.6499C46.7133 50.5515 45.6151 51.0015 44.3333 51H11.6667ZM11.6667 46.4H44.3333V23.4H11.6667V46.4Z" fill="white"/>
</svg>
