<svg width="56" height="56" viewBox="0 0 56 56" fill="none" xmlns="http://www.w3.org/2000/svg">
<path d="M43.1199 28.0009C41.1622 26.36 38.6735 25.4889 36.1199 25.5509H19.7049C18.9564 25.5698 18.2119 25.4375 17.5158 25.1619C16.8197 24.8863 16.1864 24.4731 15.6537 23.947C15.1211 23.4209 14.7001 22.7927 14.4159 22.1C14.1317 21.4074 13.9902 20.6645 13.9999 19.9159C13.9816 19.6246 13.9816 19.3323 13.9999 19.0409C14.2206 17.7033 14.922 16.4921 15.9724 15.635C17.0229 14.7779 18.3501 14.3337 19.7049 14.3859H35.8749C37.1939 14.3848 38.4704 14.8522 39.4769 15.7047C40.4833 16.5573 41.1542 17.7397 41.3699 19.0409H46.6199C46.4001 16.3422 45.1728 13.825 43.1819 11.9898C41.1911 10.1546 38.5825 9.13579 35.8749 9.13594H30.3449V1.08594H25.9699V9.13594H19.7049C16.9972 9.13579 14.3886 10.1546 12.3978 11.9898C10.407 13.825 9.17965 16.3422 8.95987 19.0409C8.94241 19.3323 8.94241 19.6245 8.95987 19.9159C8.95987 21.327 9.2378 22.7242 9.77779 24.0279C10.3178 25.3315 11.1092 26.516 12.107 27.5138C14.1221 29.5289 16.8551 30.6609 19.7049 30.6609H36.2949C37.0374 30.6423 37.7761 30.7724 38.4675 31.0437C39.1589 31.315 39.7891 31.7219 40.3207 32.2405C40.8524 32.7592 41.2749 33.379 41.5633 34.0635C41.8517 34.7479 42.0001 35.4832 41.9999 36.2259C42.0362 36.6218 42.0362 37.0201 41.9999 37.4159C41.722 38.6474 41.0336 39.7478 40.0478 40.5365C39.062 41.3251 37.8373 41.7551 36.5749 41.7559H20.1249C18.8624 41.7551 17.6378 41.3251 16.6519 40.5365C15.6661 39.7478 14.9778 38.6474 14.6999 37.4159H9.41487C9.71566 40.0457 10.9734 42.4728 12.9485 44.2349C14.9236 45.997 17.478 46.9709 20.1249 46.9709H25.9699V54.9159H30.3449V46.9709H36.2949C38.9418 46.9709 41.4961 45.997 43.4712 44.2349C45.4463 42.4728 46.7041 40.0457 47.0049 37.4159V36.2259C47.0007 34.6539 46.6504 33.102 45.979 31.6805C45.3075 30.259 44.3314 29.0028 43.1199 28.0009Z" fill="white"/>
</svg>
