<svg width="56" height="56" viewBox="0 0 56 56" fill="none" xmlns="http://www.w3.org/2000/svg">
<path d="M43.175 27.915C41.2174 26.274 38.7287 25.403 36.175 25.465H19.76C19.0116 25.4839 18.2671 25.3516 17.571 25.076C16.8749 24.8004 16.2415 24.3871 15.7089 23.861C15.1763 23.3349 14.7552 22.7067 14.4711 22.0141C14.1869 21.3215 14.0454 20.5786 14.055 19.83C14.0368 19.5386 14.0368 19.2464 14.055 18.955C14.2757 17.6173 14.9772 16.4062 16.0276 15.5491C17.0781 14.692 18.4053 14.2478 19.76 14.3H35.93C37.2491 14.2988 38.5256 14.7662 39.532 15.6188C40.5385 16.4714 41.2094 17.6537 41.425 18.955H46.675C46.4553 16.2563 45.228 13.7391 43.2371 11.9039C41.2463 10.0687 38.6377 9.04986 35.93 9.05H30.4V1H26.025V9.05H19.76C17.0524 9.04986 14.4438 10.0687 12.453 11.9039C10.4621 13.7391 9.23483 16.2563 9.01505 18.955C8.99759 19.2464 8.99759 19.5386 9.01505 19.83C9.01505 21.2411 9.29298 22.6383 9.83296 23.9419C10.3729 25.2456 11.1644 26.4301 12.1622 27.4279C14.1773 29.4429 16.9103 30.575 19.76 30.575H36.35C37.0925 30.5563 37.8313 30.6865 38.5227 30.9577C39.2141 31.229 39.8442 31.636 40.3759 32.1546C40.9076 32.6732 41.3301 33.2931 41.6185 33.9775C41.9068 34.662 42.0553 35.3973 42.055 36.14C42.0914 36.5358 42.0914 36.9342 42.055 37.33C41.7772 38.5615 41.0888 39.6619 40.103 40.4505C39.1172 41.2392 37.8925 41.6692 36.63 41.67H20.18C18.9176 41.6692 17.6929 41.2392 16.7071 40.4505C15.7213 39.6619 15.0329 38.5615 14.755 37.33H9.47005C9.77083 39.9597 11.0286 42.3869 13.0037 44.149C14.9788 45.9111 17.5332 46.885 20.18 46.885H26.025V54.83H30.4V46.885H36.35C38.9969 46.885 41.5513 45.9111 43.5264 44.149C45.5015 42.3869 46.7593 39.9597 47.0601 37.33V36.14C47.0558 34.5679 46.7056 33.016 46.0341 31.5946C45.3627 30.1731 44.3866 28.9168 43.175 27.915Z" fill="white"/>
</svg>
