<svg width="56" height="56" viewBox="0 0 56 56" fill="none" xmlns="http://www.w3.org/2000/svg">
<path d="M19.2 49V30.2425C17.4433 29.7642 15.9705 28.8075 14.7815 27.3725C13.5924 25.9375 12.9986 24.2633 13 22.35V8H17.1333V22.35H19.2V8H23.3333V22.35H25.4V8H29.5333V22.35C29.5333 24.2633 28.9388 25.9375 27.7498 27.3725C26.5608 28.8075 25.0886 29.7642 23.3333 30.2425V49H19.2ZM39.8667 49V32.6H33.6667V18.25C33.6667 15.4142 34.6745 12.9965 36.6902 10.9971C38.7059 8.99767 41.1425 7.99863 44 8V49H39.8667Z" fill="white"/>
</svg>
