<svg width="56" height="56" viewBox="0 0 56 56" fill="none" xmlns="http://www.w3.org/2000/svg">
<path fill-rule="evenodd" clip-rule="evenodd" d="M13.5302 21.4397C13.9286 22.4642 13.4255 23.617 12.4061 24.0227L12.3915 24.0289C12.3708 24.0378 12.3303 24.0558 12.2725 24.0836C12.1567 24.1392 11.9728 24.2335 11.7409 24.3725C11.2758 24.6511 10.6269 25.1035 9.94621 25.7754C8.60463 27.0998 7.09045 29.3215 6.6514 32.9076C6.51717 34.004 5.51956 34.784 4.42318 34.6498C3.32679 34.5155 2.54681 33.5179 2.68104 32.4216C3.24183 27.8411 5.22765 24.8128 7.13611 22.9288C8.08047 21.9965 8.99402 21.3552 9.68523 20.9411C10.0315 20.7337 10.3242 20.5819 10.5404 20.478C10.6486 20.426 10.738 20.3859 10.8057 20.3567C10.8395 20.3421 10.868 20.3302 10.8907 20.3209L10.9204 20.3088L10.932 20.3042L10.937 20.3023L10.9392 20.3014C10.9403 20.301 10.9413 20.3006 11.6662 22.1646L10.9413 20.3006C11.9708 19.9002 13.1299 20.4103 13.5302 21.4397ZM42.4689 21.4397C42.8692 20.4103 44.0283 19.9002 45.0578 20.3006L44.3802 22.0429C45.0578 20.3006 45.0588 20.301 45.0599 20.3014L45.0621 20.3023L45.0671 20.3042L45.0787 20.3088L45.1084 20.3209C45.1311 20.3302 45.1596 20.3421 45.1934 20.3567C45.2611 20.3859 45.3505 20.426 45.4587 20.478C45.6749 20.5819 45.9676 20.7337 46.3139 20.9411C47.0051 21.3552 47.9186 21.9965 48.863 22.9288C50.7715 24.8128 52.7573 27.8411 53.3181 32.4216C53.4523 33.5179 52.6723 34.5155 51.5759 34.6498C50.4795 34.784 49.4819 34.004 49.3477 32.9076C48.9087 29.3215 47.3945 27.0998 46.0529 25.7754C45.3722 25.1035 44.7233 24.6511 44.2582 24.3725C44.0263 24.2335 43.8425 24.1392 43.7266 24.0836C43.6688 24.0558 43.6283 24.0378 43.6076 24.0289L43.593 24.0227C42.5736 23.617 42.0705 22.4642 42.4689 21.4397ZM19.0562 21.6921C19.3171 20.6188 20.3987 19.9603 21.472 20.2212L21.016 22.097C21.4721 20.2212 21.4731 20.2215 21.4742 20.2217L21.4764 20.2223L21.4814 20.2235L21.4928 20.2264L21.522 20.2339C21.5441 20.2397 21.5717 20.2471 21.6043 20.2563C21.6697 20.2746 21.7556 20.3001 21.8596 20.3338C22.0673 20.4012 22.3487 20.5018 22.6831 20.6449C23.3499 20.9301 24.2407 21.3898 25.1809 22.1008C26.141 22.8268 27.1404 23.8071 27.9996 25.1054C28.8587 23.8071 29.8581 22.8268 30.8182 22.1008C31.7584 21.3898 32.6492 20.9301 33.316 20.6449C33.6504 20.5018 33.9318 20.4012 34.1395 20.3338C34.2435 20.3001 34.3294 20.2746 34.3948 20.2563C34.4274 20.2471 34.455 20.2397 34.4772 20.2339L34.5063 20.2264L34.5177 20.2235L34.5227 20.2223L34.5249 20.2217C34.526 20.2215 34.5271 20.2212 34.9996 22.1646L34.5271 20.2212C35.6004 19.9603 36.682 20.6188 36.9429 21.6921C37.2026 22.7602 36.5518 23.8364 35.4878 24.1041C35.4858 24.1046 35.4825 24.1055 35.4779 24.1068C35.4605 24.1117 35.4247 24.1221 35.3729 24.1389C35.2689 24.1726 35.1019 24.2315 34.8894 24.3224C34.4624 24.5051 33.8657 24.8112 33.2309 25.2912C31.9866 26.2322 30.5473 27.8724 29.9585 30.7343H26.0406C25.4518 27.8724 24.0125 26.2322 22.7682 25.2912C22.1334 24.8112 21.5367 24.5051 21.1097 24.3224C20.8972 24.2315 20.7302 24.1726 20.6262 24.1389C20.5744 24.1221 20.5386 24.1117 20.5212 24.1068C20.5166 24.1055 20.5132 24.1046 20.5113 24.1041C19.4473 23.8364 18.7965 22.7601 19.0562 21.6921ZM25.3017 39.313C25.4947 40.3936 24.7808 41.4263 23.7047 41.6297C23.7039 41.6299 23.7029 41.6301 23.7017 41.6304C23.6905 41.6328 23.6631 41.639 23.6213 41.6499C23.5375 41.6716 23.3971 41.7119 23.2137 41.7781C22.8459 41.911 22.3148 42.1447 21.7241 42.5356C20.5649 43.3027 19.117 44.711 18.2248 47.3132C17.8665 48.3581 16.7291 48.9147 15.6842 48.5565C14.6394 48.1983 14.0828 47.0608 14.441 46.016C15.6488 42.4932 17.7009 40.4015 19.5167 39.1999C20.4134 38.6064 21.2386 38.2386 21.8552 38.0159C22.164 37.9044 22.4228 37.8285 22.6152 37.7785C22.7114 37.7534 22.7914 37.7348 22.853 37.7215C22.8838 37.7148 22.91 37.7094 22.9315 37.7051L22.9601 37.6996L22.9716 37.6975L22.9767 37.6966L22.9791 37.6961C22.9802 37.6959 22.9813 37.6957 23.3329 39.6646L22.9813 37.6957C24.0687 37.5016 25.1076 38.2257 25.3017 39.313ZM30.6974 39.313C30.8915 38.2257 31.9304 37.5016 33.0178 37.6957L32.6662 39.6646C33.0178 37.6957 33.0189 37.6959 33.02 37.6961L33.0224 37.6966L33.0275 37.6975L33.039 37.6996L33.0676 37.7051C33.0891 37.7094 33.1153 37.7148 33.1461 37.7215C33.2078 37.7348 33.2877 37.7534 33.384 37.7785C33.5763 37.8285 33.8351 37.9044 34.1439 38.0159C34.7605 38.2386 35.5857 38.6064 36.4825 39.1999C38.2982 40.4015 40.3503 42.4932 41.5581 46.016C41.9164 47.0608 41.3597 48.1983 40.3149 48.5565C39.27 48.9147 38.1326 48.3581 37.7743 47.3132C36.8821 44.711 35.4342 43.3027 34.275 42.5356C33.6843 42.1447 33.1532 41.911 32.7854 41.7781C32.6021 41.7119 32.4616 41.6716 32.3778 41.6499C32.336 41.639 32.3086 41.6328 32.2974 41.6304C32.2962 41.6301 32.2952 41.6299 32.2943 41.6297C32.2917 41.6292 32.291 41.629 32.2924 41.6293L32.2931 41.6294L32.3005 41.6309L32.3067 41.632L32.3105 41.6327L32.3125 41.6331C32.3132 41.6332 32.3139 41.6333 32.3146 41.6335L32.6609 39.6941C32.3146 41.6335 32.3136 41.6333 32.3125 41.6331" fill="white"/>
<path fill-rule="evenodd" clip-rule="evenodd" d="M27.9993 32.332C25.8823 32.332 24.166 34.0483 24.166 36.1654C24.166 38.2825 25.8823 39.9987 27.9993 39.9987C30.1164 39.9987 31.8327 38.2825 31.8327 36.1654C31.8327 34.0483 30.1164 32.332 27.9993 32.332ZM20.166 36.1654C20.166 31.8391 23.6731 28.332 27.9993 28.332C32.3256 28.332 35.8327 31.8391 35.8327 36.1654C35.8327 40.4916 32.3256 43.9987 27.9993 43.9987C23.6731 43.9987 20.166 40.4916 20.166 36.1654Z" fill="white"/>
<path fill-rule="evenodd" clip-rule="evenodd" d="M39.666 11.332C36.9046 11.332 34.666 13.5706 34.666 16.332C34.666 19.0935 36.9046 21.332 39.666 21.332C42.4274 21.332 44.666 19.0935 44.666 16.332C44.666 13.5706 42.4274 11.332 39.666 11.332ZM30.666 16.332C30.666 11.3615 34.6955 7.33203 39.666 7.33203C44.6366 7.33203 48.666 11.3615 48.666 16.332C48.666 21.3026 44.6366 25.332 39.666 25.332C34.6955 25.332 30.666 21.3026 30.666 16.332Z" fill="white"/>
<path fill-rule="evenodd" clip-rule="evenodd" d="M16.332 11.332C13.5706 11.332 11.332 13.5706 11.332 16.332C11.332 19.0935 13.5706 21.332 16.332 21.332C19.0935 21.332 21.332 19.0935 21.332 16.332C21.332 13.5706 19.0935 11.332 16.332 11.332ZM7.33203 16.332C7.33203 11.3615 11.3615 7.33203 16.332 7.33203C21.3026 7.33203 25.332 11.3615 25.332 16.332C25.332 21.3026 21.3026 25.332 16.332 25.332C11.3615 25.332 7.33203 21.3026 7.33203 16.332Z" fill="white"/>
</svg>
