<svg width="56" height="56" viewBox="0 0 56 56" fill="none" xmlns="http://www.w3.org/2000/svg">
<path fill-rule="evenodd" clip-rule="evenodd" d="M13.5307 21.4417C13.9291 22.4661 13.426 23.619 12.4066 24.0247L12.392 24.0309C12.3713 24.0398 12.3308 24.0578 12.273 24.0855C12.1571 24.1412 11.9733 24.2355 11.7414 24.3744C11.2763 24.653 10.6274 25.1054 9.9467 25.7774C8.60512 27.1017 7.09094 29.3234 6.65189 32.9096C6.51766 34.006 5.52005 34.786 4.42367 34.6517C3.32728 34.5175 2.5473 33.5199 2.68153 32.4235C3.24231 27.843 5.22813 24.8147 7.13659 22.9307C8.08096 21.9985 8.99451 21.3572 9.68572 20.9431C10.032 20.7356 10.3247 20.5839 10.5409 20.48C10.6491 20.428 10.7385 20.3879 10.8062 20.3586C10.84 20.344 10.8685 20.3321 10.8912 20.3228L10.9209 20.3108L10.9325 20.3062L10.9375 20.3042L10.9397 20.3034C10.9408 20.3029 10.9418 20.3025 11.6667 22.1666L10.9418 20.3025C11.9713 19.9022 13.1304 20.4122 13.5307 21.4417ZM42.4694 21.4417C42.8697 20.4122 44.0288 19.9022 45.0583 20.3025L44.3807 22.0448C45.0583 20.3026 45.0593 20.303 45.0604 20.3034L45.0626 20.3042L45.0676 20.3062L45.0792 20.3108L45.1089 20.3228C45.1316 20.3321 45.1601 20.344 45.1939 20.3586C45.2616 20.3879 45.351 20.428 45.4592 20.48C45.6754 20.5839 45.9681 20.7356 46.3144 20.9431C47.0056 21.3572 47.9191 21.9985 48.8635 22.9307C50.772 24.8147 52.7578 27.843 53.3186 32.4235C53.4528 33.5199 52.6728 34.5175 51.5764 34.6517C50.48 34.786 49.4824 34.006 49.3482 32.9096C48.9092 29.3234 47.395 27.1017 46.0534 25.7774C45.3727 25.1054 44.7238 24.653 44.2587 24.3744C44.0268 24.2355 43.8429 24.1412 43.7271 24.0855C43.6693 24.0578 43.6288 24.0398 43.6081 24.0309L43.5935 24.0247C42.5741 23.6189 42.071 22.4661 42.4694 21.4417ZM19.0567 21.6941C19.3176 20.6208 20.3992 19.9622 21.4725 20.2232L21.0165 22.099C21.4726 20.2232 21.4736 20.2234 21.4747 20.2237L21.4769 20.2242L21.4819 20.2255L21.4933 20.2283L21.5224 20.2358C21.5446 20.2416 21.5722 20.249 21.6048 20.2582C21.6702 20.2766 21.7561 20.3021 21.8601 20.3358C22.0678 20.4031 22.3492 20.5038 22.6836 20.6468C23.3504 20.9321 24.2412 21.3917 25.1814 22.1027C26.1415 22.8287 27.1409 23.8091 28 25.1074C28.8592 23.8091 29.8586 22.8287 30.8187 22.1027C31.7589 21.3917 32.6497 20.9321 33.3165 20.6468C33.6509 20.5038 33.9323 20.4031 34.14 20.3358C34.244 20.3021 34.3299 20.2766 34.3953 20.2582C34.4279 20.249 34.4555 20.2416 34.4776 20.2358L34.5068 20.2283L34.5182 20.2255L34.5232 20.2242L34.5254 20.2237C34.5265 20.2234 34.5276 20.2232 35 22.1666L34.5276 20.2232C35.6009 19.9622 36.6825 20.6208 36.9434 21.6941C37.2031 22.7621 36.5523 23.8384 35.4883 24.106C35.4863 24.1066 35.483 24.1075 35.4784 24.1088C35.461 24.1137 35.4252 24.1241 35.3734 24.1409C35.2694 24.1746 35.1024 24.2335 34.8899 24.3244C34.4629 24.5071 33.8662 24.8131 33.2314 25.2932C31.9871 26.2341 30.5478 27.8744 29.959 30.7362H26.0411C25.4523 27.8744 24.013 26.2341 22.7687 25.2932C22.1339 24.8131 21.5372 24.5071 21.1102 24.3244C20.8977 24.2335 20.7307 24.1746 20.6267 24.1409C20.5749 24.1241 20.5391 24.1137 20.5217 24.1088C20.5171 24.1075 20.5137 24.1066 20.5118 24.106C19.4478 23.8384 18.797 22.7621 19.0567 21.6941ZM25.3022 39.315C25.4952 40.3956 24.7813 41.4283 23.7052 41.6317C23.7044 41.6319 23.7034 41.6321 23.7022 41.6323C23.691 41.6348 23.6636 41.6409 23.6218 41.6518C23.538 41.6736 23.3975 41.7139 23.2142 41.7801C22.8464 41.9129 22.3153 42.1466 21.7246 42.5375C20.5654 43.3047 19.1175 44.713 18.2253 47.3152C17.867 48.3601 16.7296 48.9167 15.6847 48.5584C14.6399 48.2002 14.0832 47.0628 14.4415 46.0179C15.6493 42.4951 17.7014 40.4034 19.5171 39.2018C20.4139 38.6084 21.2391 38.2405 21.8556 38.0179C22.1645 37.9063 22.4233 37.8304 22.6156 37.7804C22.7119 37.7554 22.7918 37.7368 22.8535 37.7234C22.8843 37.7167 22.9105 37.7113 22.932 37.7071L22.9606 37.7016L22.9721 37.6994L22.9772 37.6985L22.9795 37.6981C22.9807 37.6979 22.9818 37.6977 23.3334 39.6666L22.9818 37.6977C24.0692 37.5035 25.1081 38.2276 25.3022 39.315ZM30.6979 39.315C30.892 38.2276 31.9309 37.5035 33.0183 37.6977L32.6667 39.6666C33.0183 37.6977 33.0194 37.6979 33.0205 37.6981L33.0229 37.6985L33.028 37.6994L33.0395 37.7016L33.0681 37.7071C33.0896 37.7113 33.1158 37.7167 33.1466 37.7234C33.2082 37.7368 33.2882 37.7554 33.3844 37.7804C33.5768 37.8304 33.8356 37.9063 34.1444 38.0179C34.761 38.2405 35.5862 38.6084 36.4829 39.2018C38.2987 40.4034 40.3508 42.4951 41.5586 46.0179C41.9168 47.0628 41.3602 48.2002 40.3154 48.5584C39.2705 48.9167 38.1331 48.3601 37.7748 47.3152C36.8826 44.713 35.4347 43.3047 34.2755 42.5375C33.6848 42.1466 33.1537 41.9129 32.7859 41.7801C32.6025 41.7139 32.4621 41.6736 32.3783 41.6518C32.3365 41.6409 32.3091 41.6348 32.2979 41.6323C32.2967 41.6321 32.2956 41.6319 32.2948 41.6317C32.2922 41.6311 32.2915 41.631 32.2929 41.6313L32.2936 41.6314L32.301 41.6328L32.3072 41.634L32.311 41.6347L32.313 41.635C32.3137 41.6352 32.3144 41.6353 32.3151 41.6354L32.6614 39.6961C32.3151 41.6354 32.314 41.6352 32.313 41.635" fill="white"/>
<path fill-rule="evenodd" clip-rule="evenodd" d="M27.9998 32.334C25.8827 32.334 24.1665 34.0502 24.1665 36.1673C24.1665 38.2844 25.8827 40.0007 27.9998 40.0007C30.1169 40.0007 31.8332 38.2844 31.8332 36.1673C31.8332 34.0502 30.1169 32.334 27.9998 32.334ZM20.1665 36.1673C20.1665 31.8411 23.6736 28.334 27.9998 28.334C32.3261 28.334 35.8332 31.8411 35.8332 36.1673C35.8332 40.4935 32.3261 44.0007 27.9998 44.0007C23.6736 44.0007 20.1665 40.4935 20.1665 36.1673Z" fill="white"/>
<path fill-rule="evenodd" clip-rule="evenodd" d="M39.6665 11.334C36.9051 11.334 34.6665 13.5726 34.6665 16.334C34.6665 19.0954 36.9051 21.334 39.6665 21.334C42.4279 21.334 44.6665 19.0954 44.6665 16.334C44.6665 13.5726 42.4279 11.334 39.6665 11.334ZM30.6665 16.334C30.6665 11.3634 34.6959 7.33398 39.6665 7.33398C44.6371 7.33398 48.6665 11.3634 48.6665 16.334C48.6665 21.3045 44.6371 25.334 39.6665 25.334C34.6959 25.334 30.6665 21.3045 30.6665 16.334Z" fill="white"/>
<path fill-rule="evenodd" clip-rule="evenodd" d="M16.3335 11.334C13.5721 11.334 11.3335 13.5726 11.3335 16.334C11.3335 19.0954 13.5721 21.334 16.3335 21.334C19.0949 21.334 21.3335 19.0954 21.3335 16.334C21.3335 13.5726 19.0949 11.334 16.3335 11.334ZM7.3335 16.334C7.3335 11.3634 11.3629 7.33398 16.3335 7.33398C21.3041 7.33398 25.3335 11.3634 25.3335 16.334C25.3335 21.3045 21.3041 25.334 16.3335 25.334C11.3629 25.334 7.3335 21.3045 7.3335 16.334Z" fill="white"/>
</svg>
