<svg width="56" height="56" viewBox="0 0 56 56" fill="none" xmlns="http://www.w3.org/2000/svg">
<path d="M38.3226 9C39.9427 9 41.4624 9.30452 42.8817 9.91355C44.3011 10.5226 45.5341 11.3636 46.5806 12.4367C47.6272 13.5098 48.4588 14.7641 49.0753 16.1997C49.6918 17.6352 50 19.1723 50 20.8109C50 21.652 49.914 22.4858 49.7419 23.3123C49.5699 24.1389 49.3118 24.9364 48.9677 25.705H39.0108L34.8817 21.3547L28 28.3151L18.3656 18.5706L11.4839 25.705H7.03226C6.68817 24.9364 6.43011 24.1389 6.25806 23.3123C6.08602 22.4858 6 21.652 6 20.8109C6 19.1723 6.30108 17.6352 6.90323 16.1997C7.50538 14.7641 8.33692 13.517 9.39785 12.4584C10.4588 11.3999 11.6989 10.5588 13.1183 9.9353C14.5376 9.31177 16.0573 9 17.6774 9C19.2401 9 20.7312 9.29727 22.1505 9.8918C23.5699 10.4863 24.8387 11.3419 25.957 12.4584L28 14.5466L30.043 12.4584C31.147 11.3419 32.4086 10.4863 33.828 9.8918C35.2473 9.29727 36.7455 9 38.3226 9ZM36.2581 28.4891H47.2258L46.9247 28.8371C46.8244 28.9532 46.7168 29.0764 46.6022 29.2069L28 48L9.39785 29.2069C9.28315 29.0909 9.17563 28.9749 9.07527 28.8589C8.97491 28.7429 8.87455 28.6196 8.77419 28.4891H14.2366L18.3656 24.4869L28 34.2315L34.8817 27.2711L36.2581 28.4891Z" fill="white"/>
</svg>
