<svg width="56" height="57" viewBox="0 0 56 57" fill="none" xmlns="http://www.w3.org/2000/svg">
<path d="M18.6665 28.1556V32.8223C18.6665 35.3889 19.5804 37.5862 21.4082 39.4139C23.2359 41.2417 25.4332 42.1556 27.9998 42.1556C30.5665 42.1556 32.7637 41.2417 34.5915 39.4139C36.4193 37.5862 37.3332 35.3889 37.3332 32.8223V28.1556H18.6665ZM27.9998 38.6556C26.3665 38.6556 24.9859 38.0917 23.8582 36.9639C22.7304 35.8362 22.1665 34.4556 22.1665 32.8223V31.6556H33.8332V32.8223C33.8332 34.4556 33.2693 35.8362 32.1415 36.9639C31.0137 38.0917 29.6332 38.6556 27.9998 38.6556ZM19.8332 16.4889C18.3554 16.4889 17.0425 17.024 15.8945 18.0943C14.7465 19.1645 13.9407 20.6322 13.4772 22.4973L16.8605 23.3139C17.0938 22.3028 17.4827 21.4955 18.0272 20.8919C18.5716 20.2884 19.1736 19.9874 19.8332 19.9889C20.4943 19.9889 21.0971 20.2907 21.6415 20.8943C22.1859 21.4978 22.5748 22.3044 22.8082 23.3139L26.1915 22.4973C25.7248 20.6306 24.9183 19.1629 23.7718 18.0943C22.6254 17.0256 21.3125 16.4905 19.8332 16.4889ZM36.1665 16.4889C34.6887 16.4889 33.3758 17.024 32.2278 18.0943C31.0798 19.1645 30.2733 20.6322 29.8082 22.4973L33.1915 23.3139C33.4248 22.3028 33.8137 21.4955 34.3582 20.8919C34.9026 20.2884 35.5054 19.9874 36.1665 19.9889C36.8276 19.9889 37.4304 20.2907 37.9748 20.8943C38.5193 21.4978 38.9082 22.3044 39.1415 23.3139L42.5248 22.4973C42.0582 20.6306 41.2508 19.1629 40.1028 18.0943C38.9548 17.0256 37.6427 16.4905 36.1665 16.4889ZM27.9998 51.4889C24.7721 51.4889 21.7387 50.876 18.8998 49.6503C16.0609 48.4245 13.5915 46.7624 11.4915 44.6639C9.3915 42.5639 7.72939 40.0945 6.50517 37.2556C5.28095 34.4167 4.66806 31.3834 4.6665 28.1556C4.6665 24.9278 5.27939 21.8945 6.50517 19.0556C7.73095 16.2167 9.39306 13.7473 11.4915 11.6473C13.5915 9.54727 16.0609 7.88515 18.8998 6.66093C21.7387 5.43671 24.7721 4.82382 27.9998 4.82227C31.2276 4.82227 34.2609 5.43515 37.0998 6.66093C39.9387 7.88671 42.4082 9.54882 44.5082 11.6473C46.6082 13.7473 48.2711 16.2167 49.4968 19.0556C50.7226 21.8945 51.3347 24.9278 51.3332 28.1556C51.3332 31.3834 50.7203 34.4167 49.4945 37.2556C48.2687 40.0945 46.6066 42.5639 44.5082 44.6639C42.4082 46.7639 39.9387 48.4268 37.0998 49.6526C34.2609 50.8784 31.2276 51.4905 27.9998 51.4889ZM27.9998 46.8223C33.2109 46.8223 37.6248 45.0139 41.2415 41.3973C44.8582 37.7806 46.6665 33.3667 46.6665 28.1556C46.6665 22.9445 44.8582 18.5306 41.2415 14.9139C37.6248 11.2973 33.2109 9.48893 27.9998 9.48893C22.7887 9.48893 18.3748 11.2973 14.7582 14.9139C11.1415 18.5306 9.33317 22.9445 9.33317 28.1556C9.33317 33.3667 11.1415 37.7806 14.7582 41.3973C18.3748 45.0139 22.7887 46.8223 27.9998 46.8223Z" fill="white"/>
</svg>
