<svg width="56" height="57" viewBox="0 0 56 57" fill="none" xmlns="http://www.w3.org/2000/svg">
<path d="M18.666 28.1576V32.8242C18.666 35.3909 19.5799 37.5881 21.4077 39.4159C23.2355 41.2437 25.4327 42.1576 27.9993 42.1576C30.566 42.1576 32.7632 41.2437 34.591 39.4159C36.4188 37.5881 37.3327 35.3909 37.3327 32.8242V28.1576H18.666ZM27.9993 38.6576C26.366 38.6576 24.9855 38.0937 23.8577 36.9659C22.7299 35.8381 22.166 34.4576 22.166 32.8242V31.6576H33.8327V32.8242C33.8327 34.4576 33.2688 35.8381 32.141 36.9659C31.0132 38.0937 29.6327 38.6576 27.9993 38.6576ZM19.8327 16.4909C18.3549 16.4909 17.042 17.026 15.894 18.0962C14.746 19.1664 13.9402 20.6341 13.4767 22.4992L16.86 23.3159C17.0933 22.3048 17.4822 21.4974 18.0267 20.8939C18.5711 20.2903 19.1731 19.9893 19.8327 19.9909C20.4938 19.9909 21.0966 20.2927 21.641 20.8962C22.1855 21.4998 22.5743 22.3063 22.8077 23.3159L26.191 22.4992C25.7243 20.6326 24.9178 19.1649 23.7713 18.0962C22.6249 17.0276 21.312 16.4924 19.8327 16.4909ZM36.166 16.4909C34.6882 16.4909 33.3753 17.026 32.2273 18.0962C31.0793 19.1664 30.2728 20.6341 29.8077 22.4992L33.191 23.3159C33.4243 22.3048 33.8132 21.4974 34.3577 20.8939C34.9021 20.2903 35.5049 19.9893 36.166 19.9909C36.8271 19.9909 37.4299 20.2927 37.9743 20.8962C38.5188 21.4998 38.9077 22.3063 39.141 23.3159L42.5243 22.4992C42.0577 20.6326 41.2503 19.1649 40.1023 18.0962C38.9543 17.0276 37.6422 16.4924 36.166 16.4909ZM27.9993 51.4909C24.7716 51.4909 21.7382 50.878 18.8993 49.6522C16.0605 48.4264 13.591 46.7643 11.491 44.6659C9.39102 42.5659 7.7289 40.0964 6.50468 37.2576C5.28046 34.4187 4.66757 31.3853 4.66602 28.1576C4.66602 24.9298 5.2789 21.8964 6.50468 19.0576C7.73046 16.2187 9.39257 13.7492 11.491 11.6492C13.591 9.54922 16.0605 7.88711 18.8993 6.66289C21.7382 5.43866 24.7716 4.82577 27.9993 4.82422C31.2271 4.82422 34.2605 5.43711 37.0993 6.66289C39.9382 7.88866 42.4077 9.55077 44.5077 11.6492C46.6077 13.7492 48.2706 16.2187 49.4963 19.0576C50.7221 21.8964 51.3342 24.9298 51.3327 28.1576C51.3327 31.3853 50.7198 34.4187 49.494 37.2576C48.2682 40.0964 46.6061 42.5659 44.5077 44.6659C42.4077 46.7659 39.9382 48.4288 37.0993 49.6545C34.2605 50.8803 31.2271 51.4924 27.9993 51.4909ZM27.9993 46.8242C33.2105 46.8242 37.6243 45.0159 41.241 41.3992C44.8577 37.7825 46.666 33.3687 46.666 28.1576C46.666 22.9464 44.8577 18.5326 41.241 14.9159C37.6243 11.2992 33.2105 9.49089 27.9993 9.49089C22.7882 9.49089 18.3743 11.2992 14.7577 14.9159C11.141 18.5326 9.33268 22.9464 9.33268 28.1576C9.33268 33.3687 11.141 37.7825 14.7577 41.3992C18.3743 45.0159 22.7882 46.8242 27.9993 46.8242Z" fill="white"/>
</svg>
