<svg width="56" height="56" viewBox="0 0 56 56" fill="none" xmlns="http://www.w3.org/2000/svg">
<path d="M31.5556 39.5555C31.5556 40.2588 31.347 40.9462 30.9563 41.5309C30.5657 42.1156 30.0104 42.5713 29.3607 42.8405C28.711 43.1096 27.9961 43.18 27.3064 43.0428C26.6166 42.9056 25.9831 42.567 25.4858 42.0697C24.9886 41.5725 24.65 40.9389 24.5128 40.2492C24.3756 39.5595 24.446 38.8446 24.7151 38.1949C24.9842 37.5452 25.4399 36.9899 26.0246 36.5992C26.6094 36.2085 27.2968 36 28 36C28.943 36 29.8474 36.3746 30.5142 37.0414C31.181 37.7082 31.5556 38.6126 31.5556 39.5555ZM52 28C52 32.7467 50.5924 37.3869 47.9553 41.3337C45.3181 45.2805 41.5698 48.3566 37.1844 50.1731C32.799 51.9896 27.9734 52.4649 23.3178 51.5388C18.6623 50.6128 14.3859 48.327 11.0294 44.9706C7.67299 41.6141 5.38721 37.3377 4.46116 32.6822C3.53512 28.0266 4.0104 23.201 5.8269 18.8156C7.6434 14.4302 10.7195 10.6819 14.6663 8.04473C18.6131 5.40758 23.2533 4 28 4C34.363 4.00706 40.4634 6.53789 44.9628 11.0372C49.4621 15.5366 51.9929 21.637 52 28ZM46.6667 28C46.6667 24.3081 45.5719 20.6991 43.5208 17.6294C41.4696 14.5596 38.5543 12.1671 35.1434 10.7542C31.7325 9.34141 27.9793 8.97175 24.3583 9.69201C20.7373 10.4123 17.4113 12.1901 14.8007 14.8007C12.1901 17.4113 10.4123 20.7373 9.69202 24.3583C8.97176 27.9793 9.34142 31.7325 10.7543 35.1434C12.1671 38.5543 14.5596 41.4696 17.6294 43.5208C20.6991 45.5719 24.3081 46.6667 28 46.6667C32.9491 46.6614 37.6939 44.693 41.1935 41.1935C44.693 37.6939 46.6614 32.9491 46.6667 28ZM28 13.7778C22.6089 13.7778 18.2222 17.7644 18.2222 22.6667V23.5556C18.2222 24.2628 18.5032 24.9411 19.0033 25.4412C19.5034 25.9413 20.1817 26.2222 20.8889 26.2222C21.5961 26.2222 22.2744 25.9413 22.7745 25.4412C23.2746 24.9411 23.5556 24.2628 23.5556 23.5556V22.6667C23.5556 20.7067 25.5556 19.1111 28 19.1111C30.4444 19.1111 32.4444 20.7067 32.4444 22.6667C32.4444 24.6267 30.4444 26.2222 28 26.2222C27.2928 26.2222 26.6145 26.5032 26.1144 27.0033C25.6143 27.5034 25.3333 28.1816 25.3333 28.8889V30.6667C25.3318 31.3255 25.5741 31.9616 26.0137 32.4523C26.4533 32.9431 27.0589 33.2537 27.714 33.3244C28.369 33.395 29.027 33.2207 29.5611 32.835C30.0953 32.4493 30.4677 31.8796 30.6067 31.2355C34.7356 30.1955 37.7778 26.7489 37.7778 22.6667C37.7778 17.7644 33.3911 13.7778 28 13.7778Z" fill="white"/>
</svg>
