<svg width="56" height="56" viewBox="0 0 56 56" fill="none" xmlns="http://www.w3.org/2000/svg">
<g clip-path="url(#clip0_660_15125)">
<path d="M14.0007 46.668H30.334V51.3346H14.0007C11.4107 51.3346 9.33398 49.258 9.33398 46.668V9.33464C9.33398 8.09696 9.82565 6.90997 10.7008 6.0348C11.576 5.15963 12.763 4.66797 14.0007 4.66797H42.0006C43.2383 4.66797 44.4253 5.15963 45.3005 6.0348C46.1757 6.90997 46.6673 8.09696 46.6673 9.33464V29.2613L43.1673 27.348L42.0006 28.0013V9.33464H30.334V28.0013L24.5007 22.7513L18.6673 28.0013V9.33464H14.0007V46.668ZM56.0006 39.668L43.1673 32.668L30.334 39.668L43.1673 46.668L56.0006 39.668ZM35.0007 44.5446V49.2113L43.1673 53.668L51.334 49.2113V44.5446L43.1673 49.0013L35.0007 44.5446Z" fill="white"/>
</g>
<defs>
<clipPath id="clip0_660_15125">
<rect width="56" height="56" fill="white"/>
</clipPath>
</defs>
</svg>
