<svg width="56" height="56" viewBox="0 0 56 56" fill="none" xmlns="http://www.w3.org/2000/svg">
<g clip-path="url(#clip0_627_14978)">
<path d="M14.0007 46.666H30.334V51.3327H14.0007C11.4107 51.3327 9.33398 49.256 9.33398 46.666V9.33268C9.33398 8.09501 9.82565 6.90802 10.7008 6.03285C11.576 5.15768 12.763 4.66602 14.0007 4.66602H42.0006C43.2383 4.66602 44.4253 5.15768 45.3005 6.03285C46.1757 6.90802 46.6673 8.09501 46.6673 9.33268V29.2593L43.1673 27.346L42.0006 27.9993V9.33268H30.334V27.9993L24.5007 22.7493L18.6673 27.9993V9.33268H14.0007V46.666ZM56.0006 39.666L43.1673 32.666L30.334 39.666L43.1673 46.666L56.0006 39.666ZM35.0007 44.5427V49.2093L43.1673 53.666L51.334 49.2093V44.5427L43.1673 48.9993L35.0007 44.5427Z" fill="white"/>
</g>
<defs>
<clipPath id="clip0_627_14978">
<rect width="56" height="56" fill="white"/>
</clipPath>
</defs>
</svg>
