<svg width="56" height="56" viewBox="0 0 56 56" fill="none" xmlns="http://www.w3.org/2000/svg">
<path fill-rule="evenodd" clip-rule="evenodd" d="M21.1429 4C19.5516 4 18.0254 4.63214 16.9002 5.75736C15.775 6.88258 15.1429 8.4087 15.1429 10V14.2857H10.8571C9.03852 14.2857 7.29437 15.0082 6.00841 16.2941C4.72245 17.5801 4 19.3242 4 21.1429V45.1429C4 46.9615 4.72245 48.7056 6.00841 49.9916C7.29437 51.2776 9.03852 52 10.8571 52H45.1429C46.9615 52 48.7056 51.2776 49.9916 49.9916C51.2776 48.7056 52 46.9615 52 45.1429V21.1429C52 19.3242 51.2776 17.5801 49.9916 16.2941C48.7056 15.0082 46.9615 14.2857 45.1429 14.2857H40.8571V10C40.8571 8.4087 40.225 6.88258 39.0998 5.75736C37.9746 4.63214 36.4484 4 34.8571 4H21.1429ZM35.7143 14.2857V10C35.7143 9.77267 35.624 9.55465 35.4632 9.39391C35.3025 9.23316 35.0845 9.14286 34.8571 9.14286H21.1429C20.9155 9.14286 20.6975 9.23316 20.5368 9.39391C20.376 9.55465 20.2857 9.77267 20.2857 10V14.2857H35.7143ZM10.8571 19.4286H45.1429C45.5975 19.4286 46.0336 19.6092 46.355 19.9307C46.6765 20.2522 46.8571 20.6882 46.8571 21.1429V24.5714H9.14286V21.1429C9.14286 20.6882 9.32347 20.2522 9.64496 19.9307C9.96645 19.6092 10.4025 19.4286 10.8571 19.4286ZM9.14286 29.7143V45.1429C9.14286 45.5975 9.32347 46.0336 9.64496 46.355C9.96645 46.6765 10.4025 46.8571 10.8571 46.8571H45.1429C45.5975 46.8571 46.0336 46.6765 46.355 46.355C46.6765 46.0336 46.8571 45.5975 46.8571 45.1429V29.7143H31.4286V34.8571H24.5714V29.7143H9.14286Z" fill="white"/>
</svg>
