<svg width="56" height="56" viewBox="0 0 56 56" fill="none" xmlns="http://www.w3.org/2000/svg">
<path d="M27.2328 45.6C27.3813 45.6 27.5297 45.5633 27.6781 45.49C27.8265 45.4167 27.9378 45.3433 28.012 45.27L46.2674 27.23C46.7126 26.79 47.0377 26.295 47.2425 25.745C47.4473 25.195 47.549 24.645 47.5475 24.095C47.5475 23.5083 47.4451 22.9488 47.2403 22.4164C47.0354 21.884 46.7111 21.4169 46.2674 21.015L36.8058 11.665C36.3976 11.225 35.9242 10.9038 35.3854 10.7014C34.8467 10.499 34.2819 10.3985 33.6912 10.4C33.1347 10.4 32.5781 10.5012 32.0215 10.7036C31.465 10.906 30.9641 11.2265 30.5188 11.665L29.9066 12.27L34.0252 16.395C34.5817 16.9083 34.9899 17.495 35.2496 18.155C35.5093 18.815 35.6392 19.5117 35.6392 20.245C35.6392 21.785 35.1108 23.0779 34.0541 24.1236C32.9974 25.1693 31.6891 25.6915 30.1292 25.69C29.3871 25.69 28.6725 25.5617 27.9853 25.305C27.2982 25.0483 26.6956 24.6633 26.1776 24.15L22.0011 20.08L12.2612 29.705C12.1499 29.815 12.0661 29.9345 12.0097 30.0636C11.9533 30.1927 11.9258 30.3291 11.9273 30.4728C11.9273 30.7661 12.0386 31.0323 12.2612 31.2714C12.4839 31.5105 12.7436 31.6293 13.0404 31.6278C13.1889 31.6278 13.3373 31.5911 13.4857 31.5178C13.6341 31.4445 13.7454 31.3711 13.8196 31.2978L21.3889 23.8178L24.5057 26.8978L16.992 34.3778C16.8807 34.4878 16.7969 34.6073 16.7405 34.7364C16.6841 34.8655 16.6566 35.0026 16.6581 35.1478C16.6581 35.4411 16.7694 35.6978 16.992 35.9178C17.2147 36.1378 17.4744 36.2478 17.7712 36.2478C17.9197 36.2478 18.0681 36.2111 18.2165 36.1378C18.3649 36.0645 18.4762 35.9911 18.5504 35.9178L26.1197 28.4928L29.2365 31.5728L21.7229 39.0528C21.6115 39.1261 21.5277 39.2361 21.4713 39.3828C21.4149 39.5295 21.3874 39.6761 21.3889 39.8228C21.3889 40.1161 21.5002 40.3728 21.7229 40.5928C21.9455 40.8128 22.2052 40.9228 22.502 40.9228C22.6505 40.9228 22.79 40.8949 22.9206 40.8392C23.0512 40.7835 23.1714 40.7013 23.2812 40.5928L30.8505 33.1678L33.9673 36.2478L26.398 43.7278C26.2867 43.8378 26.2028 43.9566 26.1464 44.0842C26.09 44.2118 26.0626 44.3497 26.0641 44.4978C26.0641 44.7911 26.185 45.0478 26.4269 45.2678C26.6689 45.4878 26.9375 45.6 27.2328 45.6ZM27.1772 50C25.8043 50 24.5888 49.5505 23.5306 48.6514C22.4724 47.7523 21.8512 46.6252 21.6672 45.27C20.4056 45.0867 19.3482 44.5733 18.4948 43.73C17.6414 42.8867 17.1219 41.8417 16.9364 40.595C15.6748 40.4117 14.6263 39.8888 13.7907 39.0264C12.9551 38.164 12.4453 37.1285 12.2612 35.92C10.8513 35.7367 9.70104 35.1317 8.81054 34.105C7.92004 33.0783 7.47478 31.8683 7.47478 30.475C7.47478 29.7417 7.6143 29.0362 7.89332 28.3586C8.17235 27.681 8.57085 27.0848 9.08882 26.57L22.0011 13.865L29.2921 21.07C29.3663 21.18 29.4777 21.2629 29.6261 21.3186C29.7745 21.3743 29.9229 21.4015 30.0713 21.4C30.4053 21.4 30.6836 21.2995 30.9062 21.0986C31.1288 20.8977 31.2401 20.6315 31.2401 20.3C31.2401 20.1533 31.2119 20.0067 31.1555 19.86C31.0991 19.7133 31.016 19.6033 30.9062 19.53L22.9473 11.665C22.5391 11.225 22.0664 10.9038 21.5292 10.7014C20.9919 10.499 20.4257 10.3985 19.8305 10.4C19.274 10.4 18.7174 10.5012 18.1608 10.7036C17.6043 10.906 17.1034 11.2265 16.6581 11.665L8.81054 19.475C8.4766 19.805 8.19832 20.19 7.97569 20.63C7.75307 21.07 7.60465 21.51 7.53044 21.95C7.45623 22.39 7.45623 22.8395 7.53044 23.2986C7.60465 23.7577 7.75307 24.1881 7.97569 24.59L4.74761 27.78C4.11684 26.9367 3.65304 26.0112 3.3562 25.0036C3.05937 23.996 2.94805 22.9781 3.02226 21.95C3.09647 20.9233 3.3562 19.9238 3.80145 18.9514C4.24671 17.979 4.85893 17.1085 5.63812 16.34L13.4857 8.585C14.3762 7.74167 15.3691 7.1 16.4644 6.66C17.5597 6.22 18.6818 6 19.8305 6C20.9808 6 22.1035 6.22 23.1989 6.66C24.2942 7.1 25.2678 7.74167 26.1197 8.585L26.7319 9.19L27.3442 8.585C28.2347 7.74167 29.2276 7.1 30.3229 6.66C31.4182 6.22 32.5403 6 33.689 6C34.8392 6 35.962 6.22 37.0573 6.66C38.1527 7.1 39.1263 7.74167 39.9782 8.585L49.3841 17.88C50.2375 18.7233 50.8869 19.695 51.3321 20.795C51.7774 21.895 52 23.0133 52 24.15C52 25.2867 51.7774 26.3962 51.3321 27.4786C50.8869 28.561 50.2375 29.5231 49.3841 30.365L31.1288 48.35C30.6093 48.8633 30.006 49.2667 29.3189 49.56C28.6317 49.8533 27.9178 50 27.1772 50Z" fill="white"/>
</svg>
