<svg width="56" height="56" viewBox="0 0 56 56" fill="none" xmlns="http://www.w3.org/2000/svg">
<path d="M50.2224 33.8603L45.9052 30.0155C44.6552 28.903 44.6552 27.0806 45.9052 25.9682L50.2224 22.1209C51.4724 21.0085 51.1399 19.9735 49.4825 19.811L43.7578 19.2686C42.1029 19.1136 41.2079 17.6862 41.7804 16.1037L44.8177 7.6467C45.3877 6.05928 44.6902 5.48431 43.2703 6.36177L36.5182 10.5365C36.1837 10.7461 35.81 10.885 35.4198 10.9448C35.0297 11.0046 34.6315 10.984 34.2496 10.8843C33.8678 10.7846 33.5103 10.6078 33.1993 10.3649C32.8882 10.1219 32.6302 9.81794 32.4409 9.4716L29.996 5.10684C29.1736 3.63691 27.8161 3.63191 26.9787 5.08684L24.7063 9.03662C23.8639 10.499 21.9365 11.119 20.424 10.4265L16.4243 8.59165C14.9043 7.89169 13.7419 8.69664 13.8319 10.3816L14.0469 14.4188C14.1394 16.1037 12.8944 17.8361 11.287 18.2711L7.42474 19.3061C5.81983 19.741 5.52484 21.006 6.77478 22.1184L11.092 25.9657C12.342 27.0781 12.342 28.9006 11.092 30.013L6.77478 33.8603C5.52484 34.9727 5.85483 36.0527 7.50724 36.2527L12.7445 36.8876C14.3969 37.0876 15.3168 38.5625 14.7893 40.1649L12.1045 48.3095C11.577 49.9119 12.3295 50.5319 13.7744 49.6969L19.9316 46.1321C20.6499 45.7344 21.4906 45.6185 22.2898 45.807C23.0889 45.9956 23.7891 46.4751 24.2538 47.1521L26.8087 50.9994C27.7386 52.3968 29.1361 52.3218 29.9085 50.8294L32.1559 46.4971C32.5301 45.7784 33.1702 45.2342 33.9398 44.9806C34.7094 44.727 35.5476 44.7841 36.2757 45.1397L40.6105 47.3071C42.1054 48.0495 43.2528 47.2821 43.1628 45.6021L42.9453 41.5599C42.8578 39.875 44.0978 38.1476 45.7102 37.7126L49.5675 36.6726C51.1774 36.2377 51.4724 34.9727 50.2224 33.8603ZM30.9985 38.0001H25.9987V33.0003H30.9985V38.0001ZM30.9985 30.5005H25.9987V18.0011H30.9985V30.5005Z" fill="white"/>
</svg>
