<svg width="56" height="56" viewBox="0 0 56 56" fill="none" xmlns="http://www.w3.org/2000/svg">
<path fill-rule="evenodd" clip-rule="evenodd" d="M33 9.47059C33 8.10612 34.1193 7 35.5 7H45.5C46.8807 7 48 8.10612 48 9.47059V19.3529C48 20.7174 46.8807 21.8235 45.5 21.8235C44.1193 21.8235 43 20.7174 43 19.3529V16.4491L36.8181 23.9957C35.9494 25.0562 34.3752 25.2199 33.302 24.3614C32.2289 23.5029 32.0631 21.9472 32.9319 20.8867L40.2597 11.9412H35.5C34.1193 11.9412 33 10.8351 33 9.47059ZM8.73223 10.1942C9.70854 9.22938 11.2915 9.22938 12.2678 10.1942L43 40.5649V36.6471C43 35.2826 44.1193 34.1765 45.5 34.1765C46.8807 34.1765 48 35.2826 48 36.6471V46.5294C48 47.8939 46.8807 49 45.5 49H35.5C34.1193 49 33 47.8939 33 46.5294C33 45.1649 34.1193 44.0588 35.5 44.0588H39.4645L8.73223 13.6881C7.75592 12.7233 7.75592 11.159 8.73223 10.1942ZM22.2678 34.9001C23.2441 35.8649 23.2441 37.4292 22.2678 38.394L12.2678 48.2764C11.2915 49.2412 9.70854 49.2412 8.73223 48.2764C7.75592 47.3116 7.75592 45.7473 8.73223 44.7824L18.7322 34.9001C19.7085 33.9353 21.2915 33.9353 22.2678 34.9001Z" fill="white"/>
</svg>
