<svg width="56" height="56" viewBox="0 0 56 56" fill="none" xmlns="http://www.w3.org/2000/svg">
<path d="M4.66684 49C4.00573 49 3.45117 48.776 3.00317 48.328C2.55517 47.88 2.33195 47.3262 2.3335 46.6667C2.3335 46.0056 2.5575 45.451 3.0055 45.003C3.4535 44.555 4.00728 44.3318 4.66684 44.3333H51.3335C51.9946 44.3333 52.5492 44.5573 52.9972 45.0053C53.4452 45.4533 53.6684 46.0071 53.6668 46.6667C53.6668 47.3278 53.4428 47.8823 52.9948 48.3303C52.5468 48.7783 51.9931 49.0016 51.3335 49H4.66684ZM9.3335 42C8.05017 42 6.95117 41.5427 6.0365 40.628C5.12184 39.7133 4.66528 38.6151 4.66684 37.3333V11.6667C4.66684 10.3833 5.12417 9.28434 6.03884 8.36967C6.9535 7.455 8.05173 6.99845 9.3335 7H46.6668C47.9502 7 49.0492 7.45734 49.9638 8.372C50.8785 9.28667 51.3351 10.3849 51.3335 11.6667V37.3333C51.3335 38.6167 50.8762 39.7157 49.9615 40.6303C49.0468 41.545 47.9486 42.0016 46.6668 42H9.3335ZM9.3335 37.3333H46.6668V11.6667H9.3335V37.3333Z" fill="white"/>
</svg>
