<svg width="56" height="56" viewBox="0 0 56 56" fill="none" xmlns="http://www.w3.org/2000/svg">
<path d="M4.33529 49C3.67418 49 3.11963 48.776 2.67163 48.328C2.22363 47.88 2.00041 47.3262 2.00196 46.6667C2.00196 46.0056 2.22596 45.451 2.67396 45.003C3.12196 44.555 3.67574 44.3318 4.33529 44.3333H51.002C51.6631 44.3333 52.2176 44.5573 52.6656 45.0053C53.1136 45.4533 53.3368 46.0071 53.3353 46.6667C53.3353 47.3278 53.1113 47.8823 52.6633 48.3303C52.2153 48.7783 51.6615 49.0016 51.002 49H4.33529ZM9.00196 42C7.71863 42 6.61963 41.5427 5.70496 40.628C4.79029 39.7133 4.33374 38.6151 4.33529 37.3333V11.6667C4.33529 10.3833 4.79263 9.28434 5.70729 8.36967C6.62196 7.455 7.72018 6.99845 9.00196 7H46.3353C47.6186 7 48.7176 7.45734 49.6323 8.372C50.547 9.28667 51.0035 10.3849 51.002 11.6667V37.3333C51.002 38.6167 50.5446 39.7157 49.63 40.6303C48.7153 41.545 47.6171 42.0016 46.3353 42H9.00196ZM9.00196 37.3333H46.3353V11.6667H9.00196V37.3333Z" fill="white"/>
</svg>
