<svg width="56" height="56" viewBox="0 0 56 56" fill="none" xmlns="http://www.w3.org/2000/svg">
<path fill-rule="evenodd" clip-rule="evenodd" d="M11.0294 11.0294C15.5303 6.52856 21.6348 4 28 4C34.3652 4 40.4697 6.52856 44.9706 11.0294C49.4714 15.5303 52 21.6348 52 28C52 31.1517 51.3792 34.2726 50.1731 37.1844C48.967 40.0962 47.1992 42.742 44.9706 44.9706C42.742 47.1992 40.0962 48.967 37.1844 50.1731C34.2726 51.3792 31.1517 52 28 52C24.8483 52 21.7274 51.3792 18.8156 50.1731C15.9038 48.967 13.258 47.1992 11.0294 44.9706C8.80083 42.742 7.033 40.0962 5.82689 37.1844C4.62078 34.2726 4 31.1517 4 28C4 21.6348 6.52856 15.5303 11.0294 11.0294ZM28 10C23.2261 10 18.6477 11.8964 15.2721 15.2721C11.8964 18.6477 10 23.2261 10 28C10 30.3638 10.4656 32.7044 11.3702 34.8883C12.2748 37.0722 13.6006 39.0565 15.2721 40.7279C16.9435 42.3994 18.9278 43.7252 21.1117 44.6298C23.2956 45.5344 25.6362 46 28 46C30.3638 46 32.7044 45.5344 34.8883 44.6298C37.0722 43.7253 39.0565 42.3994 40.7279 40.7279C42.3994 39.0565 43.7253 37.0722 44.6298 34.8883C45.5344 32.7044 46 30.3638 46 28C46 23.2261 44.1036 18.6477 40.7279 15.2721C37.3523 11.8964 32.7739 10 28 10Z" fill="white"/>
<path fill-rule="evenodd" clip-rule="evenodd" d="M28 13.332C29.6569 13.332 31 14.6752 31 16.332V26.7561L37.1213 32.8774C38.2929 34.049 38.2929 35.9484 37.1213 37.12C35.9497 38.2916 34.0503 38.2916 32.8787 37.12L25.8787 30.12C25.3161 29.5574 25 28.7943 25 27.9987V16.332C25 14.6752 26.3431 13.332 28 13.332Z" fill="white"/>
</svg>
