<svg width="24" height="25" viewBox="0 0 24 25" fill="none" xmlns="http://www.w3.org/2000/svg">
<path fill-rule="evenodd" clip-rule="evenodd" d="M3.85564 7.73274C3.87364 8.64354 3.37804 9.87474 2.73364 10.5179C2.13568 11.1165 1.7998 11.9279 1.7998 12.7739C1.7998 13.62 2.13568 14.4314 2.73364 15.0299C3.36964 15.6635 3.83764 16.7627 3.85564 17.6603C3.87244 18.4547 4.18324 19.2443 4.78924 19.8491C5.34833 20.4094 6.09626 20.741 6.88683 20.7791C7.83603 20.8271 9.07924 21.3791 9.75124 22.0511C10.3497 22.6487 11.1609 22.9844 12.0066 22.9844C12.8524 22.9844 13.6636 22.6487 14.262 22.0511C14.934 21.3791 16.1772 20.8271 17.1264 20.7791C17.917 20.741 18.6649 20.4094 19.224 19.8491C19.8069 19.2671 20.1412 18.4815 20.1564 17.6579C20.1744 16.7627 20.6364 15.6707 21.2712 15.0371C21.8715 14.4388 22.2094 13.6265 22.2108 12.779C22.2121 11.9315 21.8768 11.1182 21.2784 10.5179C20.6352 9.87594 20.1384 8.64354 20.1576 7.73394C20.1667 7.30448 20.0886 6.87764 19.9281 6.47918C19.7677 6.08071 19.5282 5.71889 19.224 5.41554C18.9088 5.09951 18.5306 4.85337 18.114 4.69314C17.6974 4.53291 17.2518 4.46218 16.806 4.48554C15.9492 4.52874 14.868 4.11354 14.262 3.50634C13.6635 2.90839 12.8521 2.57251 12.006 2.57251C11.16 2.57251 10.3486 2.90839 9.75004 3.50634C9.14524 4.11234 8.06284 4.52874 7.20604 4.48554C6.7605 4.46235 6.31506 4.53317 5.89868 4.69339C5.4823 4.85362 5.1043 5.09966 4.78924 5.41554C4.48525 5.71875 4.24581 6.08038 4.08536 6.47862C3.92491 6.87687 3.84676 7.30348 3.85564 7.73274ZM15.6492 8.72394C15.7871 8.80042 15.9085 8.90331 16.0065 9.02673C16.1046 9.15015 16.1774 9.29168 16.2207 9.44323C16.2641 9.59479 16.2772 9.7534 16.2592 9.91C16.2412 10.0666 16.1926 10.2181 16.116 10.3559L12.7944 16.3343C12.7084 16.4972 12.586 16.638 12.4368 16.7459C12.22 16.9028 11.957 16.9827 11.6895 16.9729C11.4221 16.9631 11.1656 16.8642 10.9608 16.6919L7.65004 14.0435C7.52696 13.9451 7.42449 13.8233 7.34847 13.6852C7.27246 13.5471 7.22439 13.3954 7.20701 13.2387C7.18962 13.082 7.20327 12.9235 7.24716 12.7721C7.29106 12.6207 7.36434 12.4794 7.46284 12.3563C7.56133 12.2333 7.68309 12.1308 7.82119 12.0548C7.95928 11.9788 8.11099 11.9307 8.26766 11.9133C8.42434 11.8959 8.5829 11.9096 8.73429 11.9535C8.88569 11.9974 9.02696 12.0706 9.15004 12.1691L11.3736 13.9487L14.0172 9.18954C14.0938 9.05181 14.1968 8.93051 14.3202 8.83256C14.4437 8.73462 14.5853 8.66196 14.7368 8.61873C14.8883 8.57549 15.0469 8.56253 15.2035 8.58058C15.36 8.59863 15.5115 8.64735 15.6492 8.72394Z" fill="#00B1B0"/>
</svg>
